%TF.GenerationSoftware,KiCad,Pcbnew,9.0.2*%
%TF.CreationDate,2025-08-04T17:32:57-07:00*%
%TF.ProjectId,AERoS,4145526f-532e-46b6-9963-61645f706362,rev?*%
%TF.SameCoordinates,Original*%
%TF.FileFunction,Legend,Bot*%
%TF.FilePolarity,Positive*%
%FSLAX46Y46*%
G04 Gerber Fmt 4.6, Leading zero omitted, Abs format (unit mm)*
G04 Created by KiCad (PCBNEW 9.0.2) date 2025-08-04 17:32:57*
%MOMM*%
%LPD*%
G01*
G04 APERTURE LIST*
%ADD10C,0.125000*%
%ADD11C,0.150000*%
%ADD12C,0.098425*%
%ADD13C,0.062500*%
%ADD14C,0.508000*%
%ADD15C,0.120000*%
%ADD16C,0.152400*%
%ADD17C,0.127000*%
%ADD18C,0.200000*%
%TA.AperFunction,Profile*%
%ADD19C,0.050000*%
%TD*%
G04 APERTURE END LIST*
D10*
X130891991Y-111152576D02*
X130891991Y-111186248D01*
X130891991Y-111186248D02*
X130925663Y-111253591D01*
X130925663Y-111253591D02*
X130959334Y-111287263D01*
X130959334Y-111287263D02*
X131026678Y-111320935D01*
X131026678Y-111320935D02*
X131094021Y-111320935D01*
X131094021Y-111320935D02*
X131144529Y-111304099D01*
X131144529Y-111304099D02*
X131228708Y-111253591D01*
X131228708Y-111253591D02*
X131279216Y-111203084D01*
X131279216Y-111203084D02*
X131329724Y-111118904D01*
X131329724Y-111118904D02*
X131346560Y-111068397D01*
X131346560Y-111068397D02*
X131346560Y-111001053D01*
X131346560Y-111001053D02*
X131312888Y-110933710D01*
X131312888Y-110933710D02*
X131279216Y-110900038D01*
X131279216Y-110900038D02*
X131211873Y-110866366D01*
X131211873Y-110866366D02*
X131178201Y-110866366D01*
X130521602Y-110849530D02*
X130723632Y-111051561D01*
X130622617Y-110950546D02*
X130976170Y-110596992D01*
X130976170Y-110596992D02*
X130959334Y-110681172D01*
X130959334Y-110681172D02*
X130959334Y-110748515D01*
X130959334Y-110748515D02*
X130976170Y-110799023D01*
X130656289Y-110277111D02*
X130622617Y-110243439D01*
X130622617Y-110243439D02*
X130572110Y-110226603D01*
X130572110Y-110226603D02*
X130538438Y-110226603D01*
X130538438Y-110226603D02*
X130487930Y-110243439D01*
X130487930Y-110243439D02*
X130403751Y-110293947D01*
X130403751Y-110293947D02*
X130319571Y-110378126D01*
X130319571Y-110378126D02*
X130269064Y-110462306D01*
X130269064Y-110462306D02*
X130252228Y-110512813D01*
X130252228Y-110512813D02*
X130252228Y-110546485D01*
X130252228Y-110546485D02*
X130269064Y-110596993D01*
X130269064Y-110596993D02*
X130302736Y-110630664D01*
X130302736Y-110630664D02*
X130353243Y-110647500D01*
X130353243Y-110647500D02*
X130386915Y-110647500D01*
X130386915Y-110647500D02*
X130437423Y-110630664D01*
X130437423Y-110630664D02*
X130521602Y-110580157D01*
X130521602Y-110580157D02*
X130605781Y-110495977D01*
X130605781Y-110495977D02*
X130656289Y-110411798D01*
X130656289Y-110411798D02*
X130673125Y-110361290D01*
X130673125Y-110361290D02*
X130673125Y-110327618D01*
X130673125Y-110327618D02*
X130656289Y-110277111D01*
D11*
X151754633Y-126751539D02*
X151849871Y-126703920D01*
X151849871Y-126703920D02*
X151945109Y-126608682D01*
X151945109Y-126608682D02*
X152087966Y-126465824D01*
X152087966Y-126465824D02*
X152183204Y-126418205D01*
X152183204Y-126418205D02*
X152278442Y-126418205D01*
X152230823Y-126656301D02*
X152326061Y-126608682D01*
X152326061Y-126608682D02*
X152421299Y-126513443D01*
X152421299Y-126513443D02*
X152468918Y-126322967D01*
X152468918Y-126322967D02*
X152468918Y-125989634D01*
X152468918Y-125989634D02*
X152421299Y-125799158D01*
X152421299Y-125799158D02*
X152326061Y-125703920D01*
X152326061Y-125703920D02*
X152230823Y-125656301D01*
X152230823Y-125656301D02*
X152040347Y-125656301D01*
X152040347Y-125656301D02*
X151945109Y-125703920D01*
X151945109Y-125703920D02*
X151849871Y-125799158D01*
X151849871Y-125799158D02*
X151802252Y-125989634D01*
X151802252Y-125989634D02*
X151802252Y-126322967D01*
X151802252Y-126322967D02*
X151849871Y-126513443D01*
X151849871Y-126513443D02*
X151945109Y-126608682D01*
X151945109Y-126608682D02*
X152040347Y-126656301D01*
X152040347Y-126656301D02*
X152230823Y-126656301D01*
X150849871Y-126656301D02*
X151421299Y-126656301D01*
X151135585Y-126656301D02*
X151135585Y-125656301D01*
X151135585Y-125656301D02*
X151230823Y-125799158D01*
X151230823Y-125799158D02*
X151326061Y-125894396D01*
X151326061Y-125894396D02*
X151421299Y-125942015D01*
X135466292Y-107901605D02*
X135499964Y-107800590D01*
X135499964Y-107800590D02*
X135499964Y-107665903D01*
X135499964Y-107665903D02*
X135499964Y-107463872D01*
X135499964Y-107463872D02*
X135533636Y-107362857D01*
X135533636Y-107362857D02*
X135600979Y-107295514D01*
X135735666Y-107497544D02*
X135769338Y-107396529D01*
X135769338Y-107396529D02*
X135769338Y-107261842D01*
X135769338Y-107261842D02*
X135668323Y-107093483D01*
X135668323Y-107093483D02*
X135432620Y-106857781D01*
X135432620Y-106857781D02*
X135264262Y-106756766D01*
X135264262Y-106756766D02*
X135129575Y-106756766D01*
X135129575Y-106756766D02*
X135028559Y-106790437D01*
X135028559Y-106790437D02*
X134893872Y-106925124D01*
X134893872Y-106925124D02*
X134860201Y-107026140D01*
X134860201Y-107026140D02*
X134860201Y-107160827D01*
X134860201Y-107160827D02*
X134961216Y-107329185D01*
X134961216Y-107329185D02*
X135196918Y-107564888D01*
X135196918Y-107564888D02*
X135365277Y-107665903D01*
X135365277Y-107665903D02*
X135499964Y-107665903D01*
X135499964Y-107665903D02*
X135600979Y-107632231D01*
X135600979Y-107632231D02*
X135735666Y-107497544D01*
X134085750Y-107733246D02*
X134422468Y-107396529D01*
X134422468Y-107396529D02*
X134792857Y-107699575D01*
X134792857Y-107699575D02*
X134725514Y-107699575D01*
X134725514Y-107699575D02*
X134624498Y-107733246D01*
X134624498Y-107733246D02*
X134456140Y-107901605D01*
X134456140Y-107901605D02*
X134422468Y-108002620D01*
X134422468Y-108002620D02*
X134422468Y-108069964D01*
X134422468Y-108069964D02*
X134456140Y-108170979D01*
X134456140Y-108170979D02*
X134624498Y-108339338D01*
X134624498Y-108339338D02*
X134725514Y-108373010D01*
X134725514Y-108373010D02*
X134792857Y-108373010D01*
X134792857Y-108373010D02*
X134893872Y-108339338D01*
X134893872Y-108339338D02*
X135062231Y-108170979D01*
X135062231Y-108170979D02*
X135095903Y-108069964D01*
X135095903Y-108069964D02*
X135095903Y-108002620D01*
X153779819Y-94288095D02*
X154589342Y-94288095D01*
X154589342Y-94288095D02*
X154684580Y-94335714D01*
X154684580Y-94335714D02*
X154732200Y-94383333D01*
X154732200Y-94383333D02*
X154779819Y-94478571D01*
X154779819Y-94478571D02*
X154779819Y-94669047D01*
X154779819Y-94669047D02*
X154732200Y-94764285D01*
X154732200Y-94764285D02*
X154684580Y-94811904D01*
X154684580Y-94811904D02*
X154589342Y-94859523D01*
X154589342Y-94859523D02*
X153779819Y-94859523D01*
X153779819Y-95811904D02*
X153779819Y-95335714D01*
X153779819Y-95335714D02*
X154256009Y-95288095D01*
X154256009Y-95288095D02*
X154208390Y-95335714D01*
X154208390Y-95335714D02*
X154160771Y-95430952D01*
X154160771Y-95430952D02*
X154160771Y-95669047D01*
X154160771Y-95669047D02*
X154208390Y-95764285D01*
X154208390Y-95764285D02*
X154256009Y-95811904D01*
X154256009Y-95811904D02*
X154351247Y-95859523D01*
X154351247Y-95859523D02*
X154589342Y-95859523D01*
X154589342Y-95859523D02*
X154684580Y-95811904D01*
X154684580Y-95811904D02*
X154732200Y-95764285D01*
X154732200Y-95764285D02*
X154779819Y-95669047D01*
X154779819Y-95669047D02*
X154779819Y-95430952D01*
X154779819Y-95430952D02*
X154732200Y-95335714D01*
X154732200Y-95335714D02*
X154684580Y-95288095D01*
X157513333Y-115251009D02*
X157846666Y-115251009D01*
X157846666Y-115774819D02*
X157846666Y-114774819D01*
X157846666Y-114774819D02*
X157370476Y-114774819D01*
X156465714Y-115774819D02*
X157037142Y-115774819D01*
X156751428Y-115774819D02*
X156751428Y-114774819D01*
X156751428Y-114774819D02*
X156846666Y-114917676D01*
X156846666Y-114917676D02*
X156941904Y-115012914D01*
X156941904Y-115012914D02*
X157037142Y-115060533D01*
X167169580Y-117883333D02*
X167217200Y-117835714D01*
X167217200Y-117835714D02*
X167264819Y-117692857D01*
X167264819Y-117692857D02*
X167264819Y-117597619D01*
X167264819Y-117597619D02*
X167217200Y-117454762D01*
X167217200Y-117454762D02*
X167121961Y-117359524D01*
X167121961Y-117359524D02*
X167026723Y-117311905D01*
X167026723Y-117311905D02*
X166836247Y-117264286D01*
X166836247Y-117264286D02*
X166693390Y-117264286D01*
X166693390Y-117264286D02*
X166502914Y-117311905D01*
X166502914Y-117311905D02*
X166407676Y-117359524D01*
X166407676Y-117359524D02*
X166312438Y-117454762D01*
X166312438Y-117454762D02*
X166264819Y-117597619D01*
X166264819Y-117597619D02*
X166264819Y-117692857D01*
X166264819Y-117692857D02*
X166312438Y-117835714D01*
X166312438Y-117835714D02*
X166360057Y-117883333D01*
X166360057Y-118264286D02*
X166312438Y-118311905D01*
X166312438Y-118311905D02*
X166264819Y-118407143D01*
X166264819Y-118407143D02*
X166264819Y-118645238D01*
X166264819Y-118645238D02*
X166312438Y-118740476D01*
X166312438Y-118740476D02*
X166360057Y-118788095D01*
X166360057Y-118788095D02*
X166455295Y-118835714D01*
X166455295Y-118835714D02*
X166550533Y-118835714D01*
X166550533Y-118835714D02*
X166693390Y-118788095D01*
X166693390Y-118788095D02*
X167264819Y-118216667D01*
X167264819Y-118216667D02*
X167264819Y-118835714D01*
X146472857Y-124724819D02*
X146806190Y-124248628D01*
X147044285Y-124724819D02*
X147044285Y-123724819D01*
X147044285Y-123724819D02*
X146663333Y-123724819D01*
X146663333Y-123724819D02*
X146568095Y-123772438D01*
X146568095Y-123772438D02*
X146520476Y-123820057D01*
X146520476Y-123820057D02*
X146472857Y-123915295D01*
X146472857Y-123915295D02*
X146472857Y-124058152D01*
X146472857Y-124058152D02*
X146520476Y-124153390D01*
X146520476Y-124153390D02*
X146568095Y-124201009D01*
X146568095Y-124201009D02*
X146663333Y-124248628D01*
X146663333Y-124248628D02*
X147044285Y-124248628D01*
X145520476Y-124724819D02*
X146091904Y-124724819D01*
X145806190Y-124724819D02*
X145806190Y-123724819D01*
X145806190Y-123724819D02*
X145901428Y-123867676D01*
X145901428Y-123867676D02*
X145996666Y-123962914D01*
X145996666Y-123962914D02*
X146091904Y-124010533D01*
X144901428Y-123724819D02*
X144806190Y-123724819D01*
X144806190Y-123724819D02*
X144710952Y-123772438D01*
X144710952Y-123772438D02*
X144663333Y-123820057D01*
X144663333Y-123820057D02*
X144615714Y-123915295D01*
X144615714Y-123915295D02*
X144568095Y-124105771D01*
X144568095Y-124105771D02*
X144568095Y-124343866D01*
X144568095Y-124343866D02*
X144615714Y-124534342D01*
X144615714Y-124534342D02*
X144663333Y-124629580D01*
X144663333Y-124629580D02*
X144710952Y-124677200D01*
X144710952Y-124677200D02*
X144806190Y-124724819D01*
X144806190Y-124724819D02*
X144901428Y-124724819D01*
X144901428Y-124724819D02*
X144996666Y-124677200D01*
X144996666Y-124677200D02*
X145044285Y-124629580D01*
X145044285Y-124629580D02*
X145091904Y-124534342D01*
X145091904Y-124534342D02*
X145139523Y-124343866D01*
X145139523Y-124343866D02*
X145139523Y-124105771D01*
X145139523Y-124105771D02*
X145091904Y-123915295D01*
X145091904Y-123915295D02*
X145044285Y-123820057D01*
X145044285Y-123820057D02*
X144996666Y-123772438D01*
X144996666Y-123772438D02*
X144901428Y-123724819D01*
X133377890Y-90898043D02*
X133445234Y-90898043D01*
X133445234Y-90898043D02*
X133579921Y-90830699D01*
X133579921Y-90830699D02*
X133647264Y-90763356D01*
X133647264Y-90763356D02*
X133714608Y-90628669D01*
X133714608Y-90628669D02*
X133714608Y-90493982D01*
X133714608Y-90493982D02*
X133680936Y-90392967D01*
X133680936Y-90392967D02*
X133579921Y-90224608D01*
X133579921Y-90224608D02*
X133478906Y-90123593D01*
X133478906Y-90123593D02*
X133310547Y-90022577D01*
X133310547Y-90022577D02*
X133209532Y-89988906D01*
X133209532Y-89988906D02*
X133074845Y-89988906D01*
X133074845Y-89988906D02*
X132940158Y-90056249D01*
X132940158Y-90056249D02*
X132872814Y-90123593D01*
X132872814Y-90123593D02*
X132805471Y-90258280D01*
X132805471Y-90258280D02*
X132805471Y-90325623D01*
X132771799Y-91638821D02*
X133175860Y-91234760D01*
X132973829Y-91436791D02*
X132266723Y-90729684D01*
X132266723Y-90729684D02*
X132435081Y-90763356D01*
X132435081Y-90763356D02*
X132569768Y-90763356D01*
X132569768Y-90763356D02*
X132670784Y-90729684D01*
X132098364Y-92312257D02*
X132502425Y-91908196D01*
X132300394Y-92110226D02*
X131593287Y-91403119D01*
X131593287Y-91403119D02*
X131761646Y-91436791D01*
X131761646Y-91436791D02*
X131896333Y-91436791D01*
X131896333Y-91436791D02*
X131997348Y-91403119D01*
X148972857Y-110404819D02*
X149306190Y-109928628D01*
X149544285Y-110404819D02*
X149544285Y-109404819D01*
X149544285Y-109404819D02*
X149163333Y-109404819D01*
X149163333Y-109404819D02*
X149068095Y-109452438D01*
X149068095Y-109452438D02*
X149020476Y-109500057D01*
X149020476Y-109500057D02*
X148972857Y-109595295D01*
X148972857Y-109595295D02*
X148972857Y-109738152D01*
X148972857Y-109738152D02*
X149020476Y-109833390D01*
X149020476Y-109833390D02*
X149068095Y-109881009D01*
X149068095Y-109881009D02*
X149163333Y-109928628D01*
X149163333Y-109928628D02*
X149544285Y-109928628D01*
X148639523Y-109404819D02*
X148020476Y-109404819D01*
X148020476Y-109404819D02*
X148353809Y-109785771D01*
X148353809Y-109785771D02*
X148210952Y-109785771D01*
X148210952Y-109785771D02*
X148115714Y-109833390D01*
X148115714Y-109833390D02*
X148068095Y-109881009D01*
X148068095Y-109881009D02*
X148020476Y-109976247D01*
X148020476Y-109976247D02*
X148020476Y-110214342D01*
X148020476Y-110214342D02*
X148068095Y-110309580D01*
X148068095Y-110309580D02*
X148115714Y-110357200D01*
X148115714Y-110357200D02*
X148210952Y-110404819D01*
X148210952Y-110404819D02*
X148496666Y-110404819D01*
X148496666Y-110404819D02*
X148591904Y-110357200D01*
X148591904Y-110357200D02*
X148639523Y-110309580D01*
X147401428Y-109404819D02*
X147306190Y-109404819D01*
X147306190Y-109404819D02*
X147210952Y-109452438D01*
X147210952Y-109452438D02*
X147163333Y-109500057D01*
X147163333Y-109500057D02*
X147115714Y-109595295D01*
X147115714Y-109595295D02*
X147068095Y-109785771D01*
X147068095Y-109785771D02*
X147068095Y-110023866D01*
X147068095Y-110023866D02*
X147115714Y-110214342D01*
X147115714Y-110214342D02*
X147163333Y-110309580D01*
X147163333Y-110309580D02*
X147210952Y-110357200D01*
X147210952Y-110357200D02*
X147306190Y-110404819D01*
X147306190Y-110404819D02*
X147401428Y-110404819D01*
X147401428Y-110404819D02*
X147496666Y-110357200D01*
X147496666Y-110357200D02*
X147544285Y-110309580D01*
X147544285Y-110309580D02*
X147591904Y-110214342D01*
X147591904Y-110214342D02*
X147639523Y-110023866D01*
X147639523Y-110023866D02*
X147639523Y-109785771D01*
X147639523Y-109785771D02*
X147591904Y-109595295D01*
X147591904Y-109595295D02*
X147544285Y-109500057D01*
X147544285Y-109500057D02*
X147496666Y-109452438D01*
X147496666Y-109452438D02*
X147401428Y-109404819D01*
X130125201Y-94080019D02*
X130192545Y-94080019D01*
X130192545Y-94080019D02*
X130327232Y-94012675D01*
X130327232Y-94012675D02*
X130394575Y-93945332D01*
X130394575Y-93945332D02*
X130461919Y-93810645D01*
X130461919Y-93810645D02*
X130461919Y-93675958D01*
X130461919Y-93675958D02*
X130428247Y-93574943D01*
X130428247Y-93574943D02*
X130327232Y-93406584D01*
X130327232Y-93406584D02*
X130226217Y-93305569D01*
X130226217Y-93305569D02*
X130057858Y-93204553D01*
X130057858Y-93204553D02*
X129956843Y-93170882D01*
X129956843Y-93170882D02*
X129822156Y-93170882D01*
X129822156Y-93170882D02*
X129687469Y-93238225D01*
X129687469Y-93238225D02*
X129620125Y-93305569D01*
X129620125Y-93305569D02*
X129552782Y-93440256D01*
X129552782Y-93440256D02*
X129552782Y-93507599D01*
X129519110Y-94820797D02*
X129923171Y-94416736D01*
X129721140Y-94618767D02*
X129014034Y-93911660D01*
X129014034Y-93911660D02*
X129182392Y-93945332D01*
X129182392Y-93945332D02*
X129317079Y-93945332D01*
X129317079Y-93945332D02*
X129418095Y-93911660D01*
X128172240Y-94753454D02*
X128508957Y-94416736D01*
X128508957Y-94416736D02*
X128879346Y-94719782D01*
X128879346Y-94719782D02*
X128812003Y-94719782D01*
X128812003Y-94719782D02*
X128710988Y-94753454D01*
X128710988Y-94753454D02*
X128542629Y-94921813D01*
X128542629Y-94921813D02*
X128508957Y-95022828D01*
X128508957Y-95022828D02*
X128508957Y-95090172D01*
X128508957Y-95090172D02*
X128542629Y-95191187D01*
X128542629Y-95191187D02*
X128710988Y-95359546D01*
X128710988Y-95359546D02*
X128812003Y-95393217D01*
X128812003Y-95393217D02*
X128879346Y-95393217D01*
X128879346Y-95393217D02*
X128980362Y-95359546D01*
X128980362Y-95359546D02*
X129148720Y-95191187D01*
X129148720Y-95191187D02*
X129182392Y-95090172D01*
X129182392Y-95090172D02*
X129182392Y-95022828D01*
X128842857Y-118394819D02*
X129176190Y-117918628D01*
X129414285Y-118394819D02*
X129414285Y-117394819D01*
X129414285Y-117394819D02*
X129033333Y-117394819D01*
X129033333Y-117394819D02*
X128938095Y-117442438D01*
X128938095Y-117442438D02*
X128890476Y-117490057D01*
X128890476Y-117490057D02*
X128842857Y-117585295D01*
X128842857Y-117585295D02*
X128842857Y-117728152D01*
X128842857Y-117728152D02*
X128890476Y-117823390D01*
X128890476Y-117823390D02*
X128938095Y-117871009D01*
X128938095Y-117871009D02*
X129033333Y-117918628D01*
X129033333Y-117918628D02*
X129414285Y-117918628D01*
X127890476Y-118394819D02*
X128461904Y-118394819D01*
X128176190Y-118394819D02*
X128176190Y-117394819D01*
X128176190Y-117394819D02*
X128271428Y-117537676D01*
X128271428Y-117537676D02*
X128366666Y-117632914D01*
X128366666Y-117632914D02*
X128461904Y-117680533D01*
X127319047Y-117823390D02*
X127414285Y-117775771D01*
X127414285Y-117775771D02*
X127461904Y-117728152D01*
X127461904Y-117728152D02*
X127509523Y-117632914D01*
X127509523Y-117632914D02*
X127509523Y-117585295D01*
X127509523Y-117585295D02*
X127461904Y-117490057D01*
X127461904Y-117490057D02*
X127414285Y-117442438D01*
X127414285Y-117442438D02*
X127319047Y-117394819D01*
X127319047Y-117394819D02*
X127128571Y-117394819D01*
X127128571Y-117394819D02*
X127033333Y-117442438D01*
X127033333Y-117442438D02*
X126985714Y-117490057D01*
X126985714Y-117490057D02*
X126938095Y-117585295D01*
X126938095Y-117585295D02*
X126938095Y-117632914D01*
X126938095Y-117632914D02*
X126985714Y-117728152D01*
X126985714Y-117728152D02*
X127033333Y-117775771D01*
X127033333Y-117775771D02*
X127128571Y-117823390D01*
X127128571Y-117823390D02*
X127319047Y-117823390D01*
X127319047Y-117823390D02*
X127414285Y-117871009D01*
X127414285Y-117871009D02*
X127461904Y-117918628D01*
X127461904Y-117918628D02*
X127509523Y-118013866D01*
X127509523Y-118013866D02*
X127509523Y-118204342D01*
X127509523Y-118204342D02*
X127461904Y-118299580D01*
X127461904Y-118299580D02*
X127414285Y-118347200D01*
X127414285Y-118347200D02*
X127319047Y-118394819D01*
X127319047Y-118394819D02*
X127128571Y-118394819D01*
X127128571Y-118394819D02*
X127033333Y-118347200D01*
X127033333Y-118347200D02*
X126985714Y-118299580D01*
X126985714Y-118299580D02*
X126938095Y-118204342D01*
X126938095Y-118204342D02*
X126938095Y-118013866D01*
X126938095Y-118013866D02*
X126985714Y-117918628D01*
X126985714Y-117918628D02*
X127033333Y-117871009D01*
X127033333Y-117871009D02*
X127128571Y-117823390D01*
X138566666Y-119824819D02*
X138899999Y-119348628D01*
X139138094Y-119824819D02*
X139138094Y-118824819D01*
X139138094Y-118824819D02*
X138757142Y-118824819D01*
X138757142Y-118824819D02*
X138661904Y-118872438D01*
X138661904Y-118872438D02*
X138614285Y-118920057D01*
X138614285Y-118920057D02*
X138566666Y-119015295D01*
X138566666Y-119015295D02*
X138566666Y-119158152D01*
X138566666Y-119158152D02*
X138614285Y-119253390D01*
X138614285Y-119253390D02*
X138661904Y-119301009D01*
X138661904Y-119301009D02*
X138757142Y-119348628D01*
X138757142Y-119348628D02*
X139138094Y-119348628D01*
X137709523Y-118824819D02*
X137899999Y-118824819D01*
X137899999Y-118824819D02*
X137995237Y-118872438D01*
X137995237Y-118872438D02*
X138042856Y-118920057D01*
X138042856Y-118920057D02*
X138138094Y-119062914D01*
X138138094Y-119062914D02*
X138185713Y-119253390D01*
X138185713Y-119253390D02*
X138185713Y-119634342D01*
X138185713Y-119634342D02*
X138138094Y-119729580D01*
X138138094Y-119729580D02*
X138090475Y-119777200D01*
X138090475Y-119777200D02*
X137995237Y-119824819D01*
X137995237Y-119824819D02*
X137804761Y-119824819D01*
X137804761Y-119824819D02*
X137709523Y-119777200D01*
X137709523Y-119777200D02*
X137661904Y-119729580D01*
X137661904Y-119729580D02*
X137614285Y-119634342D01*
X137614285Y-119634342D02*
X137614285Y-119396247D01*
X137614285Y-119396247D02*
X137661904Y-119301009D01*
X137661904Y-119301009D02*
X137709523Y-119253390D01*
X137709523Y-119253390D02*
X137804761Y-119205771D01*
X137804761Y-119205771D02*
X137995237Y-119205771D01*
X137995237Y-119205771D02*
X138090475Y-119253390D01*
X138090475Y-119253390D02*
X138138094Y-119301009D01*
X138138094Y-119301009D02*
X138185713Y-119396247D01*
X149906666Y-117869580D02*
X149954285Y-117917200D01*
X149954285Y-117917200D02*
X150097142Y-117964819D01*
X150097142Y-117964819D02*
X150192380Y-117964819D01*
X150192380Y-117964819D02*
X150335237Y-117917200D01*
X150335237Y-117917200D02*
X150430475Y-117821961D01*
X150430475Y-117821961D02*
X150478094Y-117726723D01*
X150478094Y-117726723D02*
X150525713Y-117536247D01*
X150525713Y-117536247D02*
X150525713Y-117393390D01*
X150525713Y-117393390D02*
X150478094Y-117202914D01*
X150478094Y-117202914D02*
X150430475Y-117107676D01*
X150430475Y-117107676D02*
X150335237Y-117012438D01*
X150335237Y-117012438D02*
X150192380Y-116964819D01*
X150192380Y-116964819D02*
X150097142Y-116964819D01*
X150097142Y-116964819D02*
X149954285Y-117012438D01*
X149954285Y-117012438D02*
X149906666Y-117060057D01*
X149049523Y-117298152D02*
X149049523Y-117964819D01*
X149287618Y-116917200D02*
X149525713Y-117631485D01*
X149525713Y-117631485D02*
X148906666Y-117631485D01*
X162982857Y-96559580D02*
X163030476Y-96607200D01*
X163030476Y-96607200D02*
X163173333Y-96654819D01*
X163173333Y-96654819D02*
X163268571Y-96654819D01*
X163268571Y-96654819D02*
X163411428Y-96607200D01*
X163411428Y-96607200D02*
X163506666Y-96511961D01*
X163506666Y-96511961D02*
X163554285Y-96416723D01*
X163554285Y-96416723D02*
X163601904Y-96226247D01*
X163601904Y-96226247D02*
X163601904Y-96083390D01*
X163601904Y-96083390D02*
X163554285Y-95892914D01*
X163554285Y-95892914D02*
X163506666Y-95797676D01*
X163506666Y-95797676D02*
X163411428Y-95702438D01*
X163411428Y-95702438D02*
X163268571Y-95654819D01*
X163268571Y-95654819D02*
X163173333Y-95654819D01*
X163173333Y-95654819D02*
X163030476Y-95702438D01*
X163030476Y-95702438D02*
X162982857Y-95750057D01*
X162030476Y-96654819D02*
X162601904Y-96654819D01*
X162316190Y-96654819D02*
X162316190Y-95654819D01*
X162316190Y-95654819D02*
X162411428Y-95797676D01*
X162411428Y-95797676D02*
X162506666Y-95892914D01*
X162506666Y-95892914D02*
X162601904Y-95940533D01*
X161554285Y-96654819D02*
X161363809Y-96654819D01*
X161363809Y-96654819D02*
X161268571Y-96607200D01*
X161268571Y-96607200D02*
X161220952Y-96559580D01*
X161220952Y-96559580D02*
X161125714Y-96416723D01*
X161125714Y-96416723D02*
X161078095Y-96226247D01*
X161078095Y-96226247D02*
X161078095Y-95845295D01*
X161078095Y-95845295D02*
X161125714Y-95750057D01*
X161125714Y-95750057D02*
X161173333Y-95702438D01*
X161173333Y-95702438D02*
X161268571Y-95654819D01*
X161268571Y-95654819D02*
X161459047Y-95654819D01*
X161459047Y-95654819D02*
X161554285Y-95702438D01*
X161554285Y-95702438D02*
X161601904Y-95750057D01*
X161601904Y-95750057D02*
X161649523Y-95845295D01*
X161649523Y-95845295D02*
X161649523Y-96083390D01*
X161649523Y-96083390D02*
X161601904Y-96178628D01*
X161601904Y-96178628D02*
X161554285Y-96226247D01*
X161554285Y-96226247D02*
X161459047Y-96273866D01*
X161459047Y-96273866D02*
X161268571Y-96273866D01*
X161268571Y-96273866D02*
X161173333Y-96226247D01*
X161173333Y-96226247D02*
X161125714Y-96178628D01*
X161125714Y-96178628D02*
X161078095Y-96083390D01*
X143772857Y-106894819D02*
X144106190Y-106418628D01*
X144344285Y-106894819D02*
X144344285Y-105894819D01*
X144344285Y-105894819D02*
X143963333Y-105894819D01*
X143963333Y-105894819D02*
X143868095Y-105942438D01*
X143868095Y-105942438D02*
X143820476Y-105990057D01*
X143820476Y-105990057D02*
X143772857Y-106085295D01*
X143772857Y-106085295D02*
X143772857Y-106228152D01*
X143772857Y-106228152D02*
X143820476Y-106323390D01*
X143820476Y-106323390D02*
X143868095Y-106371009D01*
X143868095Y-106371009D02*
X143963333Y-106418628D01*
X143963333Y-106418628D02*
X144344285Y-106418628D01*
X143391904Y-105990057D02*
X143344285Y-105942438D01*
X143344285Y-105942438D02*
X143249047Y-105894819D01*
X143249047Y-105894819D02*
X143010952Y-105894819D01*
X143010952Y-105894819D02*
X142915714Y-105942438D01*
X142915714Y-105942438D02*
X142868095Y-105990057D01*
X142868095Y-105990057D02*
X142820476Y-106085295D01*
X142820476Y-106085295D02*
X142820476Y-106180533D01*
X142820476Y-106180533D02*
X142868095Y-106323390D01*
X142868095Y-106323390D02*
X143439523Y-106894819D01*
X143439523Y-106894819D02*
X142820476Y-106894819D01*
X142344285Y-106894819D02*
X142153809Y-106894819D01*
X142153809Y-106894819D02*
X142058571Y-106847200D01*
X142058571Y-106847200D02*
X142010952Y-106799580D01*
X142010952Y-106799580D02*
X141915714Y-106656723D01*
X141915714Y-106656723D02*
X141868095Y-106466247D01*
X141868095Y-106466247D02*
X141868095Y-106085295D01*
X141868095Y-106085295D02*
X141915714Y-105990057D01*
X141915714Y-105990057D02*
X141963333Y-105942438D01*
X141963333Y-105942438D02*
X142058571Y-105894819D01*
X142058571Y-105894819D02*
X142249047Y-105894819D01*
X142249047Y-105894819D02*
X142344285Y-105942438D01*
X142344285Y-105942438D02*
X142391904Y-105990057D01*
X142391904Y-105990057D02*
X142439523Y-106085295D01*
X142439523Y-106085295D02*
X142439523Y-106323390D01*
X142439523Y-106323390D02*
X142391904Y-106418628D01*
X142391904Y-106418628D02*
X142344285Y-106466247D01*
X142344285Y-106466247D02*
X142249047Y-106513866D01*
X142249047Y-106513866D02*
X142058571Y-106513866D01*
X142058571Y-106513866D02*
X141963333Y-106466247D01*
X141963333Y-106466247D02*
X141915714Y-106418628D01*
X141915714Y-106418628D02*
X141868095Y-106323390D01*
X161405617Y-117138772D02*
X161738950Y-116662581D01*
X161977045Y-117138772D02*
X161977045Y-116138772D01*
X161977045Y-116138772D02*
X161596093Y-116138772D01*
X161596093Y-116138772D02*
X161500855Y-116186391D01*
X161500855Y-116186391D02*
X161453236Y-116234010D01*
X161453236Y-116234010D02*
X161405617Y-116329248D01*
X161405617Y-116329248D02*
X161405617Y-116472105D01*
X161405617Y-116472105D02*
X161453236Y-116567343D01*
X161453236Y-116567343D02*
X161500855Y-116614962D01*
X161500855Y-116614962D02*
X161596093Y-116662581D01*
X161596093Y-116662581D02*
X161977045Y-116662581D01*
X160453236Y-117138772D02*
X161024664Y-117138772D01*
X160738950Y-117138772D02*
X160738950Y-116138772D01*
X160738950Y-116138772D02*
X160834188Y-116281629D01*
X160834188Y-116281629D02*
X160929426Y-116376867D01*
X160929426Y-116376867D02*
X161024664Y-116424486D01*
X125981904Y-106204819D02*
X125981904Y-107014342D01*
X125981904Y-107014342D02*
X125934285Y-107109580D01*
X125934285Y-107109580D02*
X125886666Y-107157200D01*
X125886666Y-107157200D02*
X125791428Y-107204819D01*
X125791428Y-107204819D02*
X125600952Y-107204819D01*
X125600952Y-107204819D02*
X125505714Y-107157200D01*
X125505714Y-107157200D02*
X125458095Y-107109580D01*
X125458095Y-107109580D02*
X125410476Y-107014342D01*
X125410476Y-107014342D02*
X125410476Y-106204819D01*
X124505714Y-106538152D02*
X124505714Y-107204819D01*
X124743809Y-106157200D02*
X124981904Y-106871485D01*
X124981904Y-106871485D02*
X124362857Y-106871485D01*
X125422857Y-115904819D02*
X125756190Y-115428628D01*
X125994285Y-115904819D02*
X125994285Y-114904819D01*
X125994285Y-114904819D02*
X125613333Y-114904819D01*
X125613333Y-114904819D02*
X125518095Y-114952438D01*
X125518095Y-114952438D02*
X125470476Y-115000057D01*
X125470476Y-115000057D02*
X125422857Y-115095295D01*
X125422857Y-115095295D02*
X125422857Y-115238152D01*
X125422857Y-115238152D02*
X125470476Y-115333390D01*
X125470476Y-115333390D02*
X125518095Y-115381009D01*
X125518095Y-115381009D02*
X125613333Y-115428628D01*
X125613333Y-115428628D02*
X125994285Y-115428628D01*
X125041904Y-115000057D02*
X124994285Y-114952438D01*
X124994285Y-114952438D02*
X124899047Y-114904819D01*
X124899047Y-114904819D02*
X124660952Y-114904819D01*
X124660952Y-114904819D02*
X124565714Y-114952438D01*
X124565714Y-114952438D02*
X124518095Y-115000057D01*
X124518095Y-115000057D02*
X124470476Y-115095295D01*
X124470476Y-115095295D02*
X124470476Y-115190533D01*
X124470476Y-115190533D02*
X124518095Y-115333390D01*
X124518095Y-115333390D02*
X125089523Y-115904819D01*
X125089523Y-115904819D02*
X124470476Y-115904819D01*
X123851428Y-114904819D02*
X123756190Y-114904819D01*
X123756190Y-114904819D02*
X123660952Y-114952438D01*
X123660952Y-114952438D02*
X123613333Y-115000057D01*
X123613333Y-115000057D02*
X123565714Y-115095295D01*
X123565714Y-115095295D02*
X123518095Y-115285771D01*
X123518095Y-115285771D02*
X123518095Y-115523866D01*
X123518095Y-115523866D02*
X123565714Y-115714342D01*
X123565714Y-115714342D02*
X123613333Y-115809580D01*
X123613333Y-115809580D02*
X123660952Y-115857200D01*
X123660952Y-115857200D02*
X123756190Y-115904819D01*
X123756190Y-115904819D02*
X123851428Y-115904819D01*
X123851428Y-115904819D02*
X123946666Y-115857200D01*
X123946666Y-115857200D02*
X123994285Y-115809580D01*
X123994285Y-115809580D02*
X124041904Y-115714342D01*
X124041904Y-115714342D02*
X124089523Y-115523866D01*
X124089523Y-115523866D02*
X124089523Y-115285771D01*
X124089523Y-115285771D02*
X124041904Y-115095295D01*
X124041904Y-115095295D02*
X123994285Y-115000057D01*
X123994285Y-115000057D02*
X123946666Y-114952438D01*
X123946666Y-114952438D02*
X123851428Y-114904819D01*
X147726666Y-115259580D02*
X147774285Y-115307200D01*
X147774285Y-115307200D02*
X147917142Y-115354819D01*
X147917142Y-115354819D02*
X148012380Y-115354819D01*
X148012380Y-115354819D02*
X148155237Y-115307200D01*
X148155237Y-115307200D02*
X148250475Y-115211961D01*
X148250475Y-115211961D02*
X148298094Y-115116723D01*
X148298094Y-115116723D02*
X148345713Y-114926247D01*
X148345713Y-114926247D02*
X148345713Y-114783390D01*
X148345713Y-114783390D02*
X148298094Y-114592914D01*
X148298094Y-114592914D02*
X148250475Y-114497676D01*
X148250475Y-114497676D02*
X148155237Y-114402438D01*
X148155237Y-114402438D02*
X148012380Y-114354819D01*
X148012380Y-114354819D02*
X147917142Y-114354819D01*
X147917142Y-114354819D02*
X147774285Y-114402438D01*
X147774285Y-114402438D02*
X147726666Y-114450057D01*
X146869523Y-114354819D02*
X147059999Y-114354819D01*
X147059999Y-114354819D02*
X147155237Y-114402438D01*
X147155237Y-114402438D02*
X147202856Y-114450057D01*
X147202856Y-114450057D02*
X147298094Y-114592914D01*
X147298094Y-114592914D02*
X147345713Y-114783390D01*
X147345713Y-114783390D02*
X147345713Y-115164342D01*
X147345713Y-115164342D02*
X147298094Y-115259580D01*
X147298094Y-115259580D02*
X147250475Y-115307200D01*
X147250475Y-115307200D02*
X147155237Y-115354819D01*
X147155237Y-115354819D02*
X146964761Y-115354819D01*
X146964761Y-115354819D02*
X146869523Y-115307200D01*
X146869523Y-115307200D02*
X146821904Y-115259580D01*
X146821904Y-115259580D02*
X146774285Y-115164342D01*
X146774285Y-115164342D02*
X146774285Y-114926247D01*
X146774285Y-114926247D02*
X146821904Y-114831009D01*
X146821904Y-114831009D02*
X146869523Y-114783390D01*
X146869523Y-114783390D02*
X146964761Y-114735771D01*
X146964761Y-114735771D02*
X147155237Y-114735771D01*
X147155237Y-114735771D02*
X147250475Y-114783390D01*
X147250475Y-114783390D02*
X147298094Y-114831009D01*
X147298094Y-114831009D02*
X147345713Y-114926247D01*
X156856666Y-92894819D02*
X157332856Y-92894819D01*
X157332856Y-92894819D02*
X157332856Y-91894819D01*
X156618570Y-91894819D02*
X155999523Y-91894819D01*
X155999523Y-91894819D02*
X156332856Y-92275771D01*
X156332856Y-92275771D02*
X156189999Y-92275771D01*
X156189999Y-92275771D02*
X156094761Y-92323390D01*
X156094761Y-92323390D02*
X156047142Y-92371009D01*
X156047142Y-92371009D02*
X155999523Y-92466247D01*
X155999523Y-92466247D02*
X155999523Y-92704342D01*
X155999523Y-92704342D02*
X156047142Y-92799580D01*
X156047142Y-92799580D02*
X156094761Y-92847200D01*
X156094761Y-92847200D02*
X156189999Y-92894819D01*
X156189999Y-92894819D02*
X156475713Y-92894819D01*
X156475713Y-92894819D02*
X156570951Y-92847200D01*
X156570951Y-92847200D02*
X156618570Y-92799580D01*
X159322857Y-99344819D02*
X159656190Y-98868628D01*
X159894285Y-99344819D02*
X159894285Y-98344819D01*
X159894285Y-98344819D02*
X159513333Y-98344819D01*
X159513333Y-98344819D02*
X159418095Y-98392438D01*
X159418095Y-98392438D02*
X159370476Y-98440057D01*
X159370476Y-98440057D02*
X159322857Y-98535295D01*
X159322857Y-98535295D02*
X159322857Y-98678152D01*
X159322857Y-98678152D02*
X159370476Y-98773390D01*
X159370476Y-98773390D02*
X159418095Y-98821009D01*
X159418095Y-98821009D02*
X159513333Y-98868628D01*
X159513333Y-98868628D02*
X159894285Y-98868628D01*
X158941904Y-98440057D02*
X158894285Y-98392438D01*
X158894285Y-98392438D02*
X158799047Y-98344819D01*
X158799047Y-98344819D02*
X158560952Y-98344819D01*
X158560952Y-98344819D02*
X158465714Y-98392438D01*
X158465714Y-98392438D02*
X158418095Y-98440057D01*
X158418095Y-98440057D02*
X158370476Y-98535295D01*
X158370476Y-98535295D02*
X158370476Y-98630533D01*
X158370476Y-98630533D02*
X158418095Y-98773390D01*
X158418095Y-98773390D02*
X158989523Y-99344819D01*
X158989523Y-99344819D02*
X158370476Y-99344819D01*
X157989523Y-98440057D02*
X157941904Y-98392438D01*
X157941904Y-98392438D02*
X157846666Y-98344819D01*
X157846666Y-98344819D02*
X157608571Y-98344819D01*
X157608571Y-98344819D02*
X157513333Y-98392438D01*
X157513333Y-98392438D02*
X157465714Y-98440057D01*
X157465714Y-98440057D02*
X157418095Y-98535295D01*
X157418095Y-98535295D02*
X157418095Y-98630533D01*
X157418095Y-98630533D02*
X157465714Y-98773390D01*
X157465714Y-98773390D02*
X158037142Y-99344819D01*
X158037142Y-99344819D02*
X157418095Y-99344819D01*
X140036666Y-128784819D02*
X140369999Y-128308628D01*
X140608094Y-128784819D02*
X140608094Y-127784819D01*
X140608094Y-127784819D02*
X140227142Y-127784819D01*
X140227142Y-127784819D02*
X140131904Y-127832438D01*
X140131904Y-127832438D02*
X140084285Y-127880057D01*
X140084285Y-127880057D02*
X140036666Y-127975295D01*
X140036666Y-127975295D02*
X140036666Y-128118152D01*
X140036666Y-128118152D02*
X140084285Y-128213390D01*
X140084285Y-128213390D02*
X140131904Y-128261009D01*
X140131904Y-128261009D02*
X140227142Y-128308628D01*
X140227142Y-128308628D02*
X140608094Y-128308628D01*
X139560475Y-128784819D02*
X139369999Y-128784819D01*
X139369999Y-128784819D02*
X139274761Y-128737200D01*
X139274761Y-128737200D02*
X139227142Y-128689580D01*
X139227142Y-128689580D02*
X139131904Y-128546723D01*
X139131904Y-128546723D02*
X139084285Y-128356247D01*
X139084285Y-128356247D02*
X139084285Y-127975295D01*
X139084285Y-127975295D02*
X139131904Y-127880057D01*
X139131904Y-127880057D02*
X139179523Y-127832438D01*
X139179523Y-127832438D02*
X139274761Y-127784819D01*
X139274761Y-127784819D02*
X139465237Y-127784819D01*
X139465237Y-127784819D02*
X139560475Y-127832438D01*
X139560475Y-127832438D02*
X139608094Y-127880057D01*
X139608094Y-127880057D02*
X139655713Y-127975295D01*
X139655713Y-127975295D02*
X139655713Y-128213390D01*
X139655713Y-128213390D02*
X139608094Y-128308628D01*
X139608094Y-128308628D02*
X139560475Y-128356247D01*
X139560475Y-128356247D02*
X139465237Y-128403866D01*
X139465237Y-128403866D02*
X139274761Y-128403866D01*
X139274761Y-128403866D02*
X139179523Y-128356247D01*
X139179523Y-128356247D02*
X139131904Y-128308628D01*
X139131904Y-128308628D02*
X139084285Y-128213390D01*
X147646666Y-117889580D02*
X147694285Y-117937200D01*
X147694285Y-117937200D02*
X147837142Y-117984819D01*
X147837142Y-117984819D02*
X147932380Y-117984819D01*
X147932380Y-117984819D02*
X148075237Y-117937200D01*
X148075237Y-117937200D02*
X148170475Y-117841961D01*
X148170475Y-117841961D02*
X148218094Y-117746723D01*
X148218094Y-117746723D02*
X148265713Y-117556247D01*
X148265713Y-117556247D02*
X148265713Y-117413390D01*
X148265713Y-117413390D02*
X148218094Y-117222914D01*
X148218094Y-117222914D02*
X148170475Y-117127676D01*
X148170475Y-117127676D02*
X148075237Y-117032438D01*
X148075237Y-117032438D02*
X147932380Y-116984819D01*
X147932380Y-116984819D02*
X147837142Y-116984819D01*
X147837142Y-116984819D02*
X147694285Y-117032438D01*
X147694285Y-117032438D02*
X147646666Y-117080057D01*
X147313332Y-116984819D02*
X146694285Y-116984819D01*
X146694285Y-116984819D02*
X147027618Y-117365771D01*
X147027618Y-117365771D02*
X146884761Y-117365771D01*
X146884761Y-117365771D02*
X146789523Y-117413390D01*
X146789523Y-117413390D02*
X146741904Y-117461009D01*
X146741904Y-117461009D02*
X146694285Y-117556247D01*
X146694285Y-117556247D02*
X146694285Y-117794342D01*
X146694285Y-117794342D02*
X146741904Y-117889580D01*
X146741904Y-117889580D02*
X146789523Y-117937200D01*
X146789523Y-117937200D02*
X146884761Y-117984819D01*
X146884761Y-117984819D02*
X147170475Y-117984819D01*
X147170475Y-117984819D02*
X147265713Y-117937200D01*
X147265713Y-117937200D02*
X147313332Y-117889580D01*
X130862857Y-122909580D02*
X130910476Y-122957200D01*
X130910476Y-122957200D02*
X131053333Y-123004819D01*
X131053333Y-123004819D02*
X131148571Y-123004819D01*
X131148571Y-123004819D02*
X131291428Y-122957200D01*
X131291428Y-122957200D02*
X131386666Y-122861961D01*
X131386666Y-122861961D02*
X131434285Y-122766723D01*
X131434285Y-122766723D02*
X131481904Y-122576247D01*
X131481904Y-122576247D02*
X131481904Y-122433390D01*
X131481904Y-122433390D02*
X131434285Y-122242914D01*
X131434285Y-122242914D02*
X131386666Y-122147676D01*
X131386666Y-122147676D02*
X131291428Y-122052438D01*
X131291428Y-122052438D02*
X131148571Y-122004819D01*
X131148571Y-122004819D02*
X131053333Y-122004819D01*
X131053333Y-122004819D02*
X130910476Y-122052438D01*
X130910476Y-122052438D02*
X130862857Y-122100057D01*
X129910476Y-123004819D02*
X130481904Y-123004819D01*
X130196190Y-123004819D02*
X130196190Y-122004819D01*
X130196190Y-122004819D02*
X130291428Y-122147676D01*
X130291428Y-122147676D02*
X130386666Y-122242914D01*
X130386666Y-122242914D02*
X130481904Y-122290533D01*
X129529523Y-122100057D02*
X129481904Y-122052438D01*
X129481904Y-122052438D02*
X129386666Y-122004819D01*
X129386666Y-122004819D02*
X129148571Y-122004819D01*
X129148571Y-122004819D02*
X129053333Y-122052438D01*
X129053333Y-122052438D02*
X129005714Y-122100057D01*
X129005714Y-122100057D02*
X128958095Y-122195295D01*
X128958095Y-122195295D02*
X128958095Y-122290533D01*
X128958095Y-122290533D02*
X129005714Y-122433390D01*
X129005714Y-122433390D02*
X129577142Y-123004819D01*
X129577142Y-123004819D02*
X128958095Y-123004819D01*
X130262857Y-104474819D02*
X130596190Y-103998628D01*
X130834285Y-104474819D02*
X130834285Y-103474819D01*
X130834285Y-103474819D02*
X130453333Y-103474819D01*
X130453333Y-103474819D02*
X130358095Y-103522438D01*
X130358095Y-103522438D02*
X130310476Y-103570057D01*
X130310476Y-103570057D02*
X130262857Y-103665295D01*
X130262857Y-103665295D02*
X130262857Y-103808152D01*
X130262857Y-103808152D02*
X130310476Y-103903390D01*
X130310476Y-103903390D02*
X130358095Y-103951009D01*
X130358095Y-103951009D02*
X130453333Y-103998628D01*
X130453333Y-103998628D02*
X130834285Y-103998628D01*
X129310476Y-104474819D02*
X129881904Y-104474819D01*
X129596190Y-104474819D02*
X129596190Y-103474819D01*
X129596190Y-103474819D02*
X129691428Y-103617676D01*
X129691428Y-103617676D02*
X129786666Y-103712914D01*
X129786666Y-103712914D02*
X129881904Y-103760533D01*
X128977142Y-103474819D02*
X128310476Y-103474819D01*
X128310476Y-103474819D02*
X128739047Y-104474819D01*
X156803333Y-122401009D02*
X157136666Y-122401009D01*
X157136666Y-122924819D02*
X157136666Y-121924819D01*
X157136666Y-121924819D02*
X156660476Y-121924819D01*
X156327142Y-122020057D02*
X156279523Y-121972438D01*
X156279523Y-121972438D02*
X156184285Y-121924819D01*
X156184285Y-121924819D02*
X155946190Y-121924819D01*
X155946190Y-121924819D02*
X155850952Y-121972438D01*
X155850952Y-121972438D02*
X155803333Y-122020057D01*
X155803333Y-122020057D02*
X155755714Y-122115295D01*
X155755714Y-122115295D02*
X155755714Y-122210533D01*
X155755714Y-122210533D02*
X155803333Y-122353390D01*
X155803333Y-122353390D02*
X156374761Y-122924819D01*
X156374761Y-122924819D02*
X155755714Y-122924819D01*
X169966666Y-118454819D02*
X170299999Y-117978628D01*
X170538094Y-118454819D02*
X170538094Y-117454819D01*
X170538094Y-117454819D02*
X170157142Y-117454819D01*
X170157142Y-117454819D02*
X170061904Y-117502438D01*
X170061904Y-117502438D02*
X170014285Y-117550057D01*
X170014285Y-117550057D02*
X169966666Y-117645295D01*
X169966666Y-117645295D02*
X169966666Y-117788152D01*
X169966666Y-117788152D02*
X170014285Y-117883390D01*
X170014285Y-117883390D02*
X170061904Y-117931009D01*
X170061904Y-117931009D02*
X170157142Y-117978628D01*
X170157142Y-117978628D02*
X170538094Y-117978628D01*
X169633332Y-117454819D02*
X169014285Y-117454819D01*
X169014285Y-117454819D02*
X169347618Y-117835771D01*
X169347618Y-117835771D02*
X169204761Y-117835771D01*
X169204761Y-117835771D02*
X169109523Y-117883390D01*
X169109523Y-117883390D02*
X169061904Y-117931009D01*
X169061904Y-117931009D02*
X169014285Y-118026247D01*
X169014285Y-118026247D02*
X169014285Y-118264342D01*
X169014285Y-118264342D02*
X169061904Y-118359580D01*
X169061904Y-118359580D02*
X169109523Y-118407200D01*
X169109523Y-118407200D02*
X169204761Y-118454819D01*
X169204761Y-118454819D02*
X169490475Y-118454819D01*
X169490475Y-118454819D02*
X169585713Y-118407200D01*
X169585713Y-118407200D02*
X169633332Y-118359580D01*
X159642045Y-118198771D02*
X159642045Y-117198771D01*
X159642045Y-117198771D02*
X159403950Y-117198771D01*
X159403950Y-117198771D02*
X159261093Y-117246390D01*
X159261093Y-117246390D02*
X159165855Y-117341628D01*
X159165855Y-117341628D02*
X159118236Y-117436866D01*
X159118236Y-117436866D02*
X159070617Y-117627342D01*
X159070617Y-117627342D02*
X159070617Y-117770199D01*
X159070617Y-117770199D02*
X159118236Y-117960675D01*
X159118236Y-117960675D02*
X159165855Y-118055913D01*
X159165855Y-118055913D02*
X159261093Y-118151152D01*
X159261093Y-118151152D02*
X159403950Y-118198771D01*
X159403950Y-118198771D02*
X159642045Y-118198771D01*
X158118236Y-118198771D02*
X158689664Y-118198771D01*
X158403950Y-118198771D02*
X158403950Y-117198771D01*
X158403950Y-117198771D02*
X158499188Y-117341628D01*
X158499188Y-117341628D02*
X158594426Y-117436866D01*
X158594426Y-117436866D02*
X158689664Y-117484485D01*
X157392857Y-85859580D02*
X157440476Y-85907200D01*
X157440476Y-85907200D02*
X157583333Y-85954819D01*
X157583333Y-85954819D02*
X157678571Y-85954819D01*
X157678571Y-85954819D02*
X157821428Y-85907200D01*
X157821428Y-85907200D02*
X157916666Y-85811961D01*
X157916666Y-85811961D02*
X157964285Y-85716723D01*
X157964285Y-85716723D02*
X158011904Y-85526247D01*
X158011904Y-85526247D02*
X158011904Y-85383390D01*
X158011904Y-85383390D02*
X157964285Y-85192914D01*
X157964285Y-85192914D02*
X157916666Y-85097676D01*
X157916666Y-85097676D02*
X157821428Y-85002438D01*
X157821428Y-85002438D02*
X157678571Y-84954819D01*
X157678571Y-84954819D02*
X157583333Y-84954819D01*
X157583333Y-84954819D02*
X157440476Y-85002438D01*
X157440476Y-85002438D02*
X157392857Y-85050057D01*
X156440476Y-85954819D02*
X157011904Y-85954819D01*
X156726190Y-85954819D02*
X156726190Y-84954819D01*
X156726190Y-84954819D02*
X156821428Y-85097676D01*
X156821428Y-85097676D02*
X156916666Y-85192914D01*
X156916666Y-85192914D02*
X157011904Y-85240533D01*
X155869047Y-85383390D02*
X155964285Y-85335771D01*
X155964285Y-85335771D02*
X156011904Y-85288152D01*
X156011904Y-85288152D02*
X156059523Y-85192914D01*
X156059523Y-85192914D02*
X156059523Y-85145295D01*
X156059523Y-85145295D02*
X156011904Y-85050057D01*
X156011904Y-85050057D02*
X155964285Y-85002438D01*
X155964285Y-85002438D02*
X155869047Y-84954819D01*
X155869047Y-84954819D02*
X155678571Y-84954819D01*
X155678571Y-84954819D02*
X155583333Y-85002438D01*
X155583333Y-85002438D02*
X155535714Y-85050057D01*
X155535714Y-85050057D02*
X155488095Y-85145295D01*
X155488095Y-85145295D02*
X155488095Y-85192914D01*
X155488095Y-85192914D02*
X155535714Y-85288152D01*
X155535714Y-85288152D02*
X155583333Y-85335771D01*
X155583333Y-85335771D02*
X155678571Y-85383390D01*
X155678571Y-85383390D02*
X155869047Y-85383390D01*
X155869047Y-85383390D02*
X155964285Y-85431009D01*
X155964285Y-85431009D02*
X156011904Y-85478628D01*
X156011904Y-85478628D02*
X156059523Y-85573866D01*
X156059523Y-85573866D02*
X156059523Y-85764342D01*
X156059523Y-85764342D02*
X156011904Y-85859580D01*
X156011904Y-85859580D02*
X155964285Y-85907200D01*
X155964285Y-85907200D02*
X155869047Y-85954819D01*
X155869047Y-85954819D02*
X155678571Y-85954819D01*
X155678571Y-85954819D02*
X155583333Y-85907200D01*
X155583333Y-85907200D02*
X155535714Y-85859580D01*
X155535714Y-85859580D02*
X155488095Y-85764342D01*
X155488095Y-85764342D02*
X155488095Y-85573866D01*
X155488095Y-85573866D02*
X155535714Y-85478628D01*
X155535714Y-85478628D02*
X155583333Y-85431009D01*
X155583333Y-85431009D02*
X155678571Y-85383390D01*
X146135238Y-126380057D02*
X146230476Y-126332438D01*
X146230476Y-126332438D02*
X146325714Y-126237200D01*
X146325714Y-126237200D02*
X146468571Y-126094342D01*
X146468571Y-126094342D02*
X146563809Y-126046723D01*
X146563809Y-126046723D02*
X146659047Y-126046723D01*
X146611428Y-126284819D02*
X146706666Y-126237200D01*
X146706666Y-126237200D02*
X146801904Y-126141961D01*
X146801904Y-126141961D02*
X146849523Y-125951485D01*
X146849523Y-125951485D02*
X146849523Y-125618152D01*
X146849523Y-125618152D02*
X146801904Y-125427676D01*
X146801904Y-125427676D02*
X146706666Y-125332438D01*
X146706666Y-125332438D02*
X146611428Y-125284819D01*
X146611428Y-125284819D02*
X146420952Y-125284819D01*
X146420952Y-125284819D02*
X146325714Y-125332438D01*
X146325714Y-125332438D02*
X146230476Y-125427676D01*
X146230476Y-125427676D02*
X146182857Y-125618152D01*
X146182857Y-125618152D02*
X146182857Y-125951485D01*
X146182857Y-125951485D02*
X146230476Y-126141961D01*
X146230476Y-126141961D02*
X146325714Y-126237200D01*
X146325714Y-126237200D02*
X146420952Y-126284819D01*
X146420952Y-126284819D02*
X146611428Y-126284819D01*
X145849523Y-125284819D02*
X145230476Y-125284819D01*
X145230476Y-125284819D02*
X145563809Y-125665771D01*
X145563809Y-125665771D02*
X145420952Y-125665771D01*
X145420952Y-125665771D02*
X145325714Y-125713390D01*
X145325714Y-125713390D02*
X145278095Y-125761009D01*
X145278095Y-125761009D02*
X145230476Y-125856247D01*
X145230476Y-125856247D02*
X145230476Y-126094342D01*
X145230476Y-126094342D02*
X145278095Y-126189580D01*
X145278095Y-126189580D02*
X145325714Y-126237200D01*
X145325714Y-126237200D02*
X145420952Y-126284819D01*
X145420952Y-126284819D02*
X145706666Y-126284819D01*
X145706666Y-126284819D02*
X145801904Y-126237200D01*
X145801904Y-126237200D02*
X145849523Y-126189580D01*
X142986666Y-129394819D02*
X143319999Y-128918628D01*
X143558094Y-129394819D02*
X143558094Y-128394819D01*
X143558094Y-128394819D02*
X143177142Y-128394819D01*
X143177142Y-128394819D02*
X143081904Y-128442438D01*
X143081904Y-128442438D02*
X143034285Y-128490057D01*
X143034285Y-128490057D02*
X142986666Y-128585295D01*
X142986666Y-128585295D02*
X142986666Y-128728152D01*
X142986666Y-128728152D02*
X143034285Y-128823390D01*
X143034285Y-128823390D02*
X143081904Y-128871009D01*
X143081904Y-128871009D02*
X143177142Y-128918628D01*
X143177142Y-128918628D02*
X143558094Y-128918628D01*
X142415237Y-128823390D02*
X142510475Y-128775771D01*
X142510475Y-128775771D02*
X142558094Y-128728152D01*
X142558094Y-128728152D02*
X142605713Y-128632914D01*
X142605713Y-128632914D02*
X142605713Y-128585295D01*
X142605713Y-128585295D02*
X142558094Y-128490057D01*
X142558094Y-128490057D02*
X142510475Y-128442438D01*
X142510475Y-128442438D02*
X142415237Y-128394819D01*
X142415237Y-128394819D02*
X142224761Y-128394819D01*
X142224761Y-128394819D02*
X142129523Y-128442438D01*
X142129523Y-128442438D02*
X142081904Y-128490057D01*
X142081904Y-128490057D02*
X142034285Y-128585295D01*
X142034285Y-128585295D02*
X142034285Y-128632914D01*
X142034285Y-128632914D02*
X142081904Y-128728152D01*
X142081904Y-128728152D02*
X142129523Y-128775771D01*
X142129523Y-128775771D02*
X142224761Y-128823390D01*
X142224761Y-128823390D02*
X142415237Y-128823390D01*
X142415237Y-128823390D02*
X142510475Y-128871009D01*
X142510475Y-128871009D02*
X142558094Y-128918628D01*
X142558094Y-128918628D02*
X142605713Y-129013866D01*
X142605713Y-129013866D02*
X142605713Y-129204342D01*
X142605713Y-129204342D02*
X142558094Y-129299580D01*
X142558094Y-129299580D02*
X142510475Y-129347200D01*
X142510475Y-129347200D02*
X142415237Y-129394819D01*
X142415237Y-129394819D02*
X142224761Y-129394819D01*
X142224761Y-129394819D02*
X142129523Y-129347200D01*
X142129523Y-129347200D02*
X142081904Y-129299580D01*
X142081904Y-129299580D02*
X142034285Y-129204342D01*
X142034285Y-129204342D02*
X142034285Y-129013866D01*
X142034285Y-129013866D02*
X142081904Y-128918628D01*
X142081904Y-128918628D02*
X142129523Y-128871009D01*
X142129523Y-128871009D02*
X142224761Y-128823390D01*
X139170057Y-125554761D02*
X139122438Y-125459523D01*
X139122438Y-125459523D02*
X139027200Y-125364285D01*
X139027200Y-125364285D02*
X138884342Y-125221428D01*
X138884342Y-125221428D02*
X138836723Y-125126190D01*
X138836723Y-125126190D02*
X138836723Y-125030952D01*
X139074819Y-125078571D02*
X139027200Y-124983333D01*
X139027200Y-124983333D02*
X138931961Y-124888095D01*
X138931961Y-124888095D02*
X138741485Y-124840476D01*
X138741485Y-124840476D02*
X138408152Y-124840476D01*
X138408152Y-124840476D02*
X138217676Y-124888095D01*
X138217676Y-124888095D02*
X138122438Y-124983333D01*
X138122438Y-124983333D02*
X138074819Y-125078571D01*
X138074819Y-125078571D02*
X138074819Y-125269047D01*
X138074819Y-125269047D02*
X138122438Y-125364285D01*
X138122438Y-125364285D02*
X138217676Y-125459523D01*
X138217676Y-125459523D02*
X138408152Y-125507142D01*
X138408152Y-125507142D02*
X138741485Y-125507142D01*
X138741485Y-125507142D02*
X138931961Y-125459523D01*
X138931961Y-125459523D02*
X139027200Y-125364285D01*
X139027200Y-125364285D02*
X139074819Y-125269047D01*
X139074819Y-125269047D02*
X139074819Y-125078571D01*
X138408152Y-126364285D02*
X139074819Y-126364285D01*
X138027200Y-126126190D02*
X138741485Y-125888095D01*
X138741485Y-125888095D02*
X138741485Y-126507142D01*
X171416666Y-112204819D02*
X171749999Y-111728628D01*
X171988094Y-112204819D02*
X171988094Y-111204819D01*
X171988094Y-111204819D02*
X171607142Y-111204819D01*
X171607142Y-111204819D02*
X171511904Y-111252438D01*
X171511904Y-111252438D02*
X171464285Y-111300057D01*
X171464285Y-111300057D02*
X171416666Y-111395295D01*
X171416666Y-111395295D02*
X171416666Y-111538152D01*
X171416666Y-111538152D02*
X171464285Y-111633390D01*
X171464285Y-111633390D02*
X171511904Y-111681009D01*
X171511904Y-111681009D02*
X171607142Y-111728628D01*
X171607142Y-111728628D02*
X171988094Y-111728628D01*
X171035713Y-111300057D02*
X170988094Y-111252438D01*
X170988094Y-111252438D02*
X170892856Y-111204819D01*
X170892856Y-111204819D02*
X170654761Y-111204819D01*
X170654761Y-111204819D02*
X170559523Y-111252438D01*
X170559523Y-111252438D02*
X170511904Y-111300057D01*
X170511904Y-111300057D02*
X170464285Y-111395295D01*
X170464285Y-111395295D02*
X170464285Y-111490533D01*
X170464285Y-111490533D02*
X170511904Y-111633390D01*
X170511904Y-111633390D02*
X171083332Y-112204819D01*
X171083332Y-112204819D02*
X170464285Y-112204819D01*
X144294818Y-119873335D02*
X143818627Y-119540002D01*
X144294818Y-119301907D02*
X143294818Y-119301907D01*
X143294818Y-119301907D02*
X143294818Y-119682859D01*
X143294818Y-119682859D02*
X143342437Y-119778097D01*
X143342437Y-119778097D02*
X143390056Y-119825716D01*
X143390056Y-119825716D02*
X143485294Y-119873335D01*
X143485294Y-119873335D02*
X143628151Y-119873335D01*
X143628151Y-119873335D02*
X143723389Y-119825716D01*
X143723389Y-119825716D02*
X143771008Y-119778097D01*
X143771008Y-119778097D02*
X143818627Y-119682859D01*
X143818627Y-119682859D02*
X143818627Y-119301907D01*
X143294818Y-120206669D02*
X143294818Y-120873335D01*
X143294818Y-120873335D02*
X144294818Y-120444764D01*
X141142857Y-105704819D02*
X141476190Y-105228628D01*
X141714285Y-105704819D02*
X141714285Y-104704819D01*
X141714285Y-104704819D02*
X141333333Y-104704819D01*
X141333333Y-104704819D02*
X141238095Y-104752438D01*
X141238095Y-104752438D02*
X141190476Y-104800057D01*
X141190476Y-104800057D02*
X141142857Y-104895295D01*
X141142857Y-104895295D02*
X141142857Y-105038152D01*
X141142857Y-105038152D02*
X141190476Y-105133390D01*
X141190476Y-105133390D02*
X141238095Y-105181009D01*
X141238095Y-105181009D02*
X141333333Y-105228628D01*
X141333333Y-105228628D02*
X141714285Y-105228628D01*
X140190476Y-105704819D02*
X140761904Y-105704819D01*
X140476190Y-105704819D02*
X140476190Y-104704819D01*
X140476190Y-104704819D02*
X140571428Y-104847676D01*
X140571428Y-104847676D02*
X140666666Y-104942914D01*
X140666666Y-104942914D02*
X140761904Y-104990533D01*
X139285714Y-104704819D02*
X139761904Y-104704819D01*
X139761904Y-104704819D02*
X139809523Y-105181009D01*
X139809523Y-105181009D02*
X139761904Y-105133390D01*
X139761904Y-105133390D02*
X139666666Y-105085771D01*
X139666666Y-105085771D02*
X139428571Y-105085771D01*
X139428571Y-105085771D02*
X139333333Y-105133390D01*
X139333333Y-105133390D02*
X139285714Y-105181009D01*
X139285714Y-105181009D02*
X139238095Y-105276247D01*
X139238095Y-105276247D02*
X139238095Y-105514342D01*
X139238095Y-105514342D02*
X139285714Y-105609580D01*
X139285714Y-105609580D02*
X139333333Y-105657200D01*
X139333333Y-105657200D02*
X139428571Y-105704819D01*
X139428571Y-105704819D02*
X139666666Y-105704819D01*
X139666666Y-105704819D02*
X139761904Y-105657200D01*
X139761904Y-105657200D02*
X139809523Y-105609580D01*
D12*
X132155616Y-117247014D02*
X132343092Y-117247014D01*
X132343092Y-117247014D02*
X132343092Y-116853313D01*
X132043130Y-116890809D02*
X132024382Y-116872061D01*
X132024382Y-116872061D02*
X131986887Y-116853313D01*
X131986887Y-116853313D02*
X131893149Y-116853313D01*
X131893149Y-116853313D02*
X131855653Y-116872061D01*
X131855653Y-116872061D02*
X131836906Y-116890809D01*
X131836906Y-116890809D02*
X131818158Y-116928304D01*
X131818158Y-116928304D02*
X131818158Y-116965799D01*
X131818158Y-116965799D02*
X131836906Y-117022042D01*
X131836906Y-117022042D02*
X132061878Y-117247014D01*
X132061878Y-117247014D02*
X131818158Y-117247014D01*
D11*
X133236666Y-116279580D02*
X133284285Y-116327200D01*
X133284285Y-116327200D02*
X133427142Y-116374819D01*
X133427142Y-116374819D02*
X133522380Y-116374819D01*
X133522380Y-116374819D02*
X133665237Y-116327200D01*
X133665237Y-116327200D02*
X133760475Y-116231961D01*
X133760475Y-116231961D02*
X133808094Y-116136723D01*
X133808094Y-116136723D02*
X133855713Y-115946247D01*
X133855713Y-115946247D02*
X133855713Y-115803390D01*
X133855713Y-115803390D02*
X133808094Y-115612914D01*
X133808094Y-115612914D02*
X133760475Y-115517676D01*
X133760475Y-115517676D02*
X133665237Y-115422438D01*
X133665237Y-115422438D02*
X133522380Y-115374819D01*
X133522380Y-115374819D02*
X133427142Y-115374819D01*
X133427142Y-115374819D02*
X133284285Y-115422438D01*
X133284285Y-115422438D02*
X133236666Y-115470057D01*
X132665237Y-115803390D02*
X132760475Y-115755771D01*
X132760475Y-115755771D02*
X132808094Y-115708152D01*
X132808094Y-115708152D02*
X132855713Y-115612914D01*
X132855713Y-115612914D02*
X132855713Y-115565295D01*
X132855713Y-115565295D02*
X132808094Y-115470057D01*
X132808094Y-115470057D02*
X132760475Y-115422438D01*
X132760475Y-115422438D02*
X132665237Y-115374819D01*
X132665237Y-115374819D02*
X132474761Y-115374819D01*
X132474761Y-115374819D02*
X132379523Y-115422438D01*
X132379523Y-115422438D02*
X132331904Y-115470057D01*
X132331904Y-115470057D02*
X132284285Y-115565295D01*
X132284285Y-115565295D02*
X132284285Y-115612914D01*
X132284285Y-115612914D02*
X132331904Y-115708152D01*
X132331904Y-115708152D02*
X132379523Y-115755771D01*
X132379523Y-115755771D02*
X132474761Y-115803390D01*
X132474761Y-115803390D02*
X132665237Y-115803390D01*
X132665237Y-115803390D02*
X132760475Y-115851009D01*
X132760475Y-115851009D02*
X132808094Y-115898628D01*
X132808094Y-115898628D02*
X132855713Y-115993866D01*
X132855713Y-115993866D02*
X132855713Y-116184342D01*
X132855713Y-116184342D02*
X132808094Y-116279580D01*
X132808094Y-116279580D02*
X132760475Y-116327200D01*
X132760475Y-116327200D02*
X132665237Y-116374819D01*
X132665237Y-116374819D02*
X132474761Y-116374819D01*
X132474761Y-116374819D02*
X132379523Y-116327200D01*
X132379523Y-116327200D02*
X132331904Y-116279580D01*
X132331904Y-116279580D02*
X132284285Y-116184342D01*
X132284285Y-116184342D02*
X132284285Y-115993866D01*
X132284285Y-115993866D02*
X132331904Y-115898628D01*
X132331904Y-115898628D02*
X132379523Y-115851009D01*
X132379523Y-115851009D02*
X132474761Y-115803390D01*
X125252856Y-113174819D02*
X125586189Y-112698628D01*
X125824284Y-113174819D02*
X125824284Y-112174819D01*
X125824284Y-112174819D02*
X125443332Y-112174819D01*
X125443332Y-112174819D02*
X125348094Y-112222438D01*
X125348094Y-112222438D02*
X125300475Y-112270057D01*
X125300475Y-112270057D02*
X125252856Y-112365295D01*
X125252856Y-112365295D02*
X125252856Y-112508152D01*
X125252856Y-112508152D02*
X125300475Y-112603390D01*
X125300475Y-112603390D02*
X125348094Y-112651009D01*
X125348094Y-112651009D02*
X125443332Y-112698628D01*
X125443332Y-112698628D02*
X125824284Y-112698628D01*
X124300475Y-113174819D02*
X124871903Y-113174819D01*
X124586189Y-113174819D02*
X124586189Y-112174819D01*
X124586189Y-112174819D02*
X124681427Y-112317676D01*
X124681427Y-112317676D02*
X124776665Y-112412914D01*
X124776665Y-112412914D02*
X124871903Y-112460533D01*
X123824284Y-113174819D02*
X123633808Y-113174819D01*
X123633808Y-113174819D02*
X123538570Y-113127200D01*
X123538570Y-113127200D02*
X123490951Y-113079580D01*
X123490951Y-113079580D02*
X123395713Y-112936723D01*
X123395713Y-112936723D02*
X123348094Y-112746247D01*
X123348094Y-112746247D02*
X123348094Y-112365295D01*
X123348094Y-112365295D02*
X123395713Y-112270057D01*
X123395713Y-112270057D02*
X123443332Y-112222438D01*
X123443332Y-112222438D02*
X123538570Y-112174819D01*
X123538570Y-112174819D02*
X123729046Y-112174819D01*
X123729046Y-112174819D02*
X123824284Y-112222438D01*
X123824284Y-112222438D02*
X123871903Y-112270057D01*
X123871903Y-112270057D02*
X123919522Y-112365295D01*
X123919522Y-112365295D02*
X123919522Y-112603390D01*
X123919522Y-112603390D02*
X123871903Y-112698628D01*
X123871903Y-112698628D02*
X123824284Y-112746247D01*
X123824284Y-112746247D02*
X123729046Y-112793866D01*
X123729046Y-112793866D02*
X123538570Y-112793866D01*
X123538570Y-112793866D02*
X123443332Y-112746247D01*
X123443332Y-112746247D02*
X123395713Y-112698628D01*
X123395713Y-112698628D02*
X123348094Y-112603390D01*
X137742857Y-113159580D02*
X137790476Y-113207200D01*
X137790476Y-113207200D02*
X137933333Y-113254819D01*
X137933333Y-113254819D02*
X138028571Y-113254819D01*
X138028571Y-113254819D02*
X138171428Y-113207200D01*
X138171428Y-113207200D02*
X138266666Y-113111961D01*
X138266666Y-113111961D02*
X138314285Y-113016723D01*
X138314285Y-113016723D02*
X138361904Y-112826247D01*
X138361904Y-112826247D02*
X138361904Y-112683390D01*
X138361904Y-112683390D02*
X138314285Y-112492914D01*
X138314285Y-112492914D02*
X138266666Y-112397676D01*
X138266666Y-112397676D02*
X138171428Y-112302438D01*
X138171428Y-112302438D02*
X138028571Y-112254819D01*
X138028571Y-112254819D02*
X137933333Y-112254819D01*
X137933333Y-112254819D02*
X137790476Y-112302438D01*
X137790476Y-112302438D02*
X137742857Y-112350057D01*
X136790476Y-113254819D02*
X137361904Y-113254819D01*
X137076190Y-113254819D02*
X137076190Y-112254819D01*
X137076190Y-112254819D02*
X137171428Y-112397676D01*
X137171428Y-112397676D02*
X137266666Y-112492914D01*
X137266666Y-112492914D02*
X137361904Y-112540533D01*
X135933333Y-112588152D02*
X135933333Y-113254819D01*
X136171428Y-112207200D02*
X136409523Y-112921485D01*
X136409523Y-112921485D02*
X135790476Y-112921485D01*
X140727619Y-117598276D02*
X140727619Y-118116371D01*
X140727619Y-118116371D02*
X140697142Y-118177323D01*
X140697142Y-118177323D02*
X140666666Y-118207800D01*
X140666666Y-118207800D02*
X140605714Y-118238276D01*
X140605714Y-118238276D02*
X140483809Y-118238276D01*
X140483809Y-118238276D02*
X140422857Y-118207800D01*
X140422857Y-118207800D02*
X140392380Y-118177323D01*
X140392380Y-118177323D02*
X140361904Y-118116371D01*
X140361904Y-118116371D02*
X140361904Y-117598276D01*
X140087619Y-117659228D02*
X140057143Y-117628752D01*
X140057143Y-117628752D02*
X139996190Y-117598276D01*
X139996190Y-117598276D02*
X139843809Y-117598276D01*
X139843809Y-117598276D02*
X139782857Y-117628752D01*
X139782857Y-117628752D02*
X139752381Y-117659228D01*
X139752381Y-117659228D02*
X139721904Y-117720180D01*
X139721904Y-117720180D02*
X139721904Y-117781133D01*
X139721904Y-117781133D02*
X139752381Y-117872561D01*
X139752381Y-117872561D02*
X140118095Y-118238276D01*
X140118095Y-118238276D02*
X139721904Y-118238276D01*
X145777290Y-113948956D02*
X145824909Y-113996576D01*
X145824909Y-113996576D02*
X145967766Y-114044195D01*
X145967766Y-114044195D02*
X146063004Y-114044195D01*
X146063004Y-114044195D02*
X146205861Y-113996576D01*
X146205861Y-113996576D02*
X146301099Y-113901337D01*
X146301099Y-113901337D02*
X146348718Y-113806099D01*
X146348718Y-113806099D02*
X146396337Y-113615623D01*
X146396337Y-113615623D02*
X146396337Y-113472766D01*
X146396337Y-113472766D02*
X146348718Y-113282290D01*
X146348718Y-113282290D02*
X146301099Y-113187052D01*
X146301099Y-113187052D02*
X146205861Y-113091814D01*
X146205861Y-113091814D02*
X146063004Y-113044195D01*
X146063004Y-113044195D02*
X145967766Y-113044195D01*
X145967766Y-113044195D02*
X145824909Y-113091814D01*
X145824909Y-113091814D02*
X145777290Y-113139433D01*
X144872528Y-113044195D02*
X145348718Y-113044195D01*
X145348718Y-113044195D02*
X145396337Y-113520385D01*
X145396337Y-113520385D02*
X145348718Y-113472766D01*
X145348718Y-113472766D02*
X145253480Y-113425147D01*
X145253480Y-113425147D02*
X145015385Y-113425147D01*
X145015385Y-113425147D02*
X144920147Y-113472766D01*
X144920147Y-113472766D02*
X144872528Y-113520385D01*
X144872528Y-113520385D02*
X144824909Y-113615623D01*
X144824909Y-113615623D02*
X144824909Y-113853718D01*
X144824909Y-113853718D02*
X144872528Y-113948956D01*
X144872528Y-113948956D02*
X144920147Y-113996576D01*
X144920147Y-113996576D02*
X145015385Y-114044195D01*
X145015385Y-114044195D02*
X145253480Y-114044195D01*
X145253480Y-114044195D02*
X145348718Y-113996576D01*
X145348718Y-113996576D02*
X145396337Y-113948956D01*
X140222859Y-129094821D02*
X140556192Y-128618630D01*
X140794287Y-129094821D02*
X140794287Y-128094821D01*
X140794287Y-128094821D02*
X140413335Y-128094821D01*
X140413335Y-128094821D02*
X140318097Y-128142440D01*
X140318097Y-128142440D02*
X140270478Y-128190059D01*
X140270478Y-128190059D02*
X140222859Y-128285297D01*
X140222859Y-128285297D02*
X140222859Y-128428154D01*
X140222859Y-128428154D02*
X140270478Y-128523392D01*
X140270478Y-128523392D02*
X140318097Y-128571011D01*
X140318097Y-128571011D02*
X140413335Y-128618630D01*
X140413335Y-128618630D02*
X140794287Y-128618630D01*
X139270478Y-129094821D02*
X139841906Y-129094821D01*
X139556192Y-129094821D02*
X139556192Y-128094821D01*
X139556192Y-128094821D02*
X139651430Y-128237678D01*
X139651430Y-128237678D02*
X139746668Y-128332916D01*
X139746668Y-128332916D02*
X139841906Y-128380535D01*
X138413335Y-128428154D02*
X138413335Y-129094821D01*
X138651430Y-128047202D02*
X138889525Y-128761487D01*
X138889525Y-128761487D02*
X138270478Y-128761487D01*
X142372857Y-122734819D02*
X142706190Y-122258628D01*
X142944285Y-122734819D02*
X142944285Y-121734819D01*
X142944285Y-121734819D02*
X142563333Y-121734819D01*
X142563333Y-121734819D02*
X142468095Y-121782438D01*
X142468095Y-121782438D02*
X142420476Y-121830057D01*
X142420476Y-121830057D02*
X142372857Y-121925295D01*
X142372857Y-121925295D02*
X142372857Y-122068152D01*
X142372857Y-122068152D02*
X142420476Y-122163390D01*
X142420476Y-122163390D02*
X142468095Y-122211009D01*
X142468095Y-122211009D02*
X142563333Y-122258628D01*
X142563333Y-122258628D02*
X142944285Y-122258628D01*
X141420476Y-122734819D02*
X141991904Y-122734819D01*
X141706190Y-122734819D02*
X141706190Y-121734819D01*
X141706190Y-121734819D02*
X141801428Y-121877676D01*
X141801428Y-121877676D02*
X141896666Y-121972914D01*
X141896666Y-121972914D02*
X141991904Y-122020533D01*
X141087142Y-121734819D02*
X140468095Y-121734819D01*
X140468095Y-121734819D02*
X140801428Y-122115771D01*
X140801428Y-122115771D02*
X140658571Y-122115771D01*
X140658571Y-122115771D02*
X140563333Y-122163390D01*
X140563333Y-122163390D02*
X140515714Y-122211009D01*
X140515714Y-122211009D02*
X140468095Y-122306247D01*
X140468095Y-122306247D02*
X140468095Y-122544342D01*
X140468095Y-122544342D02*
X140515714Y-122639580D01*
X140515714Y-122639580D02*
X140563333Y-122687200D01*
X140563333Y-122687200D02*
X140658571Y-122734819D01*
X140658571Y-122734819D02*
X140944285Y-122734819D01*
X140944285Y-122734819D02*
X141039523Y-122687200D01*
X141039523Y-122687200D02*
X141087142Y-122639580D01*
X140136666Y-115234819D02*
X140612856Y-115234819D01*
X140612856Y-115234819D02*
X140612856Y-114234819D01*
X139279523Y-115234819D02*
X139850951Y-115234819D01*
X139565237Y-115234819D02*
X139565237Y-114234819D01*
X139565237Y-114234819D02*
X139660475Y-114377676D01*
X139660475Y-114377676D02*
X139755713Y-114472914D01*
X139755713Y-114472914D02*
X139850951Y-114520533D01*
X133526173Y-107117036D02*
X133425158Y-106544617D01*
X133930234Y-106712975D02*
X133223127Y-106005869D01*
X133223127Y-106005869D02*
X132953753Y-106275243D01*
X132953753Y-106275243D02*
X132920081Y-106376258D01*
X132920081Y-106376258D02*
X132920081Y-106443601D01*
X132920081Y-106443601D02*
X132953753Y-106544617D01*
X132953753Y-106544617D02*
X133054768Y-106645632D01*
X133054768Y-106645632D02*
X133155784Y-106679304D01*
X133155784Y-106679304D02*
X133223127Y-106679304D01*
X133223127Y-106679304D02*
X133324142Y-106645632D01*
X133324142Y-106645632D02*
X133593516Y-106376258D01*
X132852738Y-107790471D02*
X133256799Y-107386410D01*
X133054768Y-107588441D02*
X132347662Y-106881334D01*
X132347662Y-106881334D02*
X132516020Y-106915006D01*
X132516020Y-106915006D02*
X132650707Y-106915006D01*
X132650707Y-106915006D02*
X132751723Y-106881334D01*
X131539539Y-107689456D02*
X131674226Y-107554769D01*
X131674226Y-107554769D02*
X131775242Y-107521098D01*
X131775242Y-107521098D02*
X131842585Y-107521098D01*
X131842585Y-107521098D02*
X132010944Y-107554769D01*
X132010944Y-107554769D02*
X132179303Y-107655785D01*
X132179303Y-107655785D02*
X132448677Y-107925159D01*
X132448677Y-107925159D02*
X132482348Y-108026174D01*
X132482348Y-108026174D02*
X132482348Y-108093517D01*
X132482348Y-108093517D02*
X132448677Y-108194533D01*
X132448677Y-108194533D02*
X132313990Y-108329220D01*
X132313990Y-108329220D02*
X132212974Y-108362891D01*
X132212974Y-108362891D02*
X132145631Y-108362891D01*
X132145631Y-108362891D02*
X132044616Y-108329220D01*
X132044616Y-108329220D02*
X131876257Y-108160861D01*
X131876257Y-108160861D02*
X131842585Y-108059846D01*
X131842585Y-108059846D02*
X131842585Y-107992502D01*
X131842585Y-107992502D02*
X131876257Y-107891487D01*
X131876257Y-107891487D02*
X132010944Y-107756800D01*
X132010944Y-107756800D02*
X132111959Y-107723128D01*
X132111959Y-107723128D02*
X132179303Y-107723128D01*
X132179303Y-107723128D02*
X132280318Y-107756800D01*
X139923591Y-113562234D02*
X139990678Y-113568103D01*
X139990678Y-113568103D02*
X140130722Y-113512755D01*
X140130722Y-113512755D02*
X140203679Y-113451537D01*
X140203679Y-113451537D02*
X140282505Y-113323232D01*
X140282505Y-113323232D02*
X140294243Y-113189057D01*
X140294243Y-113189057D02*
X140269504Y-113085492D01*
X140269504Y-113085492D02*
X140183546Y-112908970D01*
X140183546Y-112908970D02*
X140091720Y-112799535D01*
X140091720Y-112799535D02*
X139932805Y-112684230D01*
X139932805Y-112684230D02*
X139835109Y-112641883D01*
X139835109Y-112641883D02*
X139700935Y-112630144D01*
X139700935Y-112630144D02*
X139560891Y-112685492D01*
X139560891Y-112685492D02*
X139487934Y-112746710D01*
X139487934Y-112746710D02*
X139409108Y-112875015D01*
X139409108Y-112875015D02*
X139403239Y-112942103D01*
X139255243Y-114247369D02*
X139692982Y-113880062D01*
X139474112Y-114063716D02*
X138831325Y-113297671D01*
X138831325Y-113297671D02*
X138996108Y-113345888D01*
X138996108Y-113345888D02*
X139130283Y-113357627D01*
X139130283Y-113357627D02*
X139233848Y-113332887D01*
X138357107Y-113695587D02*
X137882889Y-114093503D01*
X137882889Y-114093503D02*
X138383108Y-114171067D01*
X138383108Y-114171067D02*
X138273674Y-114262894D01*
X138273674Y-114262894D02*
X138231326Y-114360590D01*
X138231326Y-114360590D02*
X138225456Y-114427678D01*
X138225456Y-114427678D02*
X138250196Y-114531243D01*
X138250196Y-114531243D02*
X138403241Y-114713635D01*
X138403241Y-114713635D02*
X138500937Y-114755982D01*
X138500937Y-114755982D02*
X138568024Y-114761852D01*
X138568024Y-114761852D02*
X138671590Y-114737112D01*
X138671590Y-114737112D02*
X138890459Y-114553459D01*
X138890459Y-114553459D02*
X138932807Y-114455762D01*
X138932807Y-114455762D02*
X138938677Y-114388675D01*
X142085238Y-124070057D02*
X142180476Y-124022438D01*
X142180476Y-124022438D02*
X142275714Y-123927200D01*
X142275714Y-123927200D02*
X142418571Y-123784342D01*
X142418571Y-123784342D02*
X142513809Y-123736723D01*
X142513809Y-123736723D02*
X142609047Y-123736723D01*
X142561428Y-123974819D02*
X142656666Y-123927200D01*
X142656666Y-123927200D02*
X142751904Y-123831961D01*
X142751904Y-123831961D02*
X142799523Y-123641485D01*
X142799523Y-123641485D02*
X142799523Y-123308152D01*
X142799523Y-123308152D02*
X142751904Y-123117676D01*
X142751904Y-123117676D02*
X142656666Y-123022438D01*
X142656666Y-123022438D02*
X142561428Y-122974819D01*
X142561428Y-122974819D02*
X142370952Y-122974819D01*
X142370952Y-122974819D02*
X142275714Y-123022438D01*
X142275714Y-123022438D02*
X142180476Y-123117676D01*
X142180476Y-123117676D02*
X142132857Y-123308152D01*
X142132857Y-123308152D02*
X142132857Y-123641485D01*
X142132857Y-123641485D02*
X142180476Y-123831961D01*
X142180476Y-123831961D02*
X142275714Y-123927200D01*
X142275714Y-123927200D02*
X142370952Y-123974819D01*
X142370952Y-123974819D02*
X142561428Y-123974819D01*
X141751904Y-123070057D02*
X141704285Y-123022438D01*
X141704285Y-123022438D02*
X141609047Y-122974819D01*
X141609047Y-122974819D02*
X141370952Y-122974819D01*
X141370952Y-122974819D02*
X141275714Y-123022438D01*
X141275714Y-123022438D02*
X141228095Y-123070057D01*
X141228095Y-123070057D02*
X141180476Y-123165295D01*
X141180476Y-123165295D02*
X141180476Y-123260533D01*
X141180476Y-123260533D02*
X141228095Y-123403390D01*
X141228095Y-123403390D02*
X141799523Y-123974819D01*
X141799523Y-123974819D02*
X141180476Y-123974819D01*
X128011904Y-113204819D02*
X128011904Y-114014342D01*
X128011904Y-114014342D02*
X127964285Y-114109580D01*
X127964285Y-114109580D02*
X127916666Y-114157200D01*
X127916666Y-114157200D02*
X127821428Y-114204819D01*
X127821428Y-114204819D02*
X127630952Y-114204819D01*
X127630952Y-114204819D02*
X127535714Y-114157200D01*
X127535714Y-114157200D02*
X127488095Y-114109580D01*
X127488095Y-114109580D02*
X127440476Y-114014342D01*
X127440476Y-114014342D02*
X127440476Y-113204819D01*
X127059523Y-113204819D02*
X126440476Y-113204819D01*
X126440476Y-113204819D02*
X126773809Y-113585771D01*
X126773809Y-113585771D02*
X126630952Y-113585771D01*
X126630952Y-113585771D02*
X126535714Y-113633390D01*
X126535714Y-113633390D02*
X126488095Y-113681009D01*
X126488095Y-113681009D02*
X126440476Y-113776247D01*
X126440476Y-113776247D02*
X126440476Y-114014342D01*
X126440476Y-114014342D02*
X126488095Y-114109580D01*
X126488095Y-114109580D02*
X126535714Y-114157200D01*
X126535714Y-114157200D02*
X126630952Y-114204819D01*
X126630952Y-114204819D02*
X126916666Y-114204819D01*
X126916666Y-114204819D02*
X127011904Y-114157200D01*
X127011904Y-114157200D02*
X127059523Y-114109580D01*
X145566666Y-112189580D02*
X145614285Y-112237200D01*
X145614285Y-112237200D02*
X145757142Y-112284819D01*
X145757142Y-112284819D02*
X145852380Y-112284819D01*
X145852380Y-112284819D02*
X145995237Y-112237200D01*
X145995237Y-112237200D02*
X146090475Y-112141961D01*
X146090475Y-112141961D02*
X146138094Y-112046723D01*
X146138094Y-112046723D02*
X146185713Y-111856247D01*
X146185713Y-111856247D02*
X146185713Y-111713390D01*
X146185713Y-111713390D02*
X146138094Y-111522914D01*
X146138094Y-111522914D02*
X146090475Y-111427676D01*
X146090475Y-111427676D02*
X145995237Y-111332438D01*
X145995237Y-111332438D02*
X145852380Y-111284819D01*
X145852380Y-111284819D02*
X145757142Y-111284819D01*
X145757142Y-111284819D02*
X145614285Y-111332438D01*
X145614285Y-111332438D02*
X145566666Y-111380057D01*
X145233332Y-111284819D02*
X144566666Y-111284819D01*
X144566666Y-111284819D02*
X144995237Y-112284819D01*
X147422857Y-123484819D02*
X147756190Y-123008628D01*
X147994285Y-123484819D02*
X147994285Y-122484819D01*
X147994285Y-122484819D02*
X147613333Y-122484819D01*
X147613333Y-122484819D02*
X147518095Y-122532438D01*
X147518095Y-122532438D02*
X147470476Y-122580057D01*
X147470476Y-122580057D02*
X147422857Y-122675295D01*
X147422857Y-122675295D02*
X147422857Y-122818152D01*
X147422857Y-122818152D02*
X147470476Y-122913390D01*
X147470476Y-122913390D02*
X147518095Y-122961009D01*
X147518095Y-122961009D02*
X147613333Y-123008628D01*
X147613333Y-123008628D02*
X147994285Y-123008628D01*
X146470476Y-123484819D02*
X147041904Y-123484819D01*
X146756190Y-123484819D02*
X146756190Y-122484819D01*
X146756190Y-122484819D02*
X146851428Y-122627676D01*
X146851428Y-122627676D02*
X146946666Y-122722914D01*
X146946666Y-122722914D02*
X147041904Y-122770533D01*
X145518095Y-123484819D02*
X146089523Y-123484819D01*
X145803809Y-123484819D02*
X145803809Y-122484819D01*
X145803809Y-122484819D02*
X145899047Y-122627676D01*
X145899047Y-122627676D02*
X145994285Y-122722914D01*
X145994285Y-122722914D02*
X146089523Y-122770533D01*
X148745238Y-107920057D02*
X148840476Y-107872438D01*
X148840476Y-107872438D02*
X148935714Y-107777200D01*
X148935714Y-107777200D02*
X149078571Y-107634342D01*
X149078571Y-107634342D02*
X149173809Y-107586723D01*
X149173809Y-107586723D02*
X149269047Y-107586723D01*
X149221428Y-107824819D02*
X149316666Y-107777200D01*
X149316666Y-107777200D02*
X149411904Y-107681961D01*
X149411904Y-107681961D02*
X149459523Y-107491485D01*
X149459523Y-107491485D02*
X149459523Y-107158152D01*
X149459523Y-107158152D02*
X149411904Y-106967676D01*
X149411904Y-106967676D02*
X149316666Y-106872438D01*
X149316666Y-106872438D02*
X149221428Y-106824819D01*
X149221428Y-106824819D02*
X149030952Y-106824819D01*
X149030952Y-106824819D02*
X148935714Y-106872438D01*
X148935714Y-106872438D02*
X148840476Y-106967676D01*
X148840476Y-106967676D02*
X148792857Y-107158152D01*
X148792857Y-107158152D02*
X148792857Y-107491485D01*
X148792857Y-107491485D02*
X148840476Y-107681961D01*
X148840476Y-107681961D02*
X148935714Y-107777200D01*
X148935714Y-107777200D02*
X149030952Y-107824819D01*
X149030952Y-107824819D02*
X149221428Y-107824819D01*
X147935714Y-106824819D02*
X148126190Y-106824819D01*
X148126190Y-106824819D02*
X148221428Y-106872438D01*
X148221428Y-106872438D02*
X148269047Y-106920057D01*
X148269047Y-106920057D02*
X148364285Y-107062914D01*
X148364285Y-107062914D02*
X148411904Y-107253390D01*
X148411904Y-107253390D02*
X148411904Y-107634342D01*
X148411904Y-107634342D02*
X148364285Y-107729580D01*
X148364285Y-107729580D02*
X148316666Y-107777200D01*
X148316666Y-107777200D02*
X148221428Y-107824819D01*
X148221428Y-107824819D02*
X148030952Y-107824819D01*
X148030952Y-107824819D02*
X147935714Y-107777200D01*
X147935714Y-107777200D02*
X147888095Y-107729580D01*
X147888095Y-107729580D02*
X147840476Y-107634342D01*
X147840476Y-107634342D02*
X147840476Y-107396247D01*
X147840476Y-107396247D02*
X147888095Y-107301009D01*
X147888095Y-107301009D02*
X147935714Y-107253390D01*
X147935714Y-107253390D02*
X148030952Y-107205771D01*
X148030952Y-107205771D02*
X148221428Y-107205771D01*
X148221428Y-107205771D02*
X148316666Y-107253390D01*
X148316666Y-107253390D02*
X148364285Y-107301009D01*
X148364285Y-107301009D02*
X148411904Y-107396247D01*
X162626666Y-118889580D02*
X162674285Y-118937200D01*
X162674285Y-118937200D02*
X162817142Y-118984819D01*
X162817142Y-118984819D02*
X162912380Y-118984819D01*
X162912380Y-118984819D02*
X163055237Y-118937200D01*
X163055237Y-118937200D02*
X163150475Y-118841961D01*
X163150475Y-118841961D02*
X163198094Y-118746723D01*
X163198094Y-118746723D02*
X163245713Y-118556247D01*
X163245713Y-118556247D02*
X163245713Y-118413390D01*
X163245713Y-118413390D02*
X163198094Y-118222914D01*
X163198094Y-118222914D02*
X163150475Y-118127676D01*
X163150475Y-118127676D02*
X163055237Y-118032438D01*
X163055237Y-118032438D02*
X162912380Y-117984819D01*
X162912380Y-117984819D02*
X162817142Y-117984819D01*
X162817142Y-117984819D02*
X162674285Y-118032438D01*
X162674285Y-118032438D02*
X162626666Y-118080057D01*
X161674285Y-118984819D02*
X162245713Y-118984819D01*
X161959999Y-118984819D02*
X161959999Y-117984819D01*
X161959999Y-117984819D02*
X162055237Y-118127676D01*
X162055237Y-118127676D02*
X162150475Y-118222914D01*
X162150475Y-118222914D02*
X162245713Y-118270533D01*
D13*
X125901428Y-109080440D02*
X125925237Y-109104250D01*
X125925237Y-109104250D02*
X125996666Y-109128059D01*
X125996666Y-109128059D02*
X126044285Y-109128059D01*
X126044285Y-109128059D02*
X126115713Y-109104250D01*
X126115713Y-109104250D02*
X126163332Y-109056630D01*
X126163332Y-109056630D02*
X126187142Y-109009011D01*
X126187142Y-109009011D02*
X126210951Y-108913773D01*
X126210951Y-108913773D02*
X126210951Y-108842345D01*
X126210951Y-108842345D02*
X126187142Y-108747107D01*
X126187142Y-108747107D02*
X126163332Y-108699488D01*
X126163332Y-108699488D02*
X126115713Y-108651869D01*
X126115713Y-108651869D02*
X126044285Y-108628059D01*
X126044285Y-108628059D02*
X125996666Y-108628059D01*
X125996666Y-108628059D02*
X125925237Y-108651869D01*
X125925237Y-108651869D02*
X125901428Y-108675678D01*
X125425237Y-109128059D02*
X125710951Y-109128059D01*
X125568094Y-109128059D02*
X125568094Y-108628059D01*
X125568094Y-108628059D02*
X125615713Y-108699488D01*
X125615713Y-108699488D02*
X125663332Y-108747107D01*
X125663332Y-108747107D02*
X125710951Y-108770916D01*
X125258571Y-108628059D02*
X124925238Y-108628059D01*
X124925238Y-108628059D02*
X125139523Y-109128059D01*
D11*
X136059580Y-111033333D02*
X136107200Y-110985714D01*
X136107200Y-110985714D02*
X136154819Y-110842857D01*
X136154819Y-110842857D02*
X136154819Y-110747619D01*
X136154819Y-110747619D02*
X136107200Y-110604762D01*
X136107200Y-110604762D02*
X136011961Y-110509524D01*
X136011961Y-110509524D02*
X135916723Y-110461905D01*
X135916723Y-110461905D02*
X135726247Y-110414286D01*
X135726247Y-110414286D02*
X135583390Y-110414286D01*
X135583390Y-110414286D02*
X135392914Y-110461905D01*
X135392914Y-110461905D02*
X135297676Y-110509524D01*
X135297676Y-110509524D02*
X135202438Y-110604762D01*
X135202438Y-110604762D02*
X135154819Y-110747619D01*
X135154819Y-110747619D02*
X135154819Y-110842857D01*
X135154819Y-110842857D02*
X135202438Y-110985714D01*
X135202438Y-110985714D02*
X135250057Y-111033333D01*
X136154819Y-111509524D02*
X136154819Y-111700000D01*
X136154819Y-111700000D02*
X136107200Y-111795238D01*
X136107200Y-111795238D02*
X136059580Y-111842857D01*
X136059580Y-111842857D02*
X135916723Y-111938095D01*
X135916723Y-111938095D02*
X135726247Y-111985714D01*
X135726247Y-111985714D02*
X135345295Y-111985714D01*
X135345295Y-111985714D02*
X135250057Y-111938095D01*
X135250057Y-111938095D02*
X135202438Y-111890476D01*
X135202438Y-111890476D02*
X135154819Y-111795238D01*
X135154819Y-111795238D02*
X135154819Y-111604762D01*
X135154819Y-111604762D02*
X135202438Y-111509524D01*
X135202438Y-111509524D02*
X135250057Y-111461905D01*
X135250057Y-111461905D02*
X135345295Y-111414286D01*
X135345295Y-111414286D02*
X135583390Y-111414286D01*
X135583390Y-111414286D02*
X135678628Y-111461905D01*
X135678628Y-111461905D02*
X135726247Y-111509524D01*
X135726247Y-111509524D02*
X135773866Y-111604762D01*
X135773866Y-111604762D02*
X135773866Y-111795238D01*
X135773866Y-111795238D02*
X135726247Y-111890476D01*
X135726247Y-111890476D02*
X135678628Y-111938095D01*
X135678628Y-111938095D02*
X135583390Y-111985714D01*
X126943218Y-97332710D02*
X127010562Y-97332710D01*
X127010562Y-97332710D02*
X127145249Y-97265366D01*
X127145249Y-97265366D02*
X127212592Y-97198023D01*
X127212592Y-97198023D02*
X127279936Y-97063336D01*
X127279936Y-97063336D02*
X127279936Y-96928649D01*
X127279936Y-96928649D02*
X127246264Y-96827634D01*
X127246264Y-96827634D02*
X127145249Y-96659275D01*
X127145249Y-96659275D02*
X127044234Y-96558260D01*
X127044234Y-96558260D02*
X126875875Y-96457244D01*
X126875875Y-96457244D02*
X126774860Y-96423573D01*
X126774860Y-96423573D02*
X126640173Y-96423573D01*
X126640173Y-96423573D02*
X126505486Y-96490916D01*
X126505486Y-96490916D02*
X126438142Y-96558260D01*
X126438142Y-96558260D02*
X126370799Y-96692947D01*
X126370799Y-96692947D02*
X126370799Y-96760290D01*
X126337127Y-98073488D02*
X126741188Y-97669427D01*
X126539157Y-97871458D02*
X125832051Y-97164351D01*
X125832051Y-97164351D02*
X126000409Y-97198023D01*
X126000409Y-97198023D02*
X126135096Y-97198023D01*
X126135096Y-97198023D02*
X126236112Y-97164351D01*
X125023928Y-97972473D02*
X125158615Y-97837786D01*
X125158615Y-97837786D02*
X125259631Y-97804115D01*
X125259631Y-97804115D02*
X125326974Y-97804115D01*
X125326974Y-97804115D02*
X125495333Y-97837786D01*
X125495333Y-97837786D02*
X125663692Y-97938802D01*
X125663692Y-97938802D02*
X125933066Y-98208176D01*
X125933066Y-98208176D02*
X125966737Y-98309191D01*
X125966737Y-98309191D02*
X125966737Y-98376534D01*
X125966737Y-98376534D02*
X125933066Y-98477550D01*
X125933066Y-98477550D02*
X125798379Y-98612237D01*
X125798379Y-98612237D02*
X125697363Y-98645908D01*
X125697363Y-98645908D02*
X125630020Y-98645908D01*
X125630020Y-98645908D02*
X125529005Y-98612237D01*
X125529005Y-98612237D02*
X125360646Y-98443878D01*
X125360646Y-98443878D02*
X125326974Y-98342863D01*
X125326974Y-98342863D02*
X125326974Y-98275519D01*
X125326974Y-98275519D02*
X125360646Y-98174504D01*
X125360646Y-98174504D02*
X125495333Y-98039817D01*
X125495333Y-98039817D02*
X125596348Y-98006145D01*
X125596348Y-98006145D02*
X125663692Y-98006145D01*
X125663692Y-98006145D02*
X125764707Y-98039817D01*
X150836667Y-124504819D02*
X151170000Y-124028628D01*
X151408095Y-124504819D02*
X151408095Y-123504819D01*
X151408095Y-123504819D02*
X151027143Y-123504819D01*
X151027143Y-123504819D02*
X150931905Y-123552438D01*
X150931905Y-123552438D02*
X150884286Y-123600057D01*
X150884286Y-123600057D02*
X150836667Y-123695295D01*
X150836667Y-123695295D02*
X150836667Y-123838152D01*
X150836667Y-123838152D02*
X150884286Y-123933390D01*
X150884286Y-123933390D02*
X150931905Y-123981009D01*
X150931905Y-123981009D02*
X151027143Y-124028628D01*
X151027143Y-124028628D02*
X151408095Y-124028628D01*
X149931905Y-123504819D02*
X150408095Y-123504819D01*
X150408095Y-123504819D02*
X150455714Y-123981009D01*
X150455714Y-123981009D02*
X150408095Y-123933390D01*
X150408095Y-123933390D02*
X150312857Y-123885771D01*
X150312857Y-123885771D02*
X150074762Y-123885771D01*
X150074762Y-123885771D02*
X149979524Y-123933390D01*
X149979524Y-123933390D02*
X149931905Y-123981009D01*
X149931905Y-123981009D02*
X149884286Y-124076247D01*
X149884286Y-124076247D02*
X149884286Y-124314342D01*
X149884286Y-124314342D02*
X149931905Y-124409580D01*
X149931905Y-124409580D02*
X149979524Y-124457200D01*
X149979524Y-124457200D02*
X150074762Y-124504819D01*
X150074762Y-124504819D02*
X150312857Y-124504819D01*
X150312857Y-124504819D02*
X150408095Y-124457200D01*
X150408095Y-124457200D02*
X150455714Y-124409580D01*
X162155617Y-113368771D02*
X162488950Y-112892580D01*
X162727045Y-113368771D02*
X162727045Y-112368771D01*
X162727045Y-112368771D02*
X162346093Y-112368771D01*
X162346093Y-112368771D02*
X162250855Y-112416390D01*
X162250855Y-112416390D02*
X162203236Y-112464009D01*
X162203236Y-112464009D02*
X162155617Y-112559247D01*
X162155617Y-112559247D02*
X162155617Y-112702104D01*
X162155617Y-112702104D02*
X162203236Y-112797342D01*
X162203236Y-112797342D02*
X162250855Y-112844961D01*
X162250855Y-112844961D02*
X162346093Y-112892580D01*
X162346093Y-112892580D02*
X162727045Y-112892580D01*
X161298474Y-112702104D02*
X161298474Y-113368771D01*
X161536569Y-112321152D02*
X161774664Y-113035437D01*
X161774664Y-113035437D02*
X161155617Y-113035437D01*
D14*
%TO.C,BZ1*%
X163239814Y-125358812D02*
G75*
G02*
X162477814Y-125358812I-381000J0D01*
G01*
X162477814Y-125358812D02*
G75*
G02*
X163239814Y-125358812I381000J0D01*
G01*
D15*
%TO.C,Q1*%
X153234782Y-126752303D02*
X152862682Y-126616870D01*
X153116449Y-126498536D01*
X153234782Y-126752303D01*
G36*
X153234782Y-126752303D02*
G01*
X152862682Y-126616870D01*
X153116449Y-126498536D01*
X153234782Y-126752303D01*
G37*
X153666243Y-126352501D02*
X155478860Y-125507264D01*
X152728030Y-124340498D02*
X154540647Y-123495261D01*
%TO.C,Q5*%
X133091164Y-111342410D02*
X132695185Y-111342410D01*
X132893175Y-111144419D01*
X133091164Y-111342410D01*
G36*
X133091164Y-111342410D02*
G01*
X132695185Y-111342410D01*
X132893175Y-111144419D01*
X133091164Y-111342410D01*
G37*
X133359866Y-110819150D02*
X134774080Y-109404936D01*
X131790088Y-109249374D02*
X133204302Y-107835160D01*
D14*
%TO.C,SW1*%
X153838000Y-128281500D02*
G75*
G02*
X153076000Y-128281500I-381000J0D01*
G01*
X153076000Y-128281500D02*
G75*
G02*
X153838000Y-128281500I381000J0D01*
G01*
D16*
X151679000Y-129922340D02*
X151679000Y-130577660D01*
X151310700Y-131723200D02*
X145189300Y-131723200D01*
X148277940Y-128776800D02*
X149720660Y-128776800D01*
X144821000Y-130577660D02*
X144821000Y-129922340D01*
D15*
%TO.C,U1*%
X164652499Y-116990000D02*
X164172499Y-116990000D01*
X164412498Y-116660000D01*
X164652499Y-116990000D01*
G36*
X164652499Y-116990000D02*
G01*
X164172499Y-116990000D01*
X164412498Y-116660000D01*
X164652499Y-116990000D01*
G37*
X166599999Y-116860000D02*
X168099999Y-116860000D01*
X166599999Y-116860000D02*
X165099999Y-116860000D01*
X166599999Y-113640000D02*
X168099999Y-113640000D01*
X166599999Y-113640000D02*
X165099999Y-113640000D01*
%TO.C,U5*%
X157527500Y-97527500D02*
X157527500Y-97247500D01*
X157807500Y-97247500D01*
X157527500Y-97527500D01*
G36*
X157527500Y-97527500D02*
G01*
X157527500Y-97247500D01*
X157807500Y-97247500D01*
X157527500Y-97527500D01*
G37*
X157547500Y-96737500D02*
X157547500Y-93737500D01*
X155327500Y-96737500D02*
X155327500Y-93737500D01*
%TO.C,F1*%
X158328951Y-113731888D02*
X158328951Y-114936016D01*
X160148951Y-113731888D02*
X160148951Y-114936016D01*
%TO.C,C2*%
X167610000Y-117942164D02*
X167610000Y-118157836D01*
X168330000Y-117942164D02*
X168330000Y-118157836D01*
%TO.C,R10*%
X143390000Y-124436359D02*
X143390000Y-124743641D01*
X144150000Y-124436359D02*
X144150000Y-124743641D01*
%TO.C,C11*%
X134861977Y-95780283D02*
X133219718Y-94138024D01*
X137280282Y-93361976D02*
X135638023Y-91719717D01*
%TO.C,R30*%
X145746359Y-109520000D02*
X146053641Y-109520000D01*
X145746359Y-110280000D02*
X146053641Y-110280000D01*
%TO.C,C15*%
X131644642Y-98926904D02*
X130002383Y-97284645D01*
X134062947Y-96508597D02*
X132420688Y-94866338D01*
%TO.C,R18*%
X127860000Y-115826360D02*
X127860003Y-116133641D01*
X128619997Y-115826359D02*
X128620000Y-116133640D01*
%TO.C,R6*%
X139350000Y-120933641D02*
X139350000Y-120626359D01*
X140110000Y-120933641D02*
X140110000Y-120626359D01*
%TO.C,C4*%
X149219874Y-119768747D02*
X149219874Y-120291253D01*
X150689874Y-119768747D02*
X150689874Y-120291253D01*
%TO.C,C19*%
X161795000Y-98418747D02*
X161795000Y-98941253D01*
X163265000Y-98418747D02*
X163265000Y-98941253D01*
%TO.C,R29*%
X143021359Y-107120000D02*
X143328641Y-107120000D01*
X143021359Y-107880000D02*
X143328641Y-107880000D01*
%TO.C,R1*%
X162142592Y-115053953D02*
X161835310Y-115053953D01*
X162142592Y-115813953D02*
X161835310Y-115813953D01*
D16*
%TO.C,U4*%
X126479400Y-109933996D02*
X126479404Y-106682796D01*
X129730604Y-106682800D02*
X129730600Y-109934000D01*
X127206201Y-106078397D02*
G75*
G02*
X127053801Y-106078397I-76200J0D01*
G01*
X127053801Y-106078397D02*
G75*
G02*
X127206201Y-106078397I76200J0D01*
G01*
D15*
%TO.C,R20*%
X126650000Y-115316359D02*
X126649999Y-115623641D01*
X127410001Y-115316359D02*
X127410000Y-115623641D01*
%TO.C,C6*%
X145371253Y-115675000D02*
X144848747Y-115675000D01*
X145371253Y-117145000D02*
X144848747Y-117145000D01*
D17*
%TO.C,L3*%
X155750000Y-91490000D02*
X157750000Y-91490000D01*
X157750000Y-89890000D02*
X155750000Y-89890000D01*
D15*
%TO.C,R22*%
X156273641Y-98600000D02*
X155966359Y-98599999D01*
X156273641Y-99360001D02*
X155966359Y-99360000D01*
%TO.C,R9*%
X140940000Y-127136359D02*
X140940000Y-127443641D01*
X141700000Y-127136359D02*
X141700000Y-127443641D01*
%TO.C,C3*%
X146745000Y-119768747D02*
X146745000Y-120291253D01*
X148215000Y-119768747D02*
X148215000Y-120291253D01*
%TO.C,C12*%
X132570000Y-122204252D02*
X132570000Y-125035748D01*
X137790000Y-122204252D02*
X137790000Y-125035748D01*
%TO.C,R17*%
X129996359Y-104850004D02*
X130303639Y-104849998D01*
X129996361Y-105610002D02*
X130303641Y-105609996D01*
%TO.C,F2*%
X152210817Y-121158928D02*
X152719701Y-122250238D01*
X153860299Y-120389762D02*
X154369183Y-121481072D01*
%TO.C,R3*%
X170108951Y-116180311D02*
X170108951Y-116487593D01*
X170868951Y-116180311D02*
X170868951Y-116487593D01*
%TO.C,D1*%
X156793951Y-118493952D02*
X160803951Y-118493952D01*
X156793951Y-120493952D02*
X156793951Y-118493952D01*
X156793951Y-120493952D02*
X160803951Y-120493952D01*
%TO.C,C18*%
X157011252Y-86515000D02*
X156488748Y-86515000D01*
X157011252Y-87985000D02*
X156488748Y-87985000D01*
%TO.C,Q3*%
X143870000Y-126280000D02*
X143870000Y-127280000D01*
X145090000Y-126280000D02*
X145090000Y-127280000D01*
X143940000Y-126040000D02*
X143660000Y-126040000D01*
X143940000Y-125760000D01*
X143940000Y-126040000D01*
G36*
X143940000Y-126040000D02*
G01*
X143660000Y-126040000D01*
X143940000Y-125760000D01*
X143940000Y-126040000D01*
G37*
%TO.C,R8*%
X142020000Y-127443641D02*
X142020000Y-127136359D01*
X142780000Y-127443641D02*
X142780000Y-127136359D01*
%TO.C,Q4*%
X139370000Y-126030000D02*
X139370000Y-125030000D01*
X140590000Y-126030000D02*
X140590000Y-125030000D01*
X140520000Y-126550000D02*
X140520000Y-126270000D01*
X140800000Y-126270000D01*
X140520000Y-126550000D01*
G36*
X140520000Y-126550000D02*
G01*
X140520000Y-126270000D01*
X140800000Y-126270000D01*
X140520000Y-126550000D01*
G37*
%TO.C,R2*%
X170108951Y-113680311D02*
X170108951Y-113987593D01*
X170868951Y-113680311D02*
X170868951Y-113987593D01*
%TO.C,R7*%
X144630001Y-119886358D02*
X144630001Y-120193641D01*
X145389999Y-119886359D02*
X145389999Y-120193642D01*
%TO.C,R15*%
X137870000Y-105403641D02*
X137870000Y-105096359D01*
X138630000Y-105403641D02*
X138630000Y-105096359D01*
%TO.C,C8*%
X130872164Y-115450000D02*
X131087836Y-115450000D01*
X130872164Y-116170000D02*
X131087836Y-116170000D01*
%TO.C,R19*%
X126299943Y-112207341D02*
X126082657Y-111990062D01*
X126837343Y-111669938D02*
X126620057Y-111452659D01*
%TO.C,C14*%
X133825000Y-113538747D02*
X133825000Y-114061253D01*
X135295000Y-113538747D02*
X135295000Y-114061253D01*
D17*
%TO.C,U2*%
X140525000Y-120280000D02*
X140525000Y-118780000D01*
X142935000Y-120280000D02*
X142935000Y-118780000D01*
D18*
X142580000Y-121275000D02*
G75*
G02*
X142380000Y-121275000I-100000J0D01*
G01*
X142380000Y-121275000D02*
G75*
G02*
X142580000Y-121275000I100000J0D01*
G01*
D15*
%TO.C,C5*%
X143261252Y-113465000D02*
X142738748Y-113465000D01*
X143261252Y-114935000D02*
X142738748Y-114935000D01*
%TO.C,R14*%
X139733641Y-129429997D02*
X139426357Y-129430003D01*
X139733643Y-130189997D02*
X139426359Y-130190003D01*
%TO.C,R13*%
X139383641Y-122150000D02*
X139076359Y-122150000D01*
X139383641Y-122910000D02*
X139076359Y-122910000D01*
D17*
%TO.C,L1*%
X140650000Y-117210000D02*
X142650000Y-117210000D01*
X142650000Y-115610000D02*
X140650000Y-115610000D01*
D15*
%TO.C,R16*%
X130622657Y-108919938D02*
X130839940Y-108702657D01*
X131160060Y-109457343D02*
X131377343Y-109240062D01*
%TO.C,C13*%
X135622421Y-116524249D02*
X136628283Y-115518387D01*
X137545751Y-118447579D02*
X138551613Y-117441717D01*
D17*
%TO.C,U9*%
X138030000Y-88380000D02*
X136030000Y-88380000D01*
X138030000Y-90620000D02*
X136030000Y-90620000D01*
D18*
X139090000Y-89000000D02*
G75*
G02*
X138890000Y-89000000I-100000J0D01*
G01*
X138890000Y-89000000D02*
G75*
G02*
X139090000Y-89000000I100000J0D01*
G01*
D15*
%TO.C,Q2*%
X141480000Y-124670000D02*
X142480000Y-124670000D01*
X141480000Y-125890000D02*
X142480000Y-125890000D01*
X141240000Y-126100000D02*
X140960000Y-125820000D01*
X141240000Y-125820000D01*
X141240000Y-126100000D01*
G36*
X141240000Y-126100000D02*
G01*
X140960000Y-125820000D01*
X141240000Y-125820000D01*
X141240000Y-126100000D01*
G37*
D18*
%TO.C,U3*%
X128540001Y-111670000D02*
X128540001Y-111869999D01*
X128540001Y-111670000D02*
X128740001Y-111670000D01*
X128540001Y-114769999D02*
X128540001Y-114969998D01*
X128540001Y-114969998D02*
X129040000Y-114969998D01*
X132139999Y-111670000D02*
X132339999Y-111670000D01*
X132139999Y-114969998D02*
X132339999Y-114969998D01*
X132339999Y-111670000D02*
X132339999Y-111869999D01*
X132339999Y-114769999D02*
X132339999Y-114969998D01*
X128290000Y-114469999D02*
G75*
G02*
X128090000Y-114469999I-100000J0D01*
G01*
X128090000Y-114469999D02*
G75*
G02*
X128290000Y-114469999I100000J0D01*
G01*
D15*
%TO.C,C7*%
X143507836Y-111470000D02*
X143292164Y-111470000D01*
X143507836Y-112190000D02*
X143292164Y-112190000D01*
%TO.C,R11*%
X144126359Y-122650000D02*
X144433641Y-122650000D01*
X144126359Y-123410000D02*
X144433641Y-123410000D01*
%TO.C,J11*%
X140125000Y-91700000D02*
X140125000Y-89900000D01*
X140125000Y-97700000D02*
X140125000Y-93000000D01*
X140125000Y-103010000D02*
X140125000Y-99400000D01*
X140575000Y-103010000D02*
X140125000Y-103010000D01*
X141155000Y-86740000D02*
X140955000Y-86940000D01*
X141155000Y-86740000D02*
X143015000Y-86740000D01*
X143015000Y-86740000D02*
X143225000Y-86940000D01*
X143225000Y-87090000D02*
X143225000Y-86940000D01*
X143225000Y-87090000D02*
X149594999Y-87090000D01*
X150105000Y-86740001D02*
X149594999Y-87090000D01*
X152175000Y-103010000D02*
X154095000Y-103010000D01*
X152415000Y-86740000D02*
X150105000Y-86740001D01*
X152415000Y-86740000D02*
X152615000Y-86940000D01*
X152615000Y-86940000D02*
X152875000Y-86940000D01*
X154095000Y-103010000D02*
X154095000Y-89000000D01*
%TO.C,Q6*%
X144890000Y-106660000D02*
X144890000Y-108070000D01*
X147210000Y-106670000D02*
X147210000Y-108070000D01*
X144940000Y-106290000D02*
X144610000Y-106530000D01*
X144610000Y-106050000D01*
X144940000Y-106290000D01*
G36*
X144940000Y-106290000D02*
G01*
X144610000Y-106530000D01*
X144610000Y-106050000D01*
X144940000Y-106290000D01*
G37*
%TO.C,C1*%
X162378951Y-116826117D02*
X162378951Y-117041789D01*
X163098951Y-116826117D02*
X163098951Y-117041789D01*
%TO.C,C17*%
X125382835Y-109311601D02*
X125167161Y-109311599D01*
X125382837Y-110031599D02*
X125167163Y-110031597D01*
%TO.C,C9*%
X134057835Y-111140001D02*
X133842163Y-111140001D01*
X134057835Y-111860001D02*
X133842163Y-111860001D01*
%TO.C,C16*%
X128498016Y-102144240D02*
X126855757Y-100501981D01*
X130916321Y-99725933D02*
X129274062Y-98083674D01*
%TO.C,R5*%
X151750673Y-123311348D02*
X151880536Y-123589841D01*
X152439464Y-122990159D02*
X152569327Y-123268652D01*
%TO.C,R4*%
X162142592Y-113703952D02*
X161835310Y-113703952D01*
X162142592Y-114463952D02*
X161835310Y-114463952D01*
%TD*%
D19*
X158781189Y-132117589D02*
G75*
G02*
X156696039Y-132856031I-2016189J2379989D01*
G01*
X138696039Y-132856039D02*
G75*
G02*
X136610893Y-132117584I-68939J3118439D01*
G01*
X171509111Y-119389666D02*
X158781189Y-132117588D01*
X122968638Y-117373186D02*
X122968638Y-99373186D01*
X136471192Y-84573283D02*
G75*
G02*
X138556342Y-83834835I2016208J-2380017D01*
G01*
X122968638Y-99373186D02*
G75*
G02*
X123743253Y-97301199I3119162J14686D01*
G01*
X138556342Y-83838454D02*
X156838789Y-83838454D01*
X171651861Y-97304825D02*
X158923939Y-84576903D01*
X136613961Y-132113961D02*
X123886039Y-119386039D01*
X172426483Y-117376806D02*
X172426483Y-99376806D01*
X123886039Y-119386039D02*
G75*
G02*
X122968694Y-117373184I2195261J2215939D01*
G01*
X156696039Y-132856039D02*
X138696039Y-132856039D01*
X172426483Y-117376813D02*
G75*
G02*
X171509128Y-119389684I-3112683J203113D01*
G01*
X123743270Y-97301205D02*
X136471192Y-84573283D01*
X156838789Y-83838453D02*
G75*
G02*
X158923924Y-84576921I68911J-3118447D01*
G01*
X171651862Y-97304825D02*
G75*
G02*
X172426456Y-99376806I-2344562J-2057275D01*
G01*
M02*
