%TF.GenerationSoftware,KiCad,Pcbnew,9.0.2*%
%TF.CreationDate,2025-08-04T17:32:57-07:00*%
%TF.ProjectId,AERoS,4145526f-532e-46b6-9963-61645f706362,rev?*%
%TF.SameCoordinates,Original*%
%TF.FileFunction,Copper,L3,Inr*%
%TF.FilePolarity,Positive*%
%FSLAX46Y46*%
G04 Gerber Fmt 4.6, Leading zero omitted, Abs format (unit mm)*
G04 Created by KiCad (PCBNEW 9.0.2) date 2025-08-04 17:32:57*
%MOMM*%
%LPD*%
G01*
G04 APERTURE LIST*
G04 Aperture macros list*
%AMRotRect*
0 Rectangle, with rotation*
0 The origin of the aperture is its center*
0 $1 length*
0 $2 width*
0 $3 Rotation angle, in degrees counterclockwise*
0 Add horizontal line*
21,1,$1,$2,0,0,$3*%
G04 Aperture macros list end*
%TA.AperFunction,HeatsinkPad*%
%ADD10O,1.800000X1.000000*%
%TD*%
%TA.AperFunction,HeatsinkPad*%
%ADD11O,2.100000X1.000000*%
%TD*%
%TA.AperFunction,HeatsinkPad*%
%ADD12C,0.600000*%
%TD*%
%TA.AperFunction,ComponentPad*%
%ADD13RotRect,1.700000X1.700000X45.000000*%
%TD*%
%TA.AperFunction,ComponentPad*%
%ADD14C,1.700000*%
%TD*%
%TA.AperFunction,ViaPad*%
%ADD15C,2.000000*%
%TD*%
%TA.AperFunction,ViaPad*%
%ADD16C,0.600000*%
%TD*%
%TA.AperFunction,ViaPad*%
%ADD17C,0.800000*%
%TD*%
%TA.AperFunction,ViaPad*%
%ADD18C,2.400000*%
%TD*%
%TA.AperFunction,ViaPad*%
%ADD19C,1.200000*%
%TD*%
%TA.AperFunction,ViaPad*%
%ADD20C,1.000000*%
%TD*%
%TA.AperFunction,ViaPad*%
%ADD21C,1.400000*%
%TD*%
%TA.AperFunction,Conductor*%
%ADD22C,0.300000*%
%TD*%
%TA.AperFunction,Conductor*%
%ADD23C,0.400000*%
%TD*%
%TA.AperFunction,Conductor*%
%ADD24C,1.000000*%
%TD*%
%TA.AperFunction,Conductor*%
%ADD25C,0.250000*%
%TD*%
%TA.AperFunction,Conductor*%
%ADD26C,0.200000*%
%TD*%
%TA.AperFunction,Profile*%
%ADD27C,0.050000*%
%TD*%
G04 APERTURE END LIST*
D10*
%TO.N,GND*%
%TO.C,J9*%
X168825000Y-103430000D03*
D11*
X164625000Y-103430000D03*
D10*
X168825000Y-112070000D03*
D11*
X164625000Y-112070000D03*
%TD*%
D12*
%TO.N,GND*%
%TO.C,U1*%
X167084999Y-115890000D03*
X167084999Y-114610000D03*
X166114999Y-115890000D03*
X166114999Y-114610000D03*
%TD*%
D13*
%TO.N,/Devices/SW_CLK*%
%TO.C,J10*%
X159203949Y-89203949D03*
D14*
%TO.N,/Devices/SW_DIO*%
X161000000Y-91000000D03*
%TO.N,unconnected-(J10-Pin_3-Pad3)*%
X162796051Y-92796051D03*
%TO.N,unconnected-(J10-Pin_4-Pad4)*%
X164592104Y-94592106D03*
%TO.N,unconnected-(J10-Pin_5-Pad5)*%
X166388154Y-96388154D03*
%TD*%
D15*
%TO.N,GND*%
X130550000Y-97640000D03*
D16*
X144120000Y-120549999D03*
X142067116Y-90900132D03*
X147230000Y-90690000D03*
X141758849Y-117316488D03*
D17*
X136500000Y-106040000D03*
X139090000Y-98010000D03*
D18*
X148860000Y-125620000D03*
D17*
X163970000Y-117620000D03*
X146390000Y-122060000D03*
X156680000Y-110520000D03*
D16*
X137370000Y-106610000D03*
D19*
X161670000Y-101560000D03*
D16*
X168390000Y-100200000D03*
X151090000Y-115870000D03*
D20*
X157657417Y-95459500D03*
D17*
X135740000Y-109600000D03*
X140090000Y-127190000D03*
X156650000Y-114100000D03*
D19*
X153580000Y-85980000D03*
D17*
X151460000Y-122020000D03*
X136390000Y-112575000D03*
D16*
X137240000Y-88025000D03*
X169307789Y-117086626D03*
D19*
X140290000Y-85930000D03*
X155780000Y-88900000D03*
D16*
X143445895Y-95246892D03*
D19*
X151010000Y-118210000D03*
X129360000Y-115990000D03*
D17*
X160713951Y-115655966D03*
D16*
X144600000Y-113400000D03*
D18*
X136550000Y-128950000D03*
D16*
X132390000Y-95610000D03*
X141090000Y-97050000D03*
D17*
X149890000Y-104410000D03*
D16*
X147700000Y-116900000D03*
X149170000Y-113380000D03*
X152510000Y-90830000D03*
D19*
X136550000Y-114370000D03*
D17*
X135660000Y-101340000D03*
D16*
X141701000Y-112400000D03*
D20*
X144400000Y-104100000D03*
D16*
X153870000Y-101990000D03*
D17*
X124590000Y-108250000D03*
%TO.N,/Power/Battery Direct/FILT_BATT*%
X142830000Y-124530000D03*
D19*
X149960000Y-122510000D03*
D17*
X145550000Y-126800000D03*
X149020000Y-127890000D03*
%TO.N,+3.3V*%
X155720000Y-113040000D03*
D16*
X153900000Y-101020000D03*
X156940000Y-102440000D03*
D17*
X140000000Y-111679949D03*
D16*
X142945499Y-114625696D03*
D17*
X126504995Y-110516739D03*
D16*
X142960363Y-113599027D03*
X150051600Y-113401762D03*
D19*
X138967574Y-90844839D03*
D17*
X133660000Y-106870000D03*
D16*
X153720000Y-116380000D03*
X142480362Y-117662063D03*
X134110000Y-93790000D03*
D19*
X137800000Y-98430000D03*
D20*
X139990000Y-124280000D03*
D17*
X147980000Y-106249000D03*
D16*
X141275002Y-98620000D03*
X139300000Y-95370000D03*
D15*
%TO.N,/Power/Servo Power/SERVO+*%
X133490000Y-100530000D03*
D21*
%TO.N,/Power/Battery Direct/BATT_OUT*%
X135190000Y-119050000D03*
D19*
X153400000Y-121300000D03*
D16*
%TO.N,+BATT*%
X141360000Y-124390000D03*
D17*
X140190000Y-121940000D03*
D20*
X153860000Y-99140000D03*
D16*
X141900000Y-121610000D03*
D17*
%TO.N,+5V*%
X143800000Y-92670000D03*
D19*
X160950000Y-97490000D03*
D17*
X149510000Y-92850000D03*
X153320000Y-94000000D03*
D16*
X159030000Y-93620000D03*
D17*
%TO.N,VBUS*%
X161440000Y-109120000D03*
X162060000Y-111160000D03*
X162690000Y-106350000D03*
D16*
X169370000Y-113350000D03*
%TO.N,/Devices/DAT2*%
X149480000Y-101260000D03*
%TO.N,/Devices/DAT3*%
X147848529Y-101700000D03*
%TO.N,/Devices/DAT1*%
X144100000Y-105500000D03*
%TO.N,/Devices/CLK*%
X146071818Y-101774041D03*
%TO.N,/Devices/SDPWR*%
X147380000Y-95910000D03*
D17*
X146575000Y-104625000D03*
X154010000Y-106950000D03*
D16*
%TO.N,/Devices/DAT0*%
X144890681Y-100850000D03*
%TO.N,/Devices/SD_SW*%
X142200000Y-101700000D03*
%TO.N,/Devices/CMD*%
X146900000Y-100900000D03*
%TO.N,Net-(Q3-G)*%
X144684444Y-125080623D03*
X143786631Y-127693452D03*
%TO.N,/Microcontroller/POWER_ON*%
X138800000Y-101990000D03*
X139270000Y-112650000D03*
X139450000Y-126170000D03*
D17*
%TO.N,/Devices/PWR*%
X147430000Y-107980000D03*
D16*
X148600000Y-115900000D03*
X143045660Y-119554898D03*
X138260003Y-88025000D03*
%TO.N,Net-(U2-VSET)*%
X139430000Y-118570000D03*
X144990000Y-118840000D03*
D17*
%TO.N,/Microcontroller/KEEP_ON*%
X151780000Y-98750000D03*
D16*
%TO.N,/Microcontroller/VSENSE*%
X138234620Y-112964620D03*
X141450000Y-106230000D03*
X139980000Y-110250000D03*
%TO.N,/Microcontroller/SERVO_ON*%
X138881149Y-105528967D03*
%TO.N,Net-(U5-V_{FB})*%
X159070000Y-96280000D03*
%TO.N,SDA*%
X136050000Y-92000000D03*
%TO.N,SCL*%
X138000000Y-92000000D03*
%TO.N,/Microcontroller/Essentials/BOOT0*%
X143200000Y-94300000D03*
X143216756Y-100834717D03*
%TO.N,/Microcontroller/Essentials/SW_BOOT0*%
X136568058Y-93441942D03*
X137160000Y-92140000D03*
%TO.N,/Devices/IMU_CS*%
X143408724Y-115371437D03*
X140700000Y-113700000D03*
%TO.N,/Devices/SD_ON*%
X141420000Y-104210000D03*
X138729619Y-102849806D03*
%TO.N,/Devices/SENSE_ON*%
X145480792Y-109145000D03*
%TO.N,/Devices/BMP_INT*%
X147074078Y-115777697D03*
X144281979Y-108700000D03*
%TO.N,/Microcontroller/PG*%
X142450000Y-109610000D03*
X150460000Y-109630000D03*
X152610000Y-109680000D03*
X147525000Y-109272761D03*
%TO.N,/Microcontroller/CHG*%
X147320000Y-112360000D03*
X152630000Y-111610000D03*
%TO.N,SDO*%
X144862229Y-115335151D03*
X143493677Y-108836323D03*
X140100000Y-112800000D03*
%TO.N,SDI*%
X145736657Y-112331672D03*
X141018190Y-114434000D03*
X145800000Y-114900000D03*
D17*
%TO.N,Net-(Q5-D)*%
X133529570Y-109574641D03*
X130418252Y-108516602D03*
D18*
%TO.N,Net-(J1-Pin_1)*%
X156700000Y-124110000D03*
D16*
%TO.N,GND*%
X132330000Y-103850000D03*
%TD*%
D22*
%TO.N,+3.3V*%
X142527916Y-115043279D02*
X142527916Y-117614509D01*
X142527916Y-117614509D02*
X142480362Y-117662063D01*
X142545686Y-117770000D02*
X142480362Y-117704676D01*
D23*
X145080000Y-106720000D02*
X144390000Y-106720000D01*
D22*
X142480362Y-117704676D02*
X142480362Y-117662063D01*
D23*
X147980000Y-106249000D02*
X145551000Y-106249000D01*
X145551000Y-106249000D02*
X145080000Y-106720000D01*
D22*
X142945499Y-114625696D02*
X142527916Y-115043279D01*
D24*
%TO.N,/Power/Battery Direct/BATT_OUT*%
X153400000Y-129920000D02*
X151730000Y-131590000D01*
X144980000Y-131590000D02*
X142010000Y-128620000D01*
X139790000Y-128620000D02*
X137510000Y-126340000D01*
X151730000Y-131590000D02*
X144980000Y-131590000D01*
X142010000Y-128620000D02*
X139790000Y-128620000D01*
X137510000Y-121370000D02*
X135190000Y-119050000D01*
X137510000Y-126340000D02*
X137510000Y-121370000D01*
X153400000Y-121300000D02*
X153400000Y-129920000D01*
%TO.N,+BATT*%
X155291000Y-100571000D02*
X155291000Y-111879000D01*
X155291000Y-111879000D02*
X152091000Y-115079000D01*
X147491000Y-122516050D02*
X146846050Y-123161000D01*
X146846050Y-123161000D02*
X141921000Y-123161000D01*
X152091000Y-116429000D02*
X151611000Y-116909000D01*
X149983950Y-116909000D02*
X147491000Y-119401950D01*
X141921000Y-123161000D02*
X141440000Y-122680000D01*
X147491000Y-119401950D02*
X147491000Y-122516050D01*
X151611000Y-116909000D02*
X149983950Y-116909000D01*
X152091000Y-115079000D02*
X152091000Y-116429000D01*
D25*
X141360000Y-124390000D02*
X141400000Y-124350000D01*
D24*
X153860000Y-99140000D02*
X155291000Y-100571000D01*
D23*
%TO.N,/Devices/PWR*%
X144198636Y-107980000D02*
X142121000Y-105902364D01*
X148480000Y-110208636D02*
X147338636Y-111350000D01*
X140001000Y-100492364D02*
X140001000Y-89765997D01*
X140001000Y-89765997D02*
X138260003Y-88025000D01*
X147338636Y-111350000D02*
X146820000Y-111350000D01*
X138660000Y-119110000D02*
X138600000Y-119050000D01*
X142121000Y-102612364D02*
X140001000Y-100492364D01*
X147430000Y-107980000D02*
X144198636Y-107980000D01*
X145550000Y-116310411D02*
X145550000Y-117160000D01*
X147430000Y-107980000D02*
X147600000Y-107980000D01*
X147600000Y-107980000D02*
X148480000Y-108860000D01*
X146619000Y-115241411D02*
X145550000Y-116310411D01*
X146619000Y-111551000D02*
X146619000Y-115241411D01*
X142121000Y-105902364D02*
X142121000Y-102612364D01*
X148480000Y-108860000D02*
X148480000Y-110208636D01*
X146820000Y-111350000D02*
X146619000Y-111551000D01*
D26*
%TO.N,/Devices/SD_ON*%
X140089813Y-104210000D02*
X138729619Y-102849806D01*
X141420000Y-104210000D02*
X140089813Y-104210000D01*
D25*
%TO.N,/Microcontroller/PG*%
X142470000Y-109630000D02*
X144258819Y-109630000D01*
X147525000Y-109515000D02*
X147525000Y-109272761D01*
X142450000Y-109610000D02*
X142470000Y-109630000D01*
X144258819Y-109630000D02*
X144444054Y-109815235D01*
X145809408Y-109815235D02*
X145994643Y-109630000D01*
X145994643Y-109630000D02*
X147410000Y-109630000D01*
X152560000Y-109630000D02*
X152610000Y-109680000D01*
X144444054Y-109815235D02*
X145809408Y-109815235D01*
X150460000Y-109630000D02*
X152560000Y-109630000D01*
X147410000Y-109630000D02*
X147525000Y-109515000D01*
%TO.N,/Microcontroller/CHG*%
X148080000Y-111600000D02*
X152620000Y-111600000D01*
X147320000Y-112360000D02*
X148080000Y-111600000D01*
X152620000Y-111600000D02*
X152630000Y-111610000D01*
%TO.N,SDI*%
X141018190Y-114434000D02*
X143120518Y-112331672D01*
X143120518Y-112331672D02*
X145736657Y-112331672D01*
%TD*%
%TA.AperFunction,Conductor*%
%TO.N,/Power/Battery Direct/FILT_BATT*%
G36*
X152855677Y-118719685D02*
G01*
X152876319Y-118736319D01*
X153823681Y-119683681D01*
X153857166Y-119745004D01*
X153860000Y-119771362D01*
X153860000Y-120068636D01*
X153851353Y-120098081D01*
X153844831Y-120128064D01*
X153841077Y-120133077D01*
X153840315Y-120135675D01*
X153823680Y-120156318D01*
X153783661Y-120196336D01*
X153722338Y-120229821D01*
X153662659Y-120226837D01*
X153662444Y-120227736D01*
X153657704Y-120226598D01*
X153529383Y-120206274D01*
X153486611Y-120199500D01*
X153313389Y-120199500D01*
X153273728Y-120205781D01*
X153142302Y-120226597D01*
X152977552Y-120280128D01*
X152823211Y-120358768D01*
X152755326Y-120408090D01*
X152683072Y-120460586D01*
X152683070Y-120460588D01*
X152683069Y-120460588D01*
X152560588Y-120583069D01*
X152560588Y-120583070D01*
X152560586Y-120583072D01*
X152541621Y-120609175D01*
X152458768Y-120723211D01*
X152380128Y-120877552D01*
X152326597Y-121042302D01*
X152299500Y-121213389D01*
X152299500Y-121286638D01*
X152279815Y-121353677D01*
X152227011Y-121399432D01*
X152157853Y-121409376D01*
X152094297Y-121380351D01*
X152087819Y-121374319D01*
X152034038Y-121320538D01*
X152034034Y-121320535D01*
X151886553Y-121221990D01*
X151886540Y-121221983D01*
X151722667Y-121154106D01*
X151722658Y-121154103D01*
X151548694Y-121119500D01*
X151548691Y-121119500D01*
X151371309Y-121119500D01*
X151371306Y-121119500D01*
X151197341Y-121154103D01*
X151197332Y-121154106D01*
X151033459Y-121221983D01*
X151033446Y-121221990D01*
X150885965Y-121320535D01*
X150885961Y-121320538D01*
X150760538Y-121445961D01*
X150760535Y-121445965D01*
X150661990Y-121593446D01*
X150661983Y-121593459D01*
X150594106Y-121757332D01*
X150594103Y-121757341D01*
X150559500Y-121931304D01*
X150559500Y-122108695D01*
X150594103Y-122282658D01*
X150594106Y-122282667D01*
X150661983Y-122446540D01*
X150661990Y-122446553D01*
X150760535Y-122594034D01*
X150760538Y-122594038D01*
X150885961Y-122719461D01*
X150885965Y-122719464D01*
X150984873Y-122785553D01*
X151029678Y-122839165D01*
X151038385Y-122908490D01*
X151008230Y-122971518D01*
X151003664Y-122976336D01*
X150950000Y-123030000D01*
X150950000Y-123950000D01*
X150953681Y-123953681D01*
X150987166Y-124015004D01*
X150990000Y-124041362D01*
X150990000Y-128716000D01*
X150970315Y-128783039D01*
X150917511Y-128828794D01*
X150866000Y-128840000D01*
X150050000Y-128840000D01*
X145161214Y-128830103D01*
X145094214Y-128810283D01*
X145073784Y-128793784D01*
X144510547Y-128230547D01*
X144477062Y-128169224D01*
X144482046Y-128099532D01*
X144495128Y-128073972D01*
X144496025Y-128072631D01*
X144556368Y-127926949D01*
X144587131Y-127772294D01*
X144587131Y-127614610D01*
X144587131Y-127614607D01*
X144587130Y-127614605D01*
X144556369Y-127459962D01*
X144556368Y-127459955D01*
X144556366Y-127459950D01*
X144496028Y-127314279D01*
X144496021Y-127314266D01*
X144408420Y-127183163D01*
X144408417Y-127183159D01*
X144296923Y-127071665D01*
X144296919Y-127071662D01*
X144165816Y-126984061D01*
X144165803Y-126984054D01*
X144020132Y-126923716D01*
X144020120Y-126923713D01*
X143865476Y-126892952D01*
X143865473Y-126892952D01*
X143707789Y-126892952D01*
X143707786Y-126892952D01*
X143553141Y-126923713D01*
X143553129Y-126923716D01*
X143407459Y-126984054D01*
X143407440Y-126984065D01*
X143406099Y-126984961D01*
X143405289Y-126985214D01*
X143402078Y-126986931D01*
X143401752Y-126986321D01*
X143339420Y-127005834D01*
X143272041Y-126987345D01*
X143249535Y-126969535D01*
X142132863Y-125852863D01*
X142126532Y-125841270D01*
X142116512Y-125832661D01*
X142110110Y-125811195D01*
X142099378Y-125791540D01*
X142100320Y-125778364D01*
X142096545Y-125765705D01*
X142102764Y-125744189D01*
X142104362Y-125721848D01*
X142112715Y-125709762D01*
X142115947Y-125698583D01*
X142138551Y-125672384D01*
X142138946Y-125671813D01*
X142139122Y-125671658D01*
X142148516Y-125663519D01*
X142148481Y-125663479D01*
X142174353Y-125640869D01*
X142174482Y-125641018D01*
X142181323Y-125635091D01*
X142181347Y-125635070D01*
X142182463Y-125633781D01*
X142183131Y-125633198D01*
X142194420Y-125621908D01*
X142202868Y-125614586D01*
X142221768Y-125598208D01*
X142246097Y-125560345D01*
X142275569Y-125526333D01*
X142294281Y-125485356D01*
X142299072Y-125477901D01*
X142299074Y-125477898D01*
X142299081Y-125477887D01*
X142299547Y-125477162D01*
X142303308Y-125468925D01*
X142303567Y-125468358D01*
X142303571Y-125468349D01*
X142317575Y-125437683D01*
X142317576Y-125437684D01*
X142328555Y-125413644D01*
X142328568Y-125413616D01*
X142330027Y-125408644D01*
X142331526Y-125404603D01*
X142332203Y-125403694D01*
X142334996Y-125396204D01*
X142335339Y-125395454D01*
X142342783Y-125370102D01*
X142342782Y-125370101D01*
X142352577Y-125336747D01*
X142352850Y-125335815D01*
X142355011Y-125328460D01*
X142355013Y-125328455D01*
X142355015Y-125328455D01*
X142355020Y-125328427D01*
X142355024Y-125328416D01*
X142355146Y-125327564D01*
X142358908Y-125310265D01*
X142369096Y-125275562D01*
X142369093Y-125239425D01*
X142370356Y-125221773D01*
X142375499Y-125186005D01*
X142375500Y-125186000D01*
X142375500Y-124582686D01*
X142395185Y-124515647D01*
X142417119Y-124490007D01*
X142524217Y-124394809D01*
X142572504Y-124345596D01*
X142594438Y-124319956D01*
X142635567Y-124264651D01*
X142635569Y-124264647D01*
X142649571Y-124233988D01*
X142695326Y-124181184D01*
X142762365Y-124161500D01*
X144210373Y-124161500D01*
X144277412Y-124181185D01*
X144323167Y-124233989D01*
X144333111Y-124303147D01*
X144304086Y-124366703D01*
X144279264Y-124388602D01*
X144174155Y-124458833D01*
X144174151Y-124458836D01*
X144062657Y-124570330D01*
X144062654Y-124570334D01*
X143975053Y-124701437D01*
X143975046Y-124701450D01*
X143914708Y-124847121D01*
X143914705Y-124847133D01*
X143883944Y-125001776D01*
X143883944Y-125159469D01*
X143914705Y-125314112D01*
X143914708Y-125314124D01*
X143975046Y-125459795D01*
X143975053Y-125459808D01*
X144062654Y-125590911D01*
X144062657Y-125590915D01*
X144174151Y-125702409D01*
X144174155Y-125702412D01*
X144305258Y-125790013D01*
X144305271Y-125790020D01*
X144450942Y-125850358D01*
X144450947Y-125850360D01*
X144605597Y-125881122D01*
X144605600Y-125881123D01*
X144605602Y-125881123D01*
X144763288Y-125881123D01*
X144763289Y-125881122D01*
X144917941Y-125850360D01*
X145051535Y-125795024D01*
X145063616Y-125790020D01*
X145063616Y-125790019D01*
X145063623Y-125790017D01*
X145194733Y-125702412D01*
X145306233Y-125590912D01*
X145361266Y-125508549D01*
X147159500Y-125508549D01*
X147159500Y-125731450D01*
X147159501Y-125731466D01*
X147188594Y-125952452D01*
X147188595Y-125952457D01*
X147188596Y-125952463D01*
X147188597Y-125952465D01*
X147246290Y-126167780D01*
X147246293Y-126167790D01*
X147331593Y-126373722D01*
X147331595Y-126373726D01*
X147443052Y-126566774D01*
X147443057Y-126566780D01*
X147443058Y-126566782D01*
X147578751Y-126743622D01*
X147578757Y-126743629D01*
X147736370Y-126901242D01*
X147736376Y-126901247D01*
X147913226Y-127036948D01*
X148106274Y-127148405D01*
X148312219Y-127233710D01*
X148527537Y-127291404D01*
X148748543Y-127320500D01*
X148748550Y-127320500D01*
X148971450Y-127320500D01*
X148971457Y-127320500D01*
X149192463Y-127291404D01*
X149407781Y-127233710D01*
X149613726Y-127148405D01*
X149806774Y-127036948D01*
X149983624Y-126901247D01*
X150141247Y-126743624D01*
X150276948Y-126566774D01*
X150388405Y-126373726D01*
X150473710Y-126167781D01*
X150531404Y-125952463D01*
X150560500Y-125731457D01*
X150560500Y-125508543D01*
X150531404Y-125287537D01*
X150473710Y-125072219D01*
X150388405Y-124866274D01*
X150276948Y-124673226D01*
X150197994Y-124570330D01*
X150141248Y-124496377D01*
X150141242Y-124496370D01*
X149983629Y-124338757D01*
X149983622Y-124338751D01*
X149806782Y-124203058D01*
X149806780Y-124203057D01*
X149806774Y-124203052D01*
X149613726Y-124091595D01*
X149613722Y-124091593D01*
X149407790Y-124006293D01*
X149407783Y-124006291D01*
X149407781Y-124006290D01*
X149192463Y-123948596D01*
X149192457Y-123948595D01*
X149192452Y-123948594D01*
X148971466Y-123919501D01*
X148971463Y-123919500D01*
X148971457Y-123919500D01*
X148748543Y-123919500D01*
X148748537Y-123919500D01*
X148748533Y-123919501D01*
X148527547Y-123948594D01*
X148527540Y-123948595D01*
X148527537Y-123948596D01*
X148391675Y-123985000D01*
X148312219Y-124006290D01*
X148312209Y-124006293D01*
X148106277Y-124091593D01*
X148106273Y-124091595D01*
X147913226Y-124203052D01*
X147913217Y-124203058D01*
X147736377Y-124338751D01*
X147736370Y-124338757D01*
X147578757Y-124496370D01*
X147578751Y-124496377D01*
X147443058Y-124673217D01*
X147443052Y-124673226D01*
X147331595Y-124866273D01*
X147331593Y-124866277D01*
X147246293Y-125072209D01*
X147246290Y-125072219D01*
X147188597Y-125287534D01*
X147188594Y-125287547D01*
X147159501Y-125508533D01*
X147159500Y-125508549D01*
X145361266Y-125508549D01*
X145393838Y-125459802D01*
X145454181Y-125314120D01*
X145484944Y-125159465D01*
X145484944Y-125001781D01*
X145484944Y-125001778D01*
X145484943Y-125001776D01*
X145457990Y-124866277D01*
X145454181Y-124847126D01*
X145443289Y-124820829D01*
X145393841Y-124701450D01*
X145393834Y-124701437D01*
X145306233Y-124570334D01*
X145306230Y-124570330D01*
X145194736Y-124458836D01*
X145194732Y-124458833D01*
X145089624Y-124388602D01*
X145044819Y-124334990D01*
X145036112Y-124265665D01*
X145066266Y-124202637D01*
X145125709Y-124165918D01*
X145158515Y-124161500D01*
X146944592Y-124161500D01*
X146957084Y-124159014D01*
X147041238Y-124142275D01*
X147137886Y-124123051D01*
X147213827Y-124091595D01*
X147319964Y-124047632D01*
X147483832Y-123938139D01*
X147623189Y-123798782D01*
X147623190Y-123798780D01*
X147630256Y-123791714D01*
X147630259Y-123791710D01*
X148128778Y-123293191D01*
X148128782Y-123293189D01*
X148268139Y-123153832D01*
X148377632Y-122989964D01*
X148453051Y-122807885D01*
X148491500Y-122614591D01*
X148491500Y-120444000D01*
X148511185Y-120376961D01*
X148563989Y-120331206D01*
X148615500Y-120320000D01*
X150260000Y-120320000D01*
X151289459Y-119290540D01*
X151338816Y-119260295D01*
X151392316Y-119242911D01*
X151432440Y-119229875D01*
X151432442Y-119229873D01*
X151432445Y-119229873D01*
X151586788Y-119151232D01*
X151726928Y-119049414D01*
X151849414Y-118926928D01*
X151951232Y-118786788D01*
X151960955Y-118767704D01*
X152008926Y-118716910D01*
X152071439Y-118700000D01*
X152788638Y-118700000D01*
X152855677Y-118719685D01*
G37*
%TD.AperFunction*%
%TD*%
%TA.AperFunction,Conductor*%
%TO.N,/Devices/SDPWR*%
G36*
X149763290Y-93954469D02*
G01*
X149830301Y-93974253D01*
X149850788Y-93990788D01*
X150118181Y-94258181D01*
X150151666Y-94319504D01*
X150154500Y-94345862D01*
X150154500Y-97717349D01*
X150161131Y-97780655D01*
X150171783Y-97830935D01*
X150184038Y-97875019D01*
X150182743Y-97875378D01*
X150190000Y-97911667D01*
X150190000Y-100650000D01*
X154454181Y-104914181D01*
X154487666Y-104975504D01*
X154490500Y-105001862D01*
X154490500Y-107526000D01*
X154470815Y-107593039D01*
X154418011Y-107638794D01*
X154366500Y-107650000D01*
X154051362Y-107650000D01*
X153984323Y-107630315D01*
X153963681Y-107613681D01*
X153370000Y-107020000D01*
X148495757Y-107020000D01*
X148428718Y-107000315D01*
X148382963Y-106947511D01*
X148373019Y-106878353D01*
X148402044Y-106814797D01*
X148422004Y-106797186D01*
X148421834Y-106796978D01*
X148426538Y-106793116D01*
X148426542Y-106793114D01*
X148524114Y-106695542D01*
X148600775Y-106580811D01*
X148653580Y-106453328D01*
X148662389Y-106409041D01*
X148680500Y-106317995D01*
X148680500Y-106180004D01*
X148653581Y-106044677D01*
X148653580Y-106044676D01*
X148653580Y-106044672D01*
X148653578Y-106044667D01*
X148600778Y-105917195D01*
X148600771Y-105917182D01*
X148524114Y-105802458D01*
X148524111Y-105802454D01*
X148426545Y-105704888D01*
X148426541Y-105704885D01*
X148311817Y-105628228D01*
X148311804Y-105628221D01*
X148184332Y-105575421D01*
X148184322Y-105575418D01*
X148048995Y-105548500D01*
X148048993Y-105548500D01*
X147911007Y-105548500D01*
X147911005Y-105548500D01*
X147775677Y-105575418D01*
X147775667Y-105575421D01*
X147648195Y-105628221D01*
X147648182Y-105628228D01*
X147533458Y-105704885D01*
X147533454Y-105704888D01*
X147526162Y-105712181D01*
X147464839Y-105745666D01*
X147438481Y-105748500D01*
X145485108Y-105748500D01*
X145357812Y-105782608D01*
X145243686Y-105848500D01*
X145243683Y-105848502D01*
X144951681Y-106140505D01*
X144890358Y-106173990D01*
X144820666Y-106169006D01*
X144764733Y-106127134D01*
X144740316Y-106061670D01*
X144740000Y-106052824D01*
X144740000Y-104901851D01*
X144759685Y-104834812D01*
X144795106Y-104798751D01*
X144910289Y-104721789D01*
X145021789Y-104610289D01*
X145109394Y-104479179D01*
X145109470Y-104478995D01*
X149189499Y-104478995D01*
X149216418Y-104614322D01*
X149216421Y-104614332D01*
X149269221Y-104741804D01*
X149269228Y-104741817D01*
X149345885Y-104856541D01*
X149345888Y-104856545D01*
X149443454Y-104954111D01*
X149443458Y-104954114D01*
X149558182Y-105030771D01*
X149558195Y-105030778D01*
X149685667Y-105083578D01*
X149685672Y-105083580D01*
X149685676Y-105083580D01*
X149685677Y-105083581D01*
X149821004Y-105110500D01*
X149821007Y-105110500D01*
X149958995Y-105110500D01*
X150050041Y-105092389D01*
X150094328Y-105083580D01*
X150221811Y-105030775D01*
X150336542Y-104954114D01*
X150434114Y-104856542D01*
X150510775Y-104741811D01*
X150563580Y-104614328D01*
X150590463Y-104479179D01*
X150590500Y-104478995D01*
X150590500Y-104341004D01*
X150563581Y-104205677D01*
X150563580Y-104205676D01*
X150563580Y-104205672D01*
X150552467Y-104178842D01*
X150510778Y-104078195D01*
X150510771Y-104078182D01*
X150434114Y-103963458D01*
X150434111Y-103963454D01*
X150336545Y-103865888D01*
X150336541Y-103865885D01*
X150221817Y-103789228D01*
X150221804Y-103789221D01*
X150094332Y-103736421D01*
X150094322Y-103736418D01*
X149958995Y-103709500D01*
X149958993Y-103709500D01*
X149821007Y-103709500D01*
X149821005Y-103709500D01*
X149685677Y-103736418D01*
X149685667Y-103736421D01*
X149558195Y-103789221D01*
X149558182Y-103789228D01*
X149443458Y-103865885D01*
X149443454Y-103865888D01*
X149345888Y-103963454D01*
X149345885Y-103963458D01*
X149269228Y-104078182D01*
X149269221Y-104078195D01*
X149216421Y-104205667D01*
X149216418Y-104205677D01*
X149189500Y-104341004D01*
X149189500Y-104341007D01*
X149189500Y-104478993D01*
X149189500Y-104478995D01*
X149189499Y-104478995D01*
X145109470Y-104478995D01*
X145169737Y-104333497D01*
X145200500Y-104178842D01*
X145200500Y-104021158D01*
X145200500Y-104021155D01*
X145200499Y-104021153D01*
X145169738Y-103866510D01*
X145169737Y-103866503D01*
X145169482Y-103865888D01*
X145109397Y-103720827D01*
X145109390Y-103720814D01*
X145021789Y-103589711D01*
X145021786Y-103589707D01*
X144910289Y-103478210D01*
X144795109Y-103401250D01*
X144750304Y-103347638D01*
X144740000Y-103298148D01*
X144740000Y-101694984D01*
X145471318Y-101694984D01*
X145471318Y-101853098D01*
X145492404Y-101931790D01*
X145512241Y-102005824D01*
X145512244Y-102005831D01*
X145591293Y-102142750D01*
X145591297Y-102142755D01*
X145591298Y-102142757D01*
X145703102Y-102254561D01*
X145703104Y-102254562D01*
X145703108Y-102254565D01*
X145782671Y-102300500D01*
X145840034Y-102333618D01*
X145992761Y-102374541D01*
X145992763Y-102374541D01*
X146150873Y-102374541D01*
X146150875Y-102374541D01*
X146303602Y-102333618D01*
X146440534Y-102254561D01*
X146552338Y-102142757D01*
X146631395Y-102005825D01*
X146672318Y-101853098D01*
X146672318Y-101694984D01*
X146660266Y-101650005D01*
X146661929Y-101580158D01*
X146701091Y-101522295D01*
X146765320Y-101494791D01*
X146812135Y-101498139D01*
X146820943Y-101500500D01*
X146820945Y-101500500D01*
X146979054Y-101500500D01*
X146979057Y-101500500D01*
X147096149Y-101469125D01*
X147165996Y-101470788D01*
X147223859Y-101509950D01*
X147251363Y-101574178D01*
X147248601Y-101612822D01*
X147249090Y-101612887D01*
X147248029Y-101620941D01*
X147248029Y-101620943D01*
X147248029Y-101779057D01*
X147269852Y-101860499D01*
X147288952Y-101931783D01*
X147288955Y-101931790D01*
X147368004Y-102068709D01*
X147368008Y-102068714D01*
X147368009Y-102068716D01*
X147479813Y-102180520D01*
X147479815Y-102180521D01*
X147479819Y-102180524D01*
X147551285Y-102221784D01*
X147616745Y-102259577D01*
X147769472Y-102300500D01*
X147769474Y-102300500D01*
X147927584Y-102300500D01*
X147927586Y-102300500D01*
X148080313Y-102259577D01*
X148217245Y-102180520D01*
X148329049Y-102068716D01*
X148408106Y-101931784D01*
X148449029Y-101779057D01*
X148449029Y-101620943D01*
X148408106Y-101468216D01*
X148408102Y-101468209D01*
X148329053Y-101331290D01*
X148329047Y-101331282D01*
X148217246Y-101219481D01*
X148217238Y-101219475D01*
X148150498Y-101180943D01*
X148879500Y-101180943D01*
X148879500Y-101339057D01*
X148898396Y-101409576D01*
X148920423Y-101491783D01*
X148920426Y-101491790D01*
X148999475Y-101628709D01*
X148999479Y-101628714D01*
X148999480Y-101628716D01*
X149111284Y-101740520D01*
X149111286Y-101740521D01*
X149111290Y-101740524D01*
X149248209Y-101819573D01*
X149248216Y-101819577D01*
X149400943Y-101860500D01*
X149400945Y-101860500D01*
X149559055Y-101860500D01*
X149559057Y-101860500D01*
X149711784Y-101819577D01*
X149848716Y-101740520D01*
X149960520Y-101628716D01*
X150039577Y-101491784D01*
X150080500Y-101339057D01*
X150080500Y-101180943D01*
X150039577Y-101028216D01*
X150037163Y-101024034D01*
X149960524Y-100891290D01*
X149960518Y-100891282D01*
X149848717Y-100779481D01*
X149848709Y-100779475D01*
X149711790Y-100700426D01*
X149711786Y-100700424D01*
X149711784Y-100700423D01*
X149559057Y-100659500D01*
X149400943Y-100659500D01*
X149248216Y-100700423D01*
X149248209Y-100700426D01*
X149111290Y-100779475D01*
X149111282Y-100779481D01*
X148999481Y-100891282D01*
X148999475Y-100891290D01*
X148920426Y-101028209D01*
X148920423Y-101028216D01*
X148879500Y-101180943D01*
X148150498Y-101180943D01*
X148080319Y-101140426D01*
X148080315Y-101140424D01*
X148080313Y-101140423D01*
X147927586Y-101099500D01*
X147769472Y-101099500D01*
X147652381Y-101130874D01*
X147582531Y-101129211D01*
X147524669Y-101090048D01*
X147497165Y-101025819D01*
X147499929Y-100987177D01*
X147499439Y-100987113D01*
X147500500Y-100979055D01*
X147500500Y-100820945D01*
X147500500Y-100820943D01*
X147459577Y-100668216D01*
X147396327Y-100558662D01*
X147380524Y-100531290D01*
X147380518Y-100531282D01*
X147268717Y-100419481D01*
X147268709Y-100419475D01*
X147131790Y-100340426D01*
X147131786Y-100340424D01*
X147131784Y-100340423D01*
X146979057Y-100299500D01*
X146820943Y-100299500D01*
X146668216Y-100340423D01*
X146668209Y-100340426D01*
X146531290Y-100419475D01*
X146531282Y-100419481D01*
X146419481Y-100531282D01*
X146419475Y-100531290D01*
X146340426Y-100668209D01*
X146340423Y-100668216D01*
X146299500Y-100820943D01*
X146299500Y-100979058D01*
X146311551Y-101024034D01*
X146309888Y-101093884D01*
X146270724Y-101151746D01*
X146206496Y-101179249D01*
X146159686Y-101175902D01*
X146150875Y-101173541D01*
X145992761Y-101173541D01*
X145840034Y-101214464D01*
X145840027Y-101214467D01*
X145703108Y-101293516D01*
X145703100Y-101293522D01*
X145591299Y-101405323D01*
X145591293Y-101405331D01*
X145512244Y-101542250D01*
X145512241Y-101542257D01*
X145471318Y-101694984D01*
X144740000Y-101694984D01*
X144740000Y-101574500D01*
X144759685Y-101507461D01*
X144812489Y-101461706D01*
X144864000Y-101450500D01*
X144969736Y-101450500D01*
X144969738Y-101450500D01*
X145122465Y-101409577D01*
X145259397Y-101330520D01*
X145371201Y-101218716D01*
X145450258Y-101081784D01*
X145491181Y-100929057D01*
X145491181Y-100770943D01*
X145450258Y-100618216D01*
X145400072Y-100531290D01*
X145371205Y-100481290D01*
X145371199Y-100481282D01*
X145259398Y-100369481D01*
X145259390Y-100369475D01*
X145122471Y-100290426D01*
X145122467Y-100290424D01*
X145122465Y-100290423D01*
X144969738Y-100249500D01*
X144864000Y-100249500D01*
X144796961Y-100229815D01*
X144751206Y-100177011D01*
X144740000Y-100125500D01*
X144740000Y-94071221D01*
X144759685Y-94004182D01*
X144812489Y-93958427D01*
X144864178Y-93947222D01*
X149763290Y-93954469D01*
G37*
%TD.AperFunction*%
%TD*%
%TA.AperFunction,Conductor*%
%TO.N,/Devices/PWR*%
G36*
X148825677Y-114889685D02*
G01*
X148846319Y-114906319D01*
X149860669Y-115920669D01*
X149894154Y-115981992D01*
X149889170Y-116051684D01*
X149847298Y-116107617D01*
X149797179Y-116129967D01*
X149750460Y-116139260D01*
X149750452Y-116139262D01*
X149604774Y-116199604D01*
X149604764Y-116199609D01*
X149473661Y-116287210D01*
X149473657Y-116287213D01*
X148420821Y-117340049D01*
X148359498Y-117373534D01*
X148289806Y-117368550D01*
X148233873Y-117326678D01*
X148209456Y-117261214D01*
X148224308Y-117192941D01*
X148225703Y-117190454D01*
X148259577Y-117131784D01*
X148300500Y-116979057D01*
X148300500Y-116820943D01*
X148259577Y-116668216D01*
X148230911Y-116618564D01*
X148180524Y-116531290D01*
X148180518Y-116531282D01*
X148068717Y-116419481D01*
X148068709Y-116419475D01*
X147931790Y-116340426D01*
X147931786Y-116340424D01*
X147931784Y-116340423D01*
X147779057Y-116299500D01*
X147680987Y-116299500D01*
X147613948Y-116279815D01*
X147568193Y-116227011D01*
X147558249Y-116157853D01*
X147573600Y-116113500D01*
X147576487Y-116108500D01*
X147633655Y-116009481D01*
X147674578Y-115856754D01*
X147674578Y-115698640D01*
X147633655Y-115545913D01*
X147607436Y-115500500D01*
X147554602Y-115408987D01*
X147554596Y-115408979D01*
X147442795Y-115297178D01*
X147442787Y-115297172D01*
X147305868Y-115218123D01*
X147305864Y-115218121D01*
X147305862Y-115218120D01*
X147153135Y-115177197D01*
X146995021Y-115177197D01*
X146842294Y-115218120D01*
X146842287Y-115218123D01*
X146705368Y-115297172D01*
X146705360Y-115297178D01*
X146593559Y-115408979D01*
X146593553Y-115408987D01*
X146514504Y-115545906D01*
X146514501Y-115545913D01*
X146473578Y-115698640D01*
X146473578Y-115856754D01*
X146507136Y-115981992D01*
X146514501Y-116009480D01*
X146514504Y-116009487D01*
X146593553Y-116146406D01*
X146593557Y-116146411D01*
X146593558Y-116146413D01*
X146705362Y-116258217D01*
X146705364Y-116258218D01*
X146705368Y-116258221D01*
X146836623Y-116334000D01*
X146842294Y-116337274D01*
X146995021Y-116378197D01*
X146995023Y-116378197D01*
X147093091Y-116378197D01*
X147160130Y-116397882D01*
X147205885Y-116450686D01*
X147215829Y-116519844D01*
X147200478Y-116564197D01*
X147140424Y-116668213D01*
X147140423Y-116668216D01*
X147099500Y-116820943D01*
X147099500Y-116979056D01*
X147140423Y-117131783D01*
X147140426Y-117131790D01*
X147219475Y-117268709D01*
X147219479Y-117268714D01*
X147219480Y-117268716D01*
X147331284Y-117380520D01*
X147331286Y-117380521D01*
X147331290Y-117380524D01*
X147417468Y-117430278D01*
X147468216Y-117459577D01*
X147620943Y-117500500D01*
X147620945Y-117500500D01*
X147779055Y-117500500D01*
X147779057Y-117500500D01*
X147931784Y-117459577D01*
X147990369Y-117425752D01*
X148058269Y-117409280D01*
X148124296Y-117432133D01*
X148167487Y-117487054D01*
X148174128Y-117556607D01*
X148142112Y-117618710D01*
X148140050Y-117620821D01*
X147559590Y-118201282D01*
X146980711Y-118780161D01*
X146944369Y-118816503D01*
X146869209Y-118891662D01*
X146781609Y-119022764D01*
X146781602Y-119022777D01*
X146721264Y-119168448D01*
X146721261Y-119168460D01*
X146690500Y-119323103D01*
X146690500Y-119398138D01*
X146670815Y-119465177D01*
X146654181Y-119485819D01*
X146175575Y-119964424D01*
X146114252Y-119997909D01*
X146087705Y-120000743D01*
X144394947Y-119998162D01*
X144359993Y-119991182D01*
X144359634Y-119992525D01*
X144254758Y-119964424D01*
X144199057Y-119949499D01*
X144040943Y-119949499D01*
X143880366Y-119992525D01*
X143879891Y-119990753D01*
X143846690Y-119997327D01*
X138314397Y-119988893D01*
X138247388Y-119969106D01*
X138201713Y-119916232D01*
X138190588Y-119864132D01*
X138194844Y-119170500D01*
X138199013Y-118490943D01*
X138829500Y-118490943D01*
X138829500Y-118649057D01*
X138864630Y-118780162D01*
X138870423Y-118801783D01*
X138870426Y-118801790D01*
X138949475Y-118938709D01*
X138949479Y-118938714D01*
X138949480Y-118938716D01*
X139061284Y-119050520D01*
X139061286Y-119050521D01*
X139061290Y-119050524D01*
X139105233Y-119075894D01*
X139198216Y-119129577D01*
X139350943Y-119170500D01*
X139350945Y-119170500D01*
X139509055Y-119170500D01*
X139509057Y-119170500D01*
X139661784Y-119129577D01*
X139798716Y-119050520D01*
X139910520Y-118938716D01*
X139989577Y-118801784D01*
X140000520Y-118760943D01*
X144389500Y-118760943D01*
X144389500Y-118919057D01*
X144424727Y-119050524D01*
X144430423Y-119071783D01*
X144430426Y-119071790D01*
X144509475Y-119208709D01*
X144509479Y-119208714D01*
X144509480Y-119208716D01*
X144621284Y-119320520D01*
X144621286Y-119320521D01*
X144621290Y-119320524D01*
X144758209Y-119399573D01*
X144758216Y-119399577D01*
X144910943Y-119440500D01*
X144910945Y-119440500D01*
X145069055Y-119440500D01*
X145069057Y-119440500D01*
X145221784Y-119399577D01*
X145358716Y-119320520D01*
X145470520Y-119208716D01*
X145549577Y-119071784D01*
X145590500Y-118919057D01*
X145590500Y-118760943D01*
X145549577Y-118608216D01*
X145510026Y-118539711D01*
X145470524Y-118471290D01*
X145470518Y-118471282D01*
X145358717Y-118359481D01*
X145358709Y-118359475D01*
X145221790Y-118280426D01*
X145221786Y-118280424D01*
X145221784Y-118280423D01*
X145069057Y-118239500D01*
X144910943Y-118239500D01*
X144758216Y-118280423D01*
X144758209Y-118280426D01*
X144621290Y-118359475D01*
X144621282Y-118359481D01*
X144509481Y-118471282D01*
X144509475Y-118471290D01*
X144430426Y-118608209D01*
X144430423Y-118608216D01*
X144389500Y-118760943D01*
X140000520Y-118760943D01*
X140030500Y-118649057D01*
X140030500Y-118490943D01*
X139989577Y-118338216D01*
X139989573Y-118338209D01*
X139910524Y-118201290D01*
X139910518Y-118201282D01*
X139798717Y-118089481D01*
X139798709Y-118089475D01*
X139661790Y-118010426D01*
X139661786Y-118010424D01*
X139661784Y-118010423D01*
X139509057Y-117969500D01*
X139350943Y-117969500D01*
X139198216Y-118010423D01*
X139198209Y-118010426D01*
X139061290Y-118089475D01*
X139061282Y-118089481D01*
X138949481Y-118201282D01*
X138949475Y-118201290D01*
X138870426Y-118338209D01*
X138870423Y-118338216D01*
X138829500Y-118490943D01*
X138199013Y-118490943D01*
X138204255Y-117636344D01*
X138224351Y-117569430D01*
X138240567Y-117549432D01*
X139543681Y-116246319D01*
X139605004Y-116212834D01*
X139631362Y-116210000D01*
X141953416Y-116210000D01*
X142020455Y-116229685D01*
X142066210Y-116282489D01*
X142077416Y-116334000D01*
X142077416Y-116618564D01*
X142057731Y-116685603D01*
X142004927Y-116731358D01*
X141935769Y-116741302D01*
X141921324Y-116738339D01*
X141837907Y-116715988D01*
X141837906Y-116715988D01*
X141679792Y-116715988D01*
X141527065Y-116756911D01*
X141527058Y-116756914D01*
X141390139Y-116835963D01*
X141390131Y-116835969D01*
X141278330Y-116947770D01*
X141278324Y-116947778D01*
X141199275Y-117084697D01*
X141199272Y-117084704D01*
X141158349Y-117237431D01*
X141158349Y-117395545D01*
X141194588Y-117530789D01*
X141199272Y-117548271D01*
X141199275Y-117548278D01*
X141278324Y-117685197D01*
X141278328Y-117685202D01*
X141278329Y-117685204D01*
X141390133Y-117797008D01*
X141390135Y-117797009D01*
X141390139Y-117797012D01*
X141527058Y-117876061D01*
X141527065Y-117876065D01*
X141679792Y-117916988D01*
X141679794Y-117916988D01*
X141837905Y-117916988D01*
X141837906Y-117916988D01*
X141837906Y-117916987D01*
X141845194Y-117916028D01*
X141914230Y-117926790D01*
X141966488Y-117973167D01*
X141968773Y-117976966D01*
X141999839Y-118030775D01*
X141999841Y-118030778D01*
X141999842Y-118030779D01*
X142111646Y-118142583D01*
X142111648Y-118142584D01*
X142111652Y-118142587D01*
X142213320Y-118201284D01*
X142248578Y-118221640D01*
X142401305Y-118262563D01*
X142401307Y-118262563D01*
X142559417Y-118262563D01*
X142559419Y-118262563D01*
X142712146Y-118221640D01*
X142849078Y-118142583D01*
X142960882Y-118030779D01*
X143039939Y-117893847D01*
X143080862Y-117741120D01*
X143080862Y-117583006D01*
X143039939Y-117430279D01*
X142995028Y-117352490D01*
X142978416Y-117290491D01*
X142978416Y-116334000D01*
X142998101Y-116266961D01*
X143050905Y-116221206D01*
X143102416Y-116210000D01*
X145220000Y-116210000D01*
X145924471Y-115505528D01*
X145980056Y-115473437D01*
X146031784Y-115459577D01*
X146047517Y-115450494D01*
X146168709Y-115380524D01*
X146168708Y-115380524D01*
X146168716Y-115380520D01*
X146280520Y-115268716D01*
X146359577Y-115131784D01*
X146373437Y-115080056D01*
X146405528Y-115024471D01*
X146523683Y-114906316D01*
X146585004Y-114872834D01*
X146611362Y-114870000D01*
X148758638Y-114870000D01*
X148825677Y-114889685D01*
G37*
%TD.AperFunction*%
%TD*%
%TA.AperFunction,Conductor*%
%TO.N,+5V*%
G36*
X147095295Y-89889685D02*
G01*
X147141050Y-89942489D01*
X147150994Y-90011647D01*
X147121969Y-90075203D01*
X147063191Y-90112977D01*
X147060384Y-90113765D01*
X146998216Y-90130423D01*
X146998209Y-90130426D01*
X146861290Y-90209475D01*
X146861282Y-90209481D01*
X146749481Y-90321282D01*
X146749475Y-90321290D01*
X146670426Y-90458209D01*
X146670423Y-90458216D01*
X146629500Y-90610943D01*
X146629500Y-90769057D01*
X146667013Y-90909055D01*
X146670423Y-90921783D01*
X146670426Y-90921790D01*
X146749475Y-91058709D01*
X146749479Y-91058714D01*
X146749480Y-91058716D01*
X146861284Y-91170520D01*
X146861286Y-91170521D01*
X146861290Y-91170524D01*
X146953362Y-91223681D01*
X146998216Y-91249577D01*
X147150943Y-91290500D01*
X147150945Y-91290500D01*
X147309055Y-91290500D01*
X147309057Y-91290500D01*
X147461784Y-91249577D01*
X147598716Y-91170520D01*
X147710520Y-91058716D01*
X147789577Y-90921784D01*
X147830500Y-90769057D01*
X147830500Y-90750943D01*
X151909500Y-90750943D01*
X151909500Y-90909057D01*
X151928292Y-90979187D01*
X151950423Y-91061783D01*
X151950426Y-91061790D01*
X152029475Y-91198709D01*
X152029479Y-91198714D01*
X152029480Y-91198716D01*
X152141284Y-91310520D01*
X152141286Y-91310521D01*
X152141290Y-91310524D01*
X152262754Y-91380650D01*
X152278216Y-91389577D01*
X152430943Y-91430500D01*
X152430945Y-91430500D01*
X152589055Y-91430500D01*
X152589057Y-91430500D01*
X152741784Y-91389577D01*
X152878716Y-91310520D01*
X152990520Y-91198716D01*
X153069577Y-91061784D01*
X153110500Y-90909057D01*
X153110500Y-90750943D01*
X153069577Y-90598216D01*
X153031014Y-90531422D01*
X152990524Y-90461290D01*
X152990518Y-90461282D01*
X152878717Y-90349481D01*
X152878709Y-90349475D01*
X152741790Y-90270426D01*
X152741786Y-90270424D01*
X152741784Y-90270423D01*
X152589057Y-90229500D01*
X152430943Y-90229500D01*
X152278216Y-90270423D01*
X152278209Y-90270426D01*
X152141290Y-90349475D01*
X152141282Y-90349481D01*
X152029481Y-90461282D01*
X152029475Y-90461290D01*
X151950426Y-90598209D01*
X151950423Y-90598216D01*
X151909500Y-90750943D01*
X147830500Y-90750943D01*
X147830500Y-90610943D01*
X147789577Y-90458216D01*
X147754238Y-90397006D01*
X147710524Y-90321290D01*
X147710518Y-90321282D01*
X147598717Y-90209481D01*
X147598709Y-90209475D01*
X147461790Y-90130426D01*
X147461786Y-90130424D01*
X147461784Y-90130423D01*
X147399649Y-90113774D01*
X147339990Y-90077410D01*
X147309461Y-90014563D01*
X147317756Y-89945188D01*
X147362241Y-89891310D01*
X147428793Y-89870035D01*
X147431744Y-89870000D01*
X153608638Y-89870000D01*
X153675677Y-89889685D01*
X153696319Y-89906319D01*
X155013681Y-91223681D01*
X155047166Y-91285004D01*
X155050000Y-91311362D01*
X155050000Y-91780000D01*
X155750000Y-92480000D01*
X159708638Y-92480000D01*
X159775677Y-92499685D01*
X159796319Y-92516319D01*
X160533681Y-93253681D01*
X160567166Y-93315004D01*
X160570000Y-93341362D01*
X160570000Y-95680000D01*
X161670000Y-96780000D01*
X163656000Y-96780000D01*
X163723039Y-96799685D01*
X163768794Y-96852489D01*
X163780000Y-96904000D01*
X163780000Y-100405551D01*
X163760315Y-100472590D01*
X163707511Y-100518345D01*
X163655552Y-100529550D01*
X161134136Y-100520448D01*
X161067168Y-100500522D01*
X161021604Y-100447553D01*
X161010585Y-100395866D01*
X161016697Y-99100243D01*
X161016696Y-99100242D01*
X159806872Y-97941899D01*
X150582648Y-97841337D01*
X150515827Y-97820922D01*
X150470651Y-97767623D01*
X150460000Y-97717344D01*
X150460000Y-95380653D01*
X156856917Y-95380653D01*
X156856917Y-95538346D01*
X156887678Y-95692989D01*
X156887681Y-95693001D01*
X156948019Y-95838672D01*
X156948026Y-95838685D01*
X157035627Y-95969788D01*
X157035630Y-95969792D01*
X157147124Y-96081286D01*
X157147128Y-96081289D01*
X157278231Y-96168890D01*
X157278244Y-96168897D01*
X157423915Y-96229235D01*
X157423920Y-96229237D01*
X157578570Y-96259999D01*
X157578573Y-96260000D01*
X157578575Y-96260000D01*
X157736261Y-96260000D01*
X157736262Y-96259999D01*
X157890914Y-96229237D01*
X158036596Y-96168894D01*
X158167706Y-96081289D01*
X158279206Y-95969789D01*
X158283036Y-95964056D01*
X158336646Y-95919249D01*
X158405971Y-95910539D01*
X158469000Y-95940691D01*
X158505721Y-96000132D01*
X158505916Y-96065036D01*
X158469500Y-96200943D01*
X158469500Y-96359057D01*
X158504700Y-96490423D01*
X158510423Y-96511783D01*
X158510426Y-96511790D01*
X158589475Y-96648709D01*
X158589479Y-96648714D01*
X158589480Y-96648716D01*
X158701284Y-96760520D01*
X158701286Y-96760521D01*
X158701290Y-96760524D01*
X158769120Y-96799685D01*
X158838216Y-96839577D01*
X158990943Y-96880500D01*
X158990945Y-96880500D01*
X159149055Y-96880500D01*
X159149057Y-96880500D01*
X159301784Y-96839577D01*
X159438716Y-96760520D01*
X159550520Y-96648716D01*
X159629577Y-96511784D01*
X159670500Y-96359057D01*
X159670500Y-96200943D01*
X159629577Y-96048216D01*
X159595422Y-95989057D01*
X159550524Y-95911290D01*
X159550518Y-95911282D01*
X159438717Y-95799481D01*
X159438709Y-95799475D01*
X159301790Y-95720426D01*
X159301786Y-95720424D01*
X159301784Y-95720423D01*
X159149057Y-95679500D01*
X158990943Y-95679500D01*
X158838216Y-95720423D01*
X158838209Y-95720426D01*
X158701290Y-95799475D01*
X158701286Y-95799478D01*
X158598823Y-95901941D01*
X158537500Y-95935425D01*
X158467808Y-95930441D01*
X158411875Y-95888569D01*
X158387458Y-95823104D01*
X158396580Y-95766808D01*
X158427154Y-95692997D01*
X158457917Y-95538342D01*
X158457917Y-95380658D01*
X158457917Y-95380655D01*
X158457916Y-95380653D01*
X158450149Y-95341607D01*
X158427154Y-95226003D01*
X158403060Y-95167835D01*
X158366814Y-95080327D01*
X158366807Y-95080314D01*
X158279206Y-94949211D01*
X158279203Y-94949207D01*
X158167709Y-94837713D01*
X158167705Y-94837710D01*
X158036602Y-94750109D01*
X158036589Y-94750102D01*
X157890918Y-94689764D01*
X157890906Y-94689761D01*
X157736262Y-94659000D01*
X157736259Y-94659000D01*
X157578575Y-94659000D01*
X157578572Y-94659000D01*
X157423927Y-94689761D01*
X157423915Y-94689764D01*
X157278244Y-94750102D01*
X157278231Y-94750109D01*
X157147128Y-94837710D01*
X157147124Y-94837713D01*
X157035630Y-94949207D01*
X157035627Y-94949211D01*
X156948026Y-95080314D01*
X156948019Y-95080327D01*
X156887681Y-95225998D01*
X156887678Y-95226010D01*
X156856917Y-95380653D01*
X150460000Y-95380653D01*
X150460000Y-93650000D01*
X143751254Y-93640075D01*
X143684243Y-93620291D01*
X143663756Y-93603756D01*
X141731412Y-91671412D01*
X141697927Y-91610089D01*
X141702911Y-91540397D01*
X141744783Y-91484464D01*
X141810247Y-91460047D01*
X141851179Y-91463955D01*
X141988059Y-91500632D01*
X141988062Y-91500632D01*
X142146171Y-91500632D01*
X142146173Y-91500632D01*
X142298900Y-91459709D01*
X142435832Y-91380652D01*
X142547636Y-91268848D01*
X142626693Y-91131916D01*
X142667616Y-90979189D01*
X142667616Y-90821075D01*
X142626693Y-90668348D01*
X142625306Y-90665946D01*
X142547640Y-90531422D01*
X142547634Y-90531414D01*
X142435833Y-90419613D01*
X142435825Y-90419607D01*
X142298906Y-90340558D01*
X142298902Y-90340556D01*
X142298900Y-90340555D01*
X142146173Y-90299632D01*
X141988059Y-90299632D01*
X141835332Y-90340555D01*
X141835325Y-90340558D01*
X141698406Y-90419607D01*
X141698398Y-90419613D01*
X141586597Y-90531414D01*
X141586591Y-90531422D01*
X141507542Y-90668341D01*
X141507539Y-90668348D01*
X141466616Y-90821075D01*
X141466616Y-90979189D01*
X141488747Y-91061784D01*
X141503291Y-91116061D01*
X141501628Y-91185910D01*
X141462465Y-91243773D01*
X141398237Y-91271277D01*
X141329335Y-91259691D01*
X141295835Y-91235835D01*
X141186319Y-91126319D01*
X141152834Y-91064996D01*
X141150000Y-91038638D01*
X141150000Y-89994000D01*
X141169685Y-89926961D01*
X141222489Y-89881206D01*
X141274000Y-89870000D01*
X147028256Y-89870000D01*
X147095295Y-89889685D01*
G37*
%TD.AperFunction*%
%TD*%
%TA.AperFunction,Conductor*%
%TO.N,+BATT*%
G36*
X142106190Y-120300174D02*
G01*
X142173199Y-120319961D01*
X142218873Y-120372835D01*
X142230000Y-120424174D01*
X142230000Y-123924315D01*
X142210315Y-123991354D01*
X142188381Y-124016994D01*
X141870000Y-124300000D01*
X141870000Y-125186000D01*
X141867449Y-125194685D01*
X141868738Y-125203647D01*
X141857759Y-125227687D01*
X141850315Y-125253039D01*
X141843474Y-125258966D01*
X141839713Y-125267203D01*
X141817478Y-125281492D01*
X141797511Y-125298794D01*
X141786996Y-125301081D01*
X141780935Y-125304977D01*
X141746000Y-125310000D01*
X141511362Y-125310000D01*
X141444323Y-125290315D01*
X141423681Y-125273681D01*
X140789891Y-124639891D01*
X140756406Y-124578568D01*
X140758782Y-124519518D01*
X140758549Y-124519472D01*
X140758843Y-124517989D01*
X140758916Y-124516198D01*
X140759728Y-124513516D01*
X140759737Y-124513497D01*
X140790500Y-124358842D01*
X140790500Y-124201158D01*
X140790500Y-124201155D01*
X140790499Y-124201153D01*
X140759738Y-124046510D01*
X140759737Y-124046503D01*
X140734629Y-123985886D01*
X140699397Y-123900827D01*
X140699390Y-123900814D01*
X140611789Y-123769711D01*
X140611786Y-123769707D01*
X140500292Y-123658213D01*
X140500288Y-123658210D01*
X140369185Y-123570609D01*
X140369172Y-123570602D01*
X140223501Y-123510264D01*
X140223489Y-123510261D01*
X140068845Y-123479500D01*
X140068842Y-123479500D01*
X139911158Y-123479500D01*
X139911156Y-123479500D01*
X139756505Y-123510262D01*
X139753780Y-123511089D01*
X139752282Y-123511102D01*
X139750530Y-123511451D01*
X139750463Y-123511118D01*
X139683913Y-123511710D01*
X139630108Y-123480108D01*
X139406319Y-123256319D01*
X139372834Y-123194996D01*
X139370000Y-123168638D01*
X139370000Y-121104000D01*
X139389685Y-121036961D01*
X139442489Y-120991206D01*
X139494000Y-120980000D01*
X140490000Y-120980000D01*
X141134857Y-120335142D01*
X141196176Y-120301660D01*
X141222709Y-120298827D01*
X142106190Y-120300174D01*
G37*
%TD.AperFunction*%
%TD*%
%TA.AperFunction,Conductor*%
%TO.N,VBUS*%
G36*
X164596968Y-104969685D02*
G01*
X164642723Y-105022489D01*
X164649703Y-105041905D01*
X164655310Y-105062831D01*
X164655313Y-105062838D01*
X164724492Y-105182661D01*
X164724494Y-105182664D01*
X164724495Y-105182665D01*
X164822335Y-105280505D01*
X164942164Y-105349688D01*
X165075817Y-105385500D01*
X165075819Y-105385500D01*
X165104138Y-105385500D01*
X165171177Y-105405185D01*
X165191819Y-105421819D01*
X171713681Y-111943681D01*
X171747166Y-112005004D01*
X171750000Y-112031362D01*
X171750000Y-112998638D01*
X171730315Y-113065677D01*
X171713681Y-113086319D01*
X170806319Y-113993681D01*
X170744996Y-114027166D01*
X170718638Y-114030000D01*
X167256889Y-114030000D01*
X167224796Y-114025775D01*
X167198570Y-114018747D01*
X167164056Y-114009500D01*
X167005942Y-114009500D01*
X166945202Y-114025775D01*
X166913109Y-114030000D01*
X166286889Y-114030000D01*
X166254796Y-114025775D01*
X166228570Y-114018747D01*
X166194056Y-114009500D01*
X166035942Y-114009500D01*
X165975202Y-114025775D01*
X165943109Y-114030000D01*
X158741362Y-114030000D01*
X158674323Y-114010315D01*
X158653681Y-113993681D01*
X158106319Y-113446319D01*
X158072834Y-113384996D01*
X158070000Y-113358638D01*
X158070000Y-112014000D01*
X158076709Y-111991153D01*
X163274500Y-111991153D01*
X163274500Y-112148846D01*
X163305261Y-112303489D01*
X163305264Y-112303501D01*
X163365602Y-112449172D01*
X163365609Y-112449185D01*
X163453210Y-112580288D01*
X163453213Y-112580292D01*
X163564707Y-112691786D01*
X163564711Y-112691789D01*
X163695814Y-112779390D01*
X163695827Y-112779397D01*
X163841498Y-112839735D01*
X163841503Y-112839737D01*
X163996153Y-112870499D01*
X163996156Y-112870500D01*
X163996158Y-112870500D01*
X165253844Y-112870500D01*
X165253845Y-112870499D01*
X165408497Y-112839737D01*
X165554179Y-112779394D01*
X165685289Y-112691789D01*
X165796789Y-112580289D01*
X165884394Y-112449179D01*
X165944737Y-112303497D01*
X165975500Y-112148842D01*
X165975500Y-111991158D01*
X165975500Y-111991155D01*
X165975499Y-111991153D01*
X167624500Y-111991153D01*
X167624500Y-112148846D01*
X167655261Y-112303489D01*
X167655264Y-112303501D01*
X167715602Y-112449172D01*
X167715609Y-112449185D01*
X167803210Y-112580288D01*
X167803213Y-112580292D01*
X167914707Y-112691786D01*
X167914711Y-112691789D01*
X168045814Y-112779390D01*
X168045827Y-112779397D01*
X168191498Y-112839735D01*
X168191503Y-112839737D01*
X168346153Y-112870499D01*
X168346156Y-112870500D01*
X168346158Y-112870500D01*
X169303844Y-112870500D01*
X169303845Y-112870499D01*
X169458497Y-112839737D01*
X169604179Y-112779394D01*
X169735289Y-112691789D01*
X169846789Y-112580289D01*
X169934394Y-112449179D01*
X169994737Y-112303497D01*
X170025500Y-112148842D01*
X170025500Y-111991158D01*
X170025500Y-111991155D01*
X170025499Y-111991153D01*
X169994737Y-111836503D01*
X169994735Y-111836498D01*
X169934397Y-111690827D01*
X169934390Y-111690814D01*
X169846789Y-111559711D01*
X169846786Y-111559707D01*
X169735292Y-111448213D01*
X169735288Y-111448210D01*
X169604185Y-111360609D01*
X169604172Y-111360602D01*
X169458501Y-111300264D01*
X169458489Y-111300261D01*
X169303845Y-111269500D01*
X169303842Y-111269500D01*
X168346158Y-111269500D01*
X168346155Y-111269500D01*
X168191510Y-111300261D01*
X168191498Y-111300264D01*
X168045827Y-111360602D01*
X168045814Y-111360609D01*
X167914711Y-111448210D01*
X167914707Y-111448213D01*
X167803213Y-111559707D01*
X167803210Y-111559711D01*
X167715609Y-111690814D01*
X167715602Y-111690827D01*
X167655264Y-111836498D01*
X167655261Y-111836510D01*
X167624500Y-111991153D01*
X165975499Y-111991153D01*
X165944737Y-111836503D01*
X165944735Y-111836498D01*
X165884397Y-111690827D01*
X165884390Y-111690814D01*
X165796789Y-111559711D01*
X165796786Y-111559707D01*
X165685292Y-111448213D01*
X165685288Y-111448210D01*
X165554185Y-111360609D01*
X165554175Y-111360604D01*
X165433457Y-111310601D01*
X165379054Y-111266760D01*
X165356989Y-111200466D01*
X165374268Y-111132766D01*
X165418910Y-111088653D01*
X165467665Y-111060505D01*
X165565505Y-110962665D01*
X165634688Y-110842836D01*
X165670500Y-110709183D01*
X165670500Y-110570817D01*
X165634688Y-110437164D01*
X165565505Y-110317335D01*
X165467665Y-110219495D01*
X165467664Y-110219494D01*
X165467661Y-110219492D01*
X165347838Y-110150313D01*
X165347837Y-110150312D01*
X165347836Y-110150312D01*
X165214183Y-110114500D01*
X165075817Y-110114500D01*
X164942164Y-110150312D01*
X164942161Y-110150313D01*
X164822338Y-110219492D01*
X164822333Y-110219496D01*
X164724496Y-110317333D01*
X164724492Y-110317338D01*
X164655313Y-110437161D01*
X164655312Y-110437164D01*
X164619500Y-110570817D01*
X164619500Y-110709182D01*
X164655312Y-110842835D01*
X164655313Y-110842838D01*
X164724492Y-110962661D01*
X164724496Y-110962666D01*
X164819649Y-111057819D01*
X164853134Y-111119142D01*
X164848150Y-111188834D01*
X164806278Y-111244767D01*
X164740814Y-111269184D01*
X164731968Y-111269500D01*
X163996155Y-111269500D01*
X163841510Y-111300261D01*
X163841498Y-111300264D01*
X163695827Y-111360602D01*
X163695814Y-111360609D01*
X163564711Y-111448210D01*
X163564707Y-111448213D01*
X163453213Y-111559707D01*
X163453210Y-111559711D01*
X163365609Y-111690814D01*
X163365602Y-111690827D01*
X163305264Y-111836498D01*
X163305261Y-111836510D01*
X163274500Y-111991153D01*
X158076709Y-111991153D01*
X158089685Y-111946961D01*
X158142489Y-111901206D01*
X158194000Y-111890000D01*
X160580000Y-111890000D01*
X161320000Y-111150000D01*
X159900000Y-109730000D01*
X159699999Y-109730000D01*
X159636319Y-109793681D01*
X159574996Y-109827166D01*
X159548638Y-109830000D01*
X157304000Y-109830000D01*
X157236961Y-109810315D01*
X157191206Y-109757511D01*
X157180000Y-109706000D01*
X157180000Y-108284000D01*
X157199685Y-108216961D01*
X157252489Y-108171206D01*
X157304000Y-108160000D01*
X160130000Y-108160000D01*
X163303681Y-104986319D01*
X163365004Y-104952834D01*
X163391362Y-104950000D01*
X164529929Y-104950000D01*
X164596968Y-104969685D01*
G37*
%TD.AperFunction*%
%TD*%
%TA.AperFunction,Conductor*%
%TO.N,+3.3V*%
G36*
X159854514Y-110116780D02*
G01*
X159859061Y-110121103D01*
X160800277Y-111062319D01*
X160833762Y-111123642D01*
X160828778Y-111193334D01*
X160800277Y-111237681D01*
X160489777Y-111548181D01*
X160428454Y-111581666D01*
X160402096Y-111584500D01*
X158194000Y-111584500D01*
X158193991Y-111584500D01*
X158193990Y-111584501D01*
X158129064Y-111591481D01*
X158129052Y-111591483D01*
X158077546Y-111602688D01*
X158039345Y-111613644D01*
X158039341Y-111613646D01*
X157942431Y-111670323D01*
X157942428Y-111670325D01*
X157889623Y-111716081D01*
X157889612Y-111716091D01*
X157847450Y-111760808D01*
X157847444Y-111760817D01*
X157796558Y-111860893D01*
X157796558Y-111860895D01*
X157783584Y-111905082D01*
X157783584Y-111905084D01*
X157776878Y-111927919D01*
X157776877Y-111927924D01*
X157776877Y-111927925D01*
X157767781Y-111991187D01*
X157764500Y-112014002D01*
X157764500Y-113358638D01*
X157766250Y-113391281D01*
X157766254Y-113391334D01*
X157769081Y-113417625D01*
X157769920Y-113424660D01*
X157769920Y-113424662D01*
X157804700Y-113531401D01*
X157804704Y-113531411D01*
X157838189Y-113592733D01*
X157890289Y-113662329D01*
X157890307Y-113662350D01*
X158165192Y-113937234D01*
X158437660Y-114209702D01*
X158461992Y-114231558D01*
X158481266Y-114247090D01*
X158482674Y-114248224D01*
X158488172Y-114252551D01*
X158488175Y-114252553D01*
X158588251Y-114303439D01*
X158655290Y-114323124D01*
X158741362Y-114335500D01*
X165405268Y-114335500D01*
X165472307Y-114355185D01*
X165518062Y-114407989D01*
X165528006Y-114477147D01*
X165525043Y-114491589D01*
X165514499Y-114530943D01*
X165514499Y-114689057D01*
X165543303Y-114796553D01*
X165555422Y-114841783D01*
X165555425Y-114841790D01*
X165634474Y-114978709D01*
X165634478Y-114978714D01*
X165634479Y-114978716D01*
X165746283Y-115090520D01*
X165746284Y-115090521D01*
X165746286Y-115090522D01*
X165836511Y-115142613D01*
X165884726Y-115193179D01*
X165897950Y-115261786D01*
X165871982Y-115326651D01*
X165836511Y-115357387D01*
X165746286Y-115409477D01*
X165746281Y-115409481D01*
X165634480Y-115521282D01*
X165634474Y-115521290D01*
X165555425Y-115658209D01*
X165555422Y-115658216D01*
X165514499Y-115810943D01*
X165514499Y-115969057D01*
X165551128Y-116105756D01*
X165555422Y-116121783D01*
X165555425Y-116121790D01*
X165634474Y-116258709D01*
X165634478Y-116258714D01*
X165634479Y-116258716D01*
X165746283Y-116370520D01*
X165746285Y-116370521D01*
X165746289Y-116370524D01*
X165826015Y-116416553D01*
X165883215Y-116449577D01*
X166035942Y-116490500D01*
X166035944Y-116490500D01*
X166194054Y-116490500D01*
X166194056Y-116490500D01*
X166346783Y-116449577D01*
X166483715Y-116370520D01*
X166512318Y-116341917D01*
X166573641Y-116308432D01*
X166643333Y-116313416D01*
X166687680Y-116341917D01*
X166716283Y-116370520D01*
X166716285Y-116370521D01*
X166716289Y-116370524D01*
X166796015Y-116416553D01*
X166853215Y-116449577D01*
X167005942Y-116490500D01*
X167005944Y-116490500D01*
X167164054Y-116490500D01*
X167164056Y-116490500D01*
X167316783Y-116449577D01*
X167453715Y-116370520D01*
X167565519Y-116258716D01*
X167644576Y-116121784D01*
X167685499Y-115969057D01*
X167685499Y-115810943D01*
X167644576Y-115658216D01*
X167633025Y-115638209D01*
X167565523Y-115521290D01*
X167565517Y-115521282D01*
X167453714Y-115409479D01*
X167419065Y-115389475D01*
X167363485Y-115357386D01*
X167315271Y-115306821D01*
X167302047Y-115238214D01*
X167328015Y-115173349D01*
X167363486Y-115142613D01*
X167453715Y-115090520D01*
X167565519Y-114978716D01*
X167644576Y-114841784D01*
X167685499Y-114689057D01*
X167685499Y-114530943D01*
X167674955Y-114491592D01*
X167676618Y-114421743D01*
X167715781Y-114363881D01*
X167780009Y-114336377D01*
X167794730Y-114335500D01*
X170718639Y-114335500D01*
X170720559Y-114335397D01*
X170751297Y-114333749D01*
X170777655Y-114330915D01*
X170784660Y-114330080D01*
X170891407Y-114295297D01*
X170952730Y-114261812D01*
X170965099Y-114252553D01*
X171022329Y-114209710D01*
X171022340Y-114209702D01*
X171714302Y-113517740D01*
X171775625Y-113484255D01*
X171845316Y-113489239D01*
X171901250Y-113531110D01*
X171925667Y-113596575D01*
X171925983Y-113605421D01*
X171925983Y-117083284D01*
X171906298Y-117150323D01*
X171853494Y-117196078D01*
X171840303Y-117201213D01*
X171728839Y-117237431D01*
X171653005Y-117262071D01*
X171470613Y-117355005D01*
X171305013Y-117475318D01*
X171160255Y-117620076D01*
X171039942Y-117785676D01*
X170947008Y-117968066D01*
X170883749Y-118162755D01*
X170851727Y-118364938D01*
X170851727Y-118569641D01*
X170883749Y-118771824D01*
X170947009Y-118966516D01*
X170999755Y-119070035D01*
X171012651Y-119138704D01*
X170986374Y-119203444D01*
X170976951Y-119214010D01*
X158453445Y-131737516D01*
X158440911Y-131748470D01*
X158247158Y-131896084D01*
X158236559Y-131903324D01*
X158016076Y-132037743D01*
X158004784Y-132043849D01*
X157771593Y-132154751D01*
X157759732Y-132159657D01*
X157516312Y-132245863D01*
X157504006Y-132249516D01*
X157252986Y-132310092D01*
X157240370Y-132312453D01*
X156984429Y-132346757D01*
X156971635Y-132347801D01*
X156712799Y-132355484D01*
X156709120Y-132355539D01*
X156702973Y-132355539D01*
X156700232Y-132355509D01*
X156683238Y-132355133D01*
X156641228Y-132354204D01*
X156641227Y-132354204D01*
X156635710Y-132354807D01*
X156622252Y-132355539D01*
X152395902Y-132355539D01*
X152328863Y-132335854D01*
X152283108Y-132283050D01*
X152273164Y-132213892D01*
X152302189Y-132150336D01*
X152308221Y-132143858D01*
X154021786Y-130430292D01*
X154021789Y-130430289D01*
X154109394Y-130299179D01*
X154169738Y-130153497D01*
X154200500Y-129998842D01*
X154200500Y-129841157D01*
X154200500Y-123991902D01*
X155199500Y-123991902D01*
X155199500Y-124228097D01*
X155236446Y-124461368D01*
X155309433Y-124685996D01*
X155416657Y-124896433D01*
X155555483Y-125087510D01*
X155722490Y-125254517D01*
X155913567Y-125393343D01*
X156012991Y-125444002D01*
X156124003Y-125500566D01*
X156124005Y-125500566D01*
X156124008Y-125500568D01*
X156244412Y-125539689D01*
X156348631Y-125573553D01*
X156581903Y-125610500D01*
X156581908Y-125610500D01*
X156818097Y-125610500D01*
X157051368Y-125573553D01*
X157063842Y-125569500D01*
X157275992Y-125500568D01*
X157486433Y-125393343D01*
X157677510Y-125254517D01*
X157844517Y-125087510D01*
X157983343Y-124896433D01*
X158090568Y-124685992D01*
X158163553Y-124461368D01*
X158182660Y-124340733D01*
X158200500Y-124228097D01*
X158200500Y-123991902D01*
X158163553Y-123758631D01*
X158090566Y-123534003D01*
X158023680Y-123402733D01*
X157983343Y-123323567D01*
X157844517Y-123132490D01*
X157677510Y-122965483D01*
X157486433Y-122826657D01*
X157275996Y-122719433D01*
X157051368Y-122646446D01*
X156818097Y-122609500D01*
X156818092Y-122609500D01*
X156581908Y-122609500D01*
X156581903Y-122609500D01*
X156348631Y-122646446D01*
X156124003Y-122719433D01*
X155913566Y-122826657D01*
X155804550Y-122905862D01*
X155722490Y-122965483D01*
X155722488Y-122965485D01*
X155722487Y-122965485D01*
X155555485Y-123132487D01*
X155555485Y-123132488D01*
X155555483Y-123132490D01*
X155529220Y-123168638D01*
X155416657Y-123323566D01*
X155309433Y-123534003D01*
X155236446Y-123758631D01*
X155199500Y-123991902D01*
X154200500Y-123991902D01*
X154200500Y-121745207D01*
X154209939Y-121697755D01*
X154248630Y-121604345D01*
X154265894Y-121562666D01*
X154300500Y-121388691D01*
X154300500Y-121211309D01*
X154300500Y-121211306D01*
X154300499Y-121211304D01*
X154265896Y-121037341D01*
X154265893Y-121037332D01*
X154198016Y-120873459D01*
X154198009Y-120873446D01*
X154101954Y-120729691D01*
X154081076Y-120663014D01*
X154099560Y-120595634D01*
X154130750Y-120561530D01*
X154141092Y-120553788D01*
X154141099Y-120553783D01*
X154181118Y-120513765D01*
X154217285Y-120473501D01*
X154233920Y-120452858D01*
X154265650Y-120408842D01*
X154270325Y-120398595D01*
X154288501Y-120370319D01*
X154312088Y-120307076D01*
X154325381Y-120277946D01*
X154326143Y-120275348D01*
X154326141Y-120275347D01*
X154333068Y-120251732D01*
X154333088Y-120251664D01*
X154334327Y-120247446D01*
X154338780Y-120235509D01*
X154341462Y-120223178D01*
X154344404Y-120213159D01*
X154344897Y-120211587D01*
X154345024Y-120211050D01*
X154351096Y-120168818D01*
X154365500Y-120068636D01*
X154365500Y-119771362D01*
X154362603Y-119717322D01*
X154359769Y-119690964D01*
X154359253Y-119687782D01*
X154351114Y-119637554D01*
X154351114Y-119637552D01*
X154329490Y-119579577D01*
X154300832Y-119502743D01*
X154267347Y-119441420D01*
X154181123Y-119326239D01*
X154181118Y-119326234D01*
X154181113Y-119326228D01*
X153233776Y-118378892D01*
X153233761Y-118378877D01*
X153233737Y-118378855D01*
X153193519Y-118342728D01*
X153193507Y-118342718D01*
X153172856Y-118326076D01*
X153128974Y-118294433D01*
X152998100Y-118234663D01*
X152931055Y-118214976D01*
X152883582Y-118208150D01*
X152788638Y-118194500D01*
X152071439Y-118194500D01*
X152044090Y-118198133D01*
X151975044Y-118187450D01*
X151922733Y-118141133D01*
X151906143Y-118099405D01*
X151875896Y-117947341D01*
X151875893Y-117947332D01*
X151823784Y-117821530D01*
X151816316Y-117752062D01*
X151847591Y-117689583D01*
X151848438Y-117688995D01*
X163269499Y-117688995D01*
X163296418Y-117824322D01*
X163296421Y-117824332D01*
X163349221Y-117951804D01*
X163349228Y-117951817D01*
X163425885Y-118066541D01*
X163425888Y-118066545D01*
X163523454Y-118164111D01*
X163523458Y-118164114D01*
X163638182Y-118240771D01*
X163638195Y-118240778D01*
X163765667Y-118293578D01*
X163765672Y-118293580D01*
X163765676Y-118293580D01*
X163765677Y-118293581D01*
X163901004Y-118320500D01*
X163901007Y-118320500D01*
X164038995Y-118320500D01*
X164148633Y-118298691D01*
X164174328Y-118293580D01*
X164301811Y-118240775D01*
X164416542Y-118164114D01*
X164514114Y-118066542D01*
X164590775Y-117951811D01*
X164592630Y-117947334D01*
X164617796Y-117886576D01*
X164643580Y-117824328D01*
X164664995Y-117716668D01*
X164670500Y-117688995D01*
X164670500Y-117551004D01*
X164643581Y-117415677D01*
X164643580Y-117415676D01*
X164643580Y-117415672D01*
X164635242Y-117395543D01*
X164590778Y-117288195D01*
X164590771Y-117288182D01*
X164514114Y-117173458D01*
X164514111Y-117173454D01*
X164416545Y-117075888D01*
X164416541Y-117075885D01*
X164314300Y-117007569D01*
X168707289Y-117007569D01*
X168707289Y-117165683D01*
X168740115Y-117288189D01*
X168748212Y-117318409D01*
X168748215Y-117318416D01*
X168827264Y-117455335D01*
X168827268Y-117455340D01*
X168827269Y-117455342D01*
X168939073Y-117567146D01*
X168939075Y-117567147D01*
X168939079Y-117567150D01*
X169075998Y-117646199D01*
X169076005Y-117646203D01*
X169228732Y-117687126D01*
X169228734Y-117687126D01*
X169386844Y-117687126D01*
X169386846Y-117687126D01*
X169539573Y-117646203D01*
X169676505Y-117567146D01*
X169788309Y-117455342D01*
X169867366Y-117318410D01*
X169908289Y-117165683D01*
X169908289Y-117007569D01*
X169867366Y-116854842D01*
X169840429Y-116808185D01*
X169788313Y-116717916D01*
X169788307Y-116717908D01*
X169676506Y-116606107D01*
X169676498Y-116606101D01*
X169539579Y-116527052D01*
X169539575Y-116527050D01*
X169539573Y-116527049D01*
X169386846Y-116486126D01*
X169228732Y-116486126D01*
X169076005Y-116527049D01*
X169075998Y-116527052D01*
X168939079Y-116606101D01*
X168939071Y-116606107D01*
X168827270Y-116717908D01*
X168827264Y-116717916D01*
X168748215Y-116854835D01*
X168748212Y-116854842D01*
X168707289Y-117007569D01*
X164314300Y-117007569D01*
X164301817Y-116999228D01*
X164301804Y-116999221D01*
X164174332Y-116946421D01*
X164174322Y-116946418D01*
X164038995Y-116919500D01*
X164038993Y-116919500D01*
X163901007Y-116919500D01*
X163901005Y-116919500D01*
X163765677Y-116946418D01*
X163765667Y-116946421D01*
X163638195Y-116999221D01*
X163638182Y-116999228D01*
X163523458Y-117075885D01*
X163523454Y-117075888D01*
X163425888Y-117173454D01*
X163425885Y-117173458D01*
X163349228Y-117288182D01*
X163349221Y-117288195D01*
X163296421Y-117415667D01*
X163296418Y-117415677D01*
X163269500Y-117551004D01*
X163269500Y-117551007D01*
X163269500Y-117688993D01*
X163269500Y-117688995D01*
X163269499Y-117688995D01*
X151848438Y-117688995D01*
X151890889Y-117659520D01*
X151990179Y-117618394D01*
X152121289Y-117530789D01*
X152146849Y-117505229D01*
X152194845Y-117457234D01*
X152712786Y-116939292D01*
X152712789Y-116939289D01*
X152800394Y-116808179D01*
X152860738Y-116662497D01*
X152891500Y-116507842D01*
X152891500Y-116350157D01*
X152891500Y-115724961D01*
X160013450Y-115724961D01*
X160040369Y-115860288D01*
X160040372Y-115860298D01*
X160093172Y-115987770D01*
X160093179Y-115987783D01*
X160169836Y-116102507D01*
X160169839Y-116102511D01*
X160267405Y-116200077D01*
X160267409Y-116200080D01*
X160382133Y-116276737D01*
X160382146Y-116276744D01*
X160509618Y-116329544D01*
X160509623Y-116329546D01*
X160509627Y-116329546D01*
X160509628Y-116329547D01*
X160644955Y-116356466D01*
X160644958Y-116356466D01*
X160782946Y-116356466D01*
X160895887Y-116334000D01*
X160918279Y-116329546D01*
X161045762Y-116276741D01*
X161160493Y-116200080D01*
X161258065Y-116102508D01*
X161334726Y-115987777D01*
X161338698Y-115978189D01*
X161353551Y-115942329D01*
X161387531Y-115860294D01*
X161405456Y-115770181D01*
X161414451Y-115724961D01*
X161414451Y-115586970D01*
X161387532Y-115451643D01*
X161387531Y-115451642D01*
X161387531Y-115451638D01*
X161372027Y-115414207D01*
X161334729Y-115324161D01*
X161334722Y-115324148D01*
X161258065Y-115209424D01*
X161258062Y-115209420D01*
X161160496Y-115111854D01*
X161160492Y-115111851D01*
X161045768Y-115035194D01*
X161045755Y-115035187D01*
X160918283Y-114982387D01*
X160918273Y-114982384D01*
X160782946Y-114955466D01*
X160782944Y-114955466D01*
X160644958Y-114955466D01*
X160644956Y-114955466D01*
X160509628Y-114982384D01*
X160509618Y-114982387D01*
X160382146Y-115035187D01*
X160382133Y-115035194D01*
X160267409Y-115111851D01*
X160267405Y-115111854D01*
X160169839Y-115209420D01*
X160169836Y-115209424D01*
X160093179Y-115324148D01*
X160093172Y-115324161D01*
X160040372Y-115451633D01*
X160040369Y-115451643D01*
X160013451Y-115586970D01*
X160013451Y-115586973D01*
X160013451Y-115724959D01*
X160013451Y-115724961D01*
X160013450Y-115724961D01*
X152891500Y-115724961D01*
X152891500Y-115461940D01*
X152911185Y-115394901D01*
X152927819Y-115374259D01*
X154133083Y-114168995D01*
X155949499Y-114168995D01*
X155976418Y-114304322D01*
X155976421Y-114304332D01*
X156029221Y-114431804D01*
X156029228Y-114431817D01*
X156105885Y-114546541D01*
X156105888Y-114546545D01*
X156203454Y-114644111D01*
X156203458Y-114644114D01*
X156318182Y-114720771D01*
X156318195Y-114720778D01*
X156445667Y-114773578D01*
X156445672Y-114773580D01*
X156445676Y-114773580D01*
X156445677Y-114773581D01*
X156581004Y-114800500D01*
X156581007Y-114800500D01*
X156718995Y-114800500D01*
X156844288Y-114775577D01*
X156854328Y-114773580D01*
X156981811Y-114720775D01*
X157096542Y-114644114D01*
X157194114Y-114546542D01*
X157270775Y-114431811D01*
X157323580Y-114304328D01*
X157342402Y-114209704D01*
X157350500Y-114168995D01*
X157350500Y-114031004D01*
X157323581Y-113895677D01*
X157323580Y-113895676D01*
X157323580Y-113895672D01*
X157309019Y-113860518D01*
X157270778Y-113768195D01*
X157270771Y-113768182D01*
X157194114Y-113653458D01*
X157194111Y-113653454D01*
X157096545Y-113555888D01*
X157096541Y-113555885D01*
X156981817Y-113479228D01*
X156981804Y-113479221D01*
X156854332Y-113426421D01*
X156854322Y-113426418D01*
X156718995Y-113399500D01*
X156718993Y-113399500D01*
X156581007Y-113399500D01*
X156581005Y-113399500D01*
X156445677Y-113426418D01*
X156445667Y-113426421D01*
X156318195Y-113479221D01*
X156318182Y-113479228D01*
X156203458Y-113555885D01*
X156203454Y-113555888D01*
X156105888Y-113653454D01*
X156105885Y-113653458D01*
X156029228Y-113768182D01*
X156029221Y-113768195D01*
X155976421Y-113895667D01*
X155976418Y-113895677D01*
X155949500Y-114031004D01*
X155949500Y-114031007D01*
X155949500Y-114168993D01*
X155949500Y-114168995D01*
X155949499Y-114168995D01*
X154133083Y-114168995D01*
X154364844Y-113937234D01*
X155133869Y-113168209D01*
X155912788Y-112389290D01*
X155915290Y-112385546D01*
X156000394Y-112258179D01*
X156037093Y-112169577D01*
X156043061Y-112155170D01*
X156043062Y-112155168D01*
X156060736Y-112112500D01*
X156060739Y-112112490D01*
X156091499Y-111957847D01*
X156091500Y-111957845D01*
X156091500Y-111201248D01*
X156111185Y-111134209D01*
X156163989Y-111088454D01*
X156233147Y-111078510D01*
X156284392Y-111098147D01*
X156348180Y-111140770D01*
X156348195Y-111140778D01*
X156475078Y-111193334D01*
X156475672Y-111193580D01*
X156475676Y-111193580D01*
X156475677Y-111193581D01*
X156611004Y-111220500D01*
X156611007Y-111220500D01*
X156748995Y-111220500D01*
X156845779Y-111201248D01*
X156884328Y-111193580D01*
X157011811Y-111140775D01*
X157126542Y-111064114D01*
X157224114Y-110966542D01*
X157300775Y-110851811D01*
X157301319Y-110850499D01*
X157318270Y-110809573D01*
X157353580Y-110724328D01*
X157362389Y-110680041D01*
X157380500Y-110588995D01*
X157380500Y-110451004D01*
X157353581Y-110315677D01*
X157353579Y-110315670D01*
X157349969Y-110306955D01*
X157342499Y-110237485D01*
X157373773Y-110175006D01*
X157433861Y-110139352D01*
X157464529Y-110135500D01*
X159548639Y-110135500D01*
X159550559Y-110135397D01*
X159581297Y-110133749D01*
X159607655Y-110130915D01*
X159614660Y-110130080D01*
X159721407Y-110095297D01*
X159721414Y-110095292D01*
X159722226Y-110094943D01*
X159722657Y-110094890D01*
X159726859Y-110093521D01*
X159727126Y-110094342D01*
X159791576Y-110086440D01*
X159854514Y-110116780D01*
G37*
%TD.AperFunction*%
%TA.AperFunction,Conductor*%
G36*
X138487246Y-84338532D02*
G01*
X138490449Y-84338953D01*
X138490450Y-84338954D01*
X138490451Y-84338954D01*
X156778516Y-84338954D01*
X156783970Y-84340287D01*
X156844281Y-84338954D01*
X156852160Y-84338954D01*
X156855840Y-84339009D01*
X157114375Y-84346686D01*
X157127170Y-84347730D01*
X157383127Y-84382040D01*
X157395720Y-84384397D01*
X157603189Y-84434468D01*
X157646745Y-84444980D01*
X157659050Y-84448633D01*
X157708035Y-84465981D01*
X157902478Y-84534845D01*
X157914312Y-84539739D01*
X158147518Y-84650652D01*
X158158805Y-84656755D01*
X158379291Y-84791178D01*
X158389881Y-84798411D01*
X158578886Y-84942410D01*
X158583787Y-84946144D01*
X158596320Y-84957098D01*
X171090387Y-97451165D01*
X171123872Y-97512488D01*
X171118888Y-97582180D01*
X171113191Y-97595141D01*
X171023779Y-97770619D01*
X170960520Y-97965308D01*
X170930863Y-98152560D01*
X170928498Y-98167491D01*
X170928498Y-98372195D01*
X170932876Y-98399838D01*
X170960520Y-98574377D01*
X171023779Y-98769066D01*
X171059103Y-98838392D01*
X171111130Y-98940500D01*
X171116713Y-98951456D01*
X171237026Y-99117056D01*
X171381784Y-99261814D01*
X171531759Y-99370775D01*
X171547388Y-99382130D01*
X171729779Y-99475063D01*
X171840303Y-99510974D01*
X171897976Y-99550410D01*
X171925175Y-99614769D01*
X171925983Y-99628904D01*
X171925983Y-111424579D01*
X171906298Y-111491618D01*
X171853494Y-111537373D01*
X171784336Y-111547317D01*
X171720780Y-111518292D01*
X171714302Y-111512260D01*
X165562787Y-105360745D01*
X165529302Y-105299422D01*
X165534286Y-105229730D01*
X165562787Y-105185383D01*
X165565505Y-105182665D01*
X165634688Y-105062836D01*
X165670500Y-104929183D01*
X165670500Y-104790817D01*
X165634688Y-104657164D01*
X165565505Y-104537335D01*
X165467665Y-104439495D01*
X165467664Y-104439494D01*
X165467661Y-104439492D01*
X165418910Y-104411346D01*
X165370694Y-104360779D01*
X165357471Y-104292172D01*
X165383439Y-104227307D01*
X165433458Y-104189398D01*
X165554172Y-104139397D01*
X165554172Y-104139396D01*
X165554179Y-104139394D01*
X165685289Y-104051789D01*
X165796789Y-103940289D01*
X165884394Y-103809179D01*
X165944737Y-103663497D01*
X165975500Y-103508842D01*
X165975500Y-103351158D01*
X165975500Y-103351155D01*
X165975499Y-103351153D01*
X167624500Y-103351153D01*
X167624500Y-103508846D01*
X167655261Y-103663489D01*
X167655264Y-103663501D01*
X167715602Y-103809172D01*
X167715609Y-103809185D01*
X167803210Y-103940288D01*
X167803213Y-103940292D01*
X167914707Y-104051786D01*
X167914711Y-104051789D01*
X168045814Y-104139390D01*
X168045827Y-104139397D01*
X168141067Y-104178846D01*
X168191503Y-104199737D01*
X168288827Y-104219096D01*
X168346153Y-104230499D01*
X168346156Y-104230500D01*
X168346158Y-104230500D01*
X169303844Y-104230500D01*
X169303845Y-104230499D01*
X169458497Y-104199737D01*
X169604179Y-104139394D01*
X169735289Y-104051789D01*
X169846789Y-103940289D01*
X169934394Y-103809179D01*
X169994737Y-103663497D01*
X170025500Y-103508842D01*
X170025500Y-103351158D01*
X170025500Y-103351155D01*
X170025499Y-103351153D01*
X170021343Y-103330261D01*
X169994737Y-103196503D01*
X169986223Y-103175949D01*
X169934397Y-103050827D01*
X169934390Y-103050814D01*
X169846789Y-102919711D01*
X169846786Y-102919707D01*
X169735292Y-102808213D01*
X169735288Y-102808210D01*
X169604185Y-102720609D01*
X169604172Y-102720602D01*
X169458501Y-102660264D01*
X169458489Y-102660261D01*
X169303845Y-102629500D01*
X169303842Y-102629500D01*
X168346158Y-102629500D01*
X168346155Y-102629500D01*
X168191510Y-102660261D01*
X168191498Y-102660264D01*
X168045827Y-102720602D01*
X168045814Y-102720609D01*
X167914711Y-102808210D01*
X167914707Y-102808213D01*
X167803213Y-102919707D01*
X167803210Y-102919711D01*
X167715609Y-103050814D01*
X167715602Y-103050827D01*
X167655264Y-103196498D01*
X167655261Y-103196510D01*
X167624500Y-103351153D01*
X165975499Y-103351153D01*
X165971343Y-103330261D01*
X165944737Y-103196503D01*
X165936223Y-103175949D01*
X165884397Y-103050827D01*
X165884390Y-103050814D01*
X165796789Y-102919711D01*
X165796786Y-102919707D01*
X165685292Y-102808213D01*
X165685288Y-102808210D01*
X165554185Y-102720609D01*
X165554172Y-102720602D01*
X165408501Y-102660264D01*
X165408489Y-102660261D01*
X165253845Y-102629500D01*
X165253842Y-102629500D01*
X163996158Y-102629500D01*
X163996155Y-102629500D01*
X163841510Y-102660261D01*
X163841498Y-102660264D01*
X163695827Y-102720602D01*
X163695814Y-102720609D01*
X163564711Y-102808210D01*
X163564707Y-102808213D01*
X163453213Y-102919707D01*
X163453210Y-102919711D01*
X163365609Y-103050814D01*
X163365602Y-103050827D01*
X163305264Y-103196498D01*
X163305261Y-103196510D01*
X163274500Y-103351153D01*
X163274500Y-103508846D01*
X163305261Y-103663489D01*
X163305264Y-103663501D01*
X163365602Y-103809172D01*
X163365609Y-103809185D01*
X163453210Y-103940288D01*
X163453213Y-103940292D01*
X163564707Y-104051786D01*
X163564711Y-104051789D01*
X163695814Y-104139390D01*
X163695827Y-104139397D01*
X163791067Y-104178846D01*
X163841503Y-104199737D01*
X163938827Y-104219096D01*
X163996153Y-104230499D01*
X163996156Y-104230500D01*
X164731968Y-104230500D01*
X164748115Y-104235241D01*
X164764943Y-104234965D01*
X164780946Y-104244881D01*
X164799007Y-104250185D01*
X164810026Y-104262901D01*
X164824334Y-104271768D01*
X164832435Y-104288763D01*
X164844762Y-104302989D01*
X164847157Y-104319645D01*
X164854399Y-104334838D01*
X164852026Y-104353512D01*
X164854706Y-104372147D01*
X164847654Y-104387929D01*
X164845594Y-104404151D01*
X164830563Y-104426182D01*
X164827003Y-104434152D01*
X164822702Y-104439282D01*
X164822335Y-104439495D01*
X164724495Y-104537335D01*
X164689011Y-104598793D01*
X164682062Y-104607086D01*
X164661617Y-104620704D01*
X164643845Y-104637650D01*
X164633058Y-104639728D01*
X164623913Y-104645821D01*
X164599352Y-104646224D01*
X164575238Y-104650872D01*
X164569381Y-104650172D01*
X164529930Y-104644500D01*
X164529929Y-104644500D01*
X163391362Y-104644500D01*
X163391361Y-104644500D01*
X163358718Y-104646250D01*
X163358709Y-104646250D01*
X163358703Y-104646251D01*
X163358698Y-104646251D01*
X163358665Y-104646254D01*
X163332374Y-104649081D01*
X163325339Y-104649920D01*
X163325337Y-104649920D01*
X163218598Y-104684700D01*
X163218588Y-104684704D01*
X163157266Y-104718189D01*
X163087670Y-104770289D01*
X163087649Y-104770307D01*
X160039777Y-107818181D01*
X159978454Y-107851666D01*
X159952096Y-107854500D01*
X157304000Y-107854500D01*
X157303991Y-107854500D01*
X157303990Y-107854501D01*
X157239064Y-107861481D01*
X157239052Y-107861483D01*
X157187546Y-107872688D01*
X157149345Y-107883644D01*
X157149341Y-107883646D01*
X157052431Y-107940323D01*
X157052428Y-107940325D01*
X156999623Y-107986081D01*
X156999612Y-107986091D01*
X156957451Y-108030807D01*
X156957445Y-108030816D01*
X156906560Y-108130890D01*
X156886877Y-108197921D01*
X156886876Y-108197928D01*
X156884984Y-108211090D01*
X156874500Y-108284002D01*
X156874500Y-109695500D01*
X156854815Y-109762539D01*
X156802011Y-109808294D01*
X156750500Y-109819500D01*
X156611005Y-109819500D01*
X156475677Y-109846418D01*
X156475667Y-109846421D01*
X156348195Y-109899221D01*
X156348182Y-109899228D01*
X156284391Y-109941853D01*
X156217714Y-109962731D01*
X156150333Y-109944247D01*
X156103643Y-109892268D01*
X156091500Y-109838751D01*
X156091500Y-100492157D01*
X156091499Y-100492156D01*
X156089337Y-100481283D01*
X156088408Y-100476610D01*
X156088408Y-100476609D01*
X156064059Y-100354198D01*
X156060738Y-100337503D01*
X156000394Y-100191821D01*
X156000392Y-100191818D01*
X156000390Y-100191814D01*
X155912789Y-100060711D01*
X155912786Y-100060707D01*
X154370292Y-98518213D01*
X154370288Y-98518210D01*
X154239185Y-98430609D01*
X154239171Y-98430601D01*
X154227268Y-98425671D01*
X154172866Y-98381828D01*
X154150804Y-98315533D01*
X154168086Y-98247835D01*
X154219225Y-98200226D01*
X154276073Y-98187119D01*
X159633806Y-98245529D01*
X159700625Y-98265944D01*
X159718202Y-98279952D01*
X160555705Y-99081817D01*
X160672084Y-99193244D01*
X160706894Y-99253825D01*
X160710328Y-99283395D01*
X160705088Y-100394430D01*
X160709885Y-100440985D01*
X160711799Y-100459563D01*
X160718748Y-100492157D01*
X160722817Y-100511245D01*
X160722825Y-100511279D01*
X160733671Y-100549657D01*
X160733672Y-100549659D01*
X160789997Y-100646772D01*
X160789998Y-100646773D01*
X160790001Y-100646778D01*
X160835565Y-100699747D01*
X160835569Y-100699751D01*
X160835571Y-100699753D01*
X160880150Y-100742089D01*
X160949659Y-100777748D01*
X161000323Y-100825862D01*
X161016931Y-100893729D01*
X160994211Y-100959802D01*
X160980744Y-100975755D01*
X160970540Y-100985959D01*
X160970535Y-100985965D01*
X160871990Y-101133446D01*
X160871983Y-101133459D01*
X160804106Y-101297332D01*
X160804103Y-101297341D01*
X160769500Y-101471304D01*
X160769500Y-101648695D01*
X160804103Y-101822658D01*
X160804106Y-101822667D01*
X160871983Y-101986540D01*
X160871990Y-101986553D01*
X160970535Y-102134034D01*
X160970538Y-102134038D01*
X161095961Y-102259461D01*
X161095965Y-102259464D01*
X161243446Y-102358009D01*
X161243459Y-102358016D01*
X161349445Y-102401916D01*
X161407334Y-102425894D01*
X161407336Y-102425894D01*
X161407341Y-102425896D01*
X161581304Y-102460499D01*
X161581307Y-102460500D01*
X161581309Y-102460500D01*
X161758693Y-102460500D01*
X161758694Y-102460499D01*
X161816682Y-102448964D01*
X161932658Y-102425896D01*
X161932661Y-102425894D01*
X161932666Y-102425894D01*
X162072535Y-102367958D01*
X162096540Y-102358016D01*
X162096540Y-102358015D01*
X162096547Y-102358013D01*
X162244035Y-102259464D01*
X162369464Y-102134035D01*
X162468013Y-101986547D01*
X162535894Y-101822666D01*
X162544569Y-101779057D01*
X162565901Y-101671811D01*
X162570500Y-101648691D01*
X162570500Y-101471309D01*
X162570500Y-101471306D01*
X162570499Y-101471304D01*
X162535896Y-101297341D01*
X162535893Y-101297332D01*
X162468016Y-101133459D01*
X162468009Y-101133446D01*
X162394721Y-101023763D01*
X162373843Y-100957085D01*
X162392328Y-100889705D01*
X162444306Y-100843015D01*
X162498266Y-100830873D01*
X163654449Y-100835048D01*
X163719953Y-100828185D01*
X163771912Y-100816980D01*
X163810658Y-100805905D01*
X163907571Y-100749226D01*
X163960375Y-100703471D01*
X163960382Y-100703463D01*
X163960387Y-100703459D01*
X164002548Y-100658743D01*
X164002553Y-100658738D01*
X164053439Y-100558662D01*
X164073124Y-100491623D01*
X164085500Y-100405551D01*
X164085500Y-100120943D01*
X167789500Y-100120943D01*
X167789500Y-100279057D01*
X167810791Y-100358514D01*
X167830423Y-100431783D01*
X167830426Y-100431790D01*
X167909475Y-100568709D01*
X167909479Y-100568714D01*
X167909480Y-100568716D01*
X168021284Y-100680520D01*
X168021286Y-100680521D01*
X168021290Y-100680524D01*
X168140287Y-100749226D01*
X168158216Y-100759577D01*
X168310943Y-100800500D01*
X168310945Y-100800500D01*
X168469055Y-100800500D01*
X168469057Y-100800500D01*
X168621784Y-100759577D01*
X168758716Y-100680520D01*
X168870520Y-100568716D01*
X168949577Y-100431784D01*
X168990500Y-100279057D01*
X168990500Y-100120943D01*
X168949577Y-99968216D01*
X168949573Y-99968209D01*
X168870524Y-99831290D01*
X168870518Y-99831282D01*
X168758717Y-99719481D01*
X168758709Y-99719475D01*
X168621790Y-99640426D01*
X168621786Y-99640424D01*
X168621784Y-99640423D01*
X168469057Y-99599500D01*
X168310943Y-99599500D01*
X168158216Y-99640423D01*
X168158209Y-99640426D01*
X168021290Y-99719475D01*
X168021282Y-99719481D01*
X167909481Y-99831282D01*
X167909475Y-99831290D01*
X167830426Y-99968209D01*
X167830423Y-99968216D01*
X167789500Y-100120943D01*
X164085500Y-100120943D01*
X164085500Y-96904000D01*
X164078518Y-96839059D01*
X164067312Y-96787548D01*
X164056354Y-96749342D01*
X163999675Y-96652429D01*
X163953920Y-96599625D01*
X163953918Y-96599623D01*
X163953908Y-96599612D01*
X163909192Y-96557451D01*
X163909189Y-96557449D01*
X163909187Y-96557447D01*
X163809111Y-96506561D01*
X163809110Y-96506560D01*
X163809109Y-96506560D01*
X163742078Y-96486877D01*
X163742072Y-96486876D01*
X163656000Y-96474500D01*
X163655997Y-96474500D01*
X161847904Y-96474500D01*
X161780865Y-96454815D01*
X161760223Y-96438181D01*
X160911819Y-95589777D01*
X160878334Y-95528454D01*
X160875500Y-95502096D01*
X160875500Y-93341361D01*
X160875390Y-93339320D01*
X160873749Y-93308703D01*
X160870915Y-93282345D01*
X160870080Y-93275340D01*
X160848841Y-93210158D01*
X160835299Y-93168598D01*
X160835295Y-93168588D01*
X160801810Y-93107266D01*
X160749710Y-93037670D01*
X160749705Y-93037665D01*
X160749702Y-93037660D01*
X160749698Y-93037656D01*
X160749692Y-93037649D01*
X160012353Y-92300311D01*
X160012340Y-92300298D01*
X159988008Y-92278442D01*
X159967366Y-92261808D01*
X159967363Y-92261806D01*
X159967325Y-92261775D01*
X159961827Y-92257448D01*
X159961825Y-92257447D01*
X159861747Y-92206560D01*
X159794716Y-92186877D01*
X159794710Y-92186876D01*
X159708638Y-92174500D01*
X159708635Y-92174500D01*
X155927904Y-92174500D01*
X155860865Y-92154815D01*
X155840223Y-92138181D01*
X155391819Y-91689777D01*
X155358334Y-91628454D01*
X155355500Y-91602096D01*
X155355500Y-91311361D01*
X155355390Y-91309320D01*
X155353749Y-91278703D01*
X155350915Y-91252345D01*
X155350080Y-91245340D01*
X155315297Y-91138593D01*
X155315295Y-91138588D01*
X155281810Y-91077266D01*
X155229710Y-91007670D01*
X155229705Y-91007665D01*
X155229702Y-91007660D01*
X155229698Y-91007656D01*
X155229692Y-91007649D01*
X153912353Y-89690311D01*
X153912340Y-89690298D01*
X153888008Y-89668442D01*
X153867366Y-89651808D01*
X153867363Y-89651806D01*
X153867325Y-89651775D01*
X153861827Y-89647448D01*
X153861825Y-89647447D01*
X153761747Y-89596560D01*
X153694716Y-89576877D01*
X153694710Y-89576876D01*
X153608638Y-89564500D01*
X147431744Y-89564500D01*
X147431579Y-89564500D01*
X147428058Y-89564521D01*
X147425174Y-89564555D01*
X147335769Y-89579042D01*
X147307861Y-89587963D01*
X147269218Y-89600317D01*
X147269214Y-89600318D01*
X147268062Y-89600687D01*
X147198212Y-89602350D01*
X147184537Y-89597820D01*
X147181365Y-89596560D01*
X147114334Y-89576877D01*
X147114328Y-89576876D01*
X147028256Y-89564500D01*
X141274000Y-89564500D01*
X141273991Y-89564500D01*
X141273990Y-89564501D01*
X141209064Y-89571481D01*
X141209052Y-89571483D01*
X141157546Y-89582688D01*
X141119345Y-89593644D01*
X141119341Y-89593646D01*
X141022431Y-89650323D01*
X141022428Y-89650325D01*
X140969623Y-89696081D01*
X140969612Y-89696091D01*
X140927451Y-89740807D01*
X140927445Y-89740816D01*
X140876560Y-89840890D01*
X140856877Y-89907921D01*
X140856876Y-89907928D01*
X140846020Y-89983433D01*
X140844500Y-89994002D01*
X140844500Y-91038638D01*
X140846250Y-91071281D01*
X140846254Y-91071334D01*
X140849081Y-91097625D01*
X140849920Y-91104660D01*
X140849920Y-91104662D01*
X140884700Y-91211401D01*
X140884704Y-91211411D01*
X140918189Y-91272733D01*
X140970289Y-91342329D01*
X140970295Y-91342336D01*
X140970298Y-91342340D01*
X141079814Y-91451856D01*
X141079820Y-91451861D01*
X141079822Y-91451863D01*
X141118610Y-91484674D01*
X141118623Y-91484684D01*
X141152128Y-91508544D01*
X141173262Y-91522316D01*
X141173265Y-91522317D01*
X141278676Y-91560961D01*
X141278684Y-91560962D01*
X141278687Y-91560963D01*
X141297078Y-91564056D01*
X141359925Y-91594584D01*
X141394416Y-91647922D01*
X141429794Y-91756496D01*
X141429797Y-91756504D01*
X141463282Y-91817826D01*
X141515382Y-91887422D01*
X141515400Y-91887443D01*
X143131948Y-93503990D01*
X143165433Y-93565313D01*
X143160449Y-93635005D01*
X143118577Y-93690938D01*
X143076362Y-93711445D01*
X143054830Y-93717215D01*
X142968214Y-93740423D01*
X142968209Y-93740426D01*
X142831290Y-93819475D01*
X142831282Y-93819481D01*
X142719481Y-93931282D01*
X142719475Y-93931290D01*
X142640426Y-94068209D01*
X142640423Y-94068216D01*
X142599500Y-94220943D01*
X142599500Y-94379056D01*
X142640423Y-94531783D01*
X142640426Y-94531790D01*
X142719475Y-94668709D01*
X142719479Y-94668714D01*
X142719480Y-94668716D01*
X142831284Y-94780520D01*
X142831286Y-94780521D01*
X142831290Y-94780524D01*
X142866750Y-94800997D01*
X142914966Y-94851563D01*
X142928190Y-94920170D01*
X142912139Y-94970382D01*
X142886320Y-95015103D01*
X142886318Y-95015108D01*
X142845395Y-95167835D01*
X142845395Y-95325949D01*
X142884848Y-95473188D01*
X142886318Y-95478675D01*
X142886321Y-95478682D01*
X142965370Y-95615601D01*
X142965374Y-95615606D01*
X142965375Y-95615608D01*
X143077179Y-95727412D01*
X143077181Y-95727413D01*
X143077185Y-95727416D01*
X143177195Y-95785156D01*
X143214111Y-95806469D01*
X143366838Y-95847392D01*
X143366840Y-95847392D01*
X143524950Y-95847392D01*
X143524952Y-95847392D01*
X143677679Y-95806469D01*
X143814611Y-95727412D01*
X143926415Y-95615608D01*
X144005472Y-95478676D01*
X144046395Y-95325949D01*
X144046395Y-95167835D01*
X144005472Y-95015108D01*
X143950660Y-94920170D01*
X143926419Y-94878182D01*
X143926413Y-94878174D01*
X143814612Y-94766373D01*
X143814607Y-94766369D01*
X143779143Y-94745894D01*
X143730927Y-94695327D01*
X143717705Y-94626720D01*
X143733756Y-94576507D01*
X143759577Y-94531784D01*
X143800500Y-94379057D01*
X143800500Y-94220943D01*
X143768594Y-94101868D01*
X143770257Y-94032022D01*
X143809419Y-93974159D01*
X143873648Y-93946655D01*
X143888540Y-93945778D01*
X144310686Y-93946402D01*
X144377694Y-93966186D01*
X144423370Y-94019057D01*
X144434500Y-94070402D01*
X144434500Y-94071221D01*
X144434500Y-100125500D01*
X144434501Y-100125509D01*
X144441481Y-100190435D01*
X144441483Y-100190447D01*
X144452688Y-100241953D01*
X144463643Y-100280151D01*
X144463649Y-100280164D01*
X144469815Y-100290707D01*
X144486667Y-100358514D01*
X144464183Y-100424667D01*
X144450458Y-100440985D01*
X144410160Y-100481283D01*
X144331107Y-100618209D01*
X144331104Y-100618216D01*
X144290181Y-100770943D01*
X144290181Y-100929057D01*
X144317021Y-101029223D01*
X144331104Y-101081783D01*
X144331107Y-101081790D01*
X144410156Y-101218709D01*
X144410162Y-101218717D01*
X144452218Y-101260773D01*
X144485703Y-101322096D01*
X144480719Y-101391788D01*
X144475070Y-101404654D01*
X144466559Y-101421391D01*
X144466558Y-101421395D01*
X144466183Y-101422670D01*
X144466184Y-101422671D01*
X144446878Y-101488419D01*
X144446877Y-101488423D01*
X144446876Y-101488428D01*
X144434501Y-101574494D01*
X144434500Y-101574501D01*
X144434500Y-103175949D01*
X144414815Y-103242988D01*
X144362011Y-103288743D01*
X144327100Y-103298154D01*
X144327132Y-103298311D01*
X144324796Y-103298775D01*
X144322662Y-103299351D01*
X144321158Y-103299499D01*
X144166510Y-103330261D01*
X144166498Y-103330264D01*
X144020827Y-103390602D01*
X144020814Y-103390609D01*
X143889711Y-103478210D01*
X143889707Y-103478213D01*
X143778213Y-103589707D01*
X143778210Y-103589711D01*
X143690609Y-103720814D01*
X143690602Y-103720827D01*
X143630264Y-103866498D01*
X143630261Y-103866510D01*
X143599500Y-104021153D01*
X143599500Y-104178846D01*
X143630261Y-104333489D01*
X143630264Y-104333501D01*
X143690602Y-104479172D01*
X143690609Y-104479185D01*
X143778210Y-104610288D01*
X143778213Y-104610292D01*
X143889707Y-104721786D01*
X143889711Y-104721789D01*
X143890586Y-104722374D01*
X143890940Y-104722798D01*
X143894419Y-104725653D01*
X143893877Y-104726312D01*
X143935391Y-104775986D01*
X143944098Y-104845311D01*
X143913943Y-104908339D01*
X143874990Y-104935902D01*
X143875254Y-104936359D01*
X143870320Y-104939207D01*
X143869148Y-104940037D01*
X143868211Y-104940424D01*
X143731290Y-105019475D01*
X143731282Y-105019481D01*
X143619481Y-105131282D01*
X143619475Y-105131290D01*
X143540426Y-105268209D01*
X143540423Y-105268216D01*
X143499500Y-105420943D01*
X143499500Y-105579057D01*
X143534103Y-105708195D01*
X143540423Y-105731783D01*
X143540426Y-105731790D01*
X143619475Y-105868709D01*
X143619479Y-105868714D01*
X143619480Y-105868716D01*
X143731284Y-105980520D01*
X143731286Y-105980521D01*
X143731290Y-105980524D01*
X143852366Y-106050426D01*
X143868216Y-106059577D01*
X144020943Y-106100500D01*
X144020945Y-106100500D01*
X144179054Y-106100500D01*
X144179057Y-106100500D01*
X144299452Y-106068240D01*
X144369300Y-106069903D01*
X144427163Y-106109065D01*
X144453160Y-106163818D01*
X144454078Y-106168432D01*
X144454079Y-106168434D01*
X144478494Y-106233895D01*
X144505666Y-106289044D01*
X144524065Y-106309057D01*
X144581651Y-106371697D01*
X144637584Y-106413569D01*
X144637589Y-106413572D01*
X144637593Y-106413575D01*
X144685018Y-106442119D01*
X144690267Y-106445278D01*
X144798874Y-106473728D01*
X144868566Y-106478712D01*
X144930022Y-106476904D01*
X145036769Y-106442121D01*
X145047798Y-106436099D01*
X145068464Y-106424814D01*
X145098092Y-106408636D01*
X145138728Y-106378216D01*
X145167688Y-106356537D01*
X145167691Y-106356534D01*
X145167702Y-106356526D01*
X145419725Y-106104500D01*
X145445402Y-106084799D01*
X145461591Y-106075452D01*
X145491502Y-106063062D01*
X145503648Y-106059808D01*
X145509566Y-106058223D01*
X145541652Y-106054000D01*
X147438482Y-106054000D01*
X147440402Y-106053897D01*
X147471140Y-106052249D01*
X147497498Y-106049415D01*
X147504503Y-106048580D01*
X147611250Y-106013797D01*
X147619120Y-106009500D01*
X147639797Y-105998209D01*
X147672573Y-105980312D01*
X147681830Y-105973380D01*
X147687227Y-105969562D01*
X147703182Y-105958900D01*
X147703183Y-105958901D01*
X147782754Y-105905731D01*
X147804167Y-105894285D01*
X147853507Y-105873848D01*
X147876757Y-105866796D01*
X147904482Y-105861282D01*
X147929118Y-105856382D01*
X147953307Y-105854000D01*
X148006691Y-105854000D01*
X148030880Y-105856381D01*
X148083235Y-105866795D01*
X148106495Y-105873851D01*
X148155822Y-105894282D01*
X148177263Y-105905743D01*
X148221642Y-105935397D01*
X148240430Y-105950816D01*
X148278174Y-105988559D01*
X148293596Y-106007350D01*
X148323260Y-106051745D01*
X148334718Y-106073182D01*
X148349581Y-106109065D01*
X148355145Y-106122496D01*
X148362201Y-106145756D01*
X148372617Y-106198116D01*
X148375000Y-106222309D01*
X148375000Y-106275690D01*
X148372617Y-106299883D01*
X148362201Y-106352244D01*
X148355145Y-106375504D01*
X148334720Y-106424814D01*
X148323261Y-106446252D01*
X148293599Y-106490644D01*
X148278178Y-106509434D01*
X148219429Y-106568183D01*
X148213794Y-106573478D01*
X148199916Y-106585724D01*
X148188761Y-106596071D01*
X148124154Y-106687882D01*
X148124150Y-106687889D01*
X148094652Y-106752480D01*
X148085604Y-106762920D01*
X148080704Y-106775837D01*
X148063174Y-106788805D01*
X148048896Y-106805283D01*
X148035641Y-106809174D01*
X148024534Y-106817392D01*
X148002776Y-106818824D01*
X147981856Y-106824967D01*
X147968599Y-106821074D01*
X147954816Y-106821982D01*
X147935741Y-106811426D01*
X147914817Y-106805282D01*
X147904499Y-106794136D01*
X147893683Y-106788151D01*
X147881454Y-106769243D01*
X147872692Y-106759778D01*
X147867795Y-106750689D01*
X147867298Y-106748522D01*
X147850499Y-106718583D01*
X147849983Y-106717625D01*
X147849879Y-106717134D01*
X147844111Y-106705097D01*
X147841004Y-106697376D01*
X147841002Y-106697370D01*
X147822714Y-106668668D01*
X147822714Y-106668667D01*
X147820840Y-106665726D01*
X147812359Y-106650611D01*
X147807519Y-106644820D01*
X147803461Y-106638450D01*
X147770522Y-106600132D01*
X147746794Y-106572529D01*
X147746791Y-106572526D01*
X147746785Y-106572519D01*
X147740755Y-106567252D01*
X147740733Y-106567235D01*
X147726060Y-106554434D01*
X147725901Y-106554185D01*
X147725788Y-106554087D01*
X147725742Y-106554140D01*
X147721013Y-106550009D01*
X147713206Y-106544117D01*
X147710105Y-106541699D01*
X147706738Y-106538986D01*
X147700627Y-106534061D01*
X147699397Y-106532291D01*
X147698842Y-106531931D01*
X147693662Y-106528226D01*
X147687994Y-106524605D01*
X147683899Y-106522245D01*
X147670721Y-106513704D01*
X147670710Y-106513697D01*
X147644781Y-106496888D01*
X147641259Y-106495236D01*
X147641258Y-106495235D01*
X147641257Y-106495235D01*
X147612429Y-106485310D01*
X147596582Y-106478590D01*
X147592511Y-106476520D01*
X147591625Y-106476069D01*
X147591621Y-106476068D01*
X147553179Y-106464775D01*
X147550430Y-106463968D01*
X147535100Y-106458691D01*
X147529751Y-106457899D01*
X147524565Y-106456378D01*
X147524548Y-106456374D01*
X147524546Y-106456374D01*
X147524542Y-106456373D01*
X147524540Y-106456373D01*
X147438481Y-106444000D01*
X145809676Y-106444000D01*
X145809675Y-106444000D01*
X145777032Y-106445750D01*
X145777023Y-106445750D01*
X145777017Y-106445751D01*
X145777012Y-106445751D01*
X145776979Y-106445754D01*
X145750688Y-106448581D01*
X145743653Y-106449420D01*
X145743651Y-106449420D01*
X145636912Y-106484200D01*
X145636902Y-106484204D01*
X145575580Y-106517689D01*
X145505984Y-106569789D01*
X145505963Y-106569807D01*
X145483506Y-106592265D01*
X145475902Y-106600144D01*
X145469884Y-106606606D01*
X145469879Y-106606613D01*
X145415571Y-106687885D01*
X145415565Y-106687897D01*
X145386550Y-106751431D01*
X145386545Y-106751443D01*
X145368249Y-106805283D01*
X145366761Y-106809661D01*
X145363900Y-106877767D01*
X145362048Y-106921837D01*
X145371992Y-106990991D01*
X145386821Y-107050656D01*
X145386823Y-107050660D01*
X145431858Y-107127664D01*
X145443501Y-107147571D01*
X145466800Y-107174460D01*
X145489257Y-107200376D01*
X145489267Y-107200387D01*
X145533983Y-107242548D01*
X145533985Y-107242549D01*
X145533989Y-107242553D01*
X145538739Y-107244968D01*
X145589575Y-107292898D01*
X145606428Y-107360705D01*
X145583946Y-107426859D01*
X145529268Y-107470357D01*
X145482537Y-107479500D01*
X144457312Y-107479500D01*
X144390273Y-107459815D01*
X144369631Y-107443181D01*
X142657819Y-105731369D01*
X142624334Y-105670046D01*
X142621500Y-105643688D01*
X142621500Y-102546474D01*
X142621500Y-102546472D01*
X142587392Y-102419178D01*
X142540542Y-102338032D01*
X142524070Y-102270135D01*
X142546922Y-102204108D01*
X142563565Y-102186863D01*
X142562969Y-102186267D01*
X142615202Y-102134034D01*
X142680520Y-102068716D01*
X142759577Y-101931784D01*
X142800500Y-101779057D01*
X142800500Y-101620943D01*
X142772374Y-101515975D01*
X142774037Y-101446130D01*
X142813199Y-101388268D01*
X142877427Y-101360763D01*
X142946330Y-101372349D01*
X142954148Y-101376498D01*
X142955397Y-101377219D01*
X142984972Y-101394294D01*
X143137699Y-101435217D01*
X143137701Y-101435217D01*
X143295811Y-101435217D01*
X143295813Y-101435217D01*
X143448540Y-101394294D01*
X143585472Y-101315237D01*
X143697276Y-101203433D01*
X143776333Y-101066501D01*
X143817256Y-100913774D01*
X143817256Y-100755660D01*
X143776333Y-100602933D01*
X143751417Y-100559777D01*
X143697280Y-100466007D01*
X143697274Y-100465999D01*
X143585473Y-100354198D01*
X143585465Y-100354192D01*
X143448546Y-100275143D01*
X143448542Y-100275141D01*
X143448540Y-100275140D01*
X143295813Y-100234217D01*
X143137699Y-100234217D01*
X142984972Y-100275140D01*
X142984965Y-100275143D01*
X142848046Y-100354192D01*
X142848038Y-100354198D01*
X142736237Y-100465999D01*
X142736231Y-100466007D01*
X142657182Y-100602926D01*
X142657179Y-100602933D01*
X142616256Y-100755660D01*
X142616256Y-100913774D01*
X142641554Y-101008189D01*
X142644381Y-101018737D01*
X142642718Y-101088586D01*
X142603555Y-101146449D01*
X142539327Y-101173953D01*
X142470425Y-101162367D01*
X142462608Y-101158218D01*
X142431788Y-101140425D01*
X142431786Y-101140424D01*
X142431784Y-101140423D01*
X142279057Y-101099500D01*
X142120943Y-101099500D01*
X141968216Y-101140423D01*
X141968209Y-101140426D01*
X141831290Y-101219475D01*
X141831282Y-101219481D01*
X141721288Y-101329476D01*
X141659965Y-101362961D01*
X141590273Y-101357977D01*
X141545926Y-101329476D01*
X140537819Y-100321369D01*
X140504334Y-100260046D01*
X140501500Y-100233688D01*
X140501500Y-97610098D01*
X140521185Y-97543059D01*
X140573989Y-97497304D01*
X140643147Y-97487360D01*
X140706703Y-97516385D01*
X140713181Y-97522417D01*
X140721284Y-97530520D01*
X140721286Y-97530521D01*
X140721290Y-97530524D01*
X140833212Y-97595141D01*
X140858216Y-97609577D01*
X141010943Y-97650500D01*
X141010945Y-97650500D01*
X141169055Y-97650500D01*
X141169057Y-97650500D01*
X141321784Y-97609577D01*
X141458716Y-97530520D01*
X141570520Y-97418716D01*
X141649577Y-97281784D01*
X141690500Y-97129057D01*
X141690500Y-96970943D01*
X141649577Y-96818216D01*
X141609813Y-96749342D01*
X141570524Y-96681290D01*
X141570518Y-96681282D01*
X141458717Y-96569481D01*
X141458709Y-96569475D01*
X141321790Y-96490426D01*
X141321786Y-96490424D01*
X141321784Y-96490423D01*
X141169057Y-96449500D01*
X141010943Y-96449500D01*
X140858216Y-96490423D01*
X140858209Y-96490426D01*
X140721290Y-96569475D01*
X140721282Y-96569481D01*
X140713181Y-96577583D01*
X140651858Y-96611068D01*
X140582166Y-96606084D01*
X140526233Y-96564212D01*
X140501816Y-96498748D01*
X140501500Y-96489902D01*
X140501500Y-89700107D01*
X140501500Y-89700105D01*
X140467392Y-89572811D01*
X140401500Y-89458683D01*
X140308314Y-89365497D01*
X139754121Y-88811304D01*
X154879500Y-88811304D01*
X154879500Y-88988695D01*
X154914103Y-89162658D01*
X154914106Y-89162667D01*
X154981983Y-89326540D01*
X154981990Y-89326553D01*
X155080535Y-89474034D01*
X155080538Y-89474038D01*
X155205961Y-89599461D01*
X155205965Y-89599464D01*
X155353446Y-89698009D01*
X155353459Y-89698016D01*
X155456768Y-89740807D01*
X155517334Y-89765894D01*
X155517336Y-89765894D01*
X155517341Y-89765896D01*
X155691304Y-89800499D01*
X155691307Y-89800500D01*
X155691309Y-89800500D01*
X155868693Y-89800500D01*
X155868694Y-89800499D01*
X155926682Y-89788964D01*
X156042658Y-89765896D01*
X156042661Y-89765894D01*
X156042666Y-89765894D01*
X156201492Y-89700107D01*
X156206540Y-89698016D01*
X156206540Y-89698015D01*
X156206547Y-89698013D01*
X156354035Y-89599464D01*
X156479464Y-89474035D01*
X156578013Y-89326547D01*
X156645894Y-89162666D01*
X156648856Y-89147776D01*
X157701368Y-89147776D01*
X157701368Y-89260122D01*
X157741952Y-89364882D01*
X157741953Y-89364883D01*
X157757652Y-89384703D01*
X157757662Y-89384714D01*
X159023179Y-90650231D01*
X159023183Y-90650234D01*
X159023188Y-90650239D01*
X159043016Y-90665946D01*
X159147776Y-90706530D01*
X159147777Y-90706530D01*
X159260119Y-90706530D01*
X159260122Y-90706530D01*
X159364882Y-90665946D01*
X159384710Y-90650240D01*
X159906365Y-90128584D01*
X159967687Y-90095100D01*
X160037378Y-90100084D01*
X160093312Y-90141955D01*
X160117729Y-90207420D01*
X160102877Y-90275693D01*
X160094364Y-90289150D01*
X160016005Y-90397003D01*
X159933788Y-90558360D01*
X159933787Y-90558363D01*
X159877829Y-90730589D01*
X159849500Y-90909448D01*
X159849500Y-91090551D01*
X159877829Y-91269410D01*
X159933787Y-91441636D01*
X159933788Y-91441639D01*
X159983652Y-91539500D01*
X160015546Y-91602096D01*
X160016006Y-91602997D01*
X160122441Y-91749494D01*
X160122445Y-91749499D01*
X160250500Y-91877554D01*
X160250505Y-91877558D01*
X160321606Y-91929215D01*
X160397006Y-91983996D01*
X160502484Y-92037740D01*
X160558360Y-92066211D01*
X160558363Y-92066212D01*
X160644476Y-92094191D01*
X160730591Y-92122171D01*
X160813429Y-92135291D01*
X160909449Y-92150500D01*
X160909454Y-92150500D01*
X161090551Y-92150500D01*
X161177259Y-92136765D01*
X161269409Y-92122171D01*
X161441639Y-92066211D01*
X161602994Y-91983996D01*
X161734116Y-91888731D01*
X161799922Y-91865251D01*
X161867976Y-91881076D01*
X161916671Y-91931182D01*
X161930546Y-91999660D01*
X161907320Y-92061934D01*
X161812054Y-92193057D01*
X161729839Y-92354411D01*
X161729838Y-92354414D01*
X161673880Y-92526640D01*
X161645551Y-92705499D01*
X161645551Y-92886602D01*
X161673880Y-93065461D01*
X161729838Y-93237687D01*
X161729839Y-93237690D01*
X161782663Y-93341361D01*
X161793631Y-93362887D01*
X161812057Y-93399048D01*
X161918492Y-93545545D01*
X161918496Y-93545550D01*
X162046551Y-93673605D01*
X162046556Y-93673609D01*
X162120353Y-93727225D01*
X162193057Y-93780047D01*
X162298535Y-93833791D01*
X162354411Y-93862262D01*
X162354414Y-93862263D01*
X162440527Y-93890242D01*
X162526642Y-93918222D01*
X162609100Y-93931282D01*
X162705500Y-93946551D01*
X162705505Y-93946551D01*
X162886602Y-93946551D01*
X162973310Y-93932816D01*
X163065460Y-93918222D01*
X163237690Y-93862262D01*
X163399045Y-93780047D01*
X163530178Y-93684774D01*
X163595984Y-93661294D01*
X163664038Y-93677119D01*
X163712733Y-93727225D01*
X163726608Y-93795703D01*
X163703382Y-93857977D01*
X163608107Y-93989112D01*
X163525892Y-94150466D01*
X163525891Y-94150469D01*
X163469933Y-94322695D01*
X163441604Y-94501554D01*
X163441604Y-94682657D01*
X163469933Y-94861516D01*
X163525891Y-95033742D01*
X163525892Y-95033745D01*
X163608110Y-95195103D01*
X163714545Y-95341600D01*
X163714549Y-95341605D01*
X163842604Y-95469660D01*
X163842609Y-95469664D01*
X163926956Y-95530945D01*
X163989110Y-95576102D01*
X164094588Y-95629846D01*
X164150464Y-95658317D01*
X164150467Y-95658318D01*
X164236580Y-95686297D01*
X164322695Y-95714277D01*
X164405533Y-95727397D01*
X164501553Y-95742606D01*
X164501558Y-95742606D01*
X164682655Y-95742606D01*
X164778556Y-95727416D01*
X164861513Y-95714277D01*
X165033743Y-95658317D01*
X165195098Y-95576102D01*
X165260680Y-95528454D01*
X165326214Y-95480842D01*
X165392020Y-95457362D01*
X165460074Y-95473188D01*
X165508769Y-95523294D01*
X165522644Y-95591772D01*
X165499417Y-95654045D01*
X165404160Y-95785156D01*
X165321942Y-95946514D01*
X165321941Y-95946517D01*
X165265983Y-96118743D01*
X165237654Y-96297602D01*
X165237654Y-96478705D01*
X165265983Y-96657564D01*
X165321941Y-96829790D01*
X165321942Y-96829793D01*
X165371044Y-96926158D01*
X165400185Y-96983351D01*
X165404160Y-96991151D01*
X165510595Y-97137648D01*
X165510599Y-97137653D01*
X165638654Y-97265708D01*
X165638659Y-97265712D01*
X165735983Y-97336421D01*
X165785160Y-97372150D01*
X165884220Y-97422624D01*
X165946514Y-97454365D01*
X165946517Y-97454366D01*
X166032630Y-97482345D01*
X166118745Y-97510325D01*
X166201583Y-97523445D01*
X166297603Y-97538654D01*
X166297608Y-97538654D01*
X166478705Y-97538654D01*
X166570654Y-97524090D01*
X166657563Y-97510325D01*
X166829793Y-97454365D01*
X166991148Y-97372150D01*
X167137655Y-97265707D01*
X167265707Y-97137655D01*
X167372150Y-96991148D01*
X167454365Y-96829793D01*
X167510325Y-96657563D01*
X167530891Y-96527713D01*
X167538654Y-96478705D01*
X167538654Y-96297602D01*
X167518375Y-96169573D01*
X167510325Y-96118745D01*
X167464828Y-95978716D01*
X167454366Y-95946517D01*
X167454365Y-95946514D01*
X167403858Y-95847391D01*
X167372150Y-95785160D01*
X167330194Y-95727412D01*
X167265712Y-95638659D01*
X167265708Y-95638654D01*
X167137653Y-95510599D01*
X167137648Y-95510595D01*
X166991151Y-95404160D01*
X166991150Y-95404159D01*
X166991148Y-95404158D01*
X166939454Y-95377818D01*
X166829793Y-95321942D01*
X166829790Y-95321941D01*
X166657564Y-95265983D01*
X166478705Y-95237654D01*
X166478700Y-95237654D01*
X166297608Y-95237654D01*
X166297603Y-95237654D01*
X166118743Y-95265983D01*
X165946517Y-95321941D01*
X165946514Y-95321942D01*
X165785157Y-95404159D01*
X165654042Y-95499418D01*
X165588236Y-95522897D01*
X165520182Y-95507071D01*
X165471488Y-95456964D01*
X165457613Y-95388486D01*
X165480838Y-95326216D01*
X165576100Y-95195100D01*
X165658315Y-95033745D01*
X165714275Y-94861515D01*
X165729345Y-94766369D01*
X165742604Y-94682657D01*
X165742604Y-94501554D01*
X165726123Y-94397503D01*
X165714275Y-94322697D01*
X165658315Y-94150467D01*
X165658315Y-94150466D01*
X165617937Y-94071221D01*
X165576100Y-93989112D01*
X165524595Y-93918221D01*
X165469662Y-93842611D01*
X165469658Y-93842606D01*
X165341603Y-93714551D01*
X165341598Y-93714547D01*
X165195101Y-93608112D01*
X165195100Y-93608111D01*
X165195098Y-93608110D01*
X165111105Y-93565313D01*
X165033743Y-93525894D01*
X165033740Y-93525893D01*
X164861514Y-93469935D01*
X164682655Y-93441606D01*
X164682650Y-93441606D01*
X164501558Y-93441606D01*
X164501553Y-93441606D01*
X164322693Y-93469935D01*
X164150467Y-93525893D01*
X164150464Y-93525894D01*
X163989110Y-93608109D01*
X163857976Y-93703383D01*
X163792169Y-93726862D01*
X163724115Y-93711036D01*
X163675421Y-93660930D01*
X163661546Y-93592452D01*
X163684772Y-93530180D01*
X163780047Y-93399045D01*
X163862262Y-93237690D01*
X163918222Y-93065460D01*
X163934700Y-92961422D01*
X163946551Y-92886602D01*
X163946551Y-92705499D01*
X163923438Y-92559576D01*
X163918222Y-92526642D01*
X163879123Y-92406305D01*
X163862263Y-92354414D01*
X163862262Y-92354411D01*
X163823552Y-92278440D01*
X163780047Y-92193057D01*
X163743288Y-92142462D01*
X163673609Y-92046556D01*
X163673605Y-92046551D01*
X163545550Y-91918496D01*
X163545545Y-91918492D01*
X163399048Y-91812057D01*
X163399047Y-91812056D01*
X163399045Y-91812055D01*
X163313007Y-91768216D01*
X163237690Y-91729839D01*
X163237687Y-91729838D01*
X163065461Y-91673880D01*
X162886602Y-91645551D01*
X162886597Y-91645551D01*
X162705505Y-91645551D01*
X162705500Y-91645551D01*
X162526640Y-91673880D01*
X162354414Y-91729838D01*
X162354411Y-91729839D01*
X162193057Y-91812054D01*
X162061934Y-91907320D01*
X161996127Y-91930799D01*
X161928073Y-91914973D01*
X161879379Y-91864867D01*
X161865504Y-91796389D01*
X161888731Y-91734116D01*
X161932025Y-91674526D01*
X161983996Y-91602994D01*
X162066211Y-91441639D01*
X162122171Y-91269409D01*
X162136765Y-91177259D01*
X162150500Y-91090551D01*
X162150500Y-90909448D01*
X162134019Y-90805397D01*
X162122171Y-90730591D01*
X162066211Y-90558361D01*
X162066211Y-90558360D01*
X162037740Y-90502484D01*
X161983996Y-90397006D01*
X161970396Y-90378287D01*
X161877558Y-90250505D01*
X161877554Y-90250500D01*
X161749499Y-90122445D01*
X161749494Y-90122441D01*
X161602997Y-90016006D01*
X161602996Y-90016005D01*
X161602994Y-90016004D01*
X161519205Y-89973311D01*
X161441639Y-89933788D01*
X161441636Y-89933787D01*
X161269410Y-89877829D01*
X161090551Y-89849500D01*
X161090546Y-89849500D01*
X160909454Y-89849500D01*
X160909449Y-89849500D01*
X160730589Y-89877829D01*
X160558363Y-89933787D01*
X160558360Y-89933788D01*
X160397003Y-90016005D01*
X160289150Y-90094364D01*
X160223344Y-90117843D01*
X160155290Y-90102017D01*
X160106596Y-90051911D01*
X160092721Y-89983433D01*
X160118071Y-89918324D01*
X160128585Y-89906364D01*
X160650231Y-89384718D01*
X160650230Y-89384718D01*
X160650239Y-89384710D01*
X160665946Y-89364882D01*
X160706530Y-89260122D01*
X160706530Y-89147776D01*
X160665946Y-89043016D01*
X160650240Y-89023188D01*
X160020761Y-88393709D01*
X159384718Y-87757666D01*
X159384713Y-87757662D01*
X159384710Y-87757659D01*
X159364882Y-87741952D01*
X159260122Y-87701368D01*
X159147776Y-87701368D01*
X159043016Y-87741952D01*
X159043015Y-87741952D01*
X159043014Y-87741953D01*
X159023194Y-87757652D01*
X159023183Y-87757662D01*
X157757666Y-89023179D01*
X157757659Y-89023188D01*
X157741952Y-89043016D01*
X157701368Y-89147776D01*
X156648856Y-89147776D01*
X156650130Y-89141368D01*
X156655954Y-89112094D01*
X156655954Y-89112093D01*
X156680499Y-88988695D01*
X156680500Y-88988693D01*
X156680500Y-88811306D01*
X156680499Y-88811304D01*
X156645896Y-88637341D01*
X156645893Y-88637332D01*
X156578016Y-88473459D01*
X156578009Y-88473446D01*
X156479464Y-88325965D01*
X156479461Y-88325961D01*
X156354038Y-88200538D01*
X156354034Y-88200535D01*
X156206553Y-88101990D01*
X156206540Y-88101983D01*
X156042667Y-88034106D01*
X156042658Y-88034103D01*
X155868694Y-87999500D01*
X155868691Y-87999500D01*
X155691309Y-87999500D01*
X155691306Y-87999500D01*
X155517341Y-88034103D01*
X155517332Y-88034106D01*
X155353459Y-88101983D01*
X155353446Y-88101990D01*
X155205965Y-88200535D01*
X155205961Y-88200538D01*
X155080538Y-88325961D01*
X155080535Y-88325965D01*
X154981990Y-88473446D01*
X154981983Y-88473459D01*
X154914106Y-88637332D01*
X154914103Y-88637341D01*
X154879500Y-88811304D01*
X139754121Y-88811304D01*
X138873654Y-87930837D01*
X138841560Y-87875250D01*
X138819580Y-87793216D01*
X138819576Y-87793209D01*
X138740527Y-87656290D01*
X138740521Y-87656282D01*
X138628720Y-87544481D01*
X138628712Y-87544475D01*
X138491793Y-87465426D01*
X138491789Y-87465424D01*
X138491787Y-87465423D01*
X138339060Y-87424500D01*
X138180946Y-87424500D01*
X138028219Y-87465423D01*
X138028212Y-87465426D01*
X137891293Y-87544475D01*
X137891289Y-87544478D01*
X137837682Y-87598085D01*
X137776358Y-87631569D01*
X137706666Y-87626584D01*
X137662320Y-87598084D01*
X137608717Y-87544481D01*
X137608709Y-87544475D01*
X137471790Y-87465426D01*
X137471786Y-87465424D01*
X137471784Y-87465423D01*
X137319057Y-87424500D01*
X137160943Y-87424500D01*
X137008216Y-87465423D01*
X137008209Y-87465426D01*
X136871290Y-87544475D01*
X136871282Y-87544481D01*
X136759481Y-87656282D01*
X136759475Y-87656290D01*
X136680426Y-87793209D01*
X136680423Y-87793216D01*
X136639500Y-87945943D01*
X136639500Y-88104057D01*
X136665352Y-88200536D01*
X136680423Y-88256783D01*
X136680426Y-88256790D01*
X136759475Y-88393709D01*
X136759479Y-88393714D01*
X136759480Y-88393716D01*
X136871284Y-88505520D01*
X136871286Y-88505521D01*
X136871290Y-88505524D01*
X137008209Y-88584573D01*
X137008216Y-88584577D01*
X137160943Y-88625500D01*
X137160945Y-88625500D01*
X137319055Y-88625500D01*
X137319057Y-88625500D01*
X137471784Y-88584577D01*
X137608716Y-88505520D01*
X137662323Y-88451912D01*
X137723642Y-88418430D01*
X137793334Y-88423414D01*
X137837682Y-88451915D01*
X137891287Y-88505520D01*
X137891289Y-88505521D01*
X137891293Y-88505524D01*
X138028212Y-88584573D01*
X138028219Y-88584577D01*
X138110253Y-88606557D01*
X138165840Y-88638651D01*
X139464181Y-89936992D01*
X139497666Y-89998315D01*
X139500500Y-90024673D01*
X139500500Y-97236240D01*
X139480815Y-97303279D01*
X139428011Y-97349034D01*
X139358853Y-97358978D01*
X139329048Y-97350801D01*
X139294332Y-97336421D01*
X139294322Y-97336418D01*
X139158995Y-97309500D01*
X139158993Y-97309500D01*
X139021007Y-97309500D01*
X139021005Y-97309500D01*
X138885677Y-97336418D01*
X138885667Y-97336421D01*
X138758195Y-97389221D01*
X138758182Y-97389228D01*
X138643458Y-97465885D01*
X138643454Y-97465888D01*
X138545888Y-97563454D01*
X138545885Y-97563458D01*
X138469228Y-97678182D01*
X138469221Y-97678195D01*
X138416421Y-97805667D01*
X138416418Y-97805677D01*
X138389500Y-97941004D01*
X138389500Y-97941007D01*
X138389500Y-98078993D01*
X138389500Y-98078995D01*
X138389499Y-98078995D01*
X138416418Y-98214322D01*
X138416421Y-98214332D01*
X138469221Y-98341804D01*
X138469228Y-98341817D01*
X138545885Y-98456541D01*
X138545888Y-98456545D01*
X138643454Y-98554111D01*
X138643458Y-98554114D01*
X138758182Y-98630771D01*
X138758195Y-98630778D01*
X138850953Y-98669199D01*
X138885672Y-98683580D01*
X138885676Y-98683580D01*
X138885677Y-98683581D01*
X139021004Y-98710500D01*
X139021007Y-98710500D01*
X139158995Y-98710500D01*
X139250041Y-98692389D01*
X139294328Y-98683580D01*
X139329047Y-98669198D01*
X139398515Y-98661729D01*
X139460994Y-98693003D01*
X139496648Y-98753091D01*
X139500500Y-98783759D01*
X139500500Y-100426472D01*
X139500500Y-100558256D01*
X139500609Y-100558662D01*
X139534608Y-100685551D01*
X139554048Y-100719221D01*
X139600500Y-100799678D01*
X139600502Y-100799680D01*
X141584181Y-102783359D01*
X141617666Y-102844682D01*
X141620500Y-102871040D01*
X141620500Y-103485500D01*
X141600815Y-103552539D01*
X141548011Y-103598294D01*
X141496500Y-103609500D01*
X141340943Y-103609500D01*
X141188216Y-103650423D01*
X141188209Y-103650426D01*
X141051290Y-103729475D01*
X141051282Y-103729481D01*
X141007583Y-103773181D01*
X140946260Y-103806666D01*
X140919902Y-103809500D01*
X140307068Y-103809500D01*
X140240029Y-103789815D01*
X140219387Y-103773181D01*
X139366438Y-102920232D01*
X139332953Y-102858909D01*
X139330119Y-102832551D01*
X139330119Y-102770751D01*
X139330119Y-102770749D01*
X139289196Y-102618022D01*
X139238681Y-102530527D01*
X139222209Y-102462629D01*
X139245062Y-102396602D01*
X139258384Y-102380850D01*
X139280520Y-102358716D01*
X139359577Y-102221784D01*
X139400500Y-102069057D01*
X139400500Y-101910943D01*
X139359577Y-101758216D01*
X139309692Y-101671811D01*
X139280524Y-101621290D01*
X139280518Y-101621282D01*
X139168717Y-101509481D01*
X139168709Y-101509475D01*
X139031790Y-101430426D01*
X139031786Y-101430424D01*
X139031784Y-101430423D01*
X138879057Y-101389500D01*
X138720943Y-101389500D01*
X138568216Y-101430423D01*
X138568209Y-101430426D01*
X138431290Y-101509475D01*
X138431282Y-101509481D01*
X138319481Y-101621282D01*
X138319475Y-101621290D01*
X138240426Y-101758209D01*
X138240423Y-101758216D01*
X138199500Y-101910943D01*
X138199500Y-102069057D01*
X138230907Y-102186267D01*
X138240423Y-102221783D01*
X138240424Y-102221786D01*
X138290936Y-102309276D01*
X138307409Y-102377177D01*
X138284556Y-102443203D01*
X138271232Y-102458956D01*
X138249097Y-102481091D01*
X138170045Y-102618015D01*
X138170042Y-102618022D01*
X138129119Y-102770749D01*
X138129119Y-102928863D01*
X138161798Y-103050821D01*
X138170042Y-103081589D01*
X138170045Y-103081596D01*
X138249094Y-103218515D01*
X138249098Y-103218520D01*
X138249099Y-103218522D01*
X138360903Y-103330326D01*
X138360905Y-103330327D01*
X138360909Y-103330330D01*
X138428720Y-103369480D01*
X138497835Y-103409383D01*
X138650562Y-103450306D01*
X138712364Y-103450306D01*
X138779403Y-103469991D01*
X138800045Y-103486625D01*
X139843900Y-104530480D01*
X139935225Y-104583207D01*
X140037086Y-104610500D01*
X140919902Y-104610500D01*
X140986941Y-104630185D01*
X141007583Y-104646819D01*
X141051284Y-104690520D01*
X141051286Y-104690521D01*
X141051290Y-104690524D01*
X141113278Y-104726312D01*
X141188216Y-104769577D01*
X141340943Y-104810500D01*
X141340945Y-104810500D01*
X141496500Y-104810500D01*
X141563539Y-104830185D01*
X141609294Y-104882989D01*
X141620500Y-104934500D01*
X141620500Y-105505500D01*
X141600815Y-105572539D01*
X141548011Y-105618294D01*
X141496500Y-105629500D01*
X141370943Y-105629500D01*
X141218216Y-105670423D01*
X141218209Y-105670426D01*
X141081290Y-105749475D01*
X141081282Y-105749481D01*
X140969481Y-105861282D01*
X140969475Y-105861290D01*
X140890426Y-105998209D01*
X140890423Y-105998216D01*
X140849500Y-106150943D01*
X140849500Y-106309057D01*
X140889595Y-106458691D01*
X140890423Y-106461783D01*
X140890426Y-106461790D01*
X140969475Y-106598709D01*
X140969479Y-106598714D01*
X140969480Y-106598716D01*
X141081284Y-106710520D01*
X141081286Y-106710521D01*
X141081290Y-106710524D01*
X141215746Y-106788151D01*
X141218216Y-106789577D01*
X141370943Y-106830500D01*
X141370945Y-106830500D01*
X141529055Y-106830500D01*
X141529057Y-106830500D01*
X141681784Y-106789577D01*
X141818716Y-106710520D01*
X141930520Y-106598716D01*
X141930520Y-106598715D01*
X141932348Y-106596888D01*
X141993671Y-106563403D01*
X142063363Y-106568387D01*
X142107710Y-106596888D01*
X143534964Y-108024142D01*
X143568449Y-108085465D01*
X143563465Y-108155157D01*
X143521593Y-108211090D01*
X143456129Y-108235507D01*
X143447283Y-108235823D01*
X143414620Y-108235823D01*
X143261893Y-108276746D01*
X143261886Y-108276749D01*
X143124967Y-108355798D01*
X143124959Y-108355804D01*
X143013158Y-108467605D01*
X143013152Y-108467613D01*
X142934103Y-108604532D01*
X142934100Y-108604539D01*
X142893177Y-108757266D01*
X142893177Y-108915381D01*
X142897191Y-108930361D01*
X142895528Y-109000211D01*
X142856364Y-109058073D01*
X142792136Y-109085576D01*
X142723234Y-109073989D01*
X142715417Y-109069841D01*
X142713468Y-109068716D01*
X142681784Y-109050423D01*
X142529057Y-109009500D01*
X142370943Y-109009500D01*
X142218216Y-109050423D01*
X142218209Y-109050426D01*
X142081290Y-109129475D01*
X142081282Y-109129481D01*
X141969481Y-109241282D01*
X141969475Y-109241290D01*
X141890426Y-109378209D01*
X141890423Y-109378216D01*
X141849500Y-109530943D01*
X141849500Y-109689057D01*
X141889611Y-109838751D01*
X141890423Y-109841783D01*
X141890426Y-109841790D01*
X141969475Y-109978709D01*
X141969479Y-109978714D01*
X141969480Y-109978716D01*
X142081284Y-110090520D01*
X142081286Y-110090521D01*
X142081290Y-110090524D01*
X142218209Y-110169573D01*
X142218216Y-110169577D01*
X142370943Y-110210500D01*
X142370945Y-110210500D01*
X142529055Y-110210500D01*
X142529057Y-110210500D01*
X142681784Y-110169577D01*
X142818716Y-110090520D01*
X142818721Y-110090514D01*
X142825161Y-110085574D01*
X142826251Y-110086995D01*
X142878740Y-110058334D01*
X142905098Y-110055500D01*
X144031209Y-110055500D01*
X144098248Y-110075185D01*
X144118890Y-110091819D01*
X144182791Y-110155720D01*
X144279817Y-110211738D01*
X144388036Y-110240735D01*
X144388038Y-110240735D01*
X145865424Y-110240735D01*
X145865426Y-110240735D01*
X145973645Y-110211738D01*
X146070671Y-110155720D01*
X146134572Y-110091819D01*
X146195895Y-110058334D01*
X146222253Y-110055500D01*
X147466016Y-110055500D01*
X147466018Y-110055500D01*
X147574237Y-110026503D01*
X147657837Y-109978236D01*
X147725734Y-109961764D01*
X147791761Y-109984616D01*
X147834952Y-110039537D01*
X147841594Y-110109090D01*
X147809579Y-110171193D01*
X147807516Y-110173305D01*
X147167641Y-110813181D01*
X147106318Y-110846666D01*
X147079960Y-110849500D01*
X146754108Y-110849500D01*
X146626812Y-110883608D01*
X146512686Y-110949500D01*
X146512683Y-110949502D01*
X146218502Y-111243683D01*
X146218500Y-111243686D01*
X146152608Y-111357812D01*
X146118500Y-111485108D01*
X146118500Y-111650703D01*
X146098815Y-111717742D01*
X146046011Y-111763497D01*
X145976853Y-111773441D01*
X145962407Y-111770478D01*
X145900145Y-111753795D01*
X145815714Y-111731172D01*
X145657600Y-111731172D01*
X145504873Y-111772095D01*
X145504866Y-111772098D01*
X145367947Y-111851147D01*
X145367939Y-111851153D01*
X145349240Y-111869853D01*
X145287917Y-111903338D01*
X145261559Y-111906172D01*
X143064500Y-111906172D01*
X142956281Y-111935169D01*
X142956278Y-111935170D01*
X142859258Y-111991185D01*
X142859252Y-111991189D01*
X142501549Y-112348891D01*
X142440226Y-112382376D01*
X142370534Y-112377392D01*
X142314601Y-112335520D01*
X142294095Y-112293307D01*
X142260577Y-112168216D01*
X142228410Y-112112500D01*
X142181524Y-112031290D01*
X142181518Y-112031282D01*
X142069717Y-111919481D01*
X142069709Y-111919475D01*
X141932790Y-111840426D01*
X141932786Y-111840424D01*
X141932784Y-111840423D01*
X141780057Y-111799500D01*
X141621943Y-111799500D01*
X141469216Y-111840423D01*
X141469209Y-111840426D01*
X141332290Y-111919475D01*
X141332282Y-111919481D01*
X141220481Y-112031282D01*
X141220475Y-112031290D01*
X141141426Y-112168209D01*
X141141423Y-112168216D01*
X141100500Y-112320943D01*
X141100500Y-112479057D01*
X141131809Y-112595902D01*
X141141423Y-112631783D01*
X141141426Y-112631790D01*
X141220475Y-112768709D01*
X141220479Y-112768714D01*
X141220480Y-112768716D01*
X141332284Y-112880520D01*
X141332286Y-112880521D01*
X141332290Y-112880524D01*
X141424378Y-112933690D01*
X141469216Y-112959577D01*
X141594305Y-112993094D01*
X141653964Y-113029458D01*
X141684493Y-113092305D01*
X141676198Y-113161680D01*
X141649891Y-113200549D01*
X141418737Y-113431703D01*
X141357414Y-113465188D01*
X141287722Y-113460204D01*
X141231789Y-113418332D01*
X141223676Y-113406033D01*
X141180520Y-113331284D01*
X141068716Y-113219480D01*
X141068714Y-113219479D01*
X141068709Y-113219475D01*
X140931790Y-113140426D01*
X140931786Y-113140424D01*
X140931784Y-113140423D01*
X140779057Y-113099500D01*
X140779056Y-113099500D01*
X140771207Y-113097397D01*
X140772070Y-113094172D01*
X140722338Y-113072127D01*
X140683911Y-113013773D01*
X140682717Y-112945423D01*
X140700500Y-112879057D01*
X140700500Y-112720943D01*
X140659577Y-112568216D01*
X140611013Y-112484100D01*
X140580524Y-112431290D01*
X140580518Y-112431282D01*
X140468717Y-112319481D01*
X140468709Y-112319475D01*
X140331790Y-112240426D01*
X140331786Y-112240424D01*
X140331784Y-112240423D01*
X140179057Y-112199500D01*
X140020943Y-112199500D01*
X139868216Y-112240423D01*
X139868209Y-112240426D01*
X139850091Y-112250886D01*
X139782191Y-112267356D01*
X139716165Y-112244502D01*
X139700414Y-112231178D01*
X139638717Y-112169481D01*
X139638709Y-112169475D01*
X139501790Y-112090426D01*
X139501786Y-112090424D01*
X139501784Y-112090423D01*
X139349057Y-112049500D01*
X139190943Y-112049500D01*
X139038216Y-112090423D01*
X139038209Y-112090426D01*
X138901290Y-112169475D01*
X138901282Y-112169481D01*
X138789481Y-112281282D01*
X138789477Y-112281287D01*
X138717122Y-112406612D01*
X138666555Y-112454827D01*
X138597948Y-112468051D01*
X138547735Y-112451999D01*
X138466406Y-112405044D01*
X138466405Y-112405043D01*
X138466404Y-112405043D01*
X138313677Y-112364120D01*
X138155563Y-112364120D01*
X138002836Y-112405043D01*
X138002829Y-112405046D01*
X137865910Y-112484095D01*
X137865902Y-112484101D01*
X137754101Y-112595902D01*
X137754095Y-112595910D01*
X137675046Y-112732829D01*
X137675043Y-112732836D01*
X137634120Y-112885563D01*
X137634120Y-113043677D01*
X137674876Y-113195778D01*
X137675043Y-113196403D01*
X137675046Y-113196410D01*
X137754095Y-113333329D01*
X137754099Y-113333334D01*
X137754100Y-113333336D01*
X137865904Y-113445140D01*
X137865906Y-113445141D01*
X137865910Y-113445144D01*
X137968032Y-113504103D01*
X138002836Y-113524197D01*
X138155563Y-113565120D01*
X138155565Y-113565120D01*
X138313675Y-113565120D01*
X138313677Y-113565120D01*
X138466404Y-113524197D01*
X138603336Y-113445140D01*
X138715140Y-113333336D01*
X138787499Y-113208004D01*
X138838063Y-113159792D01*
X138906669Y-113146568D01*
X138956882Y-113162619D01*
X139038216Y-113209577D01*
X139190943Y-113250500D01*
X139190945Y-113250500D01*
X139349055Y-113250500D01*
X139349057Y-113250500D01*
X139501784Y-113209577D01*
X139519901Y-113199116D01*
X139587800Y-113182642D01*
X139653828Y-113205492D01*
X139669585Y-113218821D01*
X139731284Y-113280520D01*
X139731286Y-113280521D01*
X139731290Y-113280524D01*
X139866375Y-113358514D01*
X139868216Y-113359577D01*
X140020943Y-113400500D01*
X140020945Y-113400500D01*
X140028793Y-113402603D01*
X140027923Y-113405849D01*
X140077547Y-113427775D01*
X140116044Y-113486082D01*
X140117282Y-113554575D01*
X140099500Y-113620943D01*
X140099500Y-113779057D01*
X140130746Y-113895667D01*
X140140423Y-113931783D01*
X140140426Y-113931790D01*
X140219475Y-114068709D01*
X140219479Y-114068714D01*
X140219480Y-114068716D01*
X140331284Y-114180520D01*
X140364187Y-114199516D01*
X140412402Y-114250080D01*
X140425627Y-114318686D01*
X140421964Y-114338988D01*
X140417690Y-114354943D01*
X140417690Y-114513057D01*
X140454860Y-114651775D01*
X140458613Y-114665783D01*
X140458616Y-114665790D01*
X140537665Y-114802709D01*
X140537669Y-114802714D01*
X140537670Y-114802716D01*
X140649474Y-114914520D01*
X140649476Y-114914521D01*
X140649480Y-114914524D01*
X140760666Y-114978716D01*
X140786406Y-114993577D01*
X140939133Y-115034500D01*
X140939135Y-115034500D01*
X141097245Y-115034500D01*
X141097247Y-115034500D01*
X141249974Y-114993577D01*
X141386906Y-114914520D01*
X141498710Y-114802716D01*
X141577767Y-114665784D01*
X141618690Y-114513057D01*
X141618690Y-114486610D01*
X141638375Y-114419571D01*
X141655009Y-114398929D01*
X143260447Y-112793491D01*
X143321770Y-112760006D01*
X143348128Y-112757172D01*
X144094230Y-112757172D01*
X144161269Y-112776857D01*
X144207024Y-112829661D01*
X144216968Y-112898819D01*
X144187943Y-112962375D01*
X144181911Y-112968853D01*
X144119481Y-113031282D01*
X144119475Y-113031290D01*
X144040426Y-113168209D01*
X144040423Y-113168216D01*
X143999500Y-113320943D01*
X143999500Y-113479057D01*
X144029960Y-113592733D01*
X144040423Y-113631783D01*
X144040426Y-113631790D01*
X144119475Y-113768709D01*
X144119479Y-113768714D01*
X144119480Y-113768716D01*
X144231284Y-113880520D01*
X144231286Y-113880521D01*
X144231290Y-113880524D01*
X144368209Y-113959573D01*
X144368216Y-113959577D01*
X144520943Y-114000500D01*
X144520945Y-114000500D01*
X144679055Y-114000500D01*
X144679057Y-114000500D01*
X144831784Y-113959577D01*
X144968716Y-113880520D01*
X145080520Y-113768716D01*
X145159577Y-113631784D01*
X145200500Y-113479057D01*
X145200500Y-113320943D01*
X145159577Y-113168216D01*
X145156346Y-113162620D01*
X145080524Y-113031290D01*
X145080518Y-113031282D01*
X145018089Y-112968853D01*
X145007476Y-112949416D01*
X144992976Y-112932683D01*
X144991059Y-112919351D01*
X144984604Y-112907530D01*
X144986183Y-112885443D01*
X144983032Y-112863525D01*
X144988627Y-112851273D01*
X144989588Y-112837838D01*
X145002858Y-112820111D01*
X145012057Y-112799969D01*
X145023388Y-112792686D01*
X145031460Y-112781905D01*
X145052205Y-112774167D01*
X145070835Y-112762195D01*
X145092753Y-112759043D01*
X145096924Y-112757488D01*
X145105770Y-112757172D01*
X145261559Y-112757172D01*
X145328598Y-112776857D01*
X145349240Y-112793491D01*
X145367941Y-112812192D01*
X145367943Y-112812193D01*
X145367947Y-112812196D01*
X145495024Y-112885563D01*
X145504873Y-112891249D01*
X145657600Y-112932172D01*
X145657602Y-112932172D01*
X145815711Y-112932172D01*
X145815714Y-112932172D01*
X145962409Y-112892865D01*
X146032256Y-112894528D01*
X146090119Y-112933690D01*
X146117623Y-112997919D01*
X146118500Y-113012640D01*
X146118500Y-114202058D01*
X146098815Y-114269097D01*
X146046011Y-114314852D01*
X145976853Y-114324796D01*
X145962408Y-114321833D01*
X145879058Y-114299500D01*
X145879057Y-114299500D01*
X145720943Y-114299500D01*
X145568216Y-114340423D01*
X145568209Y-114340426D01*
X145431290Y-114419475D01*
X145431282Y-114419481D01*
X145319481Y-114531282D01*
X145319475Y-114531290D01*
X145240426Y-114668209D01*
X145240423Y-114668216D01*
X145235868Y-114685214D01*
X145199500Y-114744873D01*
X145136652Y-114775400D01*
X145084001Y-114772891D01*
X144979435Y-114744873D01*
X144941286Y-114734651D01*
X144783172Y-114734651D01*
X144630445Y-114775574D01*
X144630438Y-114775577D01*
X144493519Y-114854626D01*
X144493511Y-114854632D01*
X144381710Y-114966433D01*
X144381704Y-114966441D01*
X144302655Y-115103360D01*
X144302652Y-115103367D01*
X144261729Y-115256094D01*
X144261729Y-115414208D01*
X144290422Y-115521290D01*
X144302652Y-115566934D01*
X144302655Y-115566941D01*
X144381704Y-115703860D01*
X144382588Y-115705012D01*
X144383031Y-115706159D01*
X144385772Y-115710906D01*
X144385031Y-115711333D01*
X144407783Y-115770181D01*
X144393745Y-115838626D01*
X144344932Y-115888617D01*
X144284213Y-115904500D01*
X144009133Y-115904500D01*
X143942094Y-115884815D01*
X143896339Y-115832011D01*
X143886395Y-115762853D01*
X143901745Y-115718501D01*
X143936554Y-115658209D01*
X143968301Y-115603221D01*
X144009224Y-115450494D01*
X144009224Y-115292380D01*
X143968301Y-115139653D01*
X143959323Y-115124103D01*
X143889248Y-115002727D01*
X143889242Y-115002719D01*
X143777441Y-114890918D01*
X143777433Y-114890912D01*
X143640514Y-114811863D01*
X143640510Y-114811861D01*
X143640508Y-114811860D01*
X143487781Y-114770937D01*
X143329667Y-114770937D01*
X143176940Y-114811860D01*
X143176933Y-114811863D01*
X143040014Y-114890912D01*
X143040006Y-114890918D01*
X142928205Y-115002719D01*
X142928199Y-115002727D01*
X142849150Y-115139646D01*
X142849147Y-115139653D01*
X142808224Y-115292380D01*
X142808224Y-115450494D01*
X142844794Y-115586973D01*
X142849147Y-115603220D01*
X142849150Y-115603227D01*
X142928199Y-115740146D01*
X142928205Y-115740154D01*
X142943901Y-115755850D01*
X142977386Y-115817173D01*
X142972402Y-115886865D01*
X142930530Y-115942798D01*
X142918821Y-115950569D01*
X142850845Y-115990325D01*
X142850844Y-115990326D01*
X142798039Y-116036081D01*
X142798028Y-116036091D01*
X142755867Y-116080807D01*
X142755861Y-116080816D01*
X142704976Y-116180890D01*
X142685293Y-116247921D01*
X142685292Y-116247928D01*
X142672918Y-116333990D01*
X142672916Y-116334002D01*
X142672916Y-117290491D01*
X142683325Y-117369560D01*
X142690287Y-117395543D01*
X142697557Y-117422676D01*
X142699938Y-117431559D01*
X142699940Y-117431566D01*
X142730452Y-117505229D01*
X142730455Y-117505235D01*
X142747096Y-117534059D01*
X142759481Y-117563960D01*
X142771136Y-117607454D01*
X142775362Y-117639550D01*
X142775362Y-117684574D01*
X142771137Y-117716668D01*
X142759483Y-117760160D01*
X142747095Y-117790066D01*
X142724581Y-117829061D01*
X142704875Y-117854742D01*
X142673041Y-117886576D01*
X142647359Y-117906283D01*
X142608361Y-117928798D01*
X142578459Y-117941184D01*
X142566697Y-117944335D01*
X142534970Y-117952837D01*
X142502877Y-117957063D01*
X142457854Y-117957063D01*
X142425761Y-117952838D01*
X142382254Y-117941180D01*
X142352358Y-117928796D01*
X142313361Y-117906281D01*
X142287688Y-117886582D01*
X142255844Y-117854738D01*
X142236139Y-117829058D01*
X142233344Y-117824216D01*
X142232102Y-117822109D01*
X142215020Y-117754362D01*
X142235799Y-117692528D01*
X142235306Y-117692243D01*
X142236716Y-117689799D01*
X142237277Y-117688132D01*
X142239176Y-117685539D01*
X142282889Y-117609825D01*
X142318426Y-117548272D01*
X142359349Y-117395545D01*
X142359349Y-117237431D01*
X142318426Y-117084704D01*
X142281304Y-117020406D01*
X142264831Y-116952505D01*
X142287684Y-116886478D01*
X142298473Y-116873338D01*
X142299965Y-116871755D01*
X142299964Y-116871755D01*
X142299969Y-116871751D01*
X142350855Y-116771675D01*
X142370540Y-116704636D01*
X142382916Y-116618564D01*
X142382916Y-116334000D01*
X142375934Y-116269059D01*
X142364728Y-116217548D01*
X142353770Y-116179342D01*
X142297091Y-116082429D01*
X142251336Y-116029625D01*
X142251334Y-116029623D01*
X142251324Y-116029612D01*
X142206608Y-115987451D01*
X142206605Y-115987449D01*
X142206603Y-115987447D01*
X142106527Y-115936561D01*
X142106526Y-115936560D01*
X142106525Y-115936560D01*
X142039494Y-115916877D01*
X142039488Y-115916876D01*
X141953416Y-115904500D01*
X139631362Y-115904500D01*
X139631361Y-115904500D01*
X139598718Y-115906250D01*
X139598709Y-115906250D01*
X139598703Y-115906251D01*
X139598698Y-115906251D01*
X139598665Y-115906254D01*
X139572374Y-115909081D01*
X139565339Y-115909920D01*
X139565337Y-115909920D01*
X139458598Y-115944700D01*
X139458588Y-115944704D01*
X139397266Y-115978189D01*
X139327670Y-116030289D01*
X139327649Y-116030307D01*
X138024558Y-117333398D01*
X138003284Y-117357007D01*
X138003262Y-117357033D01*
X137987043Y-117377034D01*
X137983267Y-117381788D01*
X137983263Y-117381794D01*
X137931762Y-117481555D01*
X137931760Y-117481560D01*
X137911664Y-117548472D01*
X137911664Y-117548474D01*
X137898760Y-117634472D01*
X137894280Y-118364938D01*
X137893519Y-118489069D01*
X137893261Y-118531161D01*
X137885310Y-119827139D01*
X137885094Y-119862263D01*
X137891821Y-119927918D01*
X137891824Y-119927932D01*
X137902949Y-119980033D01*
X137912040Y-120012051D01*
X137913996Y-120018941D01*
X137932840Y-120051274D01*
X137970526Y-120115939D01*
X137970528Y-120115941D01*
X138016203Y-120168815D01*
X138060871Y-120211060D01*
X138160870Y-120262099D01*
X138227879Y-120281886D01*
X138313931Y-120294393D01*
X140441150Y-120297635D01*
X140462296Y-120303880D01*
X140484292Y-120305453D01*
X140495150Y-120313581D01*
X140508157Y-120317422D01*
X140522571Y-120334107D01*
X140540226Y-120347324D01*
X140544966Y-120360032D01*
X140553832Y-120370296D01*
X140556936Y-120392127D01*
X140564643Y-120412788D01*
X140561760Y-120426040D01*
X140563670Y-120439469D01*
X140554479Y-120459512D01*
X140549792Y-120481061D01*
X140536388Y-120498966D01*
X140534548Y-120502980D01*
X140528641Y-120509316D01*
X140399775Y-120638182D01*
X140338455Y-120671666D01*
X140312096Y-120674500D01*
X139494000Y-120674500D01*
X139493991Y-120674500D01*
X139493990Y-120674501D01*
X139429064Y-120681481D01*
X139429052Y-120681483D01*
X139377546Y-120692688D01*
X139339345Y-120703644D01*
X139339341Y-120703646D01*
X139242431Y-120760323D01*
X139242428Y-120760325D01*
X139189623Y-120806081D01*
X139189612Y-120806091D01*
X139147451Y-120850807D01*
X139147445Y-120850816D01*
X139096560Y-120950890D01*
X139076877Y-121017921D01*
X139076876Y-121017928D01*
X139065963Y-121093830D01*
X139064500Y-121104002D01*
X139064500Y-123168638D01*
X139066250Y-123201281D01*
X139066254Y-123201334D01*
X139069081Y-123227625D01*
X139069920Y-123234660D01*
X139069920Y-123234662D01*
X139104700Y-123341401D01*
X139104704Y-123341411D01*
X139138189Y-123402733D01*
X139190289Y-123472329D01*
X139190307Y-123472350D01*
X139414079Y-123696122D01*
X139414091Y-123696133D01*
X139451297Y-123724903D01*
X139475388Y-123743532D01*
X139529193Y-123775134D01*
X139576092Y-123797551D01*
X139686630Y-123817198D01*
X139753180Y-123816606D01*
X139753179Y-123816605D01*
X139754932Y-123816589D01*
X139754933Y-123816590D01*
X139756431Y-123816577D01*
X139756439Y-123816575D01*
X139757332Y-123816568D01*
X139760855Y-123816537D01*
X139760856Y-123816537D01*
X139783714Y-123816334D01*
X139804597Y-123812180D01*
X139804607Y-123812178D01*
X139810209Y-123811064D01*
X139810213Y-123811064D01*
X139811965Y-123810715D01*
X139811964Y-123810714D01*
X139812367Y-123810635D01*
X139812368Y-123810635D01*
X139816104Y-123809891D01*
X139816105Y-123809892D01*
X139929266Y-123787383D01*
X139953457Y-123785000D01*
X140026540Y-123785000D01*
X140050731Y-123787383D01*
X140122414Y-123801641D01*
X140145666Y-123808694D01*
X140213190Y-123836662D01*
X140234622Y-123848119D01*
X140295386Y-123888720D01*
X140314177Y-123904141D01*
X140365854Y-123955818D01*
X140381275Y-123974608D01*
X140421878Y-124035374D01*
X140433337Y-124056813D01*
X140461302Y-124124327D01*
X140468358Y-124147586D01*
X140482617Y-124219266D01*
X140485000Y-124243459D01*
X140485000Y-124316541D01*
X140482617Y-124340733D01*
X140469184Y-124408264D01*
X140469184Y-124408265D01*
X140458910Y-124459911D01*
X140458896Y-124459984D01*
X140456462Y-124472221D01*
X140454810Y-124475378D01*
X140454304Y-124487954D01*
X140453649Y-124504253D01*
X140453646Y-124504324D01*
X140451515Y-124556587D01*
X140451533Y-124556838D01*
X140451153Y-124566274D01*
X140451153Y-124566301D01*
X140453491Y-124618231D01*
X140488273Y-124724975D01*
X140488276Y-124724983D01*
X140521761Y-124786305D01*
X140573861Y-124855901D01*
X140573879Y-124855922D01*
X140968734Y-125250776D01*
X141207660Y-125489702D01*
X141219755Y-125500566D01*
X141231993Y-125511559D01*
X141252674Y-125528224D01*
X141258172Y-125532551D01*
X141258175Y-125532553D01*
X141358251Y-125583439D01*
X141425290Y-125603124D01*
X141488092Y-125612154D01*
X141551646Y-125641178D01*
X141589420Y-125699957D01*
X141594206Y-125727224D01*
X141594977Y-125739671D01*
X141591049Y-125767834D01*
X141600717Y-125833128D01*
X141601085Y-125838274D01*
X141601093Y-125838401D01*
X141605428Y-125898983D01*
X141605428Y-125898984D01*
X141620754Y-125940078D01*
X141620755Y-125940078D01*
X141626481Y-125955432D01*
X141625695Y-125955667D01*
X141632097Y-125977133D01*
X141644979Y-126005029D01*
X141646618Y-126009423D01*
X141646618Y-126009425D01*
X141655706Y-126033792D01*
X141655707Y-126033794D01*
X141670278Y-126060480D01*
X141674020Y-126067917D01*
X141692408Y-126107736D01*
X141692410Y-126107739D01*
X141732770Y-126153924D01*
X141738664Y-126161206D01*
X141775413Y-126210295D01*
X141775416Y-126210298D01*
X141775421Y-126210305D01*
X142892093Y-127326977D01*
X142935848Y-127365932D01*
X142958354Y-127383742D01*
X142973454Y-127394328D01*
X143006352Y-127417392D01*
X143006359Y-127417395D01*
X143116703Y-127465434D01*
X143170313Y-127510242D01*
X143191187Y-127576921D01*
X143186983Y-127611216D01*
X143186131Y-127614393D01*
X143186131Y-127614395D01*
X143186131Y-127772509D01*
X143219096Y-127895534D01*
X143227054Y-127925235D01*
X143227057Y-127925242D01*
X143306106Y-128062161D01*
X143306110Y-128062166D01*
X143306111Y-128062168D01*
X143417915Y-128173972D01*
X143417917Y-128173973D01*
X143417921Y-128173976D01*
X143554840Y-128253025D01*
X143554847Y-128253029D01*
X143707574Y-128293952D01*
X143707576Y-128293952D01*
X143865687Y-128293952D01*
X143865688Y-128293952D01*
X143869416Y-128292953D01*
X143872684Y-128293030D01*
X143873745Y-128292891D01*
X143873766Y-128293056D01*
X143939264Y-128294612D01*
X143997129Y-128333772D01*
X144017695Y-128369391D01*
X144033396Y-128411485D01*
X144066881Y-128472808D01*
X144153105Y-128587989D01*
X144153109Y-128587993D01*
X144153114Y-128587999D01*
X144490575Y-128925459D01*
X144716342Y-129151226D01*
X144756185Y-129187054D01*
X144776615Y-129203553D01*
X144820062Y-129234984D01*
X144950819Y-129295018D01*
X145001969Y-129310149D01*
X145017815Y-129314837D01*
X145017816Y-129314837D01*
X145017819Y-129314838D01*
X145160191Y-129335602D01*
X150048977Y-129345499D01*
X150050000Y-129345500D01*
X150050047Y-129345500D01*
X150865990Y-129345500D01*
X150866000Y-129345500D01*
X150973456Y-129333947D01*
X151024967Y-129322741D01*
X151059197Y-129311347D01*
X151127497Y-129288616D01*
X151127501Y-129288613D01*
X151127504Y-129288613D01*
X151248543Y-129210825D01*
X151301347Y-129165070D01*
X151395567Y-129056336D01*
X151455338Y-128925459D01*
X151475023Y-128858420D01*
X151475024Y-128858416D01*
X151495500Y-128716000D01*
X151495500Y-124041362D01*
X151492603Y-123987322D01*
X151489769Y-123960964D01*
X151481114Y-123907552D01*
X151463318Y-123859839D01*
X151455500Y-123816505D01*
X151455500Y-123236060D01*
X151467644Y-123182542D01*
X151494382Y-123126657D01*
X151537375Y-122989353D01*
X151539945Y-122845496D01*
X151538748Y-122835968D01*
X151549923Y-122767000D01*
X151596613Y-122715021D01*
X151637588Y-122698898D01*
X151664328Y-122693580D01*
X151791811Y-122640775D01*
X151906542Y-122564114D01*
X152004114Y-122466542D01*
X152080775Y-122351811D01*
X152133580Y-122224328D01*
X152142389Y-122180041D01*
X152160500Y-122088995D01*
X152160500Y-122027139D01*
X152168445Y-122000081D01*
X152173289Y-121972292D01*
X152178159Y-121966998D01*
X152180185Y-121960100D01*
X152201495Y-121941634D01*
X152220596Y-121920874D01*
X152228843Y-121917936D01*
X152232989Y-121914345D01*
X152253123Y-121907175D01*
X152259907Y-121905400D01*
X152298955Y-121899786D01*
X152437004Y-121859251D01*
X152437452Y-121858962D01*
X152444123Y-121857218D01*
X152477262Y-121858205D01*
X152510434Y-121858205D01*
X152512046Y-121859240D01*
X152513961Y-121859298D01*
X152541320Y-121878054D01*
X152569212Y-121895979D01*
X152570007Y-121897720D01*
X152571589Y-121898805D01*
X152584464Y-121929374D01*
X152598238Y-121959534D01*
X152598457Y-121962599D01*
X152598709Y-121963197D01*
X152598560Y-121964047D01*
X152599500Y-121977182D01*
X152599500Y-129537060D01*
X152579815Y-129604099D01*
X152563181Y-129624741D01*
X151434741Y-130753181D01*
X151373418Y-130786666D01*
X151347060Y-130789500D01*
X150395841Y-130789500D01*
X150328802Y-130769815D01*
X150283047Y-130717011D01*
X150273103Y-130647853D01*
X150292739Y-130596609D01*
X150320188Y-130555528D01*
X150320188Y-130555527D01*
X150320192Y-130555522D01*
X150368813Y-130438140D01*
X150393600Y-130313527D01*
X150393600Y-130186473D01*
X150368813Y-130061860D01*
X150342711Y-129998843D01*
X150320195Y-129944484D01*
X150320188Y-129944471D01*
X150249604Y-129838836D01*
X150249601Y-129838832D01*
X150159767Y-129748998D01*
X150159763Y-129748995D01*
X150054128Y-129678411D01*
X150054115Y-129678404D01*
X149936744Y-129629788D01*
X149936732Y-129629785D01*
X149812131Y-129605000D01*
X149812127Y-129605000D01*
X149685073Y-129605000D01*
X149685068Y-129605000D01*
X149560467Y-129629785D01*
X149560455Y-129629788D01*
X149443084Y-129678404D01*
X149443071Y-129678411D01*
X149337436Y-129748995D01*
X149337432Y-129748998D01*
X149247598Y-129838832D01*
X149247595Y-129838836D01*
X149177011Y-129944471D01*
X149177004Y-129944484D01*
X149128388Y-130061855D01*
X149128385Y-130061867D01*
X149103600Y-130186468D01*
X149103600Y-130313531D01*
X149128385Y-130438132D01*
X149128388Y-130438144D01*
X149177004Y-130555515D01*
X149177011Y-130555528D01*
X149204461Y-130596609D01*
X149225339Y-130663286D01*
X149206855Y-130730667D01*
X149154876Y-130777357D01*
X149101359Y-130789500D01*
X147398641Y-130789500D01*
X147331602Y-130769815D01*
X147285847Y-130717011D01*
X147275903Y-130647853D01*
X147295539Y-130596609D01*
X147322988Y-130555528D01*
X147322988Y-130555527D01*
X147322992Y-130555522D01*
X147371613Y-130438140D01*
X147396400Y-130313527D01*
X147396400Y-130186473D01*
X147371613Y-130061860D01*
X147345511Y-129998843D01*
X147322995Y-129944484D01*
X147322988Y-129944471D01*
X147252404Y-129838836D01*
X147252401Y-129838832D01*
X147162567Y-129748998D01*
X147162563Y-129748995D01*
X147056928Y-129678411D01*
X147056915Y-129678404D01*
X146939544Y-129629788D01*
X146939532Y-129629785D01*
X146814931Y-129605000D01*
X146814927Y-129605000D01*
X146687873Y-129605000D01*
X146687868Y-129605000D01*
X146563267Y-129629785D01*
X146563255Y-129629788D01*
X146445884Y-129678404D01*
X146445871Y-129678411D01*
X146340236Y-129748995D01*
X146340232Y-129748998D01*
X146250398Y-129838832D01*
X146250395Y-129838836D01*
X146179811Y-129944471D01*
X146179804Y-129944484D01*
X146131188Y-130061855D01*
X146131185Y-130061867D01*
X146106400Y-130186468D01*
X146106400Y-130313531D01*
X146131185Y-130438132D01*
X146131188Y-130438144D01*
X146179804Y-130555515D01*
X146179811Y-130555528D01*
X146207261Y-130596609D01*
X146228139Y-130663286D01*
X146209655Y-130730667D01*
X146157676Y-130777357D01*
X146104159Y-130789500D01*
X145362939Y-130789500D01*
X145295900Y-130769815D01*
X145275258Y-130753181D01*
X142520292Y-127998213D01*
X142520288Y-127998210D01*
X142389185Y-127910609D01*
X142389172Y-127910602D01*
X142243501Y-127850264D01*
X142243489Y-127850261D01*
X142088845Y-127819500D01*
X142088842Y-127819500D01*
X140743853Y-127819500D01*
X140676814Y-127799815D01*
X140631059Y-127747011D01*
X140621115Y-127677853D01*
X140640751Y-127626609D01*
X140648912Y-127614395D01*
X140710775Y-127521811D01*
X140763580Y-127394328D01*
X140776977Y-127326977D01*
X140790500Y-127258995D01*
X140790500Y-127121004D01*
X140763581Y-126985677D01*
X140763580Y-126985676D01*
X140763580Y-126985672D01*
X140751150Y-126955664D01*
X140710778Y-126858195D01*
X140710771Y-126858182D01*
X140634114Y-126743458D01*
X140634111Y-126743454D01*
X140536545Y-126645888D01*
X140536541Y-126645885D01*
X140421817Y-126569228D01*
X140421804Y-126569221D01*
X140294332Y-126516421D01*
X140294322Y-126516418D01*
X140158995Y-126489500D01*
X140158993Y-126489500D01*
X140147673Y-126489500D01*
X140080634Y-126469815D01*
X140034879Y-126417011D01*
X140024935Y-126347853D01*
X140027895Y-126333418D01*
X140050500Y-126249057D01*
X140050500Y-126090943D01*
X140009577Y-125938216D01*
X139960004Y-125852352D01*
X139930524Y-125801290D01*
X139930518Y-125801282D01*
X139818717Y-125689481D01*
X139818709Y-125689475D01*
X139681790Y-125610426D01*
X139681786Y-125610424D01*
X139681784Y-125610423D01*
X139529057Y-125569500D01*
X139370943Y-125569500D01*
X139218216Y-125610423D01*
X139218209Y-125610426D01*
X139081290Y-125689475D01*
X139081282Y-125689481D01*
X138969481Y-125801282D01*
X138969475Y-125801290D01*
X138890426Y-125938209D01*
X138890423Y-125938216D01*
X138849500Y-126090943D01*
X138849500Y-126248060D01*
X138829815Y-126315099D01*
X138777011Y-126360854D01*
X138707853Y-126370798D01*
X138644297Y-126341773D01*
X138637819Y-126335741D01*
X138346819Y-126044741D01*
X138313334Y-125983418D01*
X138310500Y-125957060D01*
X138310500Y-121291158D01*
X138310499Y-121291154D01*
X138301311Y-121244959D01*
X138279738Y-121136508D01*
X138279737Y-121136502D01*
X138262062Y-121093833D01*
X138219394Y-120990821D01*
X138140971Y-120873453D01*
X138131790Y-120859712D01*
X138078158Y-120806080D01*
X138020289Y-120748211D01*
X136208893Y-118936815D01*
X136175408Y-118875492D01*
X136174986Y-118873468D01*
X136152051Y-118758165D01*
X136089092Y-118606167D01*
X136076635Y-118576092D01*
X136076628Y-118576079D01*
X135967139Y-118412218D01*
X135967136Y-118412214D01*
X135827785Y-118272863D01*
X135827781Y-118272860D01*
X135663920Y-118163371D01*
X135663907Y-118163364D01*
X135481839Y-118087950D01*
X135481829Y-118087947D01*
X135288543Y-118049500D01*
X135288541Y-118049500D01*
X135091459Y-118049500D01*
X135091457Y-118049500D01*
X134898170Y-118087947D01*
X134898160Y-118087950D01*
X134716092Y-118163364D01*
X134716079Y-118163371D01*
X134552218Y-118272860D01*
X134552214Y-118272863D01*
X134412863Y-118412214D01*
X134412860Y-118412218D01*
X134303371Y-118576079D01*
X134303364Y-118576092D01*
X134227950Y-118758160D01*
X134227947Y-118758170D01*
X134189500Y-118951456D01*
X134189500Y-118951459D01*
X134189500Y-119148541D01*
X134189500Y-119148543D01*
X134189499Y-119148543D01*
X134227947Y-119341829D01*
X134227950Y-119341839D01*
X134303364Y-119523907D01*
X134303371Y-119523920D01*
X134412860Y-119687781D01*
X134412863Y-119687785D01*
X134552214Y-119827136D01*
X134552218Y-119827139D01*
X134716079Y-119936628D01*
X134716092Y-119936635D01*
X134801250Y-119971908D01*
X134898165Y-120012051D01*
X135013328Y-120034958D01*
X135075235Y-120067341D01*
X135076815Y-120068893D01*
X136673181Y-121665259D01*
X136706666Y-121726582D01*
X136709500Y-121752940D01*
X136709500Y-126418846D01*
X136740261Y-126573489D01*
X136740264Y-126573501D01*
X136800602Y-126719172D01*
X136800609Y-126719185D01*
X136888210Y-126850288D01*
X136888213Y-126850292D01*
X137568600Y-127530679D01*
X137602085Y-127592002D01*
X137597101Y-127661694D01*
X137555229Y-127717627D01*
X137489765Y-127742044D01*
X137421492Y-127727192D01*
X137408037Y-127718680D01*
X137336433Y-127666657D01*
X137326693Y-127661694D01*
X137125996Y-127559433D01*
X136901368Y-127486446D01*
X136668097Y-127449500D01*
X136668092Y-127449500D01*
X136431908Y-127449500D01*
X136431903Y-127449500D01*
X136198631Y-127486446D01*
X135974003Y-127559433D01*
X135763566Y-127666657D01*
X135693413Y-127717627D01*
X135572490Y-127805483D01*
X135572488Y-127805485D01*
X135572487Y-127805485D01*
X135405485Y-127972487D01*
X135405485Y-127972488D01*
X135405483Y-127972490D01*
X135386796Y-127998211D01*
X135266657Y-128163566D01*
X135159433Y-128374003D01*
X135086446Y-128598631D01*
X135049500Y-128831902D01*
X135049500Y-129068097D01*
X135086446Y-129301368D01*
X135159433Y-129525996D01*
X135246158Y-129696202D01*
X135259054Y-129764871D01*
X135232778Y-129829612D01*
X135175671Y-129869869D01*
X135105866Y-129872861D01*
X135047992Y-129840178D01*
X131509395Y-126301581D01*
X131475910Y-126240258D01*
X131479144Y-126175584D01*
X131518477Y-126054534D01*
X131550500Y-125852352D01*
X131550500Y-125647648D01*
X131538122Y-125569500D01*
X131518477Y-125445465D01*
X131455218Y-125250776D01*
X131421503Y-125184607D01*
X131362287Y-125068390D01*
X131354556Y-125057749D01*
X131241971Y-124902786D01*
X131097213Y-124758028D01*
X130931613Y-124637715D01*
X130931612Y-124637714D01*
X130931610Y-124637713D01*
X130874653Y-124608691D01*
X130749223Y-124544781D01*
X130554534Y-124481522D01*
X130379995Y-124453878D01*
X130352352Y-124449500D01*
X130147648Y-124449500D01*
X130119887Y-124453897D01*
X129945462Y-124481523D01*
X129824415Y-124520853D01*
X129754574Y-124522848D01*
X129698417Y-124490603D01*
X124292102Y-119084288D01*
X124285692Y-119077877D01*
X124285094Y-119076851D01*
X124240418Y-119032592D01*
X124240165Y-119032339D01*
X124240139Y-119032291D01*
X124236145Y-119028125D01*
X124060164Y-118834738D01*
X124052027Y-118824809D01*
X124002950Y-118758165D01*
X123898905Y-118616877D01*
X123891843Y-118606167D01*
X123874170Y-118576086D01*
X123761036Y-118383519D01*
X123755115Y-118372129D01*
X123659695Y-118162755D01*
X123648026Y-118137151D01*
X123643317Y-118125217D01*
X123642004Y-118121309D01*
X123561092Y-117880427D01*
X123557642Y-117868070D01*
X123554655Y-117854742D01*
X123501160Y-117616079D01*
X123499009Y-117603448D01*
X123469985Y-117356362D01*
X123469138Y-117341896D01*
X123469138Y-115901304D01*
X128459500Y-115901304D01*
X128459500Y-116078695D01*
X128494103Y-116252658D01*
X128494106Y-116252667D01*
X128561983Y-116416540D01*
X128561990Y-116416553D01*
X128660535Y-116564034D01*
X128660538Y-116564038D01*
X128785961Y-116689461D01*
X128785965Y-116689464D01*
X128933446Y-116788009D01*
X128933459Y-116788016D01*
X129056363Y-116838923D01*
X129097334Y-116855894D01*
X129097336Y-116855894D01*
X129097341Y-116855896D01*
X129271304Y-116890499D01*
X129271307Y-116890500D01*
X129271309Y-116890500D01*
X129448693Y-116890500D01*
X129448694Y-116890499D01*
X129534970Y-116873338D01*
X129622658Y-116855896D01*
X129622661Y-116855894D01*
X129622666Y-116855894D01*
X129786547Y-116788013D01*
X129934035Y-116689464D01*
X130059464Y-116564035D01*
X130158013Y-116416547D01*
X130225894Y-116252666D01*
X130226235Y-116250956D01*
X130251928Y-116121783D01*
X130260500Y-116078691D01*
X130260500Y-115901309D01*
X130260500Y-115901306D01*
X130260499Y-115901304D01*
X130225896Y-115727341D01*
X130225893Y-115727332D01*
X130158016Y-115563459D01*
X130158009Y-115563446D01*
X130059464Y-115415965D01*
X130059461Y-115415961D01*
X129934038Y-115290538D01*
X129934034Y-115290535D01*
X129786553Y-115191990D01*
X129786540Y-115191983D01*
X129622667Y-115124106D01*
X129622658Y-115124103D01*
X129448694Y-115089500D01*
X129448691Y-115089500D01*
X129271309Y-115089500D01*
X129271306Y-115089500D01*
X129097341Y-115124103D01*
X129097332Y-115124106D01*
X128933459Y-115191983D01*
X128933446Y-115191990D01*
X128785965Y-115290535D01*
X128785961Y-115290538D01*
X128660538Y-115415961D01*
X128660535Y-115415965D01*
X128561990Y-115563446D01*
X128561983Y-115563459D01*
X128494106Y-115727332D01*
X128494103Y-115727341D01*
X128459500Y-115901304D01*
X123469138Y-115901304D01*
X123469138Y-114281304D01*
X135649500Y-114281304D01*
X135649500Y-114458695D01*
X135684103Y-114632658D01*
X135684106Y-114632667D01*
X135751983Y-114796540D01*
X135751990Y-114796553D01*
X135850535Y-114944034D01*
X135850538Y-114944038D01*
X135975961Y-115069461D01*
X135975965Y-115069464D01*
X136123446Y-115168009D01*
X136123459Y-115168016D01*
X136223419Y-115209420D01*
X136287334Y-115235894D01*
X136287336Y-115235894D01*
X136287341Y-115235896D01*
X136461304Y-115270499D01*
X136461307Y-115270500D01*
X136461309Y-115270500D01*
X136638693Y-115270500D01*
X136638694Y-115270499D01*
X136700054Y-115258294D01*
X136812658Y-115235896D01*
X136812661Y-115235894D01*
X136812666Y-115235894D01*
X136976547Y-115168013D01*
X137124035Y-115069464D01*
X137249464Y-114944035D01*
X137348013Y-114796547D01*
X137415894Y-114632666D01*
X137426992Y-114576876D01*
X137443955Y-114491593D01*
X137450500Y-114458691D01*
X137450500Y-114281309D01*
X137450500Y-114281306D01*
X137450499Y-114281304D01*
X137415896Y-114107341D01*
X137415893Y-114107332D01*
X137348016Y-113943459D01*
X137348009Y-113943446D01*
X137249464Y-113795965D01*
X137249461Y-113795961D01*
X137124038Y-113670538D01*
X137124034Y-113670535D01*
X136976553Y-113571990D01*
X136976540Y-113571983D01*
X136812667Y-113504106D01*
X136812658Y-113504103D01*
X136649322Y-113471614D01*
X136587411Y-113439229D01*
X136552836Y-113378513D01*
X136556576Y-113308744D01*
X136597443Y-113252072D01*
X136626061Y-113235436D01*
X136721804Y-113195778D01*
X136721804Y-113195777D01*
X136721811Y-113195775D01*
X136836542Y-113119114D01*
X136934114Y-113021542D01*
X137010775Y-112906811D01*
X137063580Y-112779328D01*
X137090500Y-112643993D01*
X137090500Y-112506007D01*
X137090500Y-112506004D01*
X137063581Y-112370677D01*
X137063580Y-112370676D01*
X137063580Y-112370672D01*
X137054558Y-112348891D01*
X137010778Y-112243195D01*
X137010771Y-112243182D01*
X136934114Y-112128458D01*
X136934111Y-112128454D01*
X136836545Y-112030888D01*
X136836541Y-112030885D01*
X136721817Y-111954228D01*
X136721804Y-111954221D01*
X136594332Y-111901421D01*
X136594322Y-111901418D01*
X136458995Y-111874500D01*
X136458993Y-111874500D01*
X136321007Y-111874500D01*
X136321005Y-111874500D01*
X136185677Y-111901418D01*
X136185667Y-111901421D01*
X136058195Y-111954221D01*
X136058182Y-111954228D01*
X135943458Y-112030885D01*
X135943454Y-112030888D01*
X135845888Y-112128454D01*
X135845885Y-112128458D01*
X135769228Y-112243182D01*
X135769221Y-112243195D01*
X135716421Y-112370667D01*
X135716418Y-112370677D01*
X135689500Y-112506004D01*
X135689500Y-112506007D01*
X135689500Y-112643993D01*
X135689500Y-112643995D01*
X135689499Y-112643995D01*
X135716418Y-112779322D01*
X135716421Y-112779332D01*
X135769221Y-112906804D01*
X135769228Y-112906817D01*
X135845885Y-113021541D01*
X135845888Y-113021545D01*
X135943454Y-113119111D01*
X135943458Y-113119114D01*
X136058182Y-113195771D01*
X136058195Y-113195778D01*
X136153939Y-113235436D01*
X136185672Y-113248580D01*
X136250046Y-113261385D01*
X136270301Y-113265414D01*
X136332212Y-113297798D01*
X136366786Y-113358514D01*
X136363047Y-113428284D01*
X136322181Y-113484956D01*
X136292391Y-113500397D01*
X136292962Y-113501775D01*
X136123459Y-113571983D01*
X136123446Y-113571990D01*
X135975965Y-113670535D01*
X135975961Y-113670538D01*
X135850538Y-113795961D01*
X135850535Y-113795965D01*
X135751990Y-113943446D01*
X135751983Y-113943459D01*
X135684106Y-114107332D01*
X135684103Y-114107341D01*
X135649500Y-114281304D01*
X123469138Y-114281304D01*
X123469138Y-109643636D01*
X132829069Y-109643636D01*
X132855988Y-109778963D01*
X132855991Y-109778973D01*
X132908791Y-109906445D01*
X132908798Y-109906458D01*
X132985455Y-110021182D01*
X132985458Y-110021186D01*
X133083024Y-110118752D01*
X133083028Y-110118755D01*
X133197752Y-110195412D01*
X133197765Y-110195419D01*
X133307169Y-110240735D01*
X133325242Y-110248221D01*
X133325246Y-110248221D01*
X133325247Y-110248222D01*
X133460574Y-110275141D01*
X133460577Y-110275141D01*
X133598565Y-110275141D01*
X133689611Y-110257030D01*
X133733898Y-110248221D01*
X133861381Y-110195416D01*
X133976112Y-110118755D01*
X134073684Y-110021183D01*
X134150345Y-109906452D01*
X134203150Y-109778969D01*
X134211959Y-109734682D01*
X134225026Y-109668995D01*
X135039499Y-109668995D01*
X135066418Y-109804322D01*
X135066421Y-109804332D01*
X135119221Y-109931804D01*
X135119228Y-109931817D01*
X135195885Y-110046541D01*
X135195888Y-110046545D01*
X135293454Y-110144111D01*
X135293458Y-110144114D01*
X135408182Y-110220771D01*
X135408195Y-110220778D01*
X135535667Y-110273578D01*
X135535672Y-110273580D01*
X135535676Y-110273580D01*
X135535677Y-110273581D01*
X135671004Y-110300500D01*
X135671007Y-110300500D01*
X135808995Y-110300500D01*
X135936480Y-110275141D01*
X135944328Y-110273580D01*
X136071811Y-110220775D01*
X136146390Y-110170943D01*
X139379500Y-110170943D01*
X139379500Y-110329057D01*
X139412177Y-110451007D01*
X139420423Y-110481783D01*
X139420426Y-110481790D01*
X139499475Y-110618709D01*
X139499479Y-110618714D01*
X139499480Y-110618716D01*
X139611284Y-110730520D01*
X139611286Y-110730521D01*
X139611290Y-110730524D01*
X139748209Y-110809573D01*
X139748216Y-110809577D01*
X139900943Y-110850500D01*
X139900945Y-110850500D01*
X140059055Y-110850500D01*
X140059057Y-110850500D01*
X140211784Y-110809577D01*
X140348716Y-110730520D01*
X140460520Y-110618716D01*
X140539577Y-110481784D01*
X140580500Y-110329057D01*
X140580500Y-110170943D01*
X140539577Y-110018216D01*
X140520178Y-109984616D01*
X140460524Y-109881290D01*
X140460518Y-109881282D01*
X140348717Y-109769481D01*
X140348709Y-109769475D01*
X140211790Y-109690426D01*
X140211786Y-109690424D01*
X140211784Y-109690423D01*
X140059057Y-109649500D01*
X139900943Y-109649500D01*
X139748216Y-109690423D01*
X139748209Y-109690426D01*
X139611290Y-109769475D01*
X139611282Y-109769481D01*
X139499481Y-109881282D01*
X139499475Y-109881290D01*
X139420426Y-110018209D01*
X139420423Y-110018216D01*
X139379500Y-110170943D01*
X136146390Y-110170943D01*
X136186542Y-110144114D01*
X136220138Y-110110518D01*
X136255522Y-110075135D01*
X136284111Y-110046545D01*
X136284114Y-110046542D01*
X136360775Y-109931811D01*
X136413580Y-109804328D01*
X136433139Y-109706000D01*
X136440500Y-109668995D01*
X136440500Y-109531004D01*
X136413581Y-109395677D01*
X136413580Y-109395676D01*
X136413580Y-109395672D01*
X136378628Y-109311290D01*
X136360778Y-109268195D01*
X136360771Y-109268182D01*
X136284114Y-109153458D01*
X136284111Y-109153454D01*
X136186545Y-109055888D01*
X136186541Y-109055885D01*
X136071817Y-108979228D01*
X136071804Y-108979221D01*
X135944332Y-108926421D01*
X135944322Y-108926418D01*
X135808995Y-108899500D01*
X135808993Y-108899500D01*
X135671007Y-108899500D01*
X135671005Y-108899500D01*
X135535677Y-108926418D01*
X135535667Y-108926421D01*
X135408195Y-108979221D01*
X135408182Y-108979228D01*
X135293458Y-109055885D01*
X135293454Y-109055888D01*
X135195888Y-109153454D01*
X135195885Y-109153458D01*
X135119228Y-109268182D01*
X135119221Y-109268195D01*
X135066421Y-109395667D01*
X135066418Y-109395677D01*
X135039500Y-109531004D01*
X135039500Y-109531007D01*
X135039500Y-109668993D01*
X135039500Y-109668995D01*
X135039499Y-109668995D01*
X134225026Y-109668995D01*
X134230070Y-109643636D01*
X134230070Y-109505645D01*
X134203151Y-109370318D01*
X134203150Y-109370317D01*
X134203150Y-109370313D01*
X134178702Y-109311290D01*
X134150348Y-109242836D01*
X134150341Y-109242823D01*
X134073684Y-109128099D01*
X134073681Y-109128095D01*
X133976115Y-109030529D01*
X133976111Y-109030526D01*
X133861387Y-108953869D01*
X133861374Y-108953862D01*
X133733902Y-108901062D01*
X133733892Y-108901059D01*
X133598565Y-108874141D01*
X133598563Y-108874141D01*
X133460577Y-108874141D01*
X133460575Y-108874141D01*
X133325247Y-108901059D01*
X133325237Y-108901062D01*
X133197765Y-108953862D01*
X133197752Y-108953869D01*
X133083028Y-109030526D01*
X133083024Y-109030529D01*
X132985458Y-109128095D01*
X132985455Y-109128099D01*
X132908798Y-109242823D01*
X132908791Y-109242836D01*
X132855991Y-109370308D01*
X132855988Y-109370318D01*
X132829070Y-109505645D01*
X132829070Y-109505648D01*
X132829070Y-109643634D01*
X132829070Y-109643636D01*
X132829069Y-109643636D01*
X123469138Y-109643636D01*
X123469138Y-108318995D01*
X123889499Y-108318995D01*
X123916418Y-108454322D01*
X123916421Y-108454332D01*
X123969221Y-108581804D01*
X123969228Y-108581817D01*
X124045885Y-108696541D01*
X124045888Y-108696545D01*
X124143454Y-108794111D01*
X124143458Y-108794114D01*
X124258182Y-108870771D01*
X124258195Y-108870778D01*
X124385667Y-108923578D01*
X124385672Y-108923580D01*
X124385676Y-108923580D01*
X124385677Y-108923581D01*
X124521004Y-108950500D01*
X124521007Y-108950500D01*
X124658995Y-108950500D01*
X124780050Y-108926420D01*
X124794328Y-108923580D01*
X124921811Y-108870775D01*
X125036542Y-108794114D01*
X125134114Y-108696542D01*
X125208245Y-108585597D01*
X129717751Y-108585597D01*
X129744670Y-108720924D01*
X129744673Y-108720934D01*
X129797473Y-108848406D01*
X129797480Y-108848419D01*
X129874137Y-108963143D01*
X129874140Y-108963147D01*
X129971706Y-109060713D01*
X129971710Y-109060716D01*
X130086434Y-109137373D01*
X130086447Y-109137380D01*
X130200967Y-109184815D01*
X130213924Y-109190182D01*
X130213928Y-109190182D01*
X130213929Y-109190183D01*
X130349256Y-109217102D01*
X130349259Y-109217102D01*
X130487247Y-109217102D01*
X130578293Y-109198991D01*
X130622580Y-109190182D01*
X130750063Y-109137377D01*
X130864794Y-109060716D01*
X130962366Y-108963144D01*
X131039027Y-108848413D01*
X131091832Y-108720930D01*
X131114985Y-108604532D01*
X131118752Y-108585597D01*
X131118752Y-108447606D01*
X131091833Y-108312279D01*
X131091832Y-108312278D01*
X131091832Y-108312274D01*
X131081493Y-108287314D01*
X131039030Y-108184797D01*
X131039023Y-108184784D01*
X130962366Y-108070060D01*
X130962363Y-108070056D01*
X130864797Y-107972490D01*
X130864793Y-107972487D01*
X130750069Y-107895830D01*
X130750056Y-107895823D01*
X130622584Y-107843023D01*
X130622574Y-107843020D01*
X130487247Y-107816102D01*
X130487245Y-107816102D01*
X130349259Y-107816102D01*
X130349257Y-107816102D01*
X130213929Y-107843020D01*
X130213919Y-107843023D01*
X130086447Y-107895823D01*
X130086434Y-107895830D01*
X129971710Y-107972487D01*
X129971706Y-107972490D01*
X129874140Y-108070056D01*
X129874137Y-108070060D01*
X129797480Y-108184784D01*
X129797473Y-108184797D01*
X129744673Y-108312269D01*
X129744670Y-108312279D01*
X129717752Y-108447606D01*
X129717752Y-108447609D01*
X129717752Y-108585595D01*
X129717752Y-108585597D01*
X129717751Y-108585597D01*
X125208245Y-108585597D01*
X125210775Y-108581811D01*
X125263580Y-108454328D01*
X125265392Y-108445213D01*
X125270941Y-108417325D01*
X125270941Y-108417324D01*
X125283814Y-108352605D01*
X125290500Y-108318993D01*
X125290500Y-108181007D01*
X125290500Y-108181004D01*
X125263581Y-108045677D01*
X125263580Y-108045676D01*
X125263580Y-108045672D01*
X125263578Y-108045667D01*
X125210778Y-107918195D01*
X125210771Y-107918182D01*
X125134114Y-107803458D01*
X125134111Y-107803454D01*
X125036545Y-107705888D01*
X125036541Y-107705885D01*
X124921817Y-107629228D01*
X124921804Y-107629221D01*
X124794332Y-107576421D01*
X124794322Y-107576418D01*
X124658995Y-107549500D01*
X124658993Y-107549500D01*
X124521007Y-107549500D01*
X124521005Y-107549500D01*
X124385677Y-107576418D01*
X124385667Y-107576421D01*
X124258195Y-107629221D01*
X124258182Y-107629228D01*
X124143458Y-107705885D01*
X124143454Y-107705888D01*
X124045888Y-107803454D01*
X124045885Y-107803458D01*
X123969228Y-107918182D01*
X123969221Y-107918195D01*
X123916421Y-108045667D01*
X123916418Y-108045677D01*
X123889500Y-108181004D01*
X123889500Y-108181007D01*
X123889500Y-108318993D01*
X123889500Y-108318995D01*
X123889499Y-108318995D01*
X123469138Y-108318995D01*
X123469138Y-106108995D01*
X135799499Y-106108995D01*
X135826418Y-106244322D01*
X135826421Y-106244332D01*
X135879221Y-106371804D01*
X135879228Y-106371817D01*
X135955885Y-106486541D01*
X135955888Y-106486545D01*
X136053454Y-106584111D01*
X136053458Y-106584114D01*
X136168182Y-106660771D01*
X136168195Y-106660778D01*
X136288284Y-106710520D01*
X136295672Y-106713580D01*
X136295676Y-106713580D01*
X136295677Y-106713581D01*
X136431004Y-106740500D01*
X136431007Y-106740500D01*
X136568994Y-106740500D01*
X136627229Y-106728916D01*
X136658533Y-106722689D01*
X136728124Y-106728916D01*
X136783302Y-106771778D01*
X136802498Y-106812210D01*
X136810423Y-106841783D01*
X136810426Y-106841790D01*
X136889475Y-106978709D01*
X136889479Y-106978714D01*
X136889480Y-106978716D01*
X137001284Y-107090520D01*
X137001286Y-107090521D01*
X137001290Y-107090524D01*
X137135490Y-107168003D01*
X137138216Y-107169577D01*
X137290943Y-107210500D01*
X137290945Y-107210500D01*
X137449055Y-107210500D01*
X137449057Y-107210500D01*
X137601784Y-107169577D01*
X137738716Y-107090520D01*
X137850520Y-106978716D01*
X137929577Y-106841784D01*
X137970500Y-106689057D01*
X137970500Y-106530943D01*
X137929577Y-106378216D01*
X137925875Y-106371804D01*
X137850524Y-106241290D01*
X137850518Y-106241282D01*
X137738717Y-106129481D01*
X137738709Y-106129475D01*
X137601790Y-106050426D01*
X137601786Y-106050424D01*
X137601784Y-106050423D01*
X137449057Y-106009500D01*
X137309921Y-106009500D01*
X137242882Y-105989815D01*
X137197127Y-105937011D01*
X137188304Y-105909691D01*
X137178674Y-105861282D01*
X137173580Y-105835672D01*
X137173578Y-105835667D01*
X137120778Y-105708195D01*
X137120771Y-105708182D01*
X137044114Y-105593458D01*
X137044111Y-105593454D01*
X136946545Y-105495888D01*
X136946541Y-105495885D01*
X136877735Y-105449910D01*
X138280649Y-105449910D01*
X138280649Y-105608024D01*
X138313811Y-105731784D01*
X138321572Y-105760750D01*
X138321575Y-105760757D01*
X138400624Y-105897676D01*
X138400628Y-105897681D01*
X138400629Y-105897683D01*
X138512433Y-106009487D01*
X138512435Y-106009488D01*
X138512439Y-106009491D01*
X138626689Y-106075452D01*
X138649365Y-106088544D01*
X138802092Y-106129467D01*
X138802094Y-106129467D01*
X138960204Y-106129467D01*
X138960206Y-106129467D01*
X139112933Y-106088544D01*
X139249865Y-106009487D01*
X139361669Y-105897683D01*
X139440726Y-105760751D01*
X139481649Y-105608024D01*
X139481649Y-105449910D01*
X139440726Y-105297183D01*
X139423998Y-105268209D01*
X139361673Y-105160257D01*
X139361667Y-105160249D01*
X139249866Y-105048448D01*
X139249858Y-105048442D01*
X139112939Y-104969393D01*
X139112935Y-104969391D01*
X139112933Y-104969390D01*
X138960206Y-104928467D01*
X138802092Y-104928467D01*
X138649365Y-104969390D01*
X138649358Y-104969393D01*
X138512439Y-105048442D01*
X138512431Y-105048448D01*
X138400630Y-105160249D01*
X138400624Y-105160257D01*
X138321575Y-105297176D01*
X138321572Y-105297183D01*
X138280649Y-105449910D01*
X136877735Y-105449910D01*
X136831817Y-105419228D01*
X136831804Y-105419221D01*
X136704332Y-105366421D01*
X136704322Y-105366418D01*
X136568995Y-105339500D01*
X136568993Y-105339500D01*
X136431007Y-105339500D01*
X136431005Y-105339500D01*
X136295677Y-105366418D01*
X136295667Y-105366421D01*
X136168195Y-105419221D01*
X136168182Y-105419228D01*
X136053458Y-105495885D01*
X136053454Y-105495888D01*
X135955888Y-105593454D01*
X135955885Y-105593458D01*
X135879228Y-105708182D01*
X135879221Y-105708195D01*
X135826421Y-105835667D01*
X135826418Y-105835677D01*
X135799500Y-105971004D01*
X135799500Y-105971007D01*
X135799500Y-106108993D01*
X135799500Y-106108995D01*
X135799499Y-106108995D01*
X123469138Y-106108995D01*
X123469138Y-103770943D01*
X131729500Y-103770943D01*
X131729500Y-103929057D01*
X131754179Y-104021158D01*
X131770423Y-104081783D01*
X131770426Y-104081790D01*
X131849475Y-104218709D01*
X131849479Y-104218714D01*
X131849480Y-104218716D01*
X131961284Y-104330520D01*
X131961286Y-104330521D01*
X131961290Y-104330524D01*
X132060720Y-104387929D01*
X132098216Y-104409577D01*
X132250943Y-104450500D01*
X132250945Y-104450500D01*
X132409055Y-104450500D01*
X132409057Y-104450500D01*
X132561784Y-104409577D01*
X132698716Y-104330520D01*
X132810520Y-104218716D01*
X132889577Y-104081784D01*
X132930500Y-103929057D01*
X132930500Y-103770943D01*
X132889577Y-103618216D01*
X132873120Y-103589711D01*
X132810524Y-103481290D01*
X132810518Y-103481282D01*
X132698717Y-103369481D01*
X132698709Y-103369475D01*
X132561790Y-103290426D01*
X132561786Y-103290424D01*
X132561784Y-103290423D01*
X132409057Y-103249500D01*
X132250943Y-103249500D01*
X132098216Y-103290423D01*
X132098209Y-103290426D01*
X131961290Y-103369475D01*
X131961282Y-103369481D01*
X131849481Y-103481282D01*
X131849475Y-103481290D01*
X131770426Y-103618209D01*
X131770423Y-103618216D01*
X131729500Y-103770943D01*
X123469138Y-103770943D01*
X123469138Y-100427648D01*
X132189500Y-100427648D01*
X132189500Y-100632351D01*
X132221522Y-100834534D01*
X132284781Y-101029223D01*
X132339023Y-101135677D01*
X132373547Y-101203434D01*
X132377715Y-101211613D01*
X132498028Y-101377213D01*
X132642786Y-101521971D01*
X132779490Y-101621290D01*
X132808390Y-101642287D01*
X132924607Y-101701503D01*
X132990776Y-101735218D01*
X132990778Y-101735218D01*
X132990781Y-101735220D01*
X133095137Y-101769127D01*
X133185465Y-101798477D01*
X133286557Y-101814488D01*
X133387648Y-101830500D01*
X133387649Y-101830500D01*
X133592351Y-101830500D01*
X133592352Y-101830500D01*
X133794534Y-101798477D01*
X133989219Y-101735220D01*
X134171610Y-101642287D01*
X134290905Y-101555615D01*
X134337213Y-101521971D01*
X134337215Y-101521968D01*
X134337219Y-101521966D01*
X134450190Y-101408995D01*
X134959499Y-101408995D01*
X134986418Y-101544322D01*
X134986421Y-101544332D01*
X135039221Y-101671804D01*
X135039228Y-101671817D01*
X135115885Y-101786541D01*
X135115888Y-101786545D01*
X135213454Y-101884111D01*
X135213458Y-101884114D01*
X135328182Y-101960771D01*
X135328195Y-101960778D01*
X135455667Y-102013578D01*
X135455672Y-102013580D01*
X135455676Y-102013580D01*
X135455677Y-102013581D01*
X135591004Y-102040500D01*
X135591007Y-102040500D01*
X135728995Y-102040500D01*
X135820041Y-102022389D01*
X135864328Y-102013580D01*
X135991811Y-101960775D01*
X136106542Y-101884114D01*
X136204114Y-101786542D01*
X136280775Y-101671811D01*
X136333580Y-101544328D01*
X136344701Y-101488419D01*
X136360500Y-101408995D01*
X136360500Y-101271004D01*
X136333581Y-101135677D01*
X136333580Y-101135676D01*
X136333580Y-101135672D01*
X136318597Y-101099500D01*
X136280778Y-101008195D01*
X136280771Y-101008182D01*
X136204114Y-100893458D01*
X136204111Y-100893454D01*
X136106545Y-100795888D01*
X136106541Y-100795885D01*
X135991817Y-100719228D01*
X135991804Y-100719221D01*
X135864332Y-100666421D01*
X135864322Y-100666418D01*
X135728995Y-100639500D01*
X135728993Y-100639500D01*
X135591007Y-100639500D01*
X135591005Y-100639500D01*
X135455677Y-100666418D01*
X135455667Y-100666421D01*
X135328195Y-100719221D01*
X135328182Y-100719228D01*
X135213458Y-100795885D01*
X135213454Y-100795888D01*
X135115888Y-100893454D01*
X135115885Y-100893458D01*
X135039228Y-101008182D01*
X135039221Y-101008195D01*
X134986421Y-101135667D01*
X134986418Y-101135677D01*
X134959500Y-101271004D01*
X134959500Y-101271007D01*
X134959500Y-101408993D01*
X134959500Y-101408995D01*
X134959499Y-101408995D01*
X134450190Y-101408995D01*
X134481966Y-101377219D01*
X134481968Y-101377215D01*
X134481971Y-101377213D01*
X134596573Y-101219475D01*
X134602287Y-101211610D01*
X134695220Y-101029219D01*
X134758477Y-100834534D01*
X134790500Y-100632352D01*
X134790500Y-100427648D01*
X134779550Y-100358514D01*
X134758477Y-100225465D01*
X134704945Y-100060711D01*
X134695220Y-100030781D01*
X134695218Y-100030778D01*
X134695218Y-100030776D01*
X134661503Y-99964607D01*
X134602287Y-99848390D01*
X134589857Y-99831282D01*
X134481971Y-99682786D01*
X134337213Y-99538028D01*
X134171613Y-99417715D01*
X134171612Y-99417714D01*
X134171610Y-99417713D01*
X134101769Y-99382127D01*
X133989223Y-99324781D01*
X133794534Y-99261522D01*
X133619995Y-99233878D01*
X133592352Y-99229500D01*
X133387648Y-99229500D01*
X133363329Y-99233351D01*
X133185465Y-99261522D01*
X132990776Y-99324781D01*
X132808386Y-99417715D01*
X132642786Y-99538028D01*
X132498028Y-99682786D01*
X132377715Y-99848386D01*
X132284781Y-100030776D01*
X132221522Y-100225465D01*
X132189500Y-100427648D01*
X123469138Y-100427648D01*
X123469138Y-99446946D01*
X123469138Y-99437877D01*
X123469443Y-99436721D01*
X123469145Y-99373788D01*
X123469146Y-99373461D01*
X123469160Y-99373410D01*
X123469283Y-99367639D01*
X123472747Y-99294111D01*
X123481587Y-99106453D01*
X123482851Y-99093708D01*
X123521607Y-98838375D01*
X123524181Y-98825832D01*
X123589123Y-98575887D01*
X123592987Y-98563655D01*
X123593882Y-98561263D01*
X123683417Y-98321767D01*
X123688527Y-98309997D01*
X123695715Y-98295537D01*
X123803476Y-98078758D01*
X123809765Y-98067597D01*
X123948017Y-97849459D01*
X123955412Y-97839026D01*
X124109241Y-97644241D01*
X124118849Y-97633438D01*
X124214639Y-97537648D01*
X129249500Y-97537648D01*
X129249500Y-97742351D01*
X129281522Y-97944534D01*
X129344781Y-98139223D01*
X129437715Y-98321613D01*
X129558028Y-98487213D01*
X129702786Y-98631971D01*
X129857749Y-98744556D01*
X129868390Y-98752287D01*
X129984607Y-98811503D01*
X130050776Y-98845218D01*
X130050778Y-98845218D01*
X130050781Y-98845220D01*
X130155137Y-98879127D01*
X130245465Y-98908477D01*
X130346557Y-98924488D01*
X130447648Y-98940500D01*
X130447649Y-98940500D01*
X130652351Y-98940500D01*
X130652352Y-98940500D01*
X130854534Y-98908477D01*
X131049219Y-98845220D01*
X131231610Y-98752287D01*
X131345972Y-98669199D01*
X131397213Y-98631971D01*
X131397215Y-98631968D01*
X131397219Y-98631966D01*
X131541966Y-98487219D01*
X131541968Y-98487215D01*
X131541971Y-98487213D01*
X131625535Y-98372195D01*
X131662287Y-98321610D01*
X131755220Y-98139219D01*
X131818477Y-97944534D01*
X131850500Y-97742352D01*
X131850500Y-97537648D01*
X131818477Y-97335466D01*
X131755220Y-97140781D01*
X131755218Y-97140778D01*
X131755218Y-97140776D01*
X131721503Y-97074607D01*
X131662287Y-96958390D01*
X131635534Y-96921567D01*
X131541971Y-96792786D01*
X131397213Y-96648028D01*
X131231613Y-96527715D01*
X131231612Y-96527714D01*
X131231610Y-96527713D01*
X131174653Y-96498691D01*
X131049223Y-96434781D01*
X130854534Y-96371522D01*
X130679995Y-96343878D01*
X130652352Y-96339500D01*
X130447648Y-96339500D01*
X130423329Y-96343351D01*
X130245465Y-96371522D01*
X130050776Y-96434781D01*
X129868386Y-96527715D01*
X129702786Y-96648028D01*
X129558028Y-96792786D01*
X129437715Y-96958386D01*
X129344781Y-97140776D01*
X129281522Y-97335465D01*
X129249500Y-97537648D01*
X124214639Y-97537648D01*
X126221344Y-95530943D01*
X131789500Y-95530943D01*
X131789500Y-95689057D01*
X131820961Y-95806469D01*
X131830423Y-95841783D01*
X131830426Y-95841790D01*
X131909475Y-95978709D01*
X131909479Y-95978714D01*
X131909480Y-95978716D01*
X132021284Y-96090520D01*
X132021286Y-96090521D01*
X132021290Y-96090524D01*
X132158209Y-96169573D01*
X132158216Y-96169577D01*
X132310943Y-96210500D01*
X132310945Y-96210500D01*
X132469055Y-96210500D01*
X132469057Y-96210500D01*
X132621784Y-96169577D01*
X132758716Y-96090520D01*
X132870520Y-95978716D01*
X132949577Y-95841784D01*
X132990500Y-95689057D01*
X132990500Y-95530943D01*
X132949577Y-95378216D01*
X132928437Y-95341600D01*
X132870524Y-95241290D01*
X132870518Y-95241282D01*
X132758717Y-95129481D01*
X132758709Y-95129475D01*
X132621790Y-95050426D01*
X132621786Y-95050424D01*
X132621784Y-95050423D01*
X132469057Y-95009500D01*
X132310943Y-95009500D01*
X132158216Y-95050423D01*
X132158209Y-95050426D01*
X132021290Y-95129475D01*
X132021282Y-95129481D01*
X131909481Y-95241282D01*
X131909475Y-95241290D01*
X131830426Y-95378209D01*
X131830423Y-95378216D01*
X131789500Y-95530943D01*
X126221344Y-95530943D01*
X128389402Y-93362885D01*
X135967558Y-93362885D01*
X135967558Y-93520999D01*
X136008449Y-93673604D01*
X136008481Y-93673725D01*
X136008484Y-93673732D01*
X136087533Y-93810651D01*
X136087537Y-93810656D01*
X136087538Y-93810658D01*
X136199342Y-93922462D01*
X136199344Y-93922463D01*
X136199348Y-93922466D01*
X136307920Y-93985149D01*
X136336274Y-94001519D01*
X136489001Y-94042442D01*
X136489003Y-94042442D01*
X136647113Y-94042442D01*
X136647115Y-94042442D01*
X136799842Y-94001519D01*
X136936774Y-93922462D01*
X137048578Y-93810658D01*
X137127635Y-93673726D01*
X137168558Y-93520999D01*
X137168558Y-93362885D01*
X137127635Y-93210158D01*
X137103635Y-93168588D01*
X137048582Y-93073232D01*
X137048576Y-93073224D01*
X136936775Y-92961423D01*
X136936770Y-92961419D01*
X136919199Y-92951274D01*
X136919190Y-92951270D01*
X136799842Y-92882365D01*
X136710963Y-92858550D01*
X136710961Y-92858549D01*
X136670868Y-92847806D01*
X136647115Y-92841442D01*
X136489001Y-92841442D01*
X136336274Y-92882365D01*
X136336267Y-92882368D01*
X136199348Y-92961417D01*
X136199340Y-92961423D01*
X136087539Y-93073224D01*
X136087533Y-93073232D01*
X136008484Y-93210151D01*
X136008481Y-93210158D01*
X135967558Y-93362885D01*
X128389402Y-93362885D01*
X129555650Y-92196637D01*
X129616971Y-92163154D01*
X129681646Y-92166388D01*
X129802697Y-92205721D01*
X130004879Y-92237744D01*
X130004880Y-92237744D01*
X130209582Y-92237744D01*
X130209583Y-92237744D01*
X130411765Y-92205721D01*
X130606450Y-92142464D01*
X130788841Y-92049531D01*
X130881821Y-91981976D01*
X130954444Y-91929215D01*
X130954446Y-91929212D01*
X130954450Y-91929210D01*
X130962717Y-91920943D01*
X135449500Y-91920943D01*
X135449500Y-92079057D01*
X135483665Y-92206560D01*
X135490423Y-92231783D01*
X135490426Y-92231790D01*
X135569475Y-92368709D01*
X135569479Y-92368714D01*
X135569480Y-92368716D01*
X135681284Y-92480520D01*
X135681286Y-92480521D01*
X135681290Y-92480524D01*
X135818209Y-92559573D01*
X135818216Y-92559577D01*
X135970943Y-92600500D01*
X135970945Y-92600500D01*
X136129055Y-92600500D01*
X136129057Y-92600500D01*
X136281784Y-92559577D01*
X136418716Y-92480520D01*
X136459446Y-92439789D01*
X136520767Y-92406305D01*
X136590458Y-92411289D01*
X136646392Y-92453160D01*
X136654508Y-92465463D01*
X136679480Y-92508716D01*
X136791284Y-92620520D01*
X136928216Y-92699577D01*
X137080943Y-92740500D01*
X137080946Y-92740500D01*
X137239055Y-92740500D01*
X137239057Y-92740500D01*
X137391784Y-92699577D01*
X137528716Y-92620520D01*
X137587735Y-92561501D01*
X137649058Y-92528016D01*
X137718750Y-92533000D01*
X137737413Y-92541793D01*
X137768216Y-92559577D01*
X137920943Y-92600500D01*
X137920945Y-92600500D01*
X138079055Y-92600500D01*
X138079057Y-92600500D01*
X138231784Y-92559577D01*
X138368716Y-92480520D01*
X138480520Y-92368716D01*
X138559577Y-92231784D01*
X138600500Y-92079057D01*
X138600500Y-91920943D01*
X138559577Y-91768216D01*
X138514291Y-91689777D01*
X138480524Y-91631290D01*
X138480518Y-91631282D01*
X138368717Y-91519481D01*
X138368709Y-91519475D01*
X138231790Y-91440426D01*
X138231786Y-91440424D01*
X138231784Y-91440423D01*
X138079057Y-91399500D01*
X137920943Y-91399500D01*
X137768216Y-91440423D01*
X137768209Y-91440426D01*
X137631290Y-91519475D01*
X137631286Y-91519478D01*
X137572265Y-91578499D01*
X137510941Y-91611983D01*
X137441250Y-91606998D01*
X137422587Y-91598206D01*
X137391786Y-91580424D01*
X137391785Y-91580423D01*
X137391784Y-91580423D01*
X137239057Y-91539500D01*
X137080943Y-91539500D01*
X136928216Y-91580423D01*
X136928209Y-91580426D01*
X136791290Y-91659475D01*
X136791282Y-91659481D01*
X136750553Y-91700210D01*
X136689230Y-91733694D01*
X136619538Y-91728709D01*
X136563605Y-91686837D01*
X136555489Y-91674532D01*
X136538692Y-91645439D01*
X136530522Y-91631287D01*
X136530518Y-91631282D01*
X136418717Y-91519481D01*
X136418709Y-91519475D01*
X136281790Y-91440426D01*
X136281786Y-91440424D01*
X136281784Y-91440423D01*
X136129057Y-91399500D01*
X135970943Y-91399500D01*
X135818216Y-91440423D01*
X135818209Y-91440426D01*
X135681290Y-91519475D01*
X135681282Y-91519481D01*
X135569481Y-91631282D01*
X135569475Y-91631290D01*
X135490426Y-91768209D01*
X135490423Y-91768216D01*
X135449500Y-91920943D01*
X130962717Y-91920943D01*
X131099197Y-91784463D01*
X131099199Y-91784459D01*
X131099202Y-91784457D01*
X131179070Y-91674526D01*
X131219518Y-91618854D01*
X131312451Y-91436463D01*
X131375708Y-91241778D01*
X131407731Y-91039596D01*
X131407731Y-90834892D01*
X131375708Y-90632710D01*
X131336375Y-90511659D01*
X131334381Y-90441819D01*
X131366624Y-90385663D01*
X135910983Y-85841304D01*
X139389500Y-85841304D01*
X139389500Y-86018695D01*
X139424103Y-86192658D01*
X139424106Y-86192667D01*
X139491983Y-86356540D01*
X139491990Y-86356553D01*
X139590535Y-86504034D01*
X139590538Y-86504038D01*
X139715961Y-86629461D01*
X139715965Y-86629464D01*
X139863446Y-86728009D01*
X139863459Y-86728016D01*
X139984155Y-86778009D01*
X140027334Y-86795894D01*
X140027336Y-86795894D01*
X140027341Y-86795896D01*
X140201304Y-86830499D01*
X140201307Y-86830500D01*
X140201309Y-86830500D01*
X140378693Y-86830500D01*
X140378694Y-86830499D01*
X140436682Y-86818964D01*
X140552658Y-86795896D01*
X140552661Y-86795894D01*
X140552666Y-86795894D01*
X140716547Y-86728013D01*
X140864035Y-86629464D01*
X140989464Y-86504035D01*
X141088013Y-86356547D01*
X141155894Y-86192666D01*
X141190500Y-86018691D01*
X141190500Y-85891304D01*
X152679500Y-85891304D01*
X152679500Y-86068695D01*
X152714103Y-86242658D01*
X152714106Y-86242667D01*
X152781983Y-86406540D01*
X152781990Y-86406553D01*
X152880535Y-86554034D01*
X152880538Y-86554038D01*
X153005961Y-86679461D01*
X153005965Y-86679464D01*
X153153446Y-86778009D01*
X153153459Y-86778016D01*
X153276363Y-86828923D01*
X153317334Y-86845894D01*
X153317336Y-86845894D01*
X153317341Y-86845896D01*
X153491304Y-86880499D01*
X153491307Y-86880500D01*
X153491309Y-86880500D01*
X153668693Y-86880500D01*
X153668694Y-86880499D01*
X153726682Y-86868964D01*
X153842658Y-86845896D01*
X153842661Y-86845894D01*
X153842666Y-86845894D01*
X154006547Y-86778013D01*
X154154035Y-86679464D01*
X154279464Y-86554035D01*
X154378013Y-86406547D01*
X154445894Y-86242666D01*
X154455840Y-86192667D01*
X154480499Y-86068695D01*
X154480500Y-86068693D01*
X154480500Y-85891306D01*
X154480499Y-85891304D01*
X154445896Y-85717341D01*
X154445893Y-85717332D01*
X154378016Y-85553459D01*
X154378009Y-85553446D01*
X154279464Y-85405965D01*
X154279461Y-85405961D01*
X154154038Y-85280538D01*
X154154034Y-85280535D01*
X154006553Y-85181990D01*
X154006540Y-85181983D01*
X153842667Y-85114106D01*
X153842658Y-85114103D01*
X153668694Y-85079500D01*
X153668691Y-85079500D01*
X153491309Y-85079500D01*
X153491306Y-85079500D01*
X153317341Y-85114103D01*
X153317332Y-85114106D01*
X153153459Y-85181983D01*
X153153446Y-85181990D01*
X153005965Y-85280535D01*
X153005961Y-85280538D01*
X152880538Y-85405961D01*
X152880535Y-85405965D01*
X152781990Y-85553446D01*
X152781983Y-85553459D01*
X152714106Y-85717332D01*
X152714103Y-85717341D01*
X152679500Y-85891304D01*
X141190500Y-85891304D01*
X141190500Y-85841309D01*
X141190500Y-85841306D01*
X141190499Y-85841304D01*
X141155896Y-85667341D01*
X141155893Y-85667332D01*
X141088016Y-85503459D01*
X141088009Y-85503446D01*
X140989464Y-85355965D01*
X140989461Y-85355961D01*
X140864038Y-85230538D01*
X140864034Y-85230535D01*
X140716553Y-85131990D01*
X140716540Y-85131983D01*
X140552667Y-85064106D01*
X140552658Y-85064103D01*
X140378694Y-85029500D01*
X140378691Y-85029500D01*
X140201309Y-85029500D01*
X140201306Y-85029500D01*
X140027341Y-85064103D01*
X140027332Y-85064106D01*
X139863459Y-85131983D01*
X139863446Y-85131990D01*
X139715965Y-85230535D01*
X139715961Y-85230538D01*
X139590538Y-85355961D01*
X139590535Y-85355965D01*
X139491990Y-85503446D01*
X139491983Y-85503459D01*
X139424106Y-85667332D01*
X139424103Y-85667341D01*
X139389500Y-85841304D01*
X135910983Y-85841304D01*
X136798929Y-84953358D01*
X136811448Y-84942416D01*
X137005239Y-84794774D01*
X137015817Y-84787550D01*
X137236316Y-84653121D01*
X137247577Y-84647031D01*
X137480824Y-84536103D01*
X137492619Y-84531225D01*
X137736088Y-84445001D01*
X137748354Y-84441360D01*
X137999413Y-84380772D01*
X138011999Y-84378416D01*
X138267958Y-84344109D01*
X138280743Y-84343066D01*
X138467381Y-84337526D01*
X138487246Y-84338532D01*
G37*
%TD.AperFunction*%
%TA.AperFunction,Conductor*%
G36*
X148051576Y-106994483D02*
G01*
X148090308Y-107043364D01*
X148090926Y-107043003D01*
X148093472Y-107047356D01*
X148094680Y-107048881D01*
X148095403Y-107050658D01*
X148140439Y-107127664D01*
X148152082Y-107147571D01*
X148175381Y-107174460D01*
X148197838Y-107200376D01*
X148197848Y-107200387D01*
X148242564Y-107242548D01*
X148242566Y-107242549D01*
X148242570Y-107242553D01*
X148342646Y-107293439D01*
X148409685Y-107313124D01*
X148495757Y-107325500D01*
X153192096Y-107325500D01*
X153259135Y-107345185D01*
X153279777Y-107361819D01*
X153747660Y-107829702D01*
X153771992Y-107851558D01*
X153784308Y-107861483D01*
X153792674Y-107868224D01*
X153798172Y-107872551D01*
X153798175Y-107872553D01*
X153898251Y-107923439D01*
X153965290Y-107943124D01*
X154051362Y-107955500D01*
X154051365Y-107955500D01*
X154366500Y-107955500D01*
X154433539Y-107975185D01*
X154479294Y-108027989D01*
X154490500Y-108079500D01*
X154490500Y-111496060D01*
X154470815Y-111563099D01*
X154454181Y-111583741D01*
X151580711Y-114457211D01*
X151551312Y-114486610D01*
X151469209Y-114568712D01*
X151381609Y-114699814D01*
X151381602Y-114699827D01*
X151321264Y-114845498D01*
X151321261Y-114845510D01*
X151290500Y-115000153D01*
X151290500Y-115145500D01*
X151270815Y-115212539D01*
X151218011Y-115258294D01*
X151166500Y-115269500D01*
X151010943Y-115269500D01*
X150858216Y-115310423D01*
X150858209Y-115310426D01*
X150721290Y-115389475D01*
X150721282Y-115389481D01*
X150609481Y-115501282D01*
X150609475Y-115501290D01*
X150530426Y-115638209D01*
X150530423Y-115638216D01*
X150489500Y-115790943D01*
X150489500Y-115949056D01*
X150490398Y-115952407D01*
X150490328Y-115955344D01*
X150490561Y-115957113D01*
X150490285Y-115957149D01*
X150489802Y-115977401D01*
X150493361Y-116002147D01*
X150488985Y-116011727D01*
X150488735Y-116022257D01*
X150474722Y-116042960D01*
X150464336Y-116065703D01*
X150455474Y-116071397D01*
X150449572Y-116080119D01*
X150426591Y-116089960D01*
X150405558Y-116103477D01*
X150389702Y-116105756D01*
X150385344Y-116107623D01*
X150370623Y-116108500D01*
X150322362Y-116108500D01*
X150255323Y-116088815D01*
X150209568Y-116036011D01*
X150198416Y-115988145D01*
X150197451Y-115955344D01*
X150197068Y-115942328D01*
X150167621Y-115851957D01*
X150162287Y-115835586D01*
X150162283Y-115835576D01*
X150128798Y-115774254D01*
X150076698Y-115704658D01*
X150076693Y-115704653D01*
X150076690Y-115704648D01*
X150076686Y-115704644D01*
X150076680Y-115704637D01*
X149062353Y-114690311D01*
X149062340Y-114690298D01*
X149038008Y-114668442D01*
X149034708Y-114665783D01*
X149017325Y-114651775D01*
X149011827Y-114647448D01*
X149011825Y-114647447D01*
X148911747Y-114596560D01*
X148844716Y-114576877D01*
X148844710Y-114576876D01*
X148758638Y-114564500D01*
X148758635Y-114564500D01*
X147243500Y-114564500D01*
X147176461Y-114544815D01*
X147130706Y-114492011D01*
X147119500Y-114440500D01*
X147119500Y-113300943D01*
X148569500Y-113300943D01*
X148569500Y-113459057D01*
X148605319Y-113592733D01*
X148610423Y-113611783D01*
X148610426Y-113611790D01*
X148689475Y-113748709D01*
X148689479Y-113748714D01*
X148689480Y-113748716D01*
X148801284Y-113860520D01*
X148801286Y-113860521D01*
X148801290Y-113860524D01*
X148862178Y-113895677D01*
X148938216Y-113939577D01*
X149090943Y-113980500D01*
X149090945Y-113980500D01*
X149249055Y-113980500D01*
X149249057Y-113980500D01*
X149401784Y-113939577D01*
X149538716Y-113860520D01*
X149650520Y-113748716D01*
X149729577Y-113611784D01*
X149770500Y-113459057D01*
X149770500Y-113300943D01*
X149729577Y-113148216D01*
X149728626Y-113146568D01*
X149650524Y-113011290D01*
X149650518Y-113011282D01*
X149538717Y-112899481D01*
X149538709Y-112899475D01*
X149401790Y-112820426D01*
X149401786Y-112820424D01*
X149401784Y-112820423D01*
X149249057Y-112779500D01*
X149090943Y-112779500D01*
X148938216Y-112820423D01*
X148938209Y-112820426D01*
X148801290Y-112899475D01*
X148801282Y-112899481D01*
X148689481Y-113011282D01*
X148689475Y-113011290D01*
X148610426Y-113148209D01*
X148610423Y-113148216D01*
X148569500Y-113300943D01*
X147119500Y-113300943D01*
X147119500Y-113084500D01*
X147139185Y-113017461D01*
X147191989Y-112971706D01*
X147243500Y-112960500D01*
X147399055Y-112960500D01*
X147399057Y-112960500D01*
X147551784Y-112919577D01*
X147688716Y-112840520D01*
X147800520Y-112728716D01*
X147879577Y-112591784D01*
X147920500Y-112439057D01*
X147920500Y-112412609D01*
X147940185Y-112345570D01*
X147956819Y-112324928D01*
X148219928Y-112061819D01*
X148281251Y-112028334D01*
X148307609Y-112025500D01*
X152144902Y-112025500D01*
X152211941Y-112045185D01*
X152232583Y-112061819D01*
X152261284Y-112090520D01*
X152261286Y-112090521D01*
X152261290Y-112090524D01*
X152395859Y-112168216D01*
X152398216Y-112169577D01*
X152550943Y-112210500D01*
X152550945Y-112210500D01*
X152709055Y-112210500D01*
X152709057Y-112210500D01*
X152861784Y-112169577D01*
X152998716Y-112090520D01*
X153110520Y-111978716D01*
X153189577Y-111841784D01*
X153230500Y-111689057D01*
X153230500Y-111530943D01*
X153189577Y-111378216D01*
X153111907Y-111243686D01*
X153110524Y-111241290D01*
X153110518Y-111241282D01*
X152998717Y-111129481D01*
X152998709Y-111129475D01*
X152861790Y-111050426D01*
X152861786Y-111050424D01*
X152861784Y-111050423D01*
X152709057Y-111009500D01*
X152550943Y-111009500D01*
X152398216Y-111050423D01*
X152398209Y-111050426D01*
X152261290Y-111129475D01*
X152261282Y-111129481D01*
X152252583Y-111138181D01*
X152191260Y-111171666D01*
X152164902Y-111174500D01*
X148521312Y-111174500D01*
X148454273Y-111154815D01*
X148408518Y-111102011D01*
X148398574Y-111032853D01*
X148427599Y-110969297D01*
X148433631Y-110962819D01*
X148880496Y-110515954D01*
X148880499Y-110515951D01*
X148913092Y-110459500D01*
X148946392Y-110401822D01*
X148980500Y-110274528D01*
X148980500Y-109550943D01*
X149859500Y-109550943D01*
X149859500Y-109709057D01*
X149896307Y-109846420D01*
X149900423Y-109861783D01*
X149900426Y-109861790D01*
X149979475Y-109998709D01*
X149979479Y-109998714D01*
X149979480Y-109998716D01*
X150091284Y-110110520D01*
X150091286Y-110110521D01*
X150091290Y-110110524D01*
X150200032Y-110173305D01*
X150228216Y-110189577D01*
X150380943Y-110230500D01*
X150380945Y-110230500D01*
X150539055Y-110230500D01*
X150539057Y-110230500D01*
X150691784Y-110189577D01*
X150828716Y-110110520D01*
X150847417Y-110091819D01*
X150908740Y-110058334D01*
X150935098Y-110055500D01*
X152084902Y-110055500D01*
X152151941Y-110075185D01*
X152172583Y-110091819D01*
X152241284Y-110160520D01*
X152241286Y-110160521D01*
X152241290Y-110160524D01*
X152378209Y-110239573D01*
X152378216Y-110239577D01*
X152530943Y-110280500D01*
X152530945Y-110280500D01*
X152689055Y-110280500D01*
X152689057Y-110280500D01*
X152841784Y-110239577D01*
X152978716Y-110160520D01*
X153090520Y-110048716D01*
X153169577Y-109911784D01*
X153210500Y-109759057D01*
X153210500Y-109600943D01*
X153169577Y-109448216D01*
X153139238Y-109395667D01*
X153090524Y-109311290D01*
X153090518Y-109311282D01*
X152978717Y-109199481D01*
X152978709Y-109199475D01*
X152841790Y-109120426D01*
X152841786Y-109120424D01*
X152841784Y-109120423D01*
X152689057Y-109079500D01*
X152530943Y-109079500D01*
X152378216Y-109120423D01*
X152378215Y-109120423D01*
X152261362Y-109187888D01*
X152199363Y-109204500D01*
X150935098Y-109204500D01*
X150868059Y-109184815D01*
X150847417Y-109168181D01*
X150828717Y-109149481D01*
X150828709Y-109149475D01*
X150691790Y-109070426D01*
X150691786Y-109070424D01*
X150691784Y-109070423D01*
X150539057Y-109029500D01*
X150380943Y-109029500D01*
X150228216Y-109070423D01*
X150228209Y-109070426D01*
X150091290Y-109149475D01*
X150091282Y-109149481D01*
X149979481Y-109261282D01*
X149979475Y-109261290D01*
X149900426Y-109398209D01*
X149900423Y-109398216D01*
X149859500Y-109550943D01*
X148980500Y-109550943D01*
X148980500Y-108794108D01*
X148946392Y-108666814D01*
X148945044Y-108664480D01*
X148899501Y-108585597D01*
X148880500Y-108552686D01*
X148787314Y-108459500D01*
X148121087Y-107793273D01*
X148094207Y-107753044D01*
X148050778Y-107648195D01*
X148050771Y-107648182D01*
X147974114Y-107533458D01*
X147974111Y-107533454D01*
X147876545Y-107435888D01*
X147876541Y-107435885D01*
X147794531Y-107381087D01*
X147787055Y-107372142D01*
X147776762Y-107366675D01*
X147765060Y-107345822D01*
X147749726Y-107327474D01*
X147748273Y-107315909D01*
X147742569Y-107305744D01*
X147743998Y-107281872D01*
X147741019Y-107258149D01*
X147746155Y-107245857D01*
X147746746Y-107235999D01*
X147763301Y-107204829D01*
X147765833Y-107201362D01*
X147765836Y-107201361D01*
X147785499Y-107174450D01*
X147795712Y-107162211D01*
X147801448Y-107156176D01*
X147805897Y-107149311D01*
X147805896Y-107149310D01*
X147819911Y-107127686D01*
X147819925Y-107127664D01*
X147821800Y-107124771D01*
X147832074Y-107110712D01*
X147835330Y-107103905D01*
X147839431Y-107097580D01*
X147867533Y-107042838D01*
X147867533Y-107042836D01*
X147869510Y-107038986D01*
X147917638Y-106988336D01*
X147985509Y-106971745D01*
X148051576Y-106994483D01*
G37*
%TD.AperFunction*%
%TA.AperFunction,Conductor*%
G36*
X151106084Y-98152561D02*
G01*
X151172900Y-98172974D01*
X151218077Y-98226274D01*
X151227266Y-98295537D01*
X151207831Y-98345443D01*
X151159227Y-98418184D01*
X151159221Y-98418195D01*
X151106421Y-98545667D01*
X151106418Y-98545677D01*
X151079500Y-98681004D01*
X151079500Y-98681007D01*
X151079500Y-98818993D01*
X151079500Y-98818995D01*
X151079499Y-98818995D01*
X151106418Y-98954322D01*
X151106421Y-98954332D01*
X151159221Y-99081804D01*
X151159228Y-99081817D01*
X151235885Y-99196541D01*
X151235888Y-99196545D01*
X151333454Y-99294111D01*
X151333458Y-99294114D01*
X151448182Y-99370771D01*
X151448195Y-99370778D01*
X151575667Y-99423578D01*
X151575672Y-99423580D01*
X151575676Y-99423580D01*
X151575677Y-99423581D01*
X151711004Y-99450500D01*
X151711007Y-99450500D01*
X151848995Y-99450500D01*
X151940041Y-99432389D01*
X151984328Y-99423580D01*
X152105230Y-99373501D01*
X152111804Y-99370778D01*
X152111804Y-99370777D01*
X152111811Y-99370775D01*
X152226542Y-99294114D01*
X152324114Y-99196542D01*
X152400775Y-99081811D01*
X152453580Y-98954328D01*
X152475283Y-98845220D01*
X152480500Y-98818995D01*
X152480500Y-98681004D01*
X152453581Y-98545677D01*
X152453580Y-98545676D01*
X152453580Y-98545672D01*
X152416663Y-98456545D01*
X152400778Y-98418195D01*
X152400771Y-98418182D01*
X152362079Y-98360276D01*
X152341201Y-98293599D01*
X152359685Y-98226219D01*
X152411664Y-98179528D01*
X152466531Y-98167392D01*
X153467898Y-98178309D01*
X153534719Y-98198724D01*
X153579895Y-98252023D01*
X153589084Y-98321286D01*
X153559368Y-98384522D01*
X153513999Y-98416863D01*
X153480824Y-98430604D01*
X153480814Y-98430609D01*
X153349711Y-98518210D01*
X153349707Y-98518213D01*
X153238213Y-98629707D01*
X153238210Y-98629711D01*
X153150609Y-98760814D01*
X153150602Y-98760827D01*
X153090264Y-98906498D01*
X153090261Y-98906510D01*
X153059500Y-99061153D01*
X153059500Y-99218846D01*
X153090260Y-99373487D01*
X153090264Y-99373501D01*
X153150602Y-99519172D01*
X153150609Y-99519185D01*
X153238210Y-99650288D01*
X153238213Y-99650292D01*
X154454181Y-100866259D01*
X154487666Y-100927582D01*
X154490500Y-100953940D01*
X154490500Y-101461902D01*
X154470815Y-101528941D01*
X154418011Y-101574696D01*
X154348853Y-101584640D01*
X154285297Y-101555615D01*
X154278819Y-101549583D01*
X154238717Y-101509481D01*
X154238709Y-101509475D01*
X154101790Y-101430426D01*
X154101786Y-101430424D01*
X154101784Y-101430423D01*
X153949057Y-101389500D01*
X153790943Y-101389500D01*
X153638216Y-101430423D01*
X153638209Y-101430426D01*
X153501290Y-101509475D01*
X153501282Y-101509481D01*
X153389481Y-101621282D01*
X153389475Y-101621290D01*
X153310426Y-101758209D01*
X153310423Y-101758216D01*
X153269500Y-101910943D01*
X153269500Y-102069057D01*
X153300907Y-102186267D01*
X153310423Y-102221783D01*
X153310426Y-102221790D01*
X153389475Y-102358709D01*
X153389477Y-102358711D01*
X153389480Y-102358716D01*
X153501284Y-102470520D01*
X153501286Y-102470521D01*
X153501290Y-102470524D01*
X153632838Y-102546472D01*
X153638216Y-102549577D01*
X153790943Y-102590500D01*
X153790945Y-102590500D01*
X153949055Y-102590500D01*
X153949057Y-102590500D01*
X154101784Y-102549577D01*
X154238716Y-102470520D01*
X154278819Y-102430417D01*
X154340142Y-102396932D01*
X154409834Y-102401916D01*
X154465767Y-102443788D01*
X154490184Y-102509252D01*
X154490500Y-102518098D01*
X154490500Y-104219096D01*
X154470815Y-104286135D01*
X154418011Y-104331890D01*
X154348853Y-104341834D01*
X154285297Y-104312809D01*
X154278819Y-104306777D01*
X150531819Y-100559777D01*
X150498334Y-100498454D01*
X150495500Y-100472096D01*
X150495500Y-98271264D01*
X150515185Y-98204225D01*
X150567989Y-98158470D01*
X150620848Y-98147271D01*
X151106084Y-98152561D01*
G37*
%TD.AperFunction*%
%TD*%
D27*
X158781189Y-132117589D02*
G75*
G02*
X156696039Y-132856031I-2016189J2379989D01*
G01*
X138696039Y-132856039D02*
G75*
G02*
X136610893Y-132117584I-68939J3118439D01*
G01*
X171509111Y-119389666D02*
X158781189Y-132117588D01*
X122968638Y-117373186D02*
X122968638Y-99373186D01*
X136471192Y-84573283D02*
G75*
G02*
X138556342Y-83834835I2016208J-2380017D01*
G01*
X122968638Y-99373186D02*
G75*
G02*
X123743253Y-97301199I3119162J14686D01*
G01*
X138556342Y-83838454D02*
X156838789Y-83838454D01*
X171651861Y-97304825D02*
X158923939Y-84576903D01*
X136613961Y-132113961D02*
X123886039Y-119386039D01*
X172426483Y-117376806D02*
X172426483Y-99376806D01*
X123886039Y-119386039D02*
G75*
G02*
X122968694Y-117373184I2195261J2215939D01*
G01*
X156696039Y-132856039D02*
X138696039Y-132856039D01*
X172426483Y-117376813D02*
G75*
G02*
X171509128Y-119389684I-3112683J203113D01*
G01*
X123743270Y-97301205D02*
X136471192Y-84573283D01*
X156838789Y-83838453D02*
G75*
G02*
X158923924Y-84576921I68911J-3118447D01*
G01*
X171651862Y-97304825D02*
G75*
G02*
X172426456Y-99376806I-2344562J-2057275D01*
G01*
M02*
