%TF.GenerationSoftware,KiCad,Pcbnew,9.0.2*%
%TF.CreationDate,2025-08-04T17:32:57-07:00*%
%TF.ProjectId,AERoS,4145526f-532e-46b6-9963-61645f706362,rev?*%
%TF.SameCoordinates,Original*%
%TF.FileFunction,Legend,Top*%
%TF.FilePolarity,Positive*%
%FSLAX46Y46*%
G04 Gerber Fmt 4.6, Leading zero omitted, Abs format (unit mm)*
G04 Created by KiCad (PCBNEW 9.0.2) date 2025-08-04 17:32:57*
%MOMM*%
%LPD*%
G01*
G04 APERTURE LIST*
%ADD10C,0.200000*%
%ADD11C,0.400000*%
%ADD12C,0.150000*%
%ADD13C,0.062500*%
%ADD14C,0.125000*%
%ADD15C,0.093750*%
%ADD16C,0.508000*%
%ADD17C,0.152400*%
%ADD18C,0.120000*%
%ADD19C,0.100000*%
%ADD20C,0.250000*%
%ADD21C,0.127000*%
%ADD22C,0.000000*%
%TA.AperFunction,Profile*%
%ADD23C,0.050000*%
%TD*%
G04 APERTURE END LIST*
D10*
X152639653Y-125757823D02*
X152789250Y-125740606D01*
X152789250Y-125740606D02*
X152852532Y-125763639D01*
X152852532Y-125763639D02*
X152935939Y-125829830D01*
X152935939Y-125829830D02*
X152996313Y-125959302D01*
X152996313Y-125959302D02*
X152993405Y-126065742D01*
X152993405Y-126065742D02*
X152970372Y-126129024D01*
X152970372Y-126129024D02*
X152904182Y-126212431D01*
X152904182Y-126212431D02*
X152558922Y-126373428D01*
X152558922Y-126373428D02*
X152136303Y-125467121D01*
X152136303Y-125467121D02*
X152438406Y-125326248D01*
X152438406Y-125326248D02*
X152544846Y-125329156D01*
X152544846Y-125329156D02*
X152608128Y-125352189D01*
X152608128Y-125352189D02*
X152691535Y-125418379D01*
X152691535Y-125418379D02*
X152731784Y-125504694D01*
X152731784Y-125504694D02*
X152728876Y-125611134D01*
X152728876Y-125611134D02*
X152705843Y-125674416D01*
X152705843Y-125674416D02*
X152639653Y-125757823D01*
X152639653Y-125757823D02*
X152337550Y-125898696D01*
X153301324Y-125711990D02*
X153732899Y-125510743D01*
X153335757Y-126011184D02*
X153215241Y-124964004D01*
X153215241Y-124964004D02*
X153939962Y-125729439D01*
X153689974Y-124742632D02*
X154207864Y-124501136D01*
X154371537Y-125528192D02*
X153948919Y-124621884D01*
X154380494Y-124420637D02*
X154898385Y-124179141D01*
X155062058Y-125206197D02*
X154639439Y-124299889D01*
D11*
X130048742Y-99528665D02*
X129861528Y-99764575D01*
X129861528Y-99764575D02*
X129698661Y-100212048D01*
X129698661Y-100212048D02*
X129723009Y-100423611D01*
X129723009Y-100423611D02*
X129779930Y-100545678D01*
X129779930Y-100545678D02*
X129926346Y-100700320D01*
X129926346Y-100700320D02*
X130105335Y-100765466D01*
X130105335Y-100765466D02*
X130316897Y-100741119D01*
X130316897Y-100741119D02*
X130438965Y-100684197D01*
X130438965Y-100684197D02*
X130593606Y-100537782D01*
X130593606Y-100537782D02*
X130813394Y-100212377D01*
X130813394Y-100212377D02*
X130968035Y-100065961D01*
X130968035Y-100065961D02*
X131090103Y-100009040D01*
X131090103Y-100009040D02*
X131301666Y-99984692D01*
X131301666Y-99984692D02*
X131480655Y-100049839D01*
X131480655Y-100049839D02*
X131627071Y-100204480D01*
X131627071Y-100204480D02*
X131683992Y-100326548D01*
X131683992Y-100326548D02*
X131708340Y-100538110D01*
X131708340Y-100538110D02*
X131545473Y-100985583D01*
X131545473Y-100985583D02*
X131358258Y-101221493D01*
X130259647Y-101733784D02*
X130031634Y-102360246D01*
X128949474Y-102270423D02*
X129275207Y-101375477D01*
X129275207Y-101375477D02*
X131154593Y-102059517D01*
X131154593Y-102059517D02*
X130828859Y-102954463D01*
X128265434Y-104149808D02*
X129388392Y-103849080D01*
X128656314Y-103075874D02*
X130535699Y-103759914D01*
X130535699Y-103759914D02*
X130275112Y-104475870D01*
X130275112Y-104475870D02*
X130120471Y-104622286D01*
X130120471Y-104622286D02*
X129998403Y-104679207D01*
X129998403Y-104679207D02*
X129786841Y-104703555D01*
X129786841Y-104703555D02*
X129518357Y-104605835D01*
X129518357Y-104605835D02*
X129371941Y-104451194D01*
X129371941Y-104451194D02*
X129315020Y-104329126D01*
X129315020Y-104329126D02*
X129290672Y-104117563D01*
X129290672Y-104117563D02*
X129551259Y-103401607D01*
X129949379Y-105370815D02*
X127841980Y-105313237D01*
X127841980Y-105313237D02*
X129493352Y-106623739D01*
X129135045Y-107608179D02*
X129004752Y-107966157D01*
X129004752Y-107966157D02*
X128850110Y-108112573D01*
X128850110Y-108112573D02*
X128605975Y-108226415D01*
X128605975Y-108226415D02*
X128215423Y-108185616D01*
X128215423Y-108185616D02*
X127588961Y-107957603D01*
X127588961Y-107957603D02*
X127263557Y-107737815D01*
X127263557Y-107737815D02*
X127149714Y-107493679D01*
X127149714Y-107493679D02*
X127125366Y-107282117D01*
X127125366Y-107282117D02*
X127255660Y-106924139D01*
X127255660Y-106924139D02*
X127410301Y-106777723D01*
X127410301Y-106777723D02*
X127654437Y-106663881D01*
X127654437Y-106663881D02*
X128044988Y-106704680D01*
X128044988Y-106704680D02*
X128671450Y-106932693D01*
X128671450Y-106932693D02*
X128996855Y-107152481D01*
X128996855Y-107152481D02*
X129110697Y-107396617D01*
X129110697Y-107396617D02*
X129135045Y-107608179D01*
D12*
X153369047Y-117681009D02*
X153511904Y-117728628D01*
X153511904Y-117728628D02*
X153559523Y-117776247D01*
X153559523Y-117776247D02*
X153607142Y-117871485D01*
X153607142Y-117871485D02*
X153607142Y-118014342D01*
X153607142Y-118014342D02*
X153559523Y-118109580D01*
X153559523Y-118109580D02*
X153511904Y-118157200D01*
X153511904Y-118157200D02*
X153416666Y-118204819D01*
X153416666Y-118204819D02*
X153035714Y-118204819D01*
X153035714Y-118204819D02*
X153035714Y-117204819D01*
X153035714Y-117204819D02*
X153369047Y-117204819D01*
X153369047Y-117204819D02*
X153464285Y-117252438D01*
X153464285Y-117252438D02*
X153511904Y-117300057D01*
X153511904Y-117300057D02*
X153559523Y-117395295D01*
X153559523Y-117395295D02*
X153559523Y-117490533D01*
X153559523Y-117490533D02*
X153511904Y-117585771D01*
X153511904Y-117585771D02*
X153464285Y-117633390D01*
X153464285Y-117633390D02*
X153369047Y-117681009D01*
X153369047Y-117681009D02*
X153035714Y-117681009D01*
X153940476Y-117204819D02*
X154607142Y-117204819D01*
X154607142Y-117204819D02*
X153940476Y-118204819D01*
X153940476Y-118204819D02*
X154607142Y-118204819D01*
X155511904Y-118204819D02*
X154940476Y-118204819D01*
X155226190Y-118204819D02*
X155226190Y-117204819D01*
X155226190Y-117204819D02*
X155130952Y-117347676D01*
X155130952Y-117347676D02*
X155035714Y-117442914D01*
X155035714Y-117442914D02*
X154940476Y-117490533D01*
D13*
X136680440Y-105021428D02*
X136704250Y-105045237D01*
X136704250Y-105045237D02*
X136728059Y-105116666D01*
X136728059Y-105116666D02*
X136728059Y-105164285D01*
X136728059Y-105164285D02*
X136704250Y-105235713D01*
X136704250Y-105235713D02*
X136656630Y-105283332D01*
X136656630Y-105283332D02*
X136609011Y-105307142D01*
X136609011Y-105307142D02*
X136513773Y-105330951D01*
X136513773Y-105330951D02*
X136442345Y-105330951D01*
X136442345Y-105330951D02*
X136347107Y-105307142D01*
X136347107Y-105307142D02*
X136299488Y-105283332D01*
X136299488Y-105283332D02*
X136251869Y-105235713D01*
X136251869Y-105235713D02*
X136228059Y-105164285D01*
X136228059Y-105164285D02*
X136228059Y-105116666D01*
X136228059Y-105116666D02*
X136251869Y-105045237D01*
X136251869Y-105045237D02*
X136275678Y-105021428D01*
X136228059Y-104854761D02*
X136228059Y-104545237D01*
X136228059Y-104545237D02*
X136418535Y-104711904D01*
X136418535Y-104711904D02*
X136418535Y-104640475D01*
X136418535Y-104640475D02*
X136442345Y-104592856D01*
X136442345Y-104592856D02*
X136466154Y-104569047D01*
X136466154Y-104569047D02*
X136513773Y-104545237D01*
X136513773Y-104545237D02*
X136632821Y-104545237D01*
X136632821Y-104545237D02*
X136680440Y-104569047D01*
X136680440Y-104569047D02*
X136704250Y-104592856D01*
X136704250Y-104592856D02*
X136728059Y-104640475D01*
X136728059Y-104640475D02*
X136728059Y-104783332D01*
X136728059Y-104783332D02*
X136704250Y-104830951D01*
X136704250Y-104830951D02*
X136680440Y-104854761D01*
X136728059Y-104069047D02*
X136728059Y-104354761D01*
X136728059Y-104211904D02*
X136228059Y-104211904D01*
X136228059Y-104211904D02*
X136299488Y-104259523D01*
X136299488Y-104259523D02*
X136347107Y-104307142D01*
X136347107Y-104307142D02*
X136370916Y-104354761D01*
D12*
X137019693Y-102068830D02*
X137019693Y-102136174D01*
X137019693Y-102136174D02*
X136952349Y-102270861D01*
X136952349Y-102270861D02*
X136885006Y-102338204D01*
X136885006Y-102338204D02*
X136750319Y-102405548D01*
X136750319Y-102405548D02*
X136615632Y-102405548D01*
X136615632Y-102405548D02*
X136514617Y-102371876D01*
X136514617Y-102371876D02*
X136346258Y-102270861D01*
X136346258Y-102270861D02*
X136245243Y-102169846D01*
X136245243Y-102169846D02*
X136144227Y-102001487D01*
X136144227Y-102001487D02*
X136110556Y-101900472D01*
X136110556Y-101900472D02*
X136110556Y-101765785D01*
X136110556Y-101765785D02*
X136177899Y-101631098D01*
X136177899Y-101631098D02*
X136245243Y-101563754D01*
X136245243Y-101563754D02*
X136379930Y-101496411D01*
X136379930Y-101496411D02*
X136447273Y-101496411D01*
X136615632Y-101193365D02*
X137053365Y-100755632D01*
X137053365Y-100755632D02*
X137087036Y-101260708D01*
X137087036Y-101260708D02*
X137188052Y-101159693D01*
X137188052Y-101159693D02*
X137289067Y-101126021D01*
X137289067Y-101126021D02*
X137356410Y-101126021D01*
X137356410Y-101126021D02*
X137457426Y-101159693D01*
X137457426Y-101159693D02*
X137625784Y-101328052D01*
X137625784Y-101328052D02*
X137659456Y-101429067D01*
X137659456Y-101429067D02*
X137659456Y-101496411D01*
X137659456Y-101496411D02*
X137625784Y-101597426D01*
X137625784Y-101597426D02*
X137423754Y-101799456D01*
X137423754Y-101799456D02*
X137322739Y-101833128D01*
X137322739Y-101833128D02*
X137255395Y-101833128D01*
X137491098Y-100317899D02*
X137558441Y-100250556D01*
X137558441Y-100250556D02*
X137659456Y-100216884D01*
X137659456Y-100216884D02*
X137726800Y-100216884D01*
X137726800Y-100216884D02*
X137827815Y-100250556D01*
X137827815Y-100250556D02*
X137996174Y-100351571D01*
X137996174Y-100351571D02*
X138164533Y-100519930D01*
X138164533Y-100519930D02*
X138265548Y-100688288D01*
X138265548Y-100688288D02*
X138299220Y-100789304D01*
X138299220Y-100789304D02*
X138299220Y-100856647D01*
X138299220Y-100856647D02*
X138265548Y-100957662D01*
X138265548Y-100957662D02*
X138198204Y-101025006D01*
X138198204Y-101025006D02*
X138097189Y-101058678D01*
X138097189Y-101058678D02*
X138029846Y-101058678D01*
X138029846Y-101058678D02*
X137928830Y-101025006D01*
X137928830Y-101025006D02*
X137760472Y-100923991D01*
X137760472Y-100923991D02*
X137592113Y-100755632D01*
X137592113Y-100755632D02*
X137491098Y-100587273D01*
X137491098Y-100587273D02*
X137457426Y-100486258D01*
X137457426Y-100486258D02*
X137457426Y-100418914D01*
X137457426Y-100418914D02*
X137491098Y-100317899D01*
X137032142Y-103859580D02*
X136984523Y-103907200D01*
X136984523Y-103907200D02*
X136841666Y-103954819D01*
X136841666Y-103954819D02*
X136746428Y-103954819D01*
X136746428Y-103954819D02*
X136603571Y-103907200D01*
X136603571Y-103907200D02*
X136508333Y-103811961D01*
X136508333Y-103811961D02*
X136460714Y-103716723D01*
X136460714Y-103716723D02*
X136413095Y-103526247D01*
X136413095Y-103526247D02*
X136413095Y-103383390D01*
X136413095Y-103383390D02*
X136460714Y-103192914D01*
X136460714Y-103192914D02*
X136508333Y-103097676D01*
X136508333Y-103097676D02*
X136603571Y-103002438D01*
X136603571Y-103002438D02*
X136746428Y-102954819D01*
X136746428Y-102954819D02*
X136841666Y-102954819D01*
X136841666Y-102954819D02*
X136984523Y-103002438D01*
X136984523Y-103002438D02*
X137032142Y-103050057D01*
X137413095Y-103050057D02*
X137460714Y-103002438D01*
X137460714Y-103002438D02*
X137555952Y-102954819D01*
X137555952Y-102954819D02*
X137794047Y-102954819D01*
X137794047Y-102954819D02*
X137889285Y-103002438D01*
X137889285Y-103002438D02*
X137936904Y-103050057D01*
X137936904Y-103050057D02*
X137984523Y-103145295D01*
X137984523Y-103145295D02*
X137984523Y-103240533D01*
X137984523Y-103240533D02*
X137936904Y-103383390D01*
X137936904Y-103383390D02*
X137365476Y-103954819D01*
X137365476Y-103954819D02*
X137984523Y-103954819D01*
X138460714Y-103954819D02*
X138651190Y-103954819D01*
X138651190Y-103954819D02*
X138746428Y-103907200D01*
X138746428Y-103907200D02*
X138794047Y-103859580D01*
X138794047Y-103859580D02*
X138889285Y-103716723D01*
X138889285Y-103716723D02*
X138936904Y-103526247D01*
X138936904Y-103526247D02*
X138936904Y-103145295D01*
X138936904Y-103145295D02*
X138889285Y-103050057D01*
X138889285Y-103050057D02*
X138841666Y-103002438D01*
X138841666Y-103002438D02*
X138746428Y-102954819D01*
X138746428Y-102954819D02*
X138555952Y-102954819D01*
X138555952Y-102954819D02*
X138460714Y-103002438D01*
X138460714Y-103002438D02*
X138413095Y-103050057D01*
X138413095Y-103050057D02*
X138365476Y-103145295D01*
X138365476Y-103145295D02*
X138365476Y-103383390D01*
X138365476Y-103383390D02*
X138413095Y-103478628D01*
X138413095Y-103478628D02*
X138460714Y-103526247D01*
X138460714Y-103526247D02*
X138555952Y-103573866D01*
X138555952Y-103573866D02*
X138746428Y-103573866D01*
X138746428Y-103573866D02*
X138841666Y-103526247D01*
X138841666Y-103526247D02*
X138889285Y-103478628D01*
X138889285Y-103478628D02*
X138936904Y-103383390D01*
X145261905Y-90954819D02*
X145261905Y-89954819D01*
X145261905Y-89954819D02*
X145500000Y-89954819D01*
X145500000Y-89954819D02*
X145642857Y-90002438D01*
X145642857Y-90002438D02*
X145738095Y-90097676D01*
X145738095Y-90097676D02*
X145785714Y-90192914D01*
X145785714Y-90192914D02*
X145833333Y-90383390D01*
X145833333Y-90383390D02*
X145833333Y-90526247D01*
X145833333Y-90526247D02*
X145785714Y-90716723D01*
X145785714Y-90716723D02*
X145738095Y-90811961D01*
X145738095Y-90811961D02*
X145642857Y-90907200D01*
X145642857Y-90907200D02*
X145500000Y-90954819D01*
X145500000Y-90954819D02*
X145261905Y-90954819D01*
X146166667Y-89954819D02*
X146785714Y-89954819D01*
X146785714Y-89954819D02*
X146452381Y-90335771D01*
X146452381Y-90335771D02*
X146595238Y-90335771D01*
X146595238Y-90335771D02*
X146690476Y-90383390D01*
X146690476Y-90383390D02*
X146738095Y-90431009D01*
X146738095Y-90431009D02*
X146785714Y-90526247D01*
X146785714Y-90526247D02*
X146785714Y-90764342D01*
X146785714Y-90764342D02*
X146738095Y-90859580D01*
X146738095Y-90859580D02*
X146690476Y-90907200D01*
X146690476Y-90907200D02*
X146595238Y-90954819D01*
X146595238Y-90954819D02*
X146309524Y-90954819D01*
X146309524Y-90954819D02*
X146214286Y-90907200D01*
X146214286Y-90907200D02*
X146166667Y-90859580D01*
X155277142Y-101859580D02*
X155229523Y-101907200D01*
X155229523Y-101907200D02*
X155086666Y-101954819D01*
X155086666Y-101954819D02*
X154991428Y-101954819D01*
X154991428Y-101954819D02*
X154848571Y-101907200D01*
X154848571Y-101907200D02*
X154753333Y-101811961D01*
X154753333Y-101811961D02*
X154705714Y-101716723D01*
X154705714Y-101716723D02*
X154658095Y-101526247D01*
X154658095Y-101526247D02*
X154658095Y-101383390D01*
X154658095Y-101383390D02*
X154705714Y-101192914D01*
X154705714Y-101192914D02*
X154753333Y-101097676D01*
X154753333Y-101097676D02*
X154848571Y-101002438D01*
X154848571Y-101002438D02*
X154991428Y-100954819D01*
X154991428Y-100954819D02*
X155086666Y-100954819D01*
X155086666Y-100954819D02*
X155229523Y-101002438D01*
X155229523Y-101002438D02*
X155277142Y-101050057D01*
X155658095Y-101050057D02*
X155705714Y-101002438D01*
X155705714Y-101002438D02*
X155800952Y-100954819D01*
X155800952Y-100954819D02*
X156039047Y-100954819D01*
X156039047Y-100954819D02*
X156134285Y-101002438D01*
X156134285Y-101002438D02*
X156181904Y-101050057D01*
X156181904Y-101050057D02*
X156229523Y-101145295D01*
X156229523Y-101145295D02*
X156229523Y-101240533D01*
X156229523Y-101240533D02*
X156181904Y-101383390D01*
X156181904Y-101383390D02*
X155610476Y-101954819D01*
X155610476Y-101954819D02*
X156229523Y-101954819D01*
X157134285Y-100954819D02*
X156658095Y-100954819D01*
X156658095Y-100954819D02*
X156610476Y-101431009D01*
X156610476Y-101431009D02*
X156658095Y-101383390D01*
X156658095Y-101383390D02*
X156753333Y-101335771D01*
X156753333Y-101335771D02*
X156991428Y-101335771D01*
X156991428Y-101335771D02*
X157086666Y-101383390D01*
X157086666Y-101383390D02*
X157134285Y-101431009D01*
X157134285Y-101431009D02*
X157181904Y-101526247D01*
X157181904Y-101526247D02*
X157181904Y-101764342D01*
X157181904Y-101764342D02*
X157134285Y-101859580D01*
X157134285Y-101859580D02*
X157086666Y-101907200D01*
X157086666Y-101907200D02*
X156991428Y-101954819D01*
X156991428Y-101954819D02*
X156753333Y-101954819D01*
X156753333Y-101954819D02*
X156658095Y-101907200D01*
X156658095Y-101907200D02*
X156610476Y-101859580D01*
X144617142Y-94104819D02*
X144283809Y-93628628D01*
X144045714Y-94104819D02*
X144045714Y-93104819D01*
X144045714Y-93104819D02*
X144426666Y-93104819D01*
X144426666Y-93104819D02*
X144521904Y-93152438D01*
X144521904Y-93152438D02*
X144569523Y-93200057D01*
X144569523Y-93200057D02*
X144617142Y-93295295D01*
X144617142Y-93295295D02*
X144617142Y-93438152D01*
X144617142Y-93438152D02*
X144569523Y-93533390D01*
X144569523Y-93533390D02*
X144521904Y-93581009D01*
X144521904Y-93581009D02*
X144426666Y-93628628D01*
X144426666Y-93628628D02*
X144045714Y-93628628D01*
X144950476Y-93104819D02*
X145569523Y-93104819D01*
X145569523Y-93104819D02*
X145236190Y-93485771D01*
X145236190Y-93485771D02*
X145379047Y-93485771D01*
X145379047Y-93485771D02*
X145474285Y-93533390D01*
X145474285Y-93533390D02*
X145521904Y-93581009D01*
X145521904Y-93581009D02*
X145569523Y-93676247D01*
X145569523Y-93676247D02*
X145569523Y-93914342D01*
X145569523Y-93914342D02*
X145521904Y-94009580D01*
X145521904Y-94009580D02*
X145474285Y-94057200D01*
X145474285Y-94057200D02*
X145379047Y-94104819D01*
X145379047Y-94104819D02*
X145093333Y-94104819D01*
X145093333Y-94104819D02*
X144998095Y-94057200D01*
X144998095Y-94057200D02*
X144950476Y-94009580D01*
X146521904Y-94104819D02*
X145950476Y-94104819D01*
X146236190Y-94104819D02*
X146236190Y-93104819D01*
X146236190Y-93104819D02*
X146140952Y-93247676D01*
X146140952Y-93247676D02*
X146045714Y-93342914D01*
X146045714Y-93342914D02*
X145950476Y-93390533D01*
D13*
X141478571Y-113820440D02*
X141454762Y-113844250D01*
X141454762Y-113844250D02*
X141383333Y-113868059D01*
X141383333Y-113868059D02*
X141335714Y-113868059D01*
X141335714Y-113868059D02*
X141264286Y-113844250D01*
X141264286Y-113844250D02*
X141216667Y-113796630D01*
X141216667Y-113796630D02*
X141192857Y-113749011D01*
X141192857Y-113749011D02*
X141169048Y-113653773D01*
X141169048Y-113653773D02*
X141169048Y-113582345D01*
X141169048Y-113582345D02*
X141192857Y-113487107D01*
X141192857Y-113487107D02*
X141216667Y-113439488D01*
X141216667Y-113439488D02*
X141264286Y-113391869D01*
X141264286Y-113391869D02*
X141335714Y-113368059D01*
X141335714Y-113368059D02*
X141383333Y-113368059D01*
X141383333Y-113368059D02*
X141454762Y-113391869D01*
X141454762Y-113391869D02*
X141478571Y-113415678D01*
X141669048Y-113415678D02*
X141692857Y-113391869D01*
X141692857Y-113391869D02*
X141740476Y-113368059D01*
X141740476Y-113368059D02*
X141859524Y-113368059D01*
X141859524Y-113368059D02*
X141907143Y-113391869D01*
X141907143Y-113391869D02*
X141930952Y-113415678D01*
X141930952Y-113415678D02*
X141954762Y-113463297D01*
X141954762Y-113463297D02*
X141954762Y-113510916D01*
X141954762Y-113510916D02*
X141930952Y-113582345D01*
X141930952Y-113582345D02*
X141645238Y-113868059D01*
X141645238Y-113868059D02*
X141954762Y-113868059D01*
X142383333Y-113534726D02*
X142383333Y-113868059D01*
X142264285Y-113344250D02*
X142145238Y-113701392D01*
X142145238Y-113701392D02*
X142454761Y-113701392D01*
X141918571Y-95228059D02*
X141751905Y-94989964D01*
X141632857Y-95228059D02*
X141632857Y-94728059D01*
X141632857Y-94728059D02*
X141823333Y-94728059D01*
X141823333Y-94728059D02*
X141870952Y-94751869D01*
X141870952Y-94751869D02*
X141894762Y-94775678D01*
X141894762Y-94775678D02*
X141918571Y-94823297D01*
X141918571Y-94823297D02*
X141918571Y-94894726D01*
X141918571Y-94894726D02*
X141894762Y-94942345D01*
X141894762Y-94942345D02*
X141870952Y-94966154D01*
X141870952Y-94966154D02*
X141823333Y-94989964D01*
X141823333Y-94989964D02*
X141632857Y-94989964D01*
X142109048Y-94775678D02*
X142132857Y-94751869D01*
X142132857Y-94751869D02*
X142180476Y-94728059D01*
X142180476Y-94728059D02*
X142299524Y-94728059D01*
X142299524Y-94728059D02*
X142347143Y-94751869D01*
X142347143Y-94751869D02*
X142370952Y-94775678D01*
X142370952Y-94775678D02*
X142394762Y-94823297D01*
X142394762Y-94823297D02*
X142394762Y-94870916D01*
X142394762Y-94870916D02*
X142370952Y-94942345D01*
X142370952Y-94942345D02*
X142085238Y-95228059D01*
X142085238Y-95228059D02*
X142394762Y-95228059D01*
X142823333Y-94894726D02*
X142823333Y-95228059D01*
X142704285Y-94704250D02*
X142585238Y-95061392D01*
X142585238Y-95061392D02*
X142894761Y-95061392D01*
D14*
X148544395Y-117198666D02*
X148611738Y-117333353D01*
X148611738Y-117333353D02*
X148611738Y-117400696D01*
X148611738Y-117400696D02*
X148578066Y-117501712D01*
X148578066Y-117501712D02*
X148477051Y-117602727D01*
X148477051Y-117602727D02*
X148376036Y-117636399D01*
X148376036Y-117636399D02*
X148308692Y-117636399D01*
X148308692Y-117636399D02*
X148207677Y-117602727D01*
X148207677Y-117602727D02*
X147938303Y-117333353D01*
X147938303Y-117333353D02*
X148645410Y-116626246D01*
X148645410Y-116626246D02*
X148881112Y-116861948D01*
X148881112Y-116861948D02*
X148914784Y-116962964D01*
X148914784Y-116962964D02*
X148914784Y-117030307D01*
X148914784Y-117030307D02*
X148881112Y-117131322D01*
X148881112Y-117131322D02*
X148813769Y-117198666D01*
X148813769Y-117198666D02*
X148712753Y-117232338D01*
X148712753Y-117232338D02*
X148645410Y-117232338D01*
X148645410Y-117232338D02*
X148544395Y-117198666D01*
X148544395Y-117198666D02*
X148308692Y-116962964D01*
X148645410Y-118040460D02*
X149352517Y-117333353D01*
X149352517Y-117333353D02*
X149083143Y-118074131D01*
X149083143Y-118074131D02*
X149823921Y-117804757D01*
X149823921Y-117804757D02*
X149116814Y-118511864D01*
X149453532Y-118848582D02*
X150160639Y-118141475D01*
X150160639Y-118141475D02*
X150430013Y-118410849D01*
X150430013Y-118410849D02*
X150463684Y-118511864D01*
X150463684Y-118511864D02*
X150463684Y-118579208D01*
X150463684Y-118579208D02*
X150430013Y-118680223D01*
X150430013Y-118680223D02*
X150328997Y-118781238D01*
X150328997Y-118781238D02*
X150227982Y-118814910D01*
X150227982Y-118814910D02*
X150160639Y-118814910D01*
X150160639Y-118814910D02*
X150059623Y-118781238D01*
X150059623Y-118781238D02*
X149790249Y-118511864D01*
X150800402Y-118781238D02*
X151238135Y-119218971D01*
X151238135Y-119218971D02*
X150733058Y-119252643D01*
X150733058Y-119252643D02*
X150834074Y-119353658D01*
X150834074Y-119353658D02*
X150867745Y-119454673D01*
X150867745Y-119454673D02*
X150867745Y-119522017D01*
X150867745Y-119522017D02*
X150834074Y-119623032D01*
X150834074Y-119623032D02*
X150665715Y-119791391D01*
X150665715Y-119791391D02*
X150564700Y-119825062D01*
X150564700Y-119825062D02*
X150497356Y-119825062D01*
X150497356Y-119825062D02*
X150396341Y-119791391D01*
X150396341Y-119791391D02*
X150194310Y-119589360D01*
X150194310Y-119589360D02*
X150160639Y-119488345D01*
X150160639Y-119488345D02*
X150160639Y-119421001D01*
X150867745Y-120262795D02*
X151002432Y-120397482D01*
X151002432Y-120397482D02*
X151103448Y-120431154D01*
X151103448Y-120431154D02*
X151170791Y-120431154D01*
X151170791Y-120431154D02*
X151339150Y-120397482D01*
X151339150Y-120397482D02*
X151507509Y-120296467D01*
X151507509Y-120296467D02*
X151776883Y-120027093D01*
X151776883Y-120027093D02*
X151810554Y-119926078D01*
X151810554Y-119926078D02*
X151810554Y-119858734D01*
X151810554Y-119858734D02*
X151776883Y-119757719D01*
X151776883Y-119757719D02*
X151642196Y-119623032D01*
X151642196Y-119623032D02*
X151541180Y-119589360D01*
X151541180Y-119589360D02*
X151473837Y-119589360D01*
X151473837Y-119589360D02*
X151372822Y-119623032D01*
X151372822Y-119623032D02*
X151204463Y-119791391D01*
X151204463Y-119791391D02*
X151170791Y-119892406D01*
X151170791Y-119892406D02*
X151170791Y-119959749D01*
X151170791Y-119959749D02*
X151204463Y-120060765D01*
X151204463Y-120060765D02*
X151339150Y-120195452D01*
X151339150Y-120195452D02*
X151440165Y-120229123D01*
X151440165Y-120229123D02*
X151507509Y-120229123D01*
X151507509Y-120229123D02*
X151608524Y-120195452D01*
X152349302Y-120330139D02*
X152416646Y-120397482D01*
X152416646Y-120397482D02*
X152450318Y-120498497D01*
X152450318Y-120498497D02*
X152450318Y-120565841D01*
X152450318Y-120565841D02*
X152416646Y-120666856D01*
X152416646Y-120666856D02*
X152315631Y-120835215D01*
X152315631Y-120835215D02*
X152147272Y-121003574D01*
X152147272Y-121003574D02*
X151978913Y-121104589D01*
X151978913Y-121104589D02*
X151877898Y-121138261D01*
X151877898Y-121138261D02*
X151810554Y-121138261D01*
X151810554Y-121138261D02*
X151709539Y-121104589D01*
X151709539Y-121104589D02*
X151642196Y-121037245D01*
X151642196Y-121037245D02*
X151608524Y-120936230D01*
X151608524Y-120936230D02*
X151608524Y-120868887D01*
X151608524Y-120868887D02*
X151642196Y-120767871D01*
X151642196Y-120767871D02*
X151743211Y-120599513D01*
X151743211Y-120599513D02*
X151911570Y-120431154D01*
X151911570Y-120431154D02*
X152079928Y-120330139D01*
X152079928Y-120330139D02*
X152180944Y-120296467D01*
X152180944Y-120296467D02*
X152248287Y-120296467D01*
X152248287Y-120296467D02*
X152349302Y-120330139D01*
X152517661Y-121912711D02*
X152180944Y-121575994D01*
X152180944Y-121575994D02*
X152888051Y-120868887D01*
D12*
X138459580Y-110192857D02*
X138507200Y-110240476D01*
X138507200Y-110240476D02*
X138554819Y-110383333D01*
X138554819Y-110383333D02*
X138554819Y-110478571D01*
X138554819Y-110478571D02*
X138507200Y-110621428D01*
X138507200Y-110621428D02*
X138411961Y-110716666D01*
X138411961Y-110716666D02*
X138316723Y-110764285D01*
X138316723Y-110764285D02*
X138126247Y-110811904D01*
X138126247Y-110811904D02*
X137983390Y-110811904D01*
X137983390Y-110811904D02*
X137792914Y-110764285D01*
X137792914Y-110764285D02*
X137697676Y-110716666D01*
X137697676Y-110716666D02*
X137602438Y-110621428D01*
X137602438Y-110621428D02*
X137554819Y-110478571D01*
X137554819Y-110478571D02*
X137554819Y-110383333D01*
X137554819Y-110383333D02*
X137602438Y-110240476D01*
X137602438Y-110240476D02*
X137650057Y-110192857D01*
X137650057Y-109811904D02*
X137602438Y-109764285D01*
X137602438Y-109764285D02*
X137554819Y-109669047D01*
X137554819Y-109669047D02*
X137554819Y-109430952D01*
X137554819Y-109430952D02*
X137602438Y-109335714D01*
X137602438Y-109335714D02*
X137650057Y-109288095D01*
X137650057Y-109288095D02*
X137745295Y-109240476D01*
X137745295Y-109240476D02*
X137840533Y-109240476D01*
X137840533Y-109240476D02*
X137983390Y-109288095D01*
X137983390Y-109288095D02*
X138554819Y-109859523D01*
X138554819Y-109859523D02*
X138554819Y-109240476D01*
X137554819Y-108383333D02*
X137554819Y-108573809D01*
X137554819Y-108573809D02*
X137602438Y-108669047D01*
X137602438Y-108669047D02*
X137650057Y-108716666D01*
X137650057Y-108716666D02*
X137792914Y-108811904D01*
X137792914Y-108811904D02*
X137983390Y-108859523D01*
X137983390Y-108859523D02*
X138364342Y-108859523D01*
X138364342Y-108859523D02*
X138459580Y-108811904D01*
X138459580Y-108811904D02*
X138507200Y-108764285D01*
X138507200Y-108764285D02*
X138554819Y-108669047D01*
X138554819Y-108669047D02*
X138554819Y-108478571D01*
X138554819Y-108478571D02*
X138507200Y-108383333D01*
X138507200Y-108383333D02*
X138459580Y-108335714D01*
X138459580Y-108335714D02*
X138364342Y-108288095D01*
X138364342Y-108288095D02*
X138126247Y-108288095D01*
X138126247Y-108288095D02*
X138031009Y-108335714D01*
X138031009Y-108335714D02*
X137983390Y-108383333D01*
X137983390Y-108383333D02*
X137935771Y-108478571D01*
X137935771Y-108478571D02*
X137935771Y-108669047D01*
X137935771Y-108669047D02*
X137983390Y-108764285D01*
X137983390Y-108764285D02*
X138031009Y-108811904D01*
X138031009Y-108811904D02*
X138126247Y-108859523D01*
X152511905Y-114704819D02*
X152511905Y-113704819D01*
X152511905Y-113704819D02*
X152750000Y-113704819D01*
X152750000Y-113704819D02*
X152892857Y-113752438D01*
X152892857Y-113752438D02*
X152988095Y-113847676D01*
X152988095Y-113847676D02*
X153035714Y-113942914D01*
X153035714Y-113942914D02*
X153083333Y-114133390D01*
X153083333Y-114133390D02*
X153083333Y-114276247D01*
X153083333Y-114276247D02*
X153035714Y-114466723D01*
X153035714Y-114466723D02*
X152988095Y-114561961D01*
X152988095Y-114561961D02*
X152892857Y-114657200D01*
X152892857Y-114657200D02*
X152750000Y-114704819D01*
X152750000Y-114704819D02*
X152511905Y-114704819D01*
X153988095Y-113704819D02*
X153511905Y-113704819D01*
X153511905Y-113704819D02*
X153464286Y-114181009D01*
X153464286Y-114181009D02*
X153511905Y-114133390D01*
X153511905Y-114133390D02*
X153607143Y-114085771D01*
X153607143Y-114085771D02*
X153845238Y-114085771D01*
X153845238Y-114085771D02*
X153940476Y-114133390D01*
X153940476Y-114133390D02*
X153988095Y-114181009D01*
X153988095Y-114181009D02*
X154035714Y-114276247D01*
X154035714Y-114276247D02*
X154035714Y-114514342D01*
X154035714Y-114514342D02*
X153988095Y-114609580D01*
X153988095Y-114609580D02*
X153940476Y-114657200D01*
X153940476Y-114657200D02*
X153845238Y-114704819D01*
X153845238Y-114704819D02*
X153607143Y-114704819D01*
X153607143Y-114704819D02*
X153511905Y-114657200D01*
X153511905Y-114657200D02*
X153464286Y-114609580D01*
X135289578Y-112232856D02*
X135337198Y-112280475D01*
X135337198Y-112280475D02*
X135384817Y-112423332D01*
X135384817Y-112423332D02*
X135384817Y-112518570D01*
X135384817Y-112518570D02*
X135337198Y-112661427D01*
X135337198Y-112661427D02*
X135241959Y-112756665D01*
X135241959Y-112756665D02*
X135146721Y-112804284D01*
X135146721Y-112804284D02*
X134956245Y-112851903D01*
X134956245Y-112851903D02*
X134813388Y-112851903D01*
X134813388Y-112851903D02*
X134622912Y-112804284D01*
X134622912Y-112804284D02*
X134527674Y-112756665D01*
X134527674Y-112756665D02*
X134432436Y-112661427D01*
X134432436Y-112661427D02*
X134384817Y-112518570D01*
X134384817Y-112518570D02*
X134384817Y-112423332D01*
X134384817Y-112423332D02*
X134432436Y-112280475D01*
X134432436Y-112280475D02*
X134480055Y-112232856D01*
X134480055Y-111851903D02*
X134432436Y-111804284D01*
X134432436Y-111804284D02*
X134384817Y-111709046D01*
X134384817Y-111709046D02*
X134384817Y-111470951D01*
X134384817Y-111470951D02*
X134432436Y-111375713D01*
X134432436Y-111375713D02*
X134480055Y-111328094D01*
X134480055Y-111328094D02*
X134575293Y-111280475D01*
X134575293Y-111280475D02*
X134670531Y-111280475D01*
X134670531Y-111280475D02*
X134813388Y-111328094D01*
X134813388Y-111328094D02*
X135384817Y-111899522D01*
X135384817Y-111899522D02*
X135384817Y-111280475D01*
X134813388Y-110709046D02*
X134765769Y-110804284D01*
X134765769Y-110804284D02*
X134718150Y-110851903D01*
X134718150Y-110851903D02*
X134622912Y-110899522D01*
X134622912Y-110899522D02*
X134575293Y-110899522D01*
X134575293Y-110899522D02*
X134480055Y-110851903D01*
X134480055Y-110851903D02*
X134432436Y-110804284D01*
X134432436Y-110804284D02*
X134384817Y-110709046D01*
X134384817Y-110709046D02*
X134384817Y-110518570D01*
X134384817Y-110518570D02*
X134432436Y-110423332D01*
X134432436Y-110423332D02*
X134480055Y-110375713D01*
X134480055Y-110375713D02*
X134575293Y-110328094D01*
X134575293Y-110328094D02*
X134622912Y-110328094D01*
X134622912Y-110328094D02*
X134718150Y-110375713D01*
X134718150Y-110375713D02*
X134765769Y-110423332D01*
X134765769Y-110423332D02*
X134813388Y-110518570D01*
X134813388Y-110518570D02*
X134813388Y-110709046D01*
X134813388Y-110709046D02*
X134861007Y-110804284D01*
X134861007Y-110804284D02*
X134908626Y-110851903D01*
X134908626Y-110851903D02*
X135003864Y-110899522D01*
X135003864Y-110899522D02*
X135194340Y-110899522D01*
X135194340Y-110899522D02*
X135289578Y-110851903D01*
X135289578Y-110851903D02*
X135337198Y-110804284D01*
X135337198Y-110804284D02*
X135384817Y-110709046D01*
X135384817Y-110709046D02*
X135384817Y-110518570D01*
X135384817Y-110518570D02*
X135337198Y-110423332D01*
X135337198Y-110423332D02*
X135289578Y-110375713D01*
X135289578Y-110375713D02*
X135194340Y-110328094D01*
X135194340Y-110328094D02*
X135003864Y-110328094D01*
X135003864Y-110328094D02*
X134908626Y-110375713D01*
X134908626Y-110375713D02*
X134861007Y-110423332D01*
X134861007Y-110423332D02*
X134813388Y-110518570D01*
X136929578Y-112222856D02*
X136977198Y-112270475D01*
X136977198Y-112270475D02*
X137024817Y-112413332D01*
X137024817Y-112413332D02*
X137024817Y-112508570D01*
X137024817Y-112508570D02*
X136977198Y-112651427D01*
X136977198Y-112651427D02*
X136881959Y-112746665D01*
X136881959Y-112746665D02*
X136786721Y-112794284D01*
X136786721Y-112794284D02*
X136596245Y-112841903D01*
X136596245Y-112841903D02*
X136453388Y-112841903D01*
X136453388Y-112841903D02*
X136262912Y-112794284D01*
X136262912Y-112794284D02*
X136167674Y-112746665D01*
X136167674Y-112746665D02*
X136072436Y-112651427D01*
X136072436Y-112651427D02*
X136024817Y-112508570D01*
X136024817Y-112508570D02*
X136024817Y-112413332D01*
X136024817Y-112413332D02*
X136072436Y-112270475D01*
X136072436Y-112270475D02*
X136120055Y-112222856D01*
X136120055Y-111841903D02*
X136072436Y-111794284D01*
X136072436Y-111794284D02*
X136024817Y-111699046D01*
X136024817Y-111699046D02*
X136024817Y-111460951D01*
X136024817Y-111460951D02*
X136072436Y-111365713D01*
X136072436Y-111365713D02*
X136120055Y-111318094D01*
X136120055Y-111318094D02*
X136215293Y-111270475D01*
X136215293Y-111270475D02*
X136310531Y-111270475D01*
X136310531Y-111270475D02*
X136453388Y-111318094D01*
X136453388Y-111318094D02*
X137024817Y-111889522D01*
X137024817Y-111889522D02*
X137024817Y-111270475D01*
X136024817Y-110937141D02*
X136024817Y-110270475D01*
X136024817Y-110270475D02*
X137024817Y-110699046D01*
X155304761Y-112250057D02*
X155209523Y-112202438D01*
X155209523Y-112202438D02*
X155114285Y-112107200D01*
X155114285Y-112107200D02*
X154971428Y-111964342D01*
X154971428Y-111964342D02*
X154876190Y-111916723D01*
X154876190Y-111916723D02*
X154780952Y-111916723D01*
X154828571Y-112154819D02*
X154733333Y-112107200D01*
X154733333Y-112107200D02*
X154638095Y-112011961D01*
X154638095Y-112011961D02*
X154590476Y-111821485D01*
X154590476Y-111821485D02*
X154590476Y-111488152D01*
X154590476Y-111488152D02*
X154638095Y-111297676D01*
X154638095Y-111297676D02*
X154733333Y-111202438D01*
X154733333Y-111202438D02*
X154828571Y-111154819D01*
X154828571Y-111154819D02*
X155019047Y-111154819D01*
X155019047Y-111154819D02*
X155114285Y-111202438D01*
X155114285Y-111202438D02*
X155209523Y-111297676D01*
X155209523Y-111297676D02*
X155257142Y-111488152D01*
X155257142Y-111488152D02*
X155257142Y-111821485D01*
X155257142Y-111821485D02*
X155209523Y-112011961D01*
X155209523Y-112011961D02*
X155114285Y-112107200D01*
X155114285Y-112107200D02*
X155019047Y-112154819D01*
X155019047Y-112154819D02*
X154828571Y-112154819D01*
X155590476Y-111154819D02*
X156257142Y-111154819D01*
X156257142Y-111154819D02*
X155828571Y-112154819D01*
X163607142Y-101704819D02*
X163273809Y-101228628D01*
X163035714Y-101704819D02*
X163035714Y-100704819D01*
X163035714Y-100704819D02*
X163416666Y-100704819D01*
X163416666Y-100704819D02*
X163511904Y-100752438D01*
X163511904Y-100752438D02*
X163559523Y-100800057D01*
X163559523Y-100800057D02*
X163607142Y-100895295D01*
X163607142Y-100895295D02*
X163607142Y-101038152D01*
X163607142Y-101038152D02*
X163559523Y-101133390D01*
X163559523Y-101133390D02*
X163511904Y-101181009D01*
X163511904Y-101181009D02*
X163416666Y-101228628D01*
X163416666Y-101228628D02*
X163035714Y-101228628D01*
X163988095Y-100800057D02*
X164035714Y-100752438D01*
X164035714Y-100752438D02*
X164130952Y-100704819D01*
X164130952Y-100704819D02*
X164369047Y-100704819D01*
X164369047Y-100704819D02*
X164464285Y-100752438D01*
X164464285Y-100752438D02*
X164511904Y-100800057D01*
X164511904Y-100800057D02*
X164559523Y-100895295D01*
X164559523Y-100895295D02*
X164559523Y-100990533D01*
X164559523Y-100990533D02*
X164511904Y-101133390D01*
X164511904Y-101133390D02*
X163940476Y-101704819D01*
X163940476Y-101704819D02*
X164559523Y-101704819D01*
X165130952Y-101133390D02*
X165035714Y-101085771D01*
X165035714Y-101085771D02*
X164988095Y-101038152D01*
X164988095Y-101038152D02*
X164940476Y-100942914D01*
X164940476Y-100942914D02*
X164940476Y-100895295D01*
X164940476Y-100895295D02*
X164988095Y-100800057D01*
X164988095Y-100800057D02*
X165035714Y-100752438D01*
X165035714Y-100752438D02*
X165130952Y-100704819D01*
X165130952Y-100704819D02*
X165321428Y-100704819D01*
X165321428Y-100704819D02*
X165416666Y-100752438D01*
X165416666Y-100752438D02*
X165464285Y-100800057D01*
X165464285Y-100800057D02*
X165511904Y-100895295D01*
X165511904Y-100895295D02*
X165511904Y-100942914D01*
X165511904Y-100942914D02*
X165464285Y-101038152D01*
X165464285Y-101038152D02*
X165416666Y-101085771D01*
X165416666Y-101085771D02*
X165321428Y-101133390D01*
X165321428Y-101133390D02*
X165130952Y-101133390D01*
X165130952Y-101133390D02*
X165035714Y-101181009D01*
X165035714Y-101181009D02*
X164988095Y-101228628D01*
X164988095Y-101228628D02*
X164940476Y-101323866D01*
X164940476Y-101323866D02*
X164940476Y-101514342D01*
X164940476Y-101514342D02*
X164988095Y-101609580D01*
X164988095Y-101609580D02*
X165035714Y-101657200D01*
X165035714Y-101657200D02*
X165130952Y-101704819D01*
X165130952Y-101704819D02*
X165321428Y-101704819D01*
X165321428Y-101704819D02*
X165416666Y-101657200D01*
X165416666Y-101657200D02*
X165464285Y-101609580D01*
X165464285Y-101609580D02*
X165511904Y-101514342D01*
X165511904Y-101514342D02*
X165511904Y-101323866D01*
X165511904Y-101323866D02*
X165464285Y-101228628D01*
X165464285Y-101228628D02*
X165416666Y-101181009D01*
X165416666Y-101181009D02*
X165321428Y-101133390D01*
X147707142Y-92009580D02*
X147659523Y-92057200D01*
X147659523Y-92057200D02*
X147516666Y-92104819D01*
X147516666Y-92104819D02*
X147421428Y-92104819D01*
X147421428Y-92104819D02*
X147278571Y-92057200D01*
X147278571Y-92057200D02*
X147183333Y-91961961D01*
X147183333Y-91961961D02*
X147135714Y-91866723D01*
X147135714Y-91866723D02*
X147088095Y-91676247D01*
X147088095Y-91676247D02*
X147088095Y-91533390D01*
X147088095Y-91533390D02*
X147135714Y-91342914D01*
X147135714Y-91342914D02*
X147183333Y-91247676D01*
X147183333Y-91247676D02*
X147278571Y-91152438D01*
X147278571Y-91152438D02*
X147421428Y-91104819D01*
X147421428Y-91104819D02*
X147516666Y-91104819D01*
X147516666Y-91104819D02*
X147659523Y-91152438D01*
X147659523Y-91152438D02*
X147707142Y-91200057D01*
X148040476Y-91104819D02*
X148659523Y-91104819D01*
X148659523Y-91104819D02*
X148326190Y-91485771D01*
X148326190Y-91485771D02*
X148469047Y-91485771D01*
X148469047Y-91485771D02*
X148564285Y-91533390D01*
X148564285Y-91533390D02*
X148611904Y-91581009D01*
X148611904Y-91581009D02*
X148659523Y-91676247D01*
X148659523Y-91676247D02*
X148659523Y-91914342D01*
X148659523Y-91914342D02*
X148611904Y-92009580D01*
X148611904Y-92009580D02*
X148564285Y-92057200D01*
X148564285Y-92057200D02*
X148469047Y-92104819D01*
X148469047Y-92104819D02*
X148183333Y-92104819D01*
X148183333Y-92104819D02*
X148088095Y-92057200D01*
X148088095Y-92057200D02*
X148040476Y-92009580D01*
X149564285Y-91104819D02*
X149088095Y-91104819D01*
X149088095Y-91104819D02*
X149040476Y-91581009D01*
X149040476Y-91581009D02*
X149088095Y-91533390D01*
X149088095Y-91533390D02*
X149183333Y-91485771D01*
X149183333Y-91485771D02*
X149421428Y-91485771D01*
X149421428Y-91485771D02*
X149516666Y-91533390D01*
X149516666Y-91533390D02*
X149564285Y-91581009D01*
X149564285Y-91581009D02*
X149611904Y-91676247D01*
X149611904Y-91676247D02*
X149611904Y-91914342D01*
X149611904Y-91914342D02*
X149564285Y-92009580D01*
X149564285Y-92009580D02*
X149516666Y-92057200D01*
X149516666Y-92057200D02*
X149421428Y-92104819D01*
X149421428Y-92104819D02*
X149183333Y-92104819D01*
X149183333Y-92104819D02*
X149088095Y-92057200D01*
X149088095Y-92057200D02*
X149040476Y-92009580D01*
X135649693Y-99398830D02*
X135649693Y-99466174D01*
X135649693Y-99466174D02*
X135582349Y-99600861D01*
X135582349Y-99600861D02*
X135515006Y-99668204D01*
X135515006Y-99668204D02*
X135380319Y-99735548D01*
X135380319Y-99735548D02*
X135245632Y-99735548D01*
X135245632Y-99735548D02*
X135144617Y-99701876D01*
X135144617Y-99701876D02*
X134976258Y-99600861D01*
X134976258Y-99600861D02*
X134875243Y-99499846D01*
X134875243Y-99499846D02*
X134774227Y-99331487D01*
X134774227Y-99331487D02*
X134740556Y-99230472D01*
X134740556Y-99230472D02*
X134740556Y-99095785D01*
X134740556Y-99095785D02*
X134807899Y-98961098D01*
X134807899Y-98961098D02*
X134875243Y-98893754D01*
X134875243Y-98893754D02*
X135009930Y-98826411D01*
X135009930Y-98826411D02*
X135077273Y-98826411D01*
X135346647Y-98557037D02*
X135346647Y-98489693D01*
X135346647Y-98489693D02*
X135380319Y-98388678D01*
X135380319Y-98388678D02*
X135548678Y-98220319D01*
X135548678Y-98220319D02*
X135649693Y-98186647D01*
X135649693Y-98186647D02*
X135717036Y-98186647D01*
X135717036Y-98186647D02*
X135818052Y-98220319D01*
X135818052Y-98220319D02*
X135885395Y-98287663D01*
X135885395Y-98287663D02*
X135952739Y-98422350D01*
X135952739Y-98422350D02*
X135952739Y-99230472D01*
X135952739Y-99230472D02*
X136390471Y-98792739D01*
X137063907Y-98119304D02*
X136659846Y-98523365D01*
X136861876Y-98321334D02*
X136154769Y-97614227D01*
X136154769Y-97614227D02*
X136188441Y-97782586D01*
X136188441Y-97782586D02*
X136188441Y-97917273D01*
X136188441Y-97917273D02*
X136154769Y-98018288D01*
X142972234Y-91883591D02*
X142978103Y-91950678D01*
X142978103Y-91950678D02*
X142922755Y-92090722D01*
X142922755Y-92090722D02*
X142861537Y-92163679D01*
X142861537Y-92163679D02*
X142733232Y-92242505D01*
X142733232Y-92242505D02*
X142599057Y-92254243D01*
X142599057Y-92254243D02*
X142495492Y-92229504D01*
X142495492Y-92229504D02*
X142318970Y-92143546D01*
X142318970Y-92143546D02*
X142209535Y-92051720D01*
X142209535Y-92051720D02*
X142094230Y-91892805D01*
X142094230Y-91892805D02*
X142051883Y-91795109D01*
X142051883Y-91795109D02*
X142040144Y-91660935D01*
X142040144Y-91660935D02*
X142095492Y-91520891D01*
X142095492Y-91520891D02*
X142156710Y-91447934D01*
X142156710Y-91447934D02*
X142285015Y-91369108D01*
X142285015Y-91369108D02*
X142352103Y-91363239D01*
X142493409Y-91046673D02*
X142891325Y-90572455D01*
X142891325Y-90572455D02*
X142968889Y-91072675D01*
X142968889Y-91072675D02*
X143060715Y-90963240D01*
X143060715Y-90963240D02*
X143158412Y-90920892D01*
X143158412Y-90920892D02*
X143225499Y-90915023D01*
X143225499Y-90915023D02*
X143329064Y-90939762D01*
X143329064Y-90939762D02*
X143511456Y-91092807D01*
X143511456Y-91092807D02*
X143553804Y-91190503D01*
X143553804Y-91190503D02*
X143559673Y-91257590D01*
X143559673Y-91257590D02*
X143534933Y-91361156D01*
X143534933Y-91361156D02*
X143351280Y-91580026D01*
X143351280Y-91580026D02*
X143253584Y-91622373D01*
X143253584Y-91622373D02*
X143186496Y-91628243D01*
X143697634Y-90130108D02*
X144208330Y-90558633D01*
X143252763Y-90067628D02*
X143646892Y-90709154D01*
X143646892Y-90709154D02*
X144044809Y-90234936D01*
X150927142Y-116279580D02*
X150879523Y-116327200D01*
X150879523Y-116327200D02*
X150736666Y-116374819D01*
X150736666Y-116374819D02*
X150641428Y-116374819D01*
X150641428Y-116374819D02*
X150498571Y-116327200D01*
X150498571Y-116327200D02*
X150403333Y-116231961D01*
X150403333Y-116231961D02*
X150355714Y-116136723D01*
X150355714Y-116136723D02*
X150308095Y-115946247D01*
X150308095Y-115946247D02*
X150308095Y-115803390D01*
X150308095Y-115803390D02*
X150355714Y-115612914D01*
X150355714Y-115612914D02*
X150403333Y-115517676D01*
X150403333Y-115517676D02*
X150498571Y-115422438D01*
X150498571Y-115422438D02*
X150641428Y-115374819D01*
X150641428Y-115374819D02*
X150736666Y-115374819D01*
X150736666Y-115374819D02*
X150879523Y-115422438D01*
X150879523Y-115422438D02*
X150927142Y-115470057D01*
X151308095Y-115470057D02*
X151355714Y-115422438D01*
X151355714Y-115422438D02*
X151450952Y-115374819D01*
X151450952Y-115374819D02*
X151689047Y-115374819D01*
X151689047Y-115374819D02*
X151784285Y-115422438D01*
X151784285Y-115422438D02*
X151831904Y-115470057D01*
X151831904Y-115470057D02*
X151879523Y-115565295D01*
X151879523Y-115565295D02*
X151879523Y-115660533D01*
X151879523Y-115660533D02*
X151831904Y-115803390D01*
X151831904Y-115803390D02*
X151260476Y-116374819D01*
X151260476Y-116374819D02*
X151879523Y-116374819D01*
X152498571Y-115374819D02*
X152593809Y-115374819D01*
X152593809Y-115374819D02*
X152689047Y-115422438D01*
X152689047Y-115422438D02*
X152736666Y-115470057D01*
X152736666Y-115470057D02*
X152784285Y-115565295D01*
X152784285Y-115565295D02*
X152831904Y-115755771D01*
X152831904Y-115755771D02*
X152831904Y-115993866D01*
X152831904Y-115993866D02*
X152784285Y-116184342D01*
X152784285Y-116184342D02*
X152736666Y-116279580D01*
X152736666Y-116279580D02*
X152689047Y-116327200D01*
X152689047Y-116327200D02*
X152593809Y-116374819D01*
X152593809Y-116374819D02*
X152498571Y-116374819D01*
X152498571Y-116374819D02*
X152403333Y-116327200D01*
X152403333Y-116327200D02*
X152355714Y-116279580D01*
X152355714Y-116279580D02*
X152308095Y-116184342D01*
X152308095Y-116184342D02*
X152260476Y-115993866D01*
X152260476Y-115993866D02*
X152260476Y-115755771D01*
X152260476Y-115755771D02*
X152308095Y-115565295D01*
X152308095Y-115565295D02*
X152355714Y-115470057D01*
X152355714Y-115470057D02*
X152403333Y-115422438D01*
X152403333Y-115422438D02*
X152498571Y-115374819D01*
X137537142Y-96754819D02*
X137203809Y-96278628D01*
X136965714Y-96754819D02*
X136965714Y-95754819D01*
X136965714Y-95754819D02*
X137346666Y-95754819D01*
X137346666Y-95754819D02*
X137441904Y-95802438D01*
X137441904Y-95802438D02*
X137489523Y-95850057D01*
X137489523Y-95850057D02*
X137537142Y-95945295D01*
X137537142Y-95945295D02*
X137537142Y-96088152D01*
X137537142Y-96088152D02*
X137489523Y-96183390D01*
X137489523Y-96183390D02*
X137441904Y-96231009D01*
X137441904Y-96231009D02*
X137346666Y-96278628D01*
X137346666Y-96278628D02*
X136965714Y-96278628D01*
X137918095Y-95850057D02*
X137965714Y-95802438D01*
X137965714Y-95802438D02*
X138060952Y-95754819D01*
X138060952Y-95754819D02*
X138299047Y-95754819D01*
X138299047Y-95754819D02*
X138394285Y-95802438D01*
X138394285Y-95802438D02*
X138441904Y-95850057D01*
X138441904Y-95850057D02*
X138489523Y-95945295D01*
X138489523Y-95945295D02*
X138489523Y-96040533D01*
X138489523Y-96040533D02*
X138441904Y-96183390D01*
X138441904Y-96183390D02*
X137870476Y-96754819D01*
X137870476Y-96754819D02*
X138489523Y-96754819D01*
X138822857Y-95754819D02*
X139441904Y-95754819D01*
X139441904Y-95754819D02*
X139108571Y-96135771D01*
X139108571Y-96135771D02*
X139251428Y-96135771D01*
X139251428Y-96135771D02*
X139346666Y-96183390D01*
X139346666Y-96183390D02*
X139394285Y-96231009D01*
X139394285Y-96231009D02*
X139441904Y-96326247D01*
X139441904Y-96326247D02*
X139441904Y-96564342D01*
X139441904Y-96564342D02*
X139394285Y-96659580D01*
X139394285Y-96659580D02*
X139346666Y-96707200D01*
X139346666Y-96707200D02*
X139251428Y-96754819D01*
X139251428Y-96754819D02*
X138965714Y-96754819D01*
X138965714Y-96754819D02*
X138870476Y-96707200D01*
X138870476Y-96707200D02*
X138822857Y-96659580D01*
X142802142Y-97289580D02*
X142754523Y-97337200D01*
X142754523Y-97337200D02*
X142611666Y-97384819D01*
X142611666Y-97384819D02*
X142516428Y-97384819D01*
X142516428Y-97384819D02*
X142373571Y-97337200D01*
X142373571Y-97337200D02*
X142278333Y-97241961D01*
X142278333Y-97241961D02*
X142230714Y-97146723D01*
X142230714Y-97146723D02*
X142183095Y-96956247D01*
X142183095Y-96956247D02*
X142183095Y-96813390D01*
X142183095Y-96813390D02*
X142230714Y-96622914D01*
X142230714Y-96622914D02*
X142278333Y-96527676D01*
X142278333Y-96527676D02*
X142373571Y-96432438D01*
X142373571Y-96432438D02*
X142516428Y-96384819D01*
X142516428Y-96384819D02*
X142611666Y-96384819D01*
X142611666Y-96384819D02*
X142754523Y-96432438D01*
X142754523Y-96432438D02*
X142802142Y-96480057D01*
X143183095Y-96480057D02*
X143230714Y-96432438D01*
X143230714Y-96432438D02*
X143325952Y-96384819D01*
X143325952Y-96384819D02*
X143564047Y-96384819D01*
X143564047Y-96384819D02*
X143659285Y-96432438D01*
X143659285Y-96432438D02*
X143706904Y-96480057D01*
X143706904Y-96480057D02*
X143754523Y-96575295D01*
X143754523Y-96575295D02*
X143754523Y-96670533D01*
X143754523Y-96670533D02*
X143706904Y-96813390D01*
X143706904Y-96813390D02*
X143135476Y-97384819D01*
X143135476Y-97384819D02*
X143754523Y-97384819D01*
X144135476Y-96480057D02*
X144183095Y-96432438D01*
X144183095Y-96432438D02*
X144278333Y-96384819D01*
X144278333Y-96384819D02*
X144516428Y-96384819D01*
X144516428Y-96384819D02*
X144611666Y-96432438D01*
X144611666Y-96432438D02*
X144659285Y-96480057D01*
X144659285Y-96480057D02*
X144706904Y-96575295D01*
X144706904Y-96575295D02*
X144706904Y-96670533D01*
X144706904Y-96670533D02*
X144659285Y-96813390D01*
X144659285Y-96813390D02*
X144087857Y-97384819D01*
X144087857Y-97384819D02*
X144706904Y-97384819D01*
X131896666Y-107881009D02*
X131563333Y-107881009D01*
X131563333Y-108404819D02*
X131563333Y-107404819D01*
X131563333Y-107404819D02*
X132039523Y-107404819D01*
X132753809Y-107881009D02*
X132896666Y-107928628D01*
X132896666Y-107928628D02*
X132944285Y-107976247D01*
X132944285Y-107976247D02*
X132991904Y-108071485D01*
X132991904Y-108071485D02*
X132991904Y-108214342D01*
X132991904Y-108214342D02*
X132944285Y-108309580D01*
X132944285Y-108309580D02*
X132896666Y-108357200D01*
X132896666Y-108357200D02*
X132801428Y-108404819D01*
X132801428Y-108404819D02*
X132420476Y-108404819D01*
X132420476Y-108404819D02*
X132420476Y-107404819D01*
X132420476Y-107404819D02*
X132753809Y-107404819D01*
X132753809Y-107404819D02*
X132849047Y-107452438D01*
X132849047Y-107452438D02*
X132896666Y-107500057D01*
X132896666Y-107500057D02*
X132944285Y-107595295D01*
X132944285Y-107595295D02*
X132944285Y-107690533D01*
X132944285Y-107690533D02*
X132896666Y-107785771D01*
X132896666Y-107785771D02*
X132849047Y-107833390D01*
X132849047Y-107833390D02*
X132753809Y-107881009D01*
X132753809Y-107881009D02*
X132420476Y-107881009D01*
X133944285Y-108404819D02*
X133372857Y-108404819D01*
X133658571Y-108404819D02*
X133658571Y-107404819D01*
X133658571Y-107404819D02*
X133563333Y-107547676D01*
X133563333Y-107547676D02*
X133468095Y-107642914D01*
X133468095Y-107642914D02*
X133372857Y-107690533D01*
X130283809Y-106618628D02*
X130283809Y-107094819D01*
X129950476Y-106094819D02*
X130283809Y-106618628D01*
X130283809Y-106618628D02*
X130617142Y-106094819D01*
X131474285Y-107094819D02*
X130902857Y-107094819D01*
X131188571Y-107094819D02*
X131188571Y-106094819D01*
X131188571Y-106094819D02*
X131093333Y-106237676D01*
X131093333Y-106237676D02*
X130998095Y-106332914D01*
X130998095Y-106332914D02*
X130902857Y-106380533D01*
X151287142Y-113259580D02*
X151239523Y-113307200D01*
X151239523Y-113307200D02*
X151096666Y-113354819D01*
X151096666Y-113354819D02*
X151001428Y-113354819D01*
X151001428Y-113354819D02*
X150858571Y-113307200D01*
X150858571Y-113307200D02*
X150763333Y-113211961D01*
X150763333Y-113211961D02*
X150715714Y-113116723D01*
X150715714Y-113116723D02*
X150668095Y-112926247D01*
X150668095Y-112926247D02*
X150668095Y-112783390D01*
X150668095Y-112783390D02*
X150715714Y-112592914D01*
X150715714Y-112592914D02*
X150763333Y-112497676D01*
X150763333Y-112497676D02*
X150858571Y-112402438D01*
X150858571Y-112402438D02*
X151001428Y-112354819D01*
X151001428Y-112354819D02*
X151096666Y-112354819D01*
X151096666Y-112354819D02*
X151239523Y-112402438D01*
X151239523Y-112402438D02*
X151287142Y-112450057D01*
X151668095Y-112450057D02*
X151715714Y-112402438D01*
X151715714Y-112402438D02*
X151810952Y-112354819D01*
X151810952Y-112354819D02*
X152049047Y-112354819D01*
X152049047Y-112354819D02*
X152144285Y-112402438D01*
X152144285Y-112402438D02*
X152191904Y-112450057D01*
X152191904Y-112450057D02*
X152239523Y-112545295D01*
X152239523Y-112545295D02*
X152239523Y-112640533D01*
X152239523Y-112640533D02*
X152191904Y-112783390D01*
X152191904Y-112783390D02*
X151620476Y-113354819D01*
X151620476Y-113354819D02*
X152239523Y-113354819D01*
X152572857Y-112354819D02*
X153191904Y-112354819D01*
X153191904Y-112354819D02*
X152858571Y-112735771D01*
X152858571Y-112735771D02*
X153001428Y-112735771D01*
X153001428Y-112735771D02*
X153096666Y-112783390D01*
X153096666Y-112783390D02*
X153144285Y-112831009D01*
X153144285Y-112831009D02*
X153191904Y-112926247D01*
X153191904Y-112926247D02*
X153191904Y-113164342D01*
X153191904Y-113164342D02*
X153144285Y-113259580D01*
X153144285Y-113259580D02*
X153096666Y-113307200D01*
X153096666Y-113307200D02*
X153001428Y-113354819D01*
X153001428Y-113354819D02*
X152715714Y-113354819D01*
X152715714Y-113354819D02*
X152620476Y-113307200D01*
X152620476Y-113307200D02*
X152572857Y-113259580D01*
X168857142Y-101704819D02*
X168523809Y-101228628D01*
X168285714Y-101704819D02*
X168285714Y-100704819D01*
X168285714Y-100704819D02*
X168666666Y-100704819D01*
X168666666Y-100704819D02*
X168761904Y-100752438D01*
X168761904Y-100752438D02*
X168809523Y-100800057D01*
X168809523Y-100800057D02*
X168857142Y-100895295D01*
X168857142Y-100895295D02*
X168857142Y-101038152D01*
X168857142Y-101038152D02*
X168809523Y-101133390D01*
X168809523Y-101133390D02*
X168761904Y-101181009D01*
X168761904Y-101181009D02*
X168666666Y-101228628D01*
X168666666Y-101228628D02*
X168285714Y-101228628D01*
X169238095Y-100800057D02*
X169285714Y-100752438D01*
X169285714Y-100752438D02*
X169380952Y-100704819D01*
X169380952Y-100704819D02*
X169619047Y-100704819D01*
X169619047Y-100704819D02*
X169714285Y-100752438D01*
X169714285Y-100752438D02*
X169761904Y-100800057D01*
X169761904Y-100800057D02*
X169809523Y-100895295D01*
X169809523Y-100895295D02*
X169809523Y-100990533D01*
X169809523Y-100990533D02*
X169761904Y-101133390D01*
X169761904Y-101133390D02*
X169190476Y-101704819D01*
X169190476Y-101704819D02*
X169809523Y-101704819D01*
X170142857Y-100704819D02*
X170809523Y-100704819D01*
X170809523Y-100704819D02*
X170380952Y-101704819D01*
X142044021Y-125757941D02*
X141710688Y-125281750D01*
X141472593Y-125757941D02*
X141472593Y-124757941D01*
X141472593Y-124757941D02*
X141853545Y-124757941D01*
X141853545Y-124757941D02*
X141948783Y-124805560D01*
X141948783Y-124805560D02*
X141996402Y-124853179D01*
X141996402Y-124853179D02*
X142044021Y-124948417D01*
X142044021Y-124948417D02*
X142044021Y-125091274D01*
X142044021Y-125091274D02*
X141996402Y-125186512D01*
X141996402Y-125186512D02*
X141948783Y-125234131D01*
X141948783Y-125234131D02*
X141853545Y-125281750D01*
X141853545Y-125281750D02*
X141472593Y-125281750D01*
X142996402Y-125757941D02*
X142424974Y-125757941D01*
X142710688Y-125757941D02*
X142710688Y-124757941D01*
X142710688Y-124757941D02*
X142615450Y-124900798D01*
X142615450Y-124900798D02*
X142520212Y-124996036D01*
X142520212Y-124996036D02*
X142424974Y-125043655D01*
X143377355Y-124853179D02*
X143424974Y-124805560D01*
X143424974Y-124805560D02*
X143520212Y-124757941D01*
X143520212Y-124757941D02*
X143758307Y-124757941D01*
X143758307Y-124757941D02*
X143853545Y-124805560D01*
X143853545Y-124805560D02*
X143901164Y-124853179D01*
X143901164Y-124853179D02*
X143948783Y-124948417D01*
X143948783Y-124948417D02*
X143948783Y-125043655D01*
X143948783Y-125043655D02*
X143901164Y-125186512D01*
X143901164Y-125186512D02*
X143329736Y-125757941D01*
X143329736Y-125757941D02*
X143948783Y-125757941D01*
D14*
X137420071Y-121984200D02*
X137554758Y-121916856D01*
X137554758Y-121916856D02*
X137622101Y-121916856D01*
X137622101Y-121916856D02*
X137723116Y-121950528D01*
X137723116Y-121950528D02*
X137824132Y-122051543D01*
X137824132Y-122051543D02*
X137857803Y-122152558D01*
X137857803Y-122152558D02*
X137857803Y-122219902D01*
X137857803Y-122219902D02*
X137824132Y-122320917D01*
X137824132Y-122320917D02*
X137554758Y-122590291D01*
X137554758Y-122590291D02*
X136847651Y-121883184D01*
X136847651Y-121883184D02*
X137083353Y-121647482D01*
X137083353Y-121647482D02*
X137184368Y-121613810D01*
X137184368Y-121613810D02*
X137251712Y-121613810D01*
X137251712Y-121613810D02*
X137352727Y-121647482D01*
X137352727Y-121647482D02*
X137420071Y-121714826D01*
X137420071Y-121714826D02*
X137453742Y-121815841D01*
X137453742Y-121815841D02*
X137453742Y-121883184D01*
X137453742Y-121883184D02*
X137420071Y-121984200D01*
X137420071Y-121984200D02*
X137184368Y-122219902D01*
X138261864Y-121883184D02*
X137554758Y-121176078D01*
X137554758Y-121176078D02*
X138295536Y-121445452D01*
X138295536Y-121445452D02*
X138026162Y-120704673D01*
X138026162Y-120704673D02*
X138733269Y-121411780D01*
X139069986Y-121075062D02*
X138362880Y-120367956D01*
X138733268Y-120132254D02*
X138733268Y-120064910D01*
X138733268Y-120064910D02*
X138766940Y-119963895D01*
X138766940Y-119963895D02*
X138935299Y-119795536D01*
X138935299Y-119795536D02*
X139036314Y-119761864D01*
X139036314Y-119761864D02*
X139103658Y-119761864D01*
X139103658Y-119761864D02*
X139204673Y-119795536D01*
X139204673Y-119795536D02*
X139272016Y-119862880D01*
X139272016Y-119862880D02*
X139339360Y-119997567D01*
X139339360Y-119997567D02*
X139339360Y-120805689D01*
X139339360Y-120805689D02*
X139777093Y-120367956D01*
X139305688Y-119425147D02*
X139777093Y-118953742D01*
X139777093Y-118953742D02*
X140181154Y-119963895D01*
X140181154Y-118549681D02*
X140248497Y-118482338D01*
X140248497Y-118482338D02*
X140349513Y-118448666D01*
X140349513Y-118448666D02*
X140416856Y-118448666D01*
X140416856Y-118448666D02*
X140517871Y-118482338D01*
X140517871Y-118482338D02*
X140686230Y-118583353D01*
X140686230Y-118583353D02*
X140854589Y-118751712D01*
X140854589Y-118751712D02*
X140955604Y-118920071D01*
X140955604Y-118920071D02*
X140989276Y-119021086D01*
X140989276Y-119021086D02*
X140989276Y-119088429D01*
X140989276Y-119088429D02*
X140955604Y-119189445D01*
X140955604Y-119189445D02*
X140888261Y-119256788D01*
X140888261Y-119256788D02*
X140787245Y-119290460D01*
X140787245Y-119290460D02*
X140719902Y-119290460D01*
X140719902Y-119290460D02*
X140618887Y-119256788D01*
X140618887Y-119256788D02*
X140450528Y-119155773D01*
X140450528Y-119155773D02*
X140282169Y-118987414D01*
X140282169Y-118987414D02*
X140181154Y-118819055D01*
X140181154Y-118819055D02*
X140147482Y-118718040D01*
X140147482Y-118718040D02*
X140147482Y-118650697D01*
X140147482Y-118650697D02*
X140181154Y-118549681D01*
D12*
X151357142Y-111004819D02*
X151023809Y-110528628D01*
X150785714Y-111004819D02*
X150785714Y-110004819D01*
X150785714Y-110004819D02*
X151166666Y-110004819D01*
X151166666Y-110004819D02*
X151261904Y-110052438D01*
X151261904Y-110052438D02*
X151309523Y-110100057D01*
X151309523Y-110100057D02*
X151357142Y-110195295D01*
X151357142Y-110195295D02*
X151357142Y-110338152D01*
X151357142Y-110338152D02*
X151309523Y-110433390D01*
X151309523Y-110433390D02*
X151261904Y-110481009D01*
X151261904Y-110481009D02*
X151166666Y-110528628D01*
X151166666Y-110528628D02*
X150785714Y-110528628D01*
X151690476Y-110004819D02*
X152309523Y-110004819D01*
X152309523Y-110004819D02*
X151976190Y-110385771D01*
X151976190Y-110385771D02*
X152119047Y-110385771D01*
X152119047Y-110385771D02*
X152214285Y-110433390D01*
X152214285Y-110433390D02*
X152261904Y-110481009D01*
X152261904Y-110481009D02*
X152309523Y-110576247D01*
X152309523Y-110576247D02*
X152309523Y-110814342D01*
X152309523Y-110814342D02*
X152261904Y-110909580D01*
X152261904Y-110909580D02*
X152214285Y-110957200D01*
X152214285Y-110957200D02*
X152119047Y-111004819D01*
X152119047Y-111004819D02*
X151833333Y-111004819D01*
X151833333Y-111004819D02*
X151738095Y-110957200D01*
X151738095Y-110957200D02*
X151690476Y-110909580D01*
X152642857Y-110004819D02*
X153309523Y-110004819D01*
X153309523Y-110004819D02*
X152880952Y-111004819D01*
D15*
X148462089Y-95742143D02*
X148104946Y-95992143D01*
X148462089Y-96170714D02*
X147712089Y-96170714D01*
X147712089Y-96170714D02*
X147712089Y-95885000D01*
X147712089Y-95885000D02*
X147747803Y-95813571D01*
X147747803Y-95813571D02*
X147783517Y-95777857D01*
X147783517Y-95777857D02*
X147854946Y-95742143D01*
X147854946Y-95742143D02*
X147962089Y-95742143D01*
X147962089Y-95742143D02*
X148033517Y-95777857D01*
X148033517Y-95777857D02*
X148069232Y-95813571D01*
X148069232Y-95813571D02*
X148104946Y-95885000D01*
X148104946Y-95885000D02*
X148104946Y-96170714D01*
X147712089Y-95492143D02*
X147712089Y-95027857D01*
X147712089Y-95027857D02*
X147997803Y-95277857D01*
X147997803Y-95277857D02*
X147997803Y-95170714D01*
X147997803Y-95170714D02*
X148033517Y-95099286D01*
X148033517Y-95099286D02*
X148069232Y-95063571D01*
X148069232Y-95063571D02*
X148140660Y-95027857D01*
X148140660Y-95027857D02*
X148319232Y-95027857D01*
X148319232Y-95027857D02*
X148390660Y-95063571D01*
X148390660Y-95063571D02*
X148426375Y-95099286D01*
X148426375Y-95099286D02*
X148462089Y-95170714D01*
X148462089Y-95170714D02*
X148462089Y-95385000D01*
X148462089Y-95385000D02*
X148426375Y-95456428D01*
X148426375Y-95456428D02*
X148390660Y-95492143D01*
X147962089Y-94385000D02*
X148462089Y-94385000D01*
X147676375Y-94563571D02*
X148212089Y-94742142D01*
X148212089Y-94742142D02*
X148212089Y-94277857D01*
D12*
X155532142Y-104954819D02*
X155198809Y-104478628D01*
X154960714Y-104954819D02*
X154960714Y-103954819D01*
X154960714Y-103954819D02*
X155341666Y-103954819D01*
X155341666Y-103954819D02*
X155436904Y-104002438D01*
X155436904Y-104002438D02*
X155484523Y-104050057D01*
X155484523Y-104050057D02*
X155532142Y-104145295D01*
X155532142Y-104145295D02*
X155532142Y-104288152D01*
X155532142Y-104288152D02*
X155484523Y-104383390D01*
X155484523Y-104383390D02*
X155436904Y-104431009D01*
X155436904Y-104431009D02*
X155341666Y-104478628D01*
X155341666Y-104478628D02*
X154960714Y-104478628D01*
X155913095Y-104050057D02*
X155960714Y-104002438D01*
X155960714Y-104002438D02*
X156055952Y-103954819D01*
X156055952Y-103954819D02*
X156294047Y-103954819D01*
X156294047Y-103954819D02*
X156389285Y-104002438D01*
X156389285Y-104002438D02*
X156436904Y-104050057D01*
X156436904Y-104050057D02*
X156484523Y-104145295D01*
X156484523Y-104145295D02*
X156484523Y-104240533D01*
X156484523Y-104240533D02*
X156436904Y-104383390D01*
X156436904Y-104383390D02*
X155865476Y-104954819D01*
X155865476Y-104954819D02*
X156484523Y-104954819D01*
X157341666Y-103954819D02*
X157151190Y-103954819D01*
X157151190Y-103954819D02*
X157055952Y-104002438D01*
X157055952Y-104002438D02*
X157008333Y-104050057D01*
X157008333Y-104050057D02*
X156913095Y-104192914D01*
X156913095Y-104192914D02*
X156865476Y-104383390D01*
X156865476Y-104383390D02*
X156865476Y-104764342D01*
X156865476Y-104764342D02*
X156913095Y-104859580D01*
X156913095Y-104859580D02*
X156960714Y-104907200D01*
X156960714Y-104907200D02*
X157055952Y-104954819D01*
X157055952Y-104954819D02*
X157246428Y-104954819D01*
X157246428Y-104954819D02*
X157341666Y-104907200D01*
X157341666Y-104907200D02*
X157389285Y-104859580D01*
X157389285Y-104859580D02*
X157436904Y-104764342D01*
X157436904Y-104764342D02*
X157436904Y-104526247D01*
X157436904Y-104526247D02*
X157389285Y-104431009D01*
X157389285Y-104431009D02*
X157341666Y-104383390D01*
X157341666Y-104383390D02*
X157246428Y-104335771D01*
X157246428Y-104335771D02*
X157055952Y-104335771D01*
X157055952Y-104335771D02*
X156960714Y-104383390D01*
X156960714Y-104383390D02*
X156913095Y-104431009D01*
X156913095Y-104431009D02*
X156865476Y-104526247D01*
D15*
X149572089Y-95622143D02*
X149214946Y-95872143D01*
X149572089Y-96050714D02*
X148822089Y-96050714D01*
X148822089Y-96050714D02*
X148822089Y-95765000D01*
X148822089Y-95765000D02*
X148857803Y-95693571D01*
X148857803Y-95693571D02*
X148893517Y-95657857D01*
X148893517Y-95657857D02*
X148964946Y-95622143D01*
X148964946Y-95622143D02*
X149072089Y-95622143D01*
X149072089Y-95622143D02*
X149143517Y-95657857D01*
X149143517Y-95657857D02*
X149179232Y-95693571D01*
X149179232Y-95693571D02*
X149214946Y-95765000D01*
X149214946Y-95765000D02*
X149214946Y-96050714D01*
X148822089Y-95372143D02*
X148822089Y-94907857D01*
X148822089Y-94907857D02*
X149107803Y-95157857D01*
X149107803Y-95157857D02*
X149107803Y-95050714D01*
X149107803Y-95050714D02*
X149143517Y-94979286D01*
X149143517Y-94979286D02*
X149179232Y-94943571D01*
X149179232Y-94943571D02*
X149250660Y-94907857D01*
X149250660Y-94907857D02*
X149429232Y-94907857D01*
X149429232Y-94907857D02*
X149500660Y-94943571D01*
X149500660Y-94943571D02*
X149536375Y-94979286D01*
X149536375Y-94979286D02*
X149572089Y-95050714D01*
X149572089Y-95050714D02*
X149572089Y-95265000D01*
X149572089Y-95265000D02*
X149536375Y-95336428D01*
X149536375Y-95336428D02*
X149500660Y-95372143D01*
X148893517Y-94622142D02*
X148857803Y-94586428D01*
X148857803Y-94586428D02*
X148822089Y-94515000D01*
X148822089Y-94515000D02*
X148822089Y-94336428D01*
X148822089Y-94336428D02*
X148857803Y-94265000D01*
X148857803Y-94265000D02*
X148893517Y-94229285D01*
X148893517Y-94229285D02*
X148964946Y-94193571D01*
X148964946Y-94193571D02*
X149036375Y-94193571D01*
X149036375Y-94193571D02*
X149143517Y-94229285D01*
X149143517Y-94229285D02*
X149572089Y-94657857D01*
X149572089Y-94657857D02*
X149572089Y-94193571D01*
D12*
X159802142Y-112339580D02*
X159754523Y-112387200D01*
X159754523Y-112387200D02*
X159611666Y-112434819D01*
X159611666Y-112434819D02*
X159516428Y-112434819D01*
X159516428Y-112434819D02*
X159373571Y-112387200D01*
X159373571Y-112387200D02*
X159278333Y-112291961D01*
X159278333Y-112291961D02*
X159230714Y-112196723D01*
X159230714Y-112196723D02*
X159183095Y-112006247D01*
X159183095Y-112006247D02*
X159183095Y-111863390D01*
X159183095Y-111863390D02*
X159230714Y-111672914D01*
X159230714Y-111672914D02*
X159278333Y-111577676D01*
X159278333Y-111577676D02*
X159373571Y-111482438D01*
X159373571Y-111482438D02*
X159516428Y-111434819D01*
X159516428Y-111434819D02*
X159611666Y-111434819D01*
X159611666Y-111434819D02*
X159754523Y-111482438D01*
X159754523Y-111482438D02*
X159802142Y-111530057D01*
X160135476Y-111434819D02*
X160754523Y-111434819D01*
X160754523Y-111434819D02*
X160421190Y-111815771D01*
X160421190Y-111815771D02*
X160564047Y-111815771D01*
X160564047Y-111815771D02*
X160659285Y-111863390D01*
X160659285Y-111863390D02*
X160706904Y-111911009D01*
X160706904Y-111911009D02*
X160754523Y-112006247D01*
X160754523Y-112006247D02*
X160754523Y-112244342D01*
X160754523Y-112244342D02*
X160706904Y-112339580D01*
X160706904Y-112339580D02*
X160659285Y-112387200D01*
X160659285Y-112387200D02*
X160564047Y-112434819D01*
X160564047Y-112434819D02*
X160278333Y-112434819D01*
X160278333Y-112434819D02*
X160183095Y-112387200D01*
X160183095Y-112387200D02*
X160135476Y-112339580D01*
X161135476Y-111530057D02*
X161183095Y-111482438D01*
X161183095Y-111482438D02*
X161278333Y-111434819D01*
X161278333Y-111434819D02*
X161516428Y-111434819D01*
X161516428Y-111434819D02*
X161611666Y-111482438D01*
X161611666Y-111482438D02*
X161659285Y-111530057D01*
X161659285Y-111530057D02*
X161706904Y-111625295D01*
X161706904Y-111625295D02*
X161706904Y-111720533D01*
X161706904Y-111720533D02*
X161659285Y-111863390D01*
X161659285Y-111863390D02*
X161087857Y-112434819D01*
X161087857Y-112434819D02*
X161706904Y-112434819D01*
X139671905Y-90854819D02*
X139671905Y-89854819D01*
X139671905Y-89854819D02*
X139910000Y-89854819D01*
X139910000Y-89854819D02*
X140052857Y-89902438D01*
X140052857Y-89902438D02*
X140148095Y-89997676D01*
X140148095Y-89997676D02*
X140195714Y-90092914D01*
X140195714Y-90092914D02*
X140243333Y-90283390D01*
X140243333Y-90283390D02*
X140243333Y-90426247D01*
X140243333Y-90426247D02*
X140195714Y-90616723D01*
X140195714Y-90616723D02*
X140148095Y-90711961D01*
X140148095Y-90711961D02*
X140052857Y-90807200D01*
X140052857Y-90807200D02*
X139910000Y-90854819D01*
X139910000Y-90854819D02*
X139671905Y-90854819D01*
X140624286Y-89950057D02*
X140671905Y-89902438D01*
X140671905Y-89902438D02*
X140767143Y-89854819D01*
X140767143Y-89854819D02*
X141005238Y-89854819D01*
X141005238Y-89854819D02*
X141100476Y-89902438D01*
X141100476Y-89902438D02*
X141148095Y-89950057D01*
X141148095Y-89950057D02*
X141195714Y-90045295D01*
X141195714Y-90045295D02*
X141195714Y-90140533D01*
X141195714Y-90140533D02*
X141148095Y-90283390D01*
X141148095Y-90283390D02*
X140576667Y-90854819D01*
X140576667Y-90854819D02*
X141195714Y-90854819D01*
X150511905Y-90954819D02*
X150511905Y-89954819D01*
X150511905Y-89954819D02*
X150750000Y-89954819D01*
X150750000Y-89954819D02*
X150892857Y-90002438D01*
X150892857Y-90002438D02*
X150988095Y-90097676D01*
X150988095Y-90097676D02*
X151035714Y-90192914D01*
X151035714Y-90192914D02*
X151083333Y-90383390D01*
X151083333Y-90383390D02*
X151083333Y-90526247D01*
X151083333Y-90526247D02*
X151035714Y-90716723D01*
X151035714Y-90716723D02*
X150988095Y-90811961D01*
X150988095Y-90811961D02*
X150892857Y-90907200D01*
X150892857Y-90907200D02*
X150750000Y-90954819D01*
X150750000Y-90954819D02*
X150511905Y-90954819D01*
X151940476Y-90288152D02*
X151940476Y-90954819D01*
X151702381Y-89907200D02*
X151464286Y-90621485D01*
X151464286Y-90621485D02*
X152083333Y-90621485D01*
D15*
X145762089Y-95722143D02*
X145404946Y-95972143D01*
X145762089Y-96150714D02*
X145012089Y-96150714D01*
X145012089Y-96150714D02*
X145012089Y-95865000D01*
X145012089Y-95865000D02*
X145047803Y-95793571D01*
X145047803Y-95793571D02*
X145083517Y-95757857D01*
X145083517Y-95757857D02*
X145154946Y-95722143D01*
X145154946Y-95722143D02*
X145262089Y-95722143D01*
X145262089Y-95722143D02*
X145333517Y-95757857D01*
X145333517Y-95757857D02*
X145369232Y-95793571D01*
X145369232Y-95793571D02*
X145404946Y-95865000D01*
X145404946Y-95865000D02*
X145404946Y-96150714D01*
X145012089Y-95472143D02*
X145012089Y-95007857D01*
X145012089Y-95007857D02*
X145297803Y-95257857D01*
X145297803Y-95257857D02*
X145297803Y-95150714D01*
X145297803Y-95150714D02*
X145333517Y-95079286D01*
X145333517Y-95079286D02*
X145369232Y-95043571D01*
X145369232Y-95043571D02*
X145440660Y-95007857D01*
X145440660Y-95007857D02*
X145619232Y-95007857D01*
X145619232Y-95007857D02*
X145690660Y-95043571D01*
X145690660Y-95043571D02*
X145726375Y-95079286D01*
X145726375Y-95079286D02*
X145762089Y-95150714D01*
X145762089Y-95150714D02*
X145762089Y-95365000D01*
X145762089Y-95365000D02*
X145726375Y-95436428D01*
X145726375Y-95436428D02*
X145690660Y-95472143D01*
X145012089Y-94329285D02*
X145012089Y-94686428D01*
X145012089Y-94686428D02*
X145369232Y-94722142D01*
X145369232Y-94722142D02*
X145333517Y-94686428D01*
X145333517Y-94686428D02*
X145297803Y-94615000D01*
X145297803Y-94615000D02*
X145297803Y-94436428D01*
X145297803Y-94436428D02*
X145333517Y-94365000D01*
X145333517Y-94365000D02*
X145369232Y-94329285D01*
X145369232Y-94329285D02*
X145440660Y-94293571D01*
X145440660Y-94293571D02*
X145619232Y-94293571D01*
X145619232Y-94293571D02*
X145690660Y-94329285D01*
X145690660Y-94329285D02*
X145726375Y-94365000D01*
X145726375Y-94365000D02*
X145762089Y-94436428D01*
X145762089Y-94436428D02*
X145762089Y-94615000D01*
X145762089Y-94615000D02*
X145726375Y-94686428D01*
X145726375Y-94686428D02*
X145690660Y-94722142D01*
D12*
X155532142Y-106204819D02*
X155198809Y-105728628D01*
X154960714Y-106204819D02*
X154960714Y-105204819D01*
X154960714Y-105204819D02*
X155341666Y-105204819D01*
X155341666Y-105204819D02*
X155436904Y-105252438D01*
X155436904Y-105252438D02*
X155484523Y-105300057D01*
X155484523Y-105300057D02*
X155532142Y-105395295D01*
X155532142Y-105395295D02*
X155532142Y-105538152D01*
X155532142Y-105538152D02*
X155484523Y-105633390D01*
X155484523Y-105633390D02*
X155436904Y-105681009D01*
X155436904Y-105681009D02*
X155341666Y-105728628D01*
X155341666Y-105728628D02*
X154960714Y-105728628D01*
X155865476Y-105204819D02*
X156484523Y-105204819D01*
X156484523Y-105204819D02*
X156151190Y-105585771D01*
X156151190Y-105585771D02*
X156294047Y-105585771D01*
X156294047Y-105585771D02*
X156389285Y-105633390D01*
X156389285Y-105633390D02*
X156436904Y-105681009D01*
X156436904Y-105681009D02*
X156484523Y-105776247D01*
X156484523Y-105776247D02*
X156484523Y-106014342D01*
X156484523Y-106014342D02*
X156436904Y-106109580D01*
X156436904Y-106109580D02*
X156389285Y-106157200D01*
X156389285Y-106157200D02*
X156294047Y-106204819D01*
X156294047Y-106204819D02*
X156008333Y-106204819D01*
X156008333Y-106204819D02*
X155913095Y-106157200D01*
X155913095Y-106157200D02*
X155865476Y-106109580D01*
X157341666Y-105204819D02*
X157151190Y-105204819D01*
X157151190Y-105204819D02*
X157055952Y-105252438D01*
X157055952Y-105252438D02*
X157008333Y-105300057D01*
X157008333Y-105300057D02*
X156913095Y-105442914D01*
X156913095Y-105442914D02*
X156865476Y-105633390D01*
X156865476Y-105633390D02*
X156865476Y-106014342D01*
X156865476Y-106014342D02*
X156913095Y-106109580D01*
X156913095Y-106109580D02*
X156960714Y-106157200D01*
X156960714Y-106157200D02*
X157055952Y-106204819D01*
X157055952Y-106204819D02*
X157246428Y-106204819D01*
X157246428Y-106204819D02*
X157341666Y-106157200D01*
X157341666Y-106157200D02*
X157389285Y-106109580D01*
X157389285Y-106109580D02*
X157436904Y-106014342D01*
X157436904Y-106014342D02*
X157436904Y-105776247D01*
X157436904Y-105776247D02*
X157389285Y-105681009D01*
X157389285Y-105681009D02*
X157341666Y-105633390D01*
X157341666Y-105633390D02*
X157246428Y-105585771D01*
X157246428Y-105585771D02*
X157055952Y-105585771D01*
X157055952Y-105585771D02*
X156960714Y-105633390D01*
X156960714Y-105633390D02*
X156913095Y-105681009D01*
X156913095Y-105681009D02*
X156865476Y-105776247D01*
X160674819Y-95572857D02*
X160198628Y-95906190D01*
X160674819Y-96144285D02*
X159674819Y-96144285D01*
X159674819Y-96144285D02*
X159674819Y-95763333D01*
X159674819Y-95763333D02*
X159722438Y-95668095D01*
X159722438Y-95668095D02*
X159770057Y-95620476D01*
X159770057Y-95620476D02*
X159865295Y-95572857D01*
X159865295Y-95572857D02*
X160008152Y-95572857D01*
X160008152Y-95572857D02*
X160103390Y-95620476D01*
X160103390Y-95620476D02*
X160151009Y-95668095D01*
X160151009Y-95668095D02*
X160198628Y-95763333D01*
X160198628Y-95763333D02*
X160198628Y-96144285D01*
X159770057Y-95191904D02*
X159722438Y-95144285D01*
X159722438Y-95144285D02*
X159674819Y-95049047D01*
X159674819Y-95049047D02*
X159674819Y-94810952D01*
X159674819Y-94810952D02*
X159722438Y-94715714D01*
X159722438Y-94715714D02*
X159770057Y-94668095D01*
X159770057Y-94668095D02*
X159865295Y-94620476D01*
X159865295Y-94620476D02*
X159960533Y-94620476D01*
X159960533Y-94620476D02*
X160103390Y-94668095D01*
X160103390Y-94668095D02*
X160674819Y-95239523D01*
X160674819Y-95239523D02*
X160674819Y-94620476D01*
X160674819Y-93668095D02*
X160674819Y-94239523D01*
X160674819Y-93953809D02*
X159674819Y-93953809D01*
X159674819Y-93953809D02*
X159817676Y-94049047D01*
X159817676Y-94049047D02*
X159912914Y-94144285D01*
X159912914Y-94144285D02*
X159960533Y-94239523D01*
X138627142Y-94594819D02*
X138293809Y-94118628D01*
X138055714Y-94594819D02*
X138055714Y-93594819D01*
X138055714Y-93594819D02*
X138436666Y-93594819D01*
X138436666Y-93594819D02*
X138531904Y-93642438D01*
X138531904Y-93642438D02*
X138579523Y-93690057D01*
X138579523Y-93690057D02*
X138627142Y-93785295D01*
X138627142Y-93785295D02*
X138627142Y-93928152D01*
X138627142Y-93928152D02*
X138579523Y-94023390D01*
X138579523Y-94023390D02*
X138531904Y-94071009D01*
X138531904Y-94071009D02*
X138436666Y-94118628D01*
X138436666Y-94118628D02*
X138055714Y-94118628D01*
X139008095Y-93690057D02*
X139055714Y-93642438D01*
X139055714Y-93642438D02*
X139150952Y-93594819D01*
X139150952Y-93594819D02*
X139389047Y-93594819D01*
X139389047Y-93594819D02*
X139484285Y-93642438D01*
X139484285Y-93642438D02*
X139531904Y-93690057D01*
X139531904Y-93690057D02*
X139579523Y-93785295D01*
X139579523Y-93785295D02*
X139579523Y-93880533D01*
X139579523Y-93880533D02*
X139531904Y-94023390D01*
X139531904Y-94023390D02*
X138960476Y-94594819D01*
X138960476Y-94594819D02*
X139579523Y-94594819D01*
X140484285Y-93594819D02*
X140008095Y-93594819D01*
X140008095Y-93594819D02*
X139960476Y-94071009D01*
X139960476Y-94071009D02*
X140008095Y-94023390D01*
X140008095Y-94023390D02*
X140103333Y-93975771D01*
X140103333Y-93975771D02*
X140341428Y-93975771D01*
X140341428Y-93975771D02*
X140436666Y-94023390D01*
X140436666Y-94023390D02*
X140484285Y-94071009D01*
X140484285Y-94071009D02*
X140531904Y-94166247D01*
X140531904Y-94166247D02*
X140531904Y-94404342D01*
X140531904Y-94404342D02*
X140484285Y-94499580D01*
X140484285Y-94499580D02*
X140436666Y-94547200D01*
X140436666Y-94547200D02*
X140341428Y-94594819D01*
X140341428Y-94594819D02*
X140103333Y-94594819D01*
X140103333Y-94594819D02*
X140008095Y-94547200D01*
X140008095Y-94547200D02*
X139960476Y-94499580D01*
X156802142Y-112339580D02*
X156754523Y-112387200D01*
X156754523Y-112387200D02*
X156611666Y-112434819D01*
X156611666Y-112434819D02*
X156516428Y-112434819D01*
X156516428Y-112434819D02*
X156373571Y-112387200D01*
X156373571Y-112387200D02*
X156278333Y-112291961D01*
X156278333Y-112291961D02*
X156230714Y-112196723D01*
X156230714Y-112196723D02*
X156183095Y-112006247D01*
X156183095Y-112006247D02*
X156183095Y-111863390D01*
X156183095Y-111863390D02*
X156230714Y-111672914D01*
X156230714Y-111672914D02*
X156278333Y-111577676D01*
X156278333Y-111577676D02*
X156373571Y-111482438D01*
X156373571Y-111482438D02*
X156516428Y-111434819D01*
X156516428Y-111434819D02*
X156611666Y-111434819D01*
X156611666Y-111434819D02*
X156754523Y-111482438D01*
X156754523Y-111482438D02*
X156802142Y-111530057D01*
X157135476Y-111434819D02*
X157754523Y-111434819D01*
X157754523Y-111434819D02*
X157421190Y-111815771D01*
X157421190Y-111815771D02*
X157564047Y-111815771D01*
X157564047Y-111815771D02*
X157659285Y-111863390D01*
X157659285Y-111863390D02*
X157706904Y-111911009D01*
X157706904Y-111911009D02*
X157754523Y-112006247D01*
X157754523Y-112006247D02*
X157754523Y-112244342D01*
X157754523Y-112244342D02*
X157706904Y-112339580D01*
X157706904Y-112339580D02*
X157659285Y-112387200D01*
X157659285Y-112387200D02*
X157564047Y-112434819D01*
X157564047Y-112434819D02*
X157278333Y-112434819D01*
X157278333Y-112434819D02*
X157183095Y-112387200D01*
X157183095Y-112387200D02*
X157135476Y-112339580D01*
X158087857Y-111434819D02*
X158706904Y-111434819D01*
X158706904Y-111434819D02*
X158373571Y-111815771D01*
X158373571Y-111815771D02*
X158516428Y-111815771D01*
X158516428Y-111815771D02*
X158611666Y-111863390D01*
X158611666Y-111863390D02*
X158659285Y-111911009D01*
X158659285Y-111911009D02*
X158706904Y-112006247D01*
X158706904Y-112006247D02*
X158706904Y-112244342D01*
X158706904Y-112244342D02*
X158659285Y-112339580D01*
X158659285Y-112339580D02*
X158611666Y-112387200D01*
X158611666Y-112387200D02*
X158516428Y-112434819D01*
X158516428Y-112434819D02*
X158230714Y-112434819D01*
X158230714Y-112434819D02*
X158135476Y-112387200D01*
X158135476Y-112387200D02*
X158087857Y-112339580D01*
D15*
X146982089Y-95752143D02*
X146624946Y-96002143D01*
X146982089Y-96180714D02*
X146232089Y-96180714D01*
X146232089Y-96180714D02*
X146232089Y-95895000D01*
X146232089Y-95895000D02*
X146267803Y-95823571D01*
X146267803Y-95823571D02*
X146303517Y-95787857D01*
X146303517Y-95787857D02*
X146374946Y-95752143D01*
X146374946Y-95752143D02*
X146482089Y-95752143D01*
X146482089Y-95752143D02*
X146553517Y-95787857D01*
X146553517Y-95787857D02*
X146589232Y-95823571D01*
X146589232Y-95823571D02*
X146624946Y-95895000D01*
X146624946Y-95895000D02*
X146624946Y-96180714D01*
X146232089Y-95502143D02*
X146232089Y-95037857D01*
X146232089Y-95037857D02*
X146517803Y-95287857D01*
X146517803Y-95287857D02*
X146517803Y-95180714D01*
X146517803Y-95180714D02*
X146553517Y-95109286D01*
X146553517Y-95109286D02*
X146589232Y-95073571D01*
X146589232Y-95073571D02*
X146660660Y-95037857D01*
X146660660Y-95037857D02*
X146839232Y-95037857D01*
X146839232Y-95037857D02*
X146910660Y-95073571D01*
X146910660Y-95073571D02*
X146946375Y-95109286D01*
X146946375Y-95109286D02*
X146982089Y-95180714D01*
X146982089Y-95180714D02*
X146982089Y-95395000D01*
X146982089Y-95395000D02*
X146946375Y-95466428D01*
X146946375Y-95466428D02*
X146910660Y-95502143D01*
X146232089Y-94787857D02*
X146232089Y-94323571D01*
X146232089Y-94323571D02*
X146517803Y-94573571D01*
X146517803Y-94573571D02*
X146517803Y-94466428D01*
X146517803Y-94466428D02*
X146553517Y-94395000D01*
X146553517Y-94395000D02*
X146589232Y-94359285D01*
X146589232Y-94359285D02*
X146660660Y-94323571D01*
X146660660Y-94323571D02*
X146839232Y-94323571D01*
X146839232Y-94323571D02*
X146910660Y-94359285D01*
X146910660Y-94359285D02*
X146946375Y-94395000D01*
X146946375Y-94395000D02*
X146982089Y-94466428D01*
X146982089Y-94466428D02*
X146982089Y-94680714D01*
X146982089Y-94680714D02*
X146946375Y-94752142D01*
X146946375Y-94752142D02*
X146910660Y-94787857D01*
D12*
X152907142Y-92159580D02*
X152859523Y-92207200D01*
X152859523Y-92207200D02*
X152716666Y-92254819D01*
X152716666Y-92254819D02*
X152621428Y-92254819D01*
X152621428Y-92254819D02*
X152478571Y-92207200D01*
X152478571Y-92207200D02*
X152383333Y-92111961D01*
X152383333Y-92111961D02*
X152335714Y-92016723D01*
X152335714Y-92016723D02*
X152288095Y-91826247D01*
X152288095Y-91826247D02*
X152288095Y-91683390D01*
X152288095Y-91683390D02*
X152335714Y-91492914D01*
X152335714Y-91492914D02*
X152383333Y-91397676D01*
X152383333Y-91397676D02*
X152478571Y-91302438D01*
X152478571Y-91302438D02*
X152621428Y-91254819D01*
X152621428Y-91254819D02*
X152716666Y-91254819D01*
X152716666Y-91254819D02*
X152859523Y-91302438D01*
X152859523Y-91302438D02*
X152907142Y-91350057D01*
X153240476Y-91254819D02*
X153859523Y-91254819D01*
X153859523Y-91254819D02*
X153526190Y-91635771D01*
X153526190Y-91635771D02*
X153669047Y-91635771D01*
X153669047Y-91635771D02*
X153764285Y-91683390D01*
X153764285Y-91683390D02*
X153811904Y-91731009D01*
X153811904Y-91731009D02*
X153859523Y-91826247D01*
X153859523Y-91826247D02*
X153859523Y-92064342D01*
X153859523Y-92064342D02*
X153811904Y-92159580D01*
X153811904Y-92159580D02*
X153764285Y-92207200D01*
X153764285Y-92207200D02*
X153669047Y-92254819D01*
X153669047Y-92254819D02*
X153383333Y-92254819D01*
X153383333Y-92254819D02*
X153288095Y-92207200D01*
X153288095Y-92207200D02*
X153240476Y-92159580D01*
X154716666Y-91254819D02*
X154526190Y-91254819D01*
X154526190Y-91254819D02*
X154430952Y-91302438D01*
X154430952Y-91302438D02*
X154383333Y-91350057D01*
X154383333Y-91350057D02*
X154288095Y-91492914D01*
X154288095Y-91492914D02*
X154240476Y-91683390D01*
X154240476Y-91683390D02*
X154240476Y-92064342D01*
X154240476Y-92064342D02*
X154288095Y-92159580D01*
X154288095Y-92159580D02*
X154335714Y-92207200D01*
X154335714Y-92207200D02*
X154430952Y-92254819D01*
X154430952Y-92254819D02*
X154621428Y-92254819D01*
X154621428Y-92254819D02*
X154716666Y-92207200D01*
X154716666Y-92207200D02*
X154764285Y-92159580D01*
X154764285Y-92159580D02*
X154811904Y-92064342D01*
X154811904Y-92064342D02*
X154811904Y-91826247D01*
X154811904Y-91826247D02*
X154764285Y-91731009D01*
X154764285Y-91731009D02*
X154716666Y-91683390D01*
X154716666Y-91683390D02*
X154621428Y-91635771D01*
X154621428Y-91635771D02*
X154430952Y-91635771D01*
X154430952Y-91635771D02*
X154335714Y-91683390D01*
X154335714Y-91683390D02*
X154288095Y-91731009D01*
X154288095Y-91731009D02*
X154240476Y-91826247D01*
D16*
%TO.C,BZ1*%
X163188526Y-125167891D02*
G75*
G02*
X162667891Y-125688526I-329714J-190921D01*
G01*
D17*
X166377774Y-117517253D02*
X163462287Y-114601766D01*
X163462287Y-123857314D02*
X166377774Y-120941827D01*
X160037713Y-114601766D02*
X157122226Y-117517253D01*
X157122226Y-120941827D02*
X160037713Y-123857314D01*
D18*
%TO.C,C31*%
X136035000Y-104892164D02*
X136035000Y-105107836D01*
X135315000Y-104892164D02*
X135315000Y-105107836D01*
%TO.C,J9*%
X171535000Y-112330000D02*
X169830000Y-112330000D01*
X171535000Y-103170000D02*
X171535000Y-112330000D01*
X169830000Y-103170000D02*
X171535000Y-103170000D01*
X167820000Y-103170000D02*
X165900000Y-103170000D01*
X165900000Y-112330000D02*
X167820000Y-112330000D01*
%TO.C,C30*%
X136035000Y-103107836D02*
X136035000Y-102892164D01*
X135315000Y-103107836D02*
X135315000Y-102892164D01*
%TO.C,C29*%
X137853307Y-105580810D02*
X138005810Y-105428307D01*
X137344190Y-105071693D02*
X137496693Y-104919190D01*
%TO.C,D3*%
D19*
X146760000Y-91250000D02*
X145260000Y-91250000D01*
X145260000Y-92750000D01*
X146760000Y-92750000D01*
X146760000Y-91250000D01*
D20*
X145035000Y-91000000D02*
G75*
G02*
X144985000Y-91000000I-25000J0D01*
G01*
X144985000Y-91000000D02*
G75*
G02*
X145035000Y-91000000I25000J0D01*
G01*
D18*
%TO.C,C25*%
X152815000Y-101392164D02*
X152815000Y-101607836D01*
X153535000Y-101392164D02*
X153535000Y-101607836D01*
%TO.C,R31*%
X143870000Y-95403641D02*
X143870000Y-95096359D01*
X144630000Y-95403641D02*
X144630000Y-95096359D01*
%TO.C,C24*%
X142782836Y-112390000D02*
X142567164Y-112390000D01*
X142782836Y-113110000D02*
X142567164Y-113110000D01*
%TO.C,R24*%
X142096359Y-95369999D02*
X142403641Y-95370000D01*
X142096359Y-96130000D02*
X142403641Y-96130001D01*
D21*
%TO.C,U8*%
X145510786Y-115750000D02*
X145540838Y-115719948D01*
X145510786Y-115750000D02*
X145717615Y-115956829D01*
X146894948Y-114365838D02*
X146925000Y-114335786D01*
X146925000Y-114335786D02*
X147131829Y-114542615D01*
X146925000Y-117164214D02*
X146718171Y-116957385D01*
X146955052Y-117134162D02*
X146925000Y-117164214D01*
X148132385Y-115543171D02*
X148339214Y-115750000D01*
X148339214Y-115750000D02*
X148309162Y-115780052D01*
D10*
X148324308Y-114804245D02*
G75*
G02*
X148124310Y-114804245I-99999J0D01*
G01*
X148124310Y-114804245D02*
G75*
G02*
X148324308Y-114804245I99999J0D01*
G01*
D18*
%TO.C,U6*%
X140565000Y-100140000D02*
X140565000Y-101090000D01*
X140565000Y-110360000D02*
X140565000Y-109410000D01*
X141515000Y-100140000D02*
X140565000Y-100140000D01*
X141515000Y-110360000D02*
X140565000Y-110360000D01*
X149835000Y-100140000D02*
X150785000Y-100140000D01*
X149835000Y-110360000D02*
X150785000Y-110360000D01*
X150785000Y-100140000D02*
X150785000Y-101090000D01*
X150785000Y-110360000D02*
X150785000Y-109410000D01*
X139950000Y-101090000D02*
X139610000Y-100620000D01*
X140290000Y-100620000D01*
X139950000Y-101090000D01*
G36*
X139950000Y-101090000D02*
G01*
X139610000Y-100620000D01*
X140290000Y-100620000D01*
X139950000Y-101090000D01*
G37*
%TO.C,C26*%
X137740000Y-107057836D02*
X137740000Y-106842164D01*
X138460000Y-107057836D02*
X138460000Y-106842164D01*
%TO.C,D5*%
X153874121Y-115461665D02*
X155288335Y-116875879D01*
X153874121Y-115461665D02*
X156709619Y-112626167D01*
X155288335Y-116875879D02*
X158123833Y-114040381D01*
%TO.C,C28*%
X134570000Y-108982162D02*
X134570001Y-109197835D01*
X135289999Y-108982165D02*
X135290000Y-109197838D01*
%TO.C,C27*%
X136210000Y-108972162D02*
X136210001Y-109187835D01*
X136929999Y-108972165D02*
X136930000Y-109187838D01*
%TO.C,Q7*%
X153849999Y-112415000D02*
X154849999Y-112415000D01*
X153849999Y-113635000D02*
X154849999Y-113635000D01*
X153609999Y-112485000D02*
X153329999Y-112485000D01*
X153609999Y-112205000D01*
X153609999Y-112485000D01*
G36*
X153609999Y-112485000D02*
G01*
X153329999Y-112485000D01*
X153609999Y-112205000D01*
X153609999Y-112485000D01*
G37*
%TO.C,R28*%
X165870000Y-100903641D02*
X165870000Y-100596359D01*
X166630000Y-100903641D02*
X166630000Y-100596359D01*
%TO.C,C35*%
X148257835Y-93209999D02*
X148042162Y-93210000D01*
X148257838Y-92490000D02*
X148042165Y-92490001D01*
%TO.C,C21*%
X138061254Y-99015000D02*
X137538748Y-99015000D01*
X138061254Y-100485000D02*
X137538748Y-100485000D01*
%TO.C,C34*%
X142557835Y-93259999D02*
X142342162Y-93260000D01*
X142557838Y-92540000D02*
X142342165Y-92540001D01*
%TO.C,C20*%
X150159420Y-113990001D02*
X150440580Y-113990001D01*
X150159420Y-115009999D02*
X150440580Y-115009999D01*
%TO.C,R23*%
X139780002Y-96136358D02*
X139779997Y-96443641D01*
X140540003Y-96136359D02*
X140539998Y-96443642D01*
%TO.C,C22*%
X141812164Y-97470000D02*
X142027836Y-97470000D01*
X141812164Y-98190000D02*
X142027836Y-98190000D01*
%TO.C,FB1*%
X135912776Y-106790000D02*
X135587222Y-106789998D01*
X135912786Y-107810002D02*
X135587232Y-107810000D01*
D22*
%TO.C,G\u002A\u002A\u002A*%
G36*
X130989962Y-120754109D02*
G01*
X131735928Y-121500073D01*
X131515962Y-121720035D01*
X131295999Y-121939999D01*
X130550036Y-121194035D01*
X129804072Y-120448071D01*
X130024036Y-120228107D01*
X130244000Y-120008143D01*
X130989962Y-120754109D01*
G37*
G36*
X131755053Y-119989016D02*
G01*
X132501018Y-120734980D01*
X132271489Y-120964509D01*
X132041962Y-121194036D01*
X131295999Y-120448070D01*
X130550034Y-119702108D01*
X130779563Y-119472581D01*
X131009090Y-119243053D01*
X131755053Y-119989016D01*
G37*
G36*
X135097518Y-121571827D02*
G01*
X138679128Y-125153381D01*
X138401783Y-125430726D01*
X138124438Y-125708072D01*
X134676116Y-122261006D01*
X131227800Y-118813945D01*
X129966909Y-119080217D01*
X128706016Y-119346491D01*
X128405049Y-119047288D01*
X128104083Y-118748084D01*
X129809996Y-118369178D01*
X131515905Y-117990274D01*
X135097518Y-121571827D01*
G37*
G36*
X137120255Y-125354218D02*
G01*
X137799272Y-126033236D01*
X137196765Y-126635746D01*
X136594256Y-127238255D01*
X135915236Y-126559237D01*
X135236220Y-125880217D01*
X135446618Y-125669819D01*
X135657017Y-125459418D01*
X136049127Y-125851527D01*
X136441237Y-126243635D01*
X136613384Y-126071491D01*
X136785526Y-125899346D01*
X136393418Y-125507235D01*
X136001309Y-125115128D01*
X136221272Y-124895163D01*
X136441236Y-124675199D01*
X137120255Y-125354218D01*
G37*
G36*
X135146958Y-124107756D02*
G01*
X135270414Y-124231892D01*
X135379884Y-124343267D01*
X135469915Y-124436224D01*
X135535055Y-124505108D01*
X135569847Y-124544265D01*
X135574170Y-124550837D01*
X135555653Y-124573547D01*
X135503832Y-124628141D01*
X135424327Y-124708935D01*
X135322747Y-124810245D01*
X135204726Y-124926385D01*
X135155832Y-124974099D01*
X134737461Y-125381459D01*
X134307821Y-124951820D01*
X133878182Y-124522180D01*
X134298984Y-124101381D01*
X134719783Y-123680582D01*
X135146958Y-124107756D01*
G37*
G36*
X133570100Y-121804060D02*
G01*
X133738618Y-121973347D01*
X133871296Y-122108517D01*
X133971268Y-122212981D01*
X134041667Y-122290148D01*
X134085622Y-122343430D01*
X134106267Y-122376234D01*
X134108147Y-122389929D01*
X134094319Y-122422260D01*
X134062061Y-122498099D01*
X134014051Y-122611143D01*
X133952967Y-122755085D01*
X133881484Y-122923616D01*
X133802281Y-123110435D01*
X133763334Y-123202317D01*
X133681441Y-123395528D01*
X133606017Y-123573407D01*
X133539747Y-123729646D01*
X133485305Y-123857943D01*
X133445363Y-123951985D01*
X133422601Y-124005473D01*
X133418606Y-124014788D01*
X133403552Y-124020150D01*
X133369616Y-124000284D01*
X133311875Y-123951175D01*
X133225424Y-123868796D01*
X133155425Y-123799424D01*
X132906756Y-123550755D01*
X133113092Y-123068509D01*
X133319425Y-122586262D01*
X133129346Y-122396181D01*
X133035495Y-122305069D01*
X132972152Y-122250711D01*
X132934191Y-122229153D01*
X132918464Y-122233118D01*
X132893026Y-122260364D01*
X132835851Y-122318596D01*
X132753821Y-122400897D01*
X132653811Y-122500358D01*
X132575012Y-122578245D01*
X132252364Y-122896364D01*
X132032399Y-122676398D01*
X131812435Y-122456435D01*
X132414943Y-121853926D01*
X133017454Y-121251418D01*
X133570100Y-121804060D01*
G37*
D18*
%TO.C,Y1*%
X131465000Y-101690000D02*
X131465000Y-105810000D01*
X134885000Y-101690000D02*
X131465000Y-101690000D01*
%TO.C,C23*%
X149782836Y-112390000D02*
X149567164Y-112390000D01*
X149782836Y-113110000D02*
X149567164Y-113110000D01*
%TO.C,R27*%
X167120000Y-100903641D02*
X167120000Y-100596359D01*
X167880000Y-100903641D02*
X167880000Y-100596359D01*
%TO.C,R12*%
X140033238Y-124923122D02*
X140340520Y-124923122D01*
X140033238Y-125683122D02*
X140340520Y-125683122D01*
D21*
%TO.C,U7*%
X140230456Y-117323223D02*
X140622901Y-117715668D01*
X140269347Y-117284332D02*
X140230456Y-117323223D01*
X141959332Y-119052099D02*
X142351777Y-119444544D01*
X141998223Y-115555456D02*
X141959332Y-115594347D01*
X141998223Y-115555456D02*
X142390668Y-115947901D01*
X142390668Y-119405653D02*
X142351777Y-119444544D01*
X143727099Y-117284332D02*
X144119544Y-117676777D01*
X144119544Y-117676777D02*
X144080653Y-117715668D01*
D12*
X141472183Y-115449390D02*
G75*
G02*
X141322183Y-115449390I-75000J0D01*
G01*
X141322183Y-115449390D02*
G75*
G02*
X141472183Y-115449390I75000J0D01*
G01*
D18*
%TO.C,R37*%
X153620000Y-110643642D02*
X153620000Y-110336360D01*
X154380000Y-110643642D02*
X154380000Y-110336360D01*
%TO.C,R34*%
X146295000Y-97096359D02*
X146295000Y-97403641D01*
X147055000Y-97096359D02*
X147055000Y-97403641D01*
%TO.C,R26*%
X153828641Y-104120000D02*
X153521359Y-104120000D01*
X153828641Y-104880000D02*
X153521359Y-104880000D01*
%TO.C,R32*%
X148810000Y-96996359D02*
X148810000Y-97303641D01*
X149570000Y-96996359D02*
X149570000Y-97303641D01*
%TO.C,C32*%
X159165000Y-109609420D02*
X159165000Y-109890580D01*
X160185000Y-109609420D02*
X160185000Y-109890580D01*
%TO.C,D2*%
D19*
X141150000Y-91230000D02*
X139650000Y-91230000D01*
X139650000Y-92730000D01*
X141150000Y-92730000D01*
X141150000Y-91230000D01*
D20*
X139425000Y-90980000D02*
G75*
G02*
X139375000Y-90980000I-25000J0D01*
G01*
X139375000Y-90980000D02*
G75*
G02*
X139425000Y-90980000I25000J0D01*
G01*
D18*
%TO.C,J10*%
X157252334Y-89203949D02*
X158228142Y-88228143D01*
X158228143Y-90179756D02*
X157252334Y-89203949D01*
X159126167Y-91077782D02*
X161077782Y-89126167D01*
X159126167Y-91077782D02*
X166388154Y-98339769D01*
X161077782Y-89126167D02*
X168339769Y-96388154D01*
X166388154Y-98339769D02*
X168339769Y-96388154D01*
%TO.C,D4*%
D19*
X152050000Y-91290000D02*
X150550000Y-91290000D01*
X150550000Y-92790000D01*
X152050000Y-92790000D01*
X152050000Y-91290000D01*
D20*
X150325000Y-91040000D02*
G75*
G02*
X150275000Y-91040000I-25000J0D01*
G01*
X150275000Y-91040000D02*
G75*
G02*
X150325000Y-91040000I25000J0D01*
G01*
D18*
%TO.C,R35*%
X145045000Y-97096359D02*
X145045000Y-97403641D01*
X145805000Y-97096359D02*
X145805000Y-97403641D01*
%TO.C,R36*%
X153828641Y-105370000D02*
X153521359Y-105370000D01*
X153828641Y-106130000D02*
X153521359Y-106130000D01*
%TO.C,R21*%
X158670000Y-94776359D02*
X158670000Y-95083641D01*
X159430000Y-94776359D02*
X159430000Y-95083641D01*
%TO.C,R25*%
X141903640Y-93870000D02*
X141596359Y-93870003D01*
X141903641Y-94629997D02*
X141596360Y-94630000D01*
%TO.C,J8*%
X130126544Y-97012364D02*
X132078159Y-98963979D01*
X132481210Y-98560928D02*
X132078159Y-98963979D01*
X134121697Y-93017211D02*
X131675108Y-95463800D01*
X134277261Y-96764877D02*
X132078159Y-98963979D01*
X135267210Y-91871698D02*
X134227763Y-90832251D01*
X135670261Y-91468647D02*
X135267210Y-91871698D01*
X135670261Y-91468647D02*
X137621876Y-93420262D01*
X137218825Y-93823313D02*
X135422774Y-95619364D01*
%TO.C,C33*%
X157415000Y-109609420D02*
X157415000Y-109890580D01*
X158435000Y-109609420D02*
X158435000Y-109890580D01*
%TO.C,R33*%
X147545000Y-97096359D02*
X147545000Y-97403641D01*
X148305000Y-97096359D02*
X148305000Y-97403641D01*
%TO.C,C36*%
X153457835Y-93309999D02*
X153242162Y-93310000D01*
X153457838Y-92590000D02*
X153242165Y-92590001D01*
%TD*%
D23*
X158781189Y-132117589D02*
G75*
G02*
X156696039Y-132856031I-2016189J2379989D01*
G01*
X138696039Y-132856039D02*
G75*
G02*
X136610893Y-132117584I-68939J3118439D01*
G01*
X171509111Y-119389666D02*
X158781189Y-132117588D01*
X122968638Y-117373186D02*
X122968638Y-99373186D01*
X136471192Y-84573283D02*
G75*
G02*
X138556342Y-83834835I2016208J-2380017D01*
G01*
X122968638Y-99373186D02*
G75*
G02*
X123743253Y-97301199I3119162J14686D01*
G01*
X138556342Y-83838454D02*
X156838789Y-83838454D01*
X171651861Y-97304825D02*
X158923939Y-84576903D01*
X136613961Y-132113961D02*
X123886039Y-119386039D01*
X172426483Y-117376806D02*
X172426483Y-99376806D01*
X123886039Y-119386039D02*
G75*
G02*
X122968694Y-117373184I2195261J2215939D01*
G01*
X156696039Y-132856039D02*
X138696039Y-132856039D01*
X172426483Y-117376813D02*
G75*
G02*
X171509128Y-119389684I-3112683J203113D01*
G01*
X123743270Y-97301205D02*
X136471192Y-84573283D01*
X156838789Y-83838453D02*
G75*
G02*
X158923924Y-84576921I68911J-3118447D01*
G01*
X171651862Y-97304825D02*
G75*
G02*
X172426456Y-99376806I-2344562J-2057275D01*
G01*
M02*
