%TF.GenerationSoftware,KiCad,Pcbnew,9.0.2*%
%TF.CreationDate,2025-08-04T17:32:57-07:00*%
%TF.ProjectId,AERoS,4145526f-532e-46b6-9963-61645f706362,rev?*%
%TF.SameCoordinates,Original*%
%TF.FileFunction,Soldermask,Bot*%
%TF.FilePolarity,Negative*%
%FSLAX46Y46*%
G04 Gerber Fmt 4.6, Leading zero omitted, Abs format (unit mm)*
G04 Created by KiCad (PCBNEW 9.0.2) date 2025-08-04 17:32:57*
%MOMM*%
%LPD*%
G01*
G04 APERTURE LIST*
G04 Aperture macros list*
%AMRoundRect*
0 Rectangle with rounded corners*
0 $1 Rounding radius*
0 $2 $3 $4 $5 $6 $7 $8 $9 X,Y pos of 4 corners*
0 Add a 4 corners polygon primitive as box body*
4,1,4,$2,$3,$4,$5,$6,$7,$8,$9,$2,$3,0*
0 Add four circle primitives for the rounded corners*
1,1,$1+$1,$2,$3*
1,1,$1+$1,$4,$5*
1,1,$1+$1,$6,$7*
1,1,$1+$1,$8,$9*
0 Add four rect primitives between the rounded corners*
20,1,$1+$1,$2,$3,$4,$5,0*
20,1,$1+$1,$4,$5,$6,$7,0*
20,1,$1+$1,$6,$7,$8,$9,0*
20,1,$1+$1,$8,$9,$2,$3,0*%
G04 Aperture macros list end*
%ADD10RoundRect,0.119000X0.189505X-0.021213X-0.021213X0.189505X-0.189505X0.021213X0.021213X-0.189505X0*%
%ADD11C,2.276000*%
%ADD12O,1.876000X1.076000*%
%ADD13O,2.176000X1.076000*%
%ADD14C,0.726000*%
%ADD15RoundRect,0.038000X-0.220592X-0.295955X0.368508X-0.021253X0.220592X0.295955X-0.368508X0.021253X0*%
%ADD16RoundRect,0.038000X-0.368630X-0.392571X0.537678X0.030048X0.368630X0.392571X-0.537678X-0.030048X0*%
%ADD17RoundRect,0.038000X-0.241845X-0.664463X0.664463X-0.241845X0.241845X0.664463X-0.664463X0.241845X0*%
%ADD18RoundRect,0.038000X-0.106066X-0.353553X0.353553X0.106066X0.106066X0.353553X-0.353553X-0.106066X0*%
%ADD19RoundRect,0.038000X-0.212132X-0.494975X0.494975X0.212132X0.212132X0.494975X-0.494975X-0.212132X0*%
%ADD20RoundRect,0.038000X0.000000X-0.707107X0.707107X0.000000X0.000000X0.707107X-0.707107X0.000000X0*%
%ADD21RoundRect,0.038000X0.406400X0.469900X-0.406400X0.469900X-0.406400X-0.469900X0.406400X-0.469900X0*%
%ADD22RoundRect,0.038000X0.444500X0.622300X-0.444500X0.622300X-0.444500X-0.622300X0.444500X-0.622300X0*%
%ADD23C,0.965000*%
%ADD24RoundRect,0.038000X-0.785000X-0.940000X0.785000X-0.940000X0.785000X0.940000X-0.785000X0.940000X0*%
%ADD25RoundRect,0.094000X-0.669000X-0.094000X0.669000X-0.094000X0.669000X0.094000X-0.669000X0.094000X0*%
%ADD26RoundRect,0.038000X0.725000X-0.875000X0.725000X0.875000X-0.725000X0.875000X-0.725000X-0.875000X0*%
%ADD27RoundRect,0.038000X0.150000X-0.375000X0.150000X0.375000X-0.150000X0.375000X-0.150000X-0.375000X0*%
%ADD28RoundRect,0.038000X0.000000X-1.202082X1.202082X0.000000X0.000000X1.202082X-1.202082X0.000000X0*%
%ADD29C,1.776000*%
%ADD30RoundRect,0.265200X-0.647800X0.397800X-0.647800X-0.397800X0.647800X-0.397800X0.647800X0.397800X0*%
%ADD31RoundRect,0.159000X-0.189000X0.159000X-0.189000X-0.159000X0.189000X-0.159000X0.189000X0.159000X0*%
%ADD32RoundRect,0.154000X-0.204000X0.154000X-0.204000X-0.154000X0.204000X-0.154000X0.204000X0.154000X0*%
%ADD33RoundRect,0.263571X1.378051X0.707107X0.707107X1.378051X-1.378051X-0.707107X-0.707107X-1.378051X0*%
%ADD34RoundRect,0.154000X-0.154000X-0.204000X0.154000X-0.204000X0.154000X0.204000X-0.154000X0.204000X0*%
%ADD35RoundRect,0.154000X0.204000X-0.154000X0.204000X0.154000X-0.204000X0.154000X-0.204000X-0.154000X0*%
%ADD36RoundRect,0.269000X-0.494000X0.269000X-0.494000X-0.269000X0.494000X-0.269000X0.494000X0.269000X0*%
%ADD37RoundRect,0.154000X0.154000X0.204000X-0.154000X0.204000X-0.154000X-0.204000X0.154000X-0.204000X0*%
%ADD38RoundRect,0.038000X-0.152400X0.431800X-0.152400X-0.431800X0.152400X-0.431800X0.152400X0.431800X0*%
%ADD39RoundRect,0.038000X-1.206500X0.800100X-1.206500X-0.800100X1.206500X-0.800100X1.206500X0.800100X0*%
%ADD40RoundRect,0.269000X0.269000X0.494000X-0.269000X0.494000X-0.269000X-0.494000X0.269000X-0.494000X0*%
%ADD41RoundRect,0.102000X0.450000X0.500000X-0.450000X0.500000X-0.450000X-0.500000X0.450000X-0.500000X0*%
%ADD42RoundRect,0.260556X-2.477444X0.677444X-2.477444X-0.677444X2.477444X-0.677444X2.477444X0.677444X0*%
%ADD43RoundRect,0.265200X-0.755224X0.086757X-0.418989X-0.634301X0.755224X-0.086757X0.418989X0.634301X0*%
%ADD44RoundRect,0.244000X-0.244000X-0.394000X0.244000X-0.394000X0.244000X0.394000X-0.244000X0.394000X0*%
%ADD45RoundRect,0.038000X-0.350000X-0.200000X0.350000X-0.200000X0.350000X0.200000X-0.350000X0.200000X0*%
%ADD46RoundRect,0.038000X-0.125000X-0.200000X0.125000X-0.200000X0.125000X0.200000X-0.125000X0.200000X0*%
%ADD47RoundRect,0.038000X0.350000X0.200000X-0.350000X0.200000X-0.350000X-0.200000X0.350000X-0.200000X0*%
%ADD48RoundRect,0.038000X0.125000X0.200000X-0.125000X0.200000X-0.125000X-0.200000X0.125000X-0.200000X0*%
%ADD49RoundRect,0.102000X0.450000X0.485000X-0.450000X0.485000X-0.450000X-0.485000X0.450000X-0.485000X0*%
%ADD50RoundRect,0.159000X-0.159000X-0.189000X0.159000X-0.189000X0.159000X0.189000X-0.159000X0.189000X0*%
%ADD51RoundRect,0.154000X0.253144X0.035355X0.035355X0.253144X-0.253144X-0.035355X-0.035355X-0.253144X0*%
%ADD52RoundRect,0.059250X0.177750X-0.472750X0.177750X0.472750X-0.177750X0.472750X-0.177750X-0.472750X0*%
%ADD53RoundRect,0.102000X-0.450000X-0.500000X0.450000X-0.500000X0.450000X0.500000X-0.450000X0.500000X0*%
%ADD54RoundRect,0.154000X0.035355X-0.253144X0.253144X-0.035355X-0.035355X0.253144X-0.253144X0.035355X0*%
%ADD55RoundRect,0.266521X0.548008X-1.038003X1.038003X-0.548008X-0.548008X1.038003X-1.038003X0.548008X0*%
%ADD56RoundRect,0.069250X0.407750X0.207750X-0.407750X0.207750X-0.407750X-0.207750X0.407750X-0.207750X0*%
%ADD57RoundRect,0.102000X0.350000X0.800000X-0.350000X0.800000X-0.350000X-0.800000X0.350000X-0.800000X0*%
%ADD58RoundRect,0.038000X0.200000X-0.350000X0.200000X0.350000X-0.200000X0.350000X-0.200000X-0.350000X0*%
%ADD59RoundRect,0.038000X0.200000X-0.125000X0.200000X0.125000X-0.200000X0.125000X-0.200000X-0.125000X0*%
%ADD60RoundRect,0.038000X-0.350000X-0.124999X0.350000X-0.124999X0.350000X0.124999X-0.350000X0.124999X0*%
%ADD61RoundRect,0.038000X-0.174999X-1.750000X0.174999X-1.750000X0.174999X1.750000X-0.174999X1.750000X0*%
%ADD62RoundRect,0.159000X0.159000X0.189000X-0.159000X0.189000X-0.159000X-0.189000X0.159000X-0.189000X0*%
%ADD63RoundRect,0.038000X-0.350000X-0.600000X0.350000X-0.600000X0.350000X0.600000X-0.350000X0.600000X0*%
%ADD64RoundRect,0.038000X-0.500000X-0.400000X0.500000X-0.400000X0.500000X0.400000X-0.500000X0.400000X0*%
%ADD65RoundRect,0.038000X-0.500000X-1.400000X0.500000X-1.400000X0.500000X1.400000X-0.500000X1.400000X0*%
%ADD66RoundRect,0.038000X-0.500000X-0.600000X0.500000X-0.600000X0.500000X0.600000X-0.500000X0.600000X0*%
%ADD67RoundRect,0.038000X-0.650000X-0.950000X0.650000X-0.950000X0.650000X0.950000X-0.650000X0.950000X0*%
%ADD68RoundRect,0.119000X-0.119000X0.244000X-0.119000X-0.244000X0.119000X-0.244000X0.119000X0.244000X0*%
%ADD69RoundRect,0.154000X-0.249970X0.053357X-0.119804X-0.225786X0.249970X-0.053357X0.119804X0.225786X0*%
%TA.AperFunction,Profile*%
%ADD70C,0.050000*%
%TD*%
G04 APERTURE END LIST*
D10*
%TO.C,C10*%
X131353727Y-110163725D03*
X131806273Y-110616275D03*
%TD*%
D11*
%TO.C,H1*%
X130107231Y-90937244D03*
%TD*%
%TO.C,H2*%
X172228998Y-98269843D03*
%TD*%
%TO.C,H3*%
X172152227Y-118467290D03*
%TD*%
%TO.C,H4*%
X130250000Y-125750000D03*
%TD*%
D12*
%TO.C,J9*%
X168825000Y-103430000D03*
D13*
X164625000Y-103430000D03*
D12*
X168825000Y-112070000D03*
D13*
X164625000Y-112070000D03*
D14*
X165145000Y-104860000D03*
X165145000Y-110640000D03*
%TD*%
D15*
%TO.C,Q1*%
X154780367Y-123891031D03*
D16*
X153828743Y-124334781D03*
D15*
X152877118Y-124778531D03*
X155329772Y-125069231D03*
X155055069Y-124480133D03*
D17*
X154251359Y-125241088D03*
D15*
X153151821Y-125367629D03*
X153426523Y-125956731D03*
%TD*%
D18*
%TO.C,Q5*%
X133564927Y-108125072D03*
D19*
X132822465Y-108867536D03*
D18*
X132080000Y-109610000D03*
X134484168Y-109044310D03*
X134024548Y-108584693D03*
D20*
X133529570Y-109574641D03*
D18*
X132999241Y-110529238D03*
X132539620Y-110069617D03*
%TD*%
D21*
%TO.C,SW1*%
X144450160Y-131380300D03*
X152049840Y-131380300D03*
X144450160Y-129119700D03*
X152049840Y-129119700D03*
D22*
X146002100Y-128174820D03*
X147500700Y-128174820D03*
X150497900Y-128174820D03*
D23*
X146751400Y-130250000D03*
X149748600Y-130250000D03*
%TD*%
D24*
%TO.C,U1*%
X166599999Y-115250000D03*
D25*
X168749999Y-116250000D03*
X168749999Y-115750000D03*
X168750000Y-115250000D03*
X168749999Y-114750000D03*
X168749999Y-114250000D03*
X164449999Y-114250000D03*
X164449999Y-114750000D03*
X164449998Y-115250000D03*
X164449999Y-115750000D03*
X164449999Y-116250000D03*
%TD*%
D26*
%TO.C,U5*%
X156437500Y-95237500D03*
D27*
X157187500Y-93787500D03*
X156687500Y-93787500D03*
X156187500Y-93787500D03*
X155687500Y-93787500D03*
X155687500Y-96687500D03*
X156187500Y-96687500D03*
X156687500Y-96687500D03*
X157187500Y-96687500D03*
%TD*%
D28*
%TO.C,J10*%
X159203949Y-89203949D03*
D29*
X161000000Y-91000000D03*
X162796051Y-92796051D03*
X164592104Y-94592106D03*
X166388154Y-96388154D03*
%TD*%
D30*
%TO.C,F1*%
X159238951Y-112933953D03*
X159238951Y-115733951D03*
%TD*%
D31*
%TO.C,C2*%
X167970000Y-117570000D03*
X167970000Y-118530000D03*
%TD*%
D32*
%TO.C,R10*%
X143770000Y-124080001D03*
X143770000Y-125099999D03*
%TD*%
D33*
%TO.C,C11*%
X136699567Y-95199569D03*
X133800433Y-92300431D03*
%TD*%
D34*
%TO.C,R30*%
X145390001Y-109900000D03*
X146409999Y-109900000D03*
%TD*%
D33*
%TO.C,C15*%
X133482232Y-98346190D03*
X130583098Y-95447052D03*
%TD*%
D32*
%TO.C,R18*%
X128240000Y-115470001D03*
X128240000Y-116489999D03*
%TD*%
D35*
%TO.C,R6*%
X139730000Y-121289999D03*
X139730000Y-120270001D03*
%TD*%
D36*
%TO.C,C4*%
X149954874Y-119080001D03*
X149954874Y-120979999D03*
%TD*%
%TO.C,C19*%
X162530000Y-97730001D03*
X162530000Y-99629999D03*
%TD*%
D34*
%TO.C,R29*%
X142665001Y-107500000D03*
X143684999Y-107500000D03*
%TD*%
D37*
%TO.C,R1*%
X162498950Y-115433953D03*
X161478952Y-115433953D03*
%TD*%
D38*
%TO.C,U4*%
X127130004Y-106936796D03*
X127780002Y-106936798D03*
X128430003Y-106936799D03*
X129080002Y-106936799D03*
X129080000Y-109680000D03*
X128430002Y-109679998D03*
X127780001Y-109679997D03*
X127130002Y-109679997D03*
D39*
X128105002Y-108308398D03*
%TD*%
D32*
%TO.C,R20*%
X127030000Y-114960000D03*
X127030000Y-115980000D03*
%TD*%
D40*
%TO.C,C6*%
X146059999Y-116410000D03*
X144160001Y-116410000D03*
%TD*%
D41*
%TO.C,L3*%
X157600000Y-90690000D03*
X155900000Y-90690000D03*
%TD*%
D37*
%TO.C,R22*%
X156630000Y-98980000D03*
X155610000Y-98980000D03*
%TD*%
D32*
%TO.C,R9*%
X141320000Y-126780001D03*
X141320000Y-127799999D03*
%TD*%
D36*
%TO.C,C3*%
X147480000Y-119080001D03*
X147480000Y-120979999D03*
%TD*%
D42*
%TO.C,C12*%
X135180000Y-121070000D03*
X135180000Y-126170000D03*
%TD*%
D34*
%TO.C,R17*%
X129640001Y-105230000D03*
X130659999Y-105230000D03*
%TD*%
D43*
%TO.C,F2*%
X152698335Y-120051169D03*
X153881665Y-122588831D03*
%TD*%
D32*
%TO.C,R3*%
X170488951Y-115823953D03*
X170488951Y-116843951D03*
%TD*%
D44*
%TO.C,D1*%
X157503951Y-119493952D03*
X160803951Y-119493952D03*
%TD*%
D40*
%TO.C,C18*%
X157700000Y-87250000D03*
X155800000Y-87250000D03*
%TD*%
D45*
%TO.C,Q3*%
X144480000Y-127130000D03*
D46*
X144255000Y-126430000D03*
X144705000Y-126430000D03*
%TD*%
D35*
%TO.C,R8*%
X142400000Y-127799999D03*
X142400000Y-126780001D03*
%TD*%
D47*
%TO.C,Q4*%
X139980000Y-125180000D03*
D48*
X140205000Y-125880000D03*
X139755000Y-125880000D03*
%TD*%
D32*
%TO.C,R2*%
X170488951Y-113323953D03*
X170488951Y-114343951D03*
%TD*%
%TO.C,R7*%
X145010000Y-119530001D03*
X145010000Y-120549999D03*
%TD*%
D35*
%TO.C,R15*%
X138250000Y-105759999D03*
X138250000Y-104740001D03*
%TD*%
D49*
%TO.C,L2*%
X132635000Y-118140000D03*
X131065000Y-118140000D03*
%TD*%
D50*
%TO.C,C8*%
X130500000Y-115810000D03*
X131460000Y-115810000D03*
%TD*%
D51*
%TO.C,R19*%
X126820625Y-112190625D03*
X126099375Y-111469375D03*
%TD*%
D36*
%TO.C,C14*%
X134560000Y-112850001D03*
X134560000Y-114749999D03*
%TD*%
D52*
%TO.C,U2*%
X142480000Y-120215000D03*
X141980000Y-120215000D03*
X141480000Y-120215000D03*
X140980000Y-120215000D03*
X140980000Y-118845000D03*
X141480000Y-118845000D03*
X141980000Y-118845000D03*
X142480000Y-118845000D03*
%TD*%
D40*
%TO.C,C5*%
X143950000Y-114200000D03*
X142050000Y-114200000D03*
%TD*%
D37*
%TO.C,R14*%
X140090000Y-129810000D03*
X139070000Y-129810000D03*
%TD*%
%TO.C,R13*%
X139739999Y-122530000D03*
X138720001Y-122530000D03*
%TD*%
D53*
%TO.C,L1*%
X140800000Y-116410000D03*
X142500000Y-116410000D03*
%TD*%
D54*
%TO.C,R16*%
X130639376Y-109440624D03*
X131360624Y-108719376D03*
%TD*%
D55*
%TO.C,C13*%
X136044034Y-118025966D03*
X138130000Y-115940000D03*
%TD*%
D56*
%TO.C,U9*%
X138000000Y-89000000D03*
X138000000Y-90000000D03*
X136060000Y-90000000D03*
X136060000Y-89000000D03*
D57*
X137030000Y-89500000D03*
%TD*%
D58*
%TO.C,Q2*%
X142330000Y-125280000D03*
D59*
X141630000Y-125505000D03*
X141630000Y-125055000D03*
%TD*%
D60*
%TO.C,U3*%
X128840001Y-114320000D03*
X128840001Y-113820001D03*
X128840001Y-113320002D03*
X128840001Y-112820000D03*
X128840001Y-112320001D03*
D61*
X129890001Y-113319999D03*
X130440000Y-113319999D03*
X130989999Y-113319999D03*
D60*
X132039999Y-112319998D03*
X132039999Y-112819997D03*
X132039999Y-113319999D03*
X132039999Y-113819998D03*
X132039999Y-114320000D03*
%TD*%
D62*
%TO.C,C7*%
X143880000Y-111830000D03*
X142920000Y-111830000D03*
%TD*%
D34*
%TO.C,R11*%
X143770001Y-123030000D03*
X144789999Y-123030000D03*
%TD*%
D63*
%TO.C,J11*%
X149875000Y-102850000D03*
X148775000Y-102850000D03*
X147675000Y-102849999D03*
X146575000Y-102850000D03*
X145475000Y-102849999D03*
X144375000Y-102850000D03*
X143275000Y-102849999D03*
X142175000Y-102850000D03*
X141225000Y-102850000D03*
D64*
X140275000Y-92350000D03*
D65*
X140275000Y-88200000D03*
D66*
X140275000Y-98550000D03*
X151425000Y-102850000D03*
D67*
X153775000Y-87750000D03*
%TD*%
D68*
%TO.C,Q6*%
X145400000Y-106420000D03*
X146050000Y-106420001D03*
X146700000Y-106420000D03*
X146700000Y-108320000D03*
X146050000Y-108319999D03*
X145400000Y-108320000D03*
%TD*%
D31*
%TO.C,C1*%
X162738951Y-116453953D03*
X162738951Y-117413953D03*
%TD*%
D62*
%TO.C,C17*%
X125754995Y-109671598D03*
X124795003Y-109671600D03*
%TD*%
%TO.C,C9*%
X134429999Y-111500001D03*
X133469999Y-111500001D03*
%TD*%
D33*
%TO.C,C16*%
X130335606Y-101563526D03*
X127436472Y-98664388D03*
%TD*%
D69*
%TO.C,R5*%
X151944466Y-122827784D03*
X152375534Y-123752216D03*
%TD*%
D37*
%TO.C,R4*%
X162498950Y-114083952D03*
X161478952Y-114083952D03*
%TD*%
D70*
X158781189Y-132117589D02*
G75*
G02*
X156696039Y-132856031I-2016189J2379989D01*
G01*
X138696039Y-132856039D02*
G75*
G02*
X136610893Y-132117584I-68939J3118439D01*
G01*
X171509111Y-119389666D02*
X158781189Y-132117588D01*
X122968638Y-117373186D02*
X122968638Y-99373186D01*
X136471192Y-84573283D02*
G75*
G02*
X138556342Y-83834835I2016208J-2380017D01*
G01*
X122968638Y-99373186D02*
G75*
G02*
X123743253Y-97301199I3119162J14686D01*
G01*
X138556342Y-83838454D02*
X156838789Y-83838454D01*
X171651861Y-97304825D02*
X158923939Y-84576903D01*
X136613961Y-132113961D02*
X123886039Y-119386039D01*
X172426483Y-117376806D02*
X172426483Y-99376806D01*
X123886039Y-119386039D02*
G75*
G02*
X122968694Y-117373184I2195261J2215939D01*
G01*
X156696039Y-132856039D02*
X138696039Y-132856039D01*
X172426483Y-117376813D02*
G75*
G02*
X171509128Y-119389684I-3112683J203113D01*
G01*
X123743270Y-97301205D02*
X136471192Y-84573283D01*
X156838789Y-83838453D02*
G75*
G02*
X158923924Y-84576921I68911J-3118447D01*
G01*
X171651862Y-97304825D02*
G75*
G02*
X172426456Y-99376806I-2344562J-2057275D01*
G01*
M02*
