%TF.GenerationSoftware,KiCad,Pcbnew,9.0.2*%
%TF.CreationDate,2025-08-04T17:32:57-07:00*%
%TF.ProjectId,AERoS,4145526f-532e-46b6-9963-61645f706362,rev?*%
%TF.SameCoordinates,Original*%
%TF.FileFunction,Copper,L4,Bot*%
%TF.FilePolarity,Positive*%
%FSLAX46Y46*%
G04 Gerber Fmt 4.6, Leading zero omitted, Abs format (unit mm)*
G04 Created by KiCad (PCBNEW 9.0.2) date 2025-08-04 17:32:57*
%MOMM*%
%LPD*%
G01*
G04 APERTURE LIST*
G04 Aperture macros list*
%AMRoundRect*
0 Rectangle with rounded corners*
0 $1 Rounding radius*
0 $2 $3 $4 $5 $6 $7 $8 $9 X,Y pos of 4 corners*
0 Add a 4 corners polygon primitive as box body*
4,1,4,$2,$3,$4,$5,$6,$7,$8,$9,$2,$3,0*
0 Add four circle primitives for the rounded corners*
1,1,$1+$1,$2,$3*
1,1,$1+$1,$4,$5*
1,1,$1+$1,$6,$7*
1,1,$1+$1,$8,$9*
0 Add four rect primitives between the rounded corners*
20,1,$1+$1,$2,$3,$4,$5,0*
20,1,$1+$1,$4,$5,$6,$7,0*
20,1,$1+$1,$6,$7,$8,$9,0*
20,1,$1+$1,$8,$9,$2,$3,0*%
%AMRotRect*
0 Rectangle, with rotation*
0 The origin of the aperture is its center*
0 $1 length*
0 $2 width*
0 $3 Rotation angle, in degrees counterclockwise*
0 Add horizontal line*
21,1,$1,$2,0,0,$3*%
G04 Aperture macros list end*
%TA.AperFunction,SMDPad,CuDef*%
%ADD10RoundRect,0.100000X0.162635X-0.021213X-0.021213X0.162635X-0.162635X0.021213X0.021213X-0.162635X0*%
%TD*%
%TA.AperFunction,HeatsinkPad*%
%ADD11O,1.800000X1.000000*%
%TD*%
%TA.AperFunction,HeatsinkPad*%
%ADD12O,2.100000X1.000000*%
%TD*%
%TA.AperFunction,SMDPad,CuDef*%
%ADD13RotRect,0.650000X0.350000X25.000000*%
%TD*%
%TA.AperFunction,SMDPad,CuDef*%
%ADD14RotRect,1.000000X0.400000X25.000000*%
%TD*%
%TA.AperFunction,SMDPad,CuDef*%
%ADD15RotRect,1.000000X1.000000X25.000000*%
%TD*%
%TA.AperFunction,SMDPad,CuDef*%
%ADD16RotRect,0.650000X0.350000X45.000000*%
%TD*%
%TA.AperFunction,SMDPad,CuDef*%
%ADD17RotRect,1.000000X0.400000X45.000000*%
%TD*%
%TA.AperFunction,SMDPad,CuDef*%
%ADD18RotRect,1.000000X1.000000X45.000000*%
%TD*%
%TA.AperFunction,SMDPad,CuDef*%
%ADD19R,0.812800X0.939800*%
%TD*%
%TA.AperFunction,SMDPad,CuDef*%
%ADD20R,0.889000X1.244600*%
%TD*%
%TA.AperFunction,HeatsinkPad*%
%ADD21C,0.600000*%
%TD*%
%TA.AperFunction,HeatsinkPad*%
%ADD22R,1.570000X1.880000*%
%TD*%
%TA.AperFunction,SMDPad,CuDef*%
%ADD23RoundRect,0.075000X-0.650000X-0.075000X0.650000X-0.075000X0.650000X0.075000X-0.650000X0.075000X0*%
%TD*%
%TA.AperFunction,SMDPad,CuDef*%
%ADD24R,1.450000X1.750000*%
%TD*%
%TA.AperFunction,SMDPad,CuDef*%
%ADD25R,0.300000X0.750000*%
%TD*%
%TA.AperFunction,ComponentPad*%
%ADD26RotRect,1.700000X1.700000X45.000000*%
%TD*%
%TA.AperFunction,ComponentPad*%
%ADD27C,1.700000*%
%TD*%
%TA.AperFunction,SMDPad,CuDef*%
%ADD28RoundRect,0.250000X-0.625000X0.375000X-0.625000X-0.375000X0.625000X-0.375000X0.625000X0.375000X0*%
%TD*%
%TA.AperFunction,SMDPad,CuDef*%
%ADD29RoundRect,0.140000X-0.170000X0.140000X-0.170000X-0.140000X0.170000X-0.140000X0.170000X0.140000X0*%
%TD*%
%TA.AperFunction,SMDPad,CuDef*%
%ADD30RoundRect,0.135000X-0.185000X0.135000X-0.185000X-0.135000X0.185000X-0.135000X0.185000X0.135000X0*%
%TD*%
%TA.AperFunction,SMDPad,CuDef*%
%ADD31RoundRect,0.249999X1.343504X0.707107X0.707107X1.343504X-1.343504X-0.707107X-0.707107X-1.343504X0*%
%TD*%
%TA.AperFunction,SMDPad,CuDef*%
%ADD32RoundRect,0.135000X-0.135000X-0.185000X0.135000X-0.185000X0.135000X0.185000X-0.135000X0.185000X0*%
%TD*%
%TA.AperFunction,SMDPad,CuDef*%
%ADD33RoundRect,0.135000X0.185000X-0.135000X0.185000X0.135000X-0.185000X0.135000X-0.185000X-0.135000X0*%
%TD*%
%TA.AperFunction,SMDPad,CuDef*%
%ADD34RoundRect,0.250000X-0.475000X0.250000X-0.475000X-0.250000X0.475000X-0.250000X0.475000X0.250000X0*%
%TD*%
%TA.AperFunction,SMDPad,CuDef*%
%ADD35RoundRect,0.135000X0.135000X0.185000X-0.135000X0.185000X-0.135000X-0.185000X0.135000X-0.185000X0*%
%TD*%
%TA.AperFunction,SMDPad,CuDef*%
%ADD36R,0.304800X0.863600*%
%TD*%
%TA.AperFunction,SMDPad,CuDef*%
%ADD37R,2.413000X1.600200*%
%TD*%
%TA.AperFunction,SMDPad,CuDef*%
%ADD38RoundRect,0.250000X0.250000X0.475000X-0.250000X0.475000X-0.250000X-0.475000X0.250000X-0.475000X0*%
%TD*%
%TA.AperFunction,SMDPad,CuDef*%
%ADD39R,0.900000X1.000000*%
%TD*%
%TA.AperFunction,SMDPad,CuDef*%
%ADD40RoundRect,0.250000X-2.450000X0.650000X-2.450000X-0.650000X2.450000X-0.650000X2.450000X0.650000X0*%
%TD*%
%TA.AperFunction,SMDPad,CuDef*%
%ADD41RoundRect,0.250000X-0.724924X0.075729X-0.407961X-0.604002X0.724924X-0.075729X0.407961X0.604002X0*%
%TD*%
%TA.AperFunction,SMDPad,CuDef*%
%ADD42RoundRect,0.225000X-0.225000X-0.375000X0.225000X-0.375000X0.225000X0.375000X-0.225000X0.375000X0*%
%TD*%
%TA.AperFunction,SMDPad,CuDef*%
%ADD43R,0.700000X0.400000*%
%TD*%
%TA.AperFunction,SMDPad,CuDef*%
%ADD44R,0.250000X0.400000*%
%TD*%
%TA.AperFunction,SMDPad,CuDef*%
%ADD45R,0.900000X0.970000*%
%TD*%
%TA.AperFunction,SMDPad,CuDef*%
%ADD46RoundRect,0.140000X-0.140000X-0.170000X0.140000X-0.170000X0.140000X0.170000X-0.140000X0.170000X0*%
%TD*%
%TA.AperFunction,SMDPad,CuDef*%
%ADD47RoundRect,0.135000X0.226274X0.035355X0.035355X0.226274X-0.226274X-0.035355X-0.035355X-0.226274X0*%
%TD*%
%TA.AperFunction,SMDPad,CuDef*%
%ADD48RoundRect,0.033750X0.101250X-0.396250X0.101250X0.396250X-0.101250X0.396250X-0.101250X-0.396250X0*%
%TD*%
%TA.AperFunction,SMDPad,CuDef*%
%ADD49RoundRect,0.135000X0.035355X-0.226274X0.226274X-0.035355X-0.035355X0.226274X-0.226274X0.035355X0*%
%TD*%
%TA.AperFunction,SMDPad,CuDef*%
%ADD50RoundRect,0.250000X0.548008X-1.007627X1.007627X-0.548008X-0.548008X1.007627X-1.007627X0.548008X0*%
%TD*%
%TA.AperFunction,SMDPad,CuDef*%
%ADD51RoundRect,0.043750X0.331250X0.131250X-0.331250X0.131250X-0.331250X-0.131250X0.331250X-0.131250X0*%
%TD*%
%TA.AperFunction,SMDPad,CuDef*%
%ADD52R,0.700000X1.600000*%
%TD*%
%TA.AperFunction,SMDPad,CuDef*%
%ADD53R,0.400000X0.700000*%
%TD*%
%TA.AperFunction,SMDPad,CuDef*%
%ADD54R,0.400000X0.250000*%
%TD*%
%TA.AperFunction,SMDPad,CuDef*%
%ADD55R,0.700001X0.249999*%
%TD*%
%TA.AperFunction,SMDPad,CuDef*%
%ADD56R,0.349999X3.500001*%
%TD*%
%TA.AperFunction,SMDPad,CuDef*%
%ADD57RoundRect,0.140000X0.140000X0.170000X-0.140000X0.170000X-0.140000X-0.170000X0.140000X-0.170000X0*%
%TD*%
%TA.AperFunction,SMDPad,CuDef*%
%ADD58R,0.700000X1.200000*%
%TD*%
%TA.AperFunction,SMDPad,CuDef*%
%ADD59R,1.000000X0.800000*%
%TD*%
%TA.AperFunction,SMDPad,CuDef*%
%ADD60R,1.000000X2.800000*%
%TD*%
%TA.AperFunction,SMDPad,CuDef*%
%ADD61R,1.000000X1.200000*%
%TD*%
%TA.AperFunction,SMDPad,CuDef*%
%ADD62R,1.300000X1.900000*%
%TD*%
%TA.AperFunction,SMDPad,CuDef*%
%ADD63RoundRect,0.100000X-0.100000X0.225000X-0.100000X-0.225000X0.100000X-0.225000X0.100000X0.225000X0*%
%TD*%
%TA.AperFunction,SMDPad,CuDef*%
%ADD64RoundRect,0.135000X-0.224720X0.044167X-0.110613X-0.200536X0.224720X-0.044167X0.110613X0.200536X0*%
%TD*%
%TA.AperFunction,ViaPad*%
%ADD65C,2.000000*%
%TD*%
%TA.AperFunction,ViaPad*%
%ADD66C,0.600000*%
%TD*%
%TA.AperFunction,ViaPad*%
%ADD67C,0.800000*%
%TD*%
%TA.AperFunction,ViaPad*%
%ADD68C,2.400000*%
%TD*%
%TA.AperFunction,ViaPad*%
%ADD69C,1.200000*%
%TD*%
%TA.AperFunction,ViaPad*%
%ADD70C,1.000000*%
%TD*%
%TA.AperFunction,ViaPad*%
%ADD71C,1.400000*%
%TD*%
%TA.AperFunction,Conductor*%
%ADD72C,0.300000*%
%TD*%
%TA.AperFunction,Conductor*%
%ADD73C,0.400000*%
%TD*%
%TA.AperFunction,Conductor*%
%ADD74C,0.500000*%
%TD*%
%TA.AperFunction,Conductor*%
%ADD75C,1.000000*%
%TD*%
%TA.AperFunction,Conductor*%
%ADD76C,0.800000*%
%TD*%
%TA.AperFunction,Conductor*%
%ADD77C,0.250000*%
%TD*%
%TA.AperFunction,Conductor*%
%ADD78C,1.500000*%
%TD*%
%TA.AperFunction,Conductor*%
%ADD79C,0.200000*%
%TD*%
%TA.AperFunction,Profile*%
%ADD80C,0.050000*%
%TD*%
G04 APERTURE END LIST*
D10*
%TO.P,C10,2*%
%TO.N,Net-(Q5-G)*%
X131353727Y-110163725D03*
%TO.P,C10,1*%
%TO.N,Net-(Q5-D)*%
X131806273Y-110616275D03*
%TD*%
D11*
%TO.P,J9,S1,SHIELD*%
%TO.N,GND*%
X168825000Y-103430000D03*
D12*
X164625000Y-103430000D03*
D11*
X168825000Y-112070000D03*
D12*
X164625000Y-112070000D03*
%TD*%
D13*
%TO.P,Q1,3,S*%
%TO.N,/Power/Battery Direct/BATT_OUT*%
X154780367Y-123891031D03*
D14*
X153828743Y-124334781D03*
D13*
%TO.P,Q1,2,G*%
%TO.N,Net-(Q1-G)*%
X152877118Y-124778531D03*
%TO.P,Q1,1,D*%
%TO.N,Net-(J1-Pin_1)*%
X155329772Y-125069231D03*
X155055069Y-124480133D03*
D15*
X154251359Y-125241088D03*
D13*
X153151821Y-125367629D03*
X153426523Y-125956731D03*
%TD*%
D16*
%TO.P,Q5,3,S*%
%TO.N,/Power/Servo Power/SERVO+*%
X133564927Y-108125072D03*
D17*
X132822465Y-108867536D03*
D16*
%TO.P,Q5,2,G*%
%TO.N,Net-(Q5-G)*%
X132080000Y-109610000D03*
%TO.P,Q5,1,D*%
%TO.N,Net-(Q5-D)*%
X134484168Y-109044310D03*
X134024548Y-108584693D03*
D18*
X133529570Y-109574641D03*
D16*
X132999241Y-110529238D03*
X132539620Y-110069617D03*
%TD*%
D19*
%TO.P,SW1,9*%
%TO.N,N/C*%
X144450160Y-131380300D03*
%TO.P,SW1,8*%
X152049840Y-131380300D03*
%TO.P,SW1,7*%
X144450160Y-129119700D03*
%TO.P,SW1,6*%
X152049840Y-129119700D03*
D20*
%TO.P,SW1,3,A*%
%TO.N,Net-(SW1-A)*%
X146002100Y-128174820D03*
%TO.P,SW1,2,C*%
%TO.N,unconnected-(SW1-C-Pad2)*%
X147500700Y-128174820D03*
%TO.P,SW1,1,B*%
%TO.N,/Power/Battery Direct/FILT_BATT*%
X150497900Y-128174820D03*
%TD*%
D21*
%TO.P,U1,11,VSS*%
%TO.N,GND*%
X167084999Y-115890000D03*
X167084999Y-114610000D03*
D22*
X166599999Y-115250000D03*
D21*
X166114999Y-115890000D03*
X166114999Y-114610000D03*
D23*
%TO.P,U1,10,OUT*%
%TO.N,/Power/Battery Direct/BATT_CHARGE*%
X168749999Y-116250000D03*
%TO.P,U1,9,TS*%
%TO.N,Net-(U1-TS)*%
X168749999Y-115750000D03*
%TO.P,U1,8,~{CHG}*%
%TO.N,/Microcontroller/CHG*%
X168750000Y-115250000D03*
%TO.P,U1,7,ISET2*%
%TO.N,Net-(U1-ISET2)*%
X168749999Y-114750000D03*
%TO.P,U1,6,NC*%
%TO.N,unconnected-(U1-NC-Pad6)*%
X168749999Y-114250000D03*
%TO.P,U1,5,~{PG}*%
%TO.N,/Microcontroller/PG*%
X164449999Y-114250000D03*
%TO.P,U1,4,PRETERM*%
%TO.N,Net-(U1-PRETERM)*%
X164449999Y-114750000D03*
%TO.P,U1,3,VSS*%
%TO.N,GND*%
X164449998Y-115250000D03*
%TO.P,U1,2,ISET*%
%TO.N,Net-(U1-ISET)*%
X164449999Y-115750000D03*
%TO.P,U1,1,IN*%
%TO.N,Net-(U1-IN)*%
X164449999Y-116250000D03*
%TD*%
D24*
%TO.P,U5,9,GND*%
%TO.N,GND*%
X156437500Y-95237500D03*
D25*
%TO.P,U5,8,V_{IN}*%
%TO.N,+BATT*%
X157187500Y-93787500D03*
%TO.P,U5,7,V_{OUT}*%
%TO.N,+5V*%
X156687500Y-93787500D03*
%TO.P,U5,6,V_{OUT}*%
X156187500Y-93787500D03*
%TO.P,U5,5,SW*%
%TO.N,Net-(U5-SW)*%
X155687500Y-93787500D03*
%TO.P,U5,4,EN*%
%TO.N,+BATT*%
X155687500Y-96687500D03*
%TO.P,U5,3,GND*%
%TO.N,GND*%
X156187500Y-96687500D03*
%TO.P,U5,2,GND*%
X156687500Y-96687500D03*
%TO.P,U5,1,V_{FB}*%
%TO.N,Net-(U5-V_{FB})*%
X157187500Y-96687500D03*
%TD*%
D26*
%TO.P,J10,1,Pin_1*%
%TO.N,/Devices/SW_CLK*%
X159203949Y-89203949D03*
D27*
%TO.P,J10,2,Pin_2*%
%TO.N,/Devices/SW_DIO*%
X161000000Y-91000000D03*
%TO.P,J10,3,Pin_3*%
%TO.N,unconnected-(J10-Pin_3-Pad3)*%
X162796051Y-92796051D03*
%TO.P,J10,4,Pin_4*%
%TO.N,unconnected-(J10-Pin_4-Pad4)*%
X164592104Y-94592106D03*
%TO.P,J10,5,Pin_5*%
%TO.N,unconnected-(J10-Pin_5-Pad5)*%
X166388154Y-96388154D03*
%TD*%
D28*
%TO.P,F1,1*%
%TO.N,VBUS*%
X159238951Y-112933953D03*
%TO.P,F1,2*%
%TO.N,Net-(U1-IN)*%
X159238951Y-115733951D03*
%TD*%
D29*
%TO.P,C2,1*%
%TO.N,/Power/Battery Direct/BATT_CHARGE*%
X167970000Y-117570000D03*
%TO.P,C2,2*%
%TO.N,GND*%
X167970000Y-118530000D03*
%TD*%
D30*
%TO.P,R10,1*%
%TO.N,/Microcontroller/KEEP_ON*%
X143770000Y-124080001D03*
%TO.P,R10,2*%
%TO.N,Net-(Q3-G)*%
X143770000Y-125099999D03*
%TD*%
D31*
%TO.P,C11,1*%
%TO.N,/Power/Servo Power/SERVO+*%
X136699567Y-95199569D03*
%TO.P,C11,2*%
%TO.N,GND*%
X133800433Y-92300431D03*
%TD*%
D32*
%TO.P,R30,1*%
%TO.N,/Devices/SENSE_ON*%
X145390001Y-109900000D03*
%TO.P,R30,2*%
%TO.N,Net-(Q6-G2)*%
X146409999Y-109900000D03*
%TD*%
D31*
%TO.P,C15,1*%
%TO.N,/Power/Servo Power/SERVO+*%
X133482232Y-98346190D03*
%TO.P,C15,2*%
%TO.N,GND*%
X130583098Y-95447052D03*
%TD*%
D30*
%TO.P,R18,1*%
%TO.N,Net-(U3-FREQ_SYNC)*%
X128240000Y-115470001D03*
%TO.P,R18,2*%
%TO.N,GND*%
X128240000Y-116489999D03*
%TD*%
D33*
%TO.P,R6,1*%
%TO.N,+BATT*%
X139730000Y-121289999D03*
%TO.P,R6,2*%
%TO.N,Net-(U2-EN)*%
X139730000Y-120270001D03*
%TD*%
D34*
%TO.P,C4,1*%
%TO.N,GND*%
X149954874Y-119080001D03*
%TO.P,C4,2*%
%TO.N,/Power/Battery Direct/FILT_BATT*%
X149954874Y-120979999D03*
%TD*%
%TO.P,C19,1*%
%TO.N,+5V*%
X162530000Y-97730001D03*
%TO.P,C19,2*%
%TO.N,GND*%
X162530000Y-99629999D03*
%TD*%
D32*
%TO.P,R29,1*%
%TO.N,/Devices/SD_ON*%
X142665001Y-107500000D03*
%TO.P,R29,2*%
%TO.N,Net-(Q6-G1)*%
X143684999Y-107500000D03*
%TD*%
D35*
%TO.P,R1,1*%
%TO.N,Net-(U1-ISET)*%
X162498950Y-115433953D03*
%TO.P,R1,2*%
%TO.N,GND*%
X161478952Y-115433953D03*
%TD*%
D36*
%TO.P,U4,1,HVC/A0*%
%TO.N,GND*%
X127130004Y-106936796D03*
%TO.P,U4,2,SCL*%
%TO.N,SCL*%
X127780002Y-106936798D03*
%TO.P,U4,3,SDA*%
%TO.N,SDA*%
X128430003Y-106936799D03*
%TO.P,U4,4,VSS*%
%TO.N,GND*%
X129080002Y-106936799D03*
%TO.P,U4,5,P0W*%
X129080000Y-109680000D03*
%TO.P,U4,6,P0B*%
%TO.N,/Power/Servo Power/Step-Up/PREPOT*%
X128430002Y-109679998D03*
%TO.P,U4,7,A1*%
%TO.N,GND*%
X127780001Y-109679997D03*
%TO.P,U4,8,VDD*%
%TO.N,+3.3V*%
X127130002Y-109679997D03*
D37*
%TO.P,U4,9,EP*%
%TO.N,GND*%
X128105002Y-108308398D03*
%TD*%
D30*
%TO.P,R20,1*%
%TO.N,Net-(U3-ILIMIT)*%
X127030000Y-114960000D03*
%TO.P,R20,2*%
%TO.N,GND*%
X127030000Y-115980000D03*
%TD*%
D38*
%TO.P,C6,1*%
%TO.N,GND*%
X146059999Y-116410000D03*
%TO.P,C6,2*%
%TO.N,+3.3V*%
X144160001Y-116410000D03*
%TD*%
D39*
%TO.P,L3,1,1*%
%TO.N,+BATT*%
X157600000Y-90690000D03*
%TO.P,L3,2,2*%
%TO.N,Net-(U5-SW)*%
X155900000Y-90690000D03*
%TD*%
D35*
%TO.P,R22,1*%
%TO.N,Net-(U5-V_{FB})*%
X156630000Y-98980000D03*
%TO.P,R22,2*%
%TO.N,GND*%
X155610000Y-98980000D03*
%TD*%
D30*
%TO.P,R9,1*%
%TO.N,Net-(Q2-G)*%
X141320000Y-126780001D03*
%TO.P,R9,2*%
%TO.N,Net-(SW1-A)*%
X141320000Y-127799999D03*
%TD*%
D34*
%TO.P,C3,1*%
%TO.N,GND*%
X147480000Y-119080001D03*
%TO.P,C3,2*%
%TO.N,/Power/Battery Direct/FILT_BATT*%
X147480000Y-120979999D03*
%TD*%
D40*
%TO.P,C12,1*%
%TO.N,/Power/Battery Direct/BATT_OUT*%
X135180000Y-121070000D03*
%TO.P,C12,2*%
%TO.N,GND*%
X135180000Y-126170000D03*
%TD*%
D32*
%TO.P,R17,1*%
%TO.N,/Power/Servo Power/Step-Up/PREPOT*%
X129640001Y-105230000D03*
%TO.P,R17,2*%
%TO.N,/Power/Servo Power/SERVO+*%
X130659999Y-105230000D03*
%TD*%
D41*
%TO.P,F2,1*%
%TO.N,/Power/Battery Direct/FILT_BATT*%
X152698335Y-120051169D03*
%TO.P,F2,2*%
%TO.N,/Power/Battery Direct/BATT_OUT*%
X153881665Y-122588831D03*
%TD*%
D30*
%TO.P,R3,1*%
%TO.N,Net-(U1-TS)*%
X170488951Y-115823953D03*
%TO.P,R3,2*%
%TO.N,GND*%
X170488951Y-116843951D03*
%TD*%
D42*
%TO.P,D1,1,K*%
%TO.N,/Power/Battery Direct/BATT_OUT*%
X157503951Y-119493952D03*
%TO.P,D1,2,A*%
%TO.N,/Power/Battery Direct/BATT_CHARGE*%
X160803951Y-119493952D03*
%TD*%
D38*
%TO.P,C18,1*%
%TO.N,+BATT*%
X157700000Y-87250000D03*
%TO.P,C18,2*%
%TO.N,GND*%
X155800000Y-87250000D03*
%TD*%
D43*
%TO.P,Q3,1,D*%
%TO.N,/Power/Battery Direct/FILT_BATT*%
X144480000Y-127130000D03*
D44*
%TO.P,Q3,2,G*%
%TO.N,Net-(Q3-G)*%
X144255000Y-126430000D03*
%TO.P,Q3,3,S*%
%TO.N,Net-(Q3-S)*%
X144705000Y-126430000D03*
%TD*%
D33*
%TO.P,R8,1*%
%TO.N,Net-(Q3-S)*%
X142400000Y-127799999D03*
%TO.P,R8,2*%
%TO.N,Net-(Q2-G)*%
X142400000Y-126780001D03*
%TD*%
D43*
%TO.P,Q4,1,D*%
%TO.N,+3.3V*%
X139980000Y-125180000D03*
D44*
%TO.P,Q4,2,G*%
%TO.N,Net-(Q2-G)*%
X140205000Y-125880000D03*
%TO.P,Q4,3,S*%
%TO.N,/Microcontroller/POWER_ON*%
X139755000Y-125880000D03*
%TD*%
D30*
%TO.P,R2,1*%
%TO.N,VBUS*%
X170488951Y-113323953D03*
%TO.P,R2,2*%
%TO.N,Net-(U1-ISET2)*%
X170488951Y-114343951D03*
%TD*%
%TO.P,R7,1*%
%TO.N,Net-(U2-VSET)*%
X145010000Y-119530001D03*
%TO.P,R7,2*%
%TO.N,GND*%
X145010000Y-120549999D03*
%TD*%
D33*
%TO.P,R15,1*%
%TO.N,/Microcontroller/SERVO_ON*%
X138250000Y-105759999D03*
%TO.P,R15,2*%
%TO.N,GND*%
X138250000Y-104740001D03*
%TD*%
D45*
%TO.P,L2,1,1*%
%TO.N,/Power/Battery Direct/BATT_OUT*%
X132635000Y-118140000D03*
%TO.P,L2,2,2*%
%TO.N,Net-(U3-SW)*%
X131065000Y-118140000D03*
%TD*%
D46*
%TO.P,C8,1*%
%TO.N,Net-(U3-SW)*%
X130500000Y-115810000D03*
%TO.P,C8,2*%
%TO.N,Net-(U3-BST)*%
X131460000Y-115810000D03*
%TD*%
D47*
%TO.P,R19,1*%
%TO.N,Net-(U3-COMP)*%
X126820625Y-112190625D03*
%TO.P,R19,2*%
%TO.N,Net-(C17-Pad1)*%
X126099375Y-111469375D03*
%TD*%
D34*
%TO.P,C14,1*%
%TO.N,Net-(U3-VCC)*%
X134560000Y-112850001D03*
%TO.P,C14,2*%
%TO.N,GND*%
X134560000Y-114749999D03*
%TD*%
D48*
%TO.P,U2,1,GND*%
%TO.N,GND*%
X142480000Y-120215000D03*
%TO.P,U2,2,VIN*%
%TO.N,+BATT*%
X141980000Y-120215000D03*
%TO.P,U2,3,MODE*%
%TO.N,Net-(U2-EN)*%
X141480000Y-120215000D03*
%TO.P,U2,4,EN*%
X140980000Y-120215000D03*
%TO.P,U2,5,VSET*%
%TO.N,Net-(U2-VSET)*%
X140980000Y-118845000D03*
%TO.P,U2,6,STOP*%
%TO.N,unconnected-(U2-STOP-Pad6)*%
X141480000Y-118845000D03*
%TO.P,U2,7,SW*%
%TO.N,Net-(U2-SW)*%
X141980000Y-118845000D03*
%TO.P,U2,8,VOS*%
%TO.N,+3.3V*%
X142480000Y-118845000D03*
%TD*%
D38*
%TO.P,C5,1*%
%TO.N,GND*%
X143950000Y-114200000D03*
%TO.P,C5,2*%
%TO.N,+3.3V*%
X142050000Y-114200000D03*
%TD*%
D35*
%TO.P,R14,1*%
%TO.N,GND*%
X140090000Y-129810000D03*
%TO.P,R14,2*%
%TO.N,/Microcontroller/VSENSE*%
X139070000Y-129810000D03*
%TD*%
%TO.P,R13,1*%
%TO.N,+BATT*%
X139739999Y-122530000D03*
%TO.P,R13,2*%
%TO.N,/Microcontroller/VSENSE*%
X138720001Y-122530000D03*
%TD*%
D39*
%TO.P,L1,1,1*%
%TO.N,Net-(U2-SW)*%
X140800000Y-116410000D03*
%TO.P,L1,2,2*%
%TO.N,+3.3V*%
X142500000Y-116410000D03*
%TD*%
D49*
%TO.P,R16,1*%
%TO.N,Net-(Q5-D)*%
X130639376Y-109440624D03*
%TO.P,R16,2*%
%TO.N,Net-(Q5-G)*%
X131360624Y-108719376D03*
%TD*%
D50*
%TO.P,C13,1*%
%TO.N,/Power/Battery Direct/BATT_OUT*%
X136044034Y-118025966D03*
%TO.P,C13,2*%
%TO.N,GND*%
X138130000Y-115940000D03*
%TD*%
D51*
%TO.P,U9,1,VDD*%
%TO.N,/Devices/PWR*%
X138000000Y-89000000D03*
%TO.P,U9,2,SCL*%
%TO.N,SCL*%
X138000000Y-90000000D03*
%TO.P,U9,3,SDA*%
%TO.N,SDA*%
X136060000Y-90000000D03*
%TO.P,U9,4,VSS*%
%TO.N,GND*%
X136060000Y-89000000D03*
D52*
%TO.P,U9,5,EXP*%
X137030000Y-89500000D03*
%TD*%
D53*
%TO.P,Q2,1,D*%
%TO.N,/Power/Battery Direct/FILT_BATT*%
X142330000Y-125280000D03*
D54*
%TO.P,Q2,2,G*%
%TO.N,Net-(Q2-G)*%
X141630000Y-125505000D03*
%TO.P,Q2,3,S*%
%TO.N,+BATT*%
X141630000Y-125055000D03*
%TD*%
D55*
%TO.P,U3,1,FREQ_SYNC*%
%TO.N,Net-(U3-FREQ_SYNC)*%
X128840001Y-114320000D03*
%TO.P,U3,2,AGND*%
%TO.N,GND*%
X128840001Y-113820001D03*
%TO.P,U3,3,ILIMIT*%
%TO.N,Net-(U3-ILIMIT)*%
X128840001Y-113320002D03*
%TO.P,U3,4,COMP*%
%TO.N,Net-(U3-COMP)*%
X128840001Y-112820000D03*
%TO.P,U3,5,FB*%
%TO.N,/Power/Servo Power/Step-Up/PREPOT*%
X128840001Y-112320001D03*
D56*
%TO.P,U3,6,PGND*%
%TO.N,GND*%
X129890001Y-113319999D03*
%TO.P,U3,7,SW*%
%TO.N,Net-(U3-SW)*%
X130440000Y-113319999D03*
%TO.P,U3,8,VOUT*%
%TO.N,Net-(Q5-D)*%
X130989999Y-113319999D03*
D55*
%TO.P,U3,9,DISDRV*%
%TO.N,Net-(Q5-G)*%
X132039999Y-112319998D03*
%TO.P,U3,10,VCC*%
%TO.N,Net-(U3-VCC)*%
X132039999Y-112819997D03*
%TO.P,U3,11,EN*%
%TO.N,/Microcontroller/SERVO_ON*%
X132039999Y-113319999D03*
%TO.P,U3,12,VIN*%
%TO.N,/Power/Battery Direct/BATT_OUT*%
X132039999Y-113819998D03*
%TO.P,U3,13,BST*%
%TO.N,Net-(U3-BST)*%
X132039999Y-114320000D03*
%TD*%
D57*
%TO.P,C7,1*%
%TO.N,GND*%
X143880000Y-111830000D03*
%TO.P,C7,2*%
%TO.N,+3.3V*%
X142920000Y-111830000D03*
%TD*%
D32*
%TO.P,R11,1*%
%TO.N,/Microcontroller/KEEP_ON*%
X143770001Y-123030000D03*
%TO.P,R11,2*%
%TO.N,GND*%
X144789999Y-123030000D03*
%TD*%
D58*
%TO.P,J11,1,DAT2*%
%TO.N,/Devices/DAT2*%
X149875000Y-102850000D03*
%TO.P,J11,2,DAT3/CD*%
%TO.N,/Devices/DAT3*%
X148775000Y-102850000D03*
%TO.P,J11,3,CMD*%
%TO.N,/Devices/CMD*%
X147675000Y-102849999D03*
%TO.P,J11,4,VDD*%
%TO.N,/Devices/SDPWR*%
X146575000Y-102850000D03*
%TO.P,J11,5,CLK*%
%TO.N,/Devices/CLK*%
X145475000Y-102849999D03*
%TO.P,J11,6,VSS*%
%TO.N,GND*%
X144375000Y-102850000D03*
%TO.P,J11,7,DAT0*%
%TO.N,/Devices/DAT0*%
X143275000Y-102849999D03*
%TO.P,J11,8,DAT1*%
%TO.N,/Devices/DAT1*%
X142175000Y-102850000D03*
%TO.P,J11,9,DET_B*%
%TO.N,/Devices/SD_SW*%
X141225000Y-102850000D03*
D59*
%TO.P,J11,10,DET_A*%
%TO.N,+3.3V*%
X140275000Y-92350000D03*
D60*
%TO.P,J11,11,SHIELD*%
%TO.N,GND*%
X140275000Y-88200000D03*
D61*
X140275000Y-98550000D03*
X151425000Y-102850000D03*
D62*
X153775000Y-87750000D03*
%TD*%
D63*
%TO.P,Q6,1,S1*%
%TO.N,/Devices/SDPWR*%
X145400000Y-106420000D03*
%TO.P,Q6,2,G1*%
%TO.N,Net-(Q6-G1)*%
X146050000Y-106420001D03*
%TO.P,Q6,3,D2*%
%TO.N,+3.3V*%
X146700000Y-106420000D03*
%TO.P,Q6,4,S2*%
%TO.N,/Devices/PWR*%
X146700000Y-108320000D03*
%TO.P,Q6,5,G2*%
%TO.N,Net-(Q6-G2)*%
X146050000Y-108319999D03*
%TO.P,Q6,6,D1*%
%TO.N,+3.3V*%
X145400000Y-108320000D03*
%TD*%
D29*
%TO.P,C1,1*%
%TO.N,Net-(U1-IN)*%
X162738951Y-116453953D03*
%TO.P,C1,2*%
%TO.N,GND*%
X162738951Y-117413953D03*
%TD*%
D57*
%TO.P,C17,1*%
%TO.N,Net-(C17-Pad1)*%
X125754995Y-109671598D03*
%TO.P,C17,2*%
%TO.N,GND*%
X124795003Y-109671600D03*
%TD*%
%TO.P,C9,1*%
%TO.N,GND*%
X134429999Y-111500001D03*
%TO.P,C9,2*%
%TO.N,Net-(Q5-D)*%
X133469999Y-111500001D03*
%TD*%
D31*
%TO.P,C16,1*%
%TO.N,/Power/Servo Power/SERVO+*%
X130335606Y-101563526D03*
%TO.P,C16,2*%
%TO.N,GND*%
X127436472Y-98664388D03*
%TD*%
D64*
%TO.P,R5,1*%
%TO.N,GND*%
X151944466Y-122827784D03*
%TO.P,R5,2*%
%TO.N,Net-(Q1-G)*%
X152375534Y-123752216D03*
%TD*%
D35*
%TO.P,R4,1*%
%TO.N,Net-(U1-PRETERM)*%
X162498950Y-114083952D03*
%TO.P,R4,2*%
%TO.N,GND*%
X161478952Y-114083952D03*
%TD*%
D65*
%TO.N,GND*%
X130550000Y-97640000D03*
D66*
X144120000Y-120549999D03*
X142067116Y-90900132D03*
X147230000Y-90690000D03*
X141758849Y-117316488D03*
D67*
X136500000Y-106040000D03*
X139090000Y-98010000D03*
D68*
X148860000Y-125620000D03*
D67*
X163970000Y-117620000D03*
X146390000Y-122060000D03*
X156680000Y-110520000D03*
D66*
X137370000Y-106610000D03*
D69*
X161670000Y-101560000D03*
D66*
X168390000Y-100200000D03*
X151090000Y-115870000D03*
D70*
X157657417Y-95459500D03*
D67*
X135740000Y-109600000D03*
X140090000Y-127190000D03*
X156650000Y-114100000D03*
D69*
X153580000Y-85980000D03*
D67*
X151460000Y-122020000D03*
X136390000Y-112575000D03*
D66*
X137240000Y-88025000D03*
X169307789Y-117086626D03*
D69*
X140290000Y-85930000D03*
X155780000Y-88900000D03*
D66*
X143445895Y-95246892D03*
D69*
X151010000Y-118210000D03*
X129360000Y-115990000D03*
D67*
X160713951Y-115655966D03*
D66*
X144600000Y-113400000D03*
D68*
X136550000Y-128950000D03*
D66*
X132390000Y-95610000D03*
X141090000Y-97050000D03*
D67*
X149890000Y-104410000D03*
D66*
X147700000Y-116900000D03*
X149170000Y-113380000D03*
X152510000Y-90830000D03*
D69*
X136550000Y-114370000D03*
D67*
X135660000Y-101340000D03*
D66*
X141701000Y-112400000D03*
D70*
X144400000Y-104100000D03*
D66*
X153870000Y-101990000D03*
D67*
X124590000Y-108250000D03*
%TO.N,/Power/Battery Direct/FILT_BATT*%
X142830000Y-124530000D03*
D69*
X149960000Y-122510000D03*
D67*
X145550000Y-126800000D03*
X149020000Y-127890000D03*
%TO.N,+3.3V*%
X155720000Y-113040000D03*
D66*
X153900000Y-101020000D03*
X156940000Y-102440000D03*
D67*
X140000000Y-111679949D03*
D66*
X142945499Y-114625696D03*
D67*
X126504995Y-110516739D03*
D66*
X142960363Y-113599027D03*
X150051600Y-113401762D03*
D69*
X138967574Y-90844839D03*
D67*
X133660000Y-106870000D03*
D66*
X153720000Y-116380000D03*
X142480362Y-117662063D03*
X134110000Y-93790000D03*
D69*
X137800000Y-98430000D03*
D70*
X139990000Y-124280000D03*
D67*
X147980000Y-106249000D03*
D66*
X141275002Y-98620000D03*
X139300000Y-95370000D03*
D65*
%TO.N,/Power/Servo Power/SERVO+*%
X133490000Y-100530000D03*
D71*
%TO.N,/Power/Battery Direct/BATT_OUT*%
X135190000Y-119050000D03*
D69*
X153400000Y-121300000D03*
D66*
%TO.N,+BATT*%
X141360000Y-124390000D03*
D67*
X140190000Y-121940000D03*
D70*
X153860000Y-99140000D03*
D66*
X141900000Y-121610000D03*
D67*
%TO.N,+5V*%
X143800000Y-92670000D03*
D69*
X160950000Y-97490000D03*
D67*
X149510000Y-92850000D03*
X153320000Y-94000000D03*
D66*
X159030000Y-93620000D03*
D67*
%TO.N,VBUS*%
X161440000Y-109120000D03*
X162060000Y-111160000D03*
X162690000Y-106350000D03*
D66*
X169370000Y-113350000D03*
%TO.N,/Devices/DAT2*%
X149480000Y-101260000D03*
%TO.N,/Devices/DAT3*%
X147848529Y-101700000D03*
%TO.N,/Devices/DAT1*%
X144100000Y-105500000D03*
%TO.N,/Devices/CLK*%
X146071818Y-101774041D03*
%TO.N,/Devices/SDPWR*%
X147380000Y-95910000D03*
D67*
X146575000Y-104625000D03*
X154010000Y-106950000D03*
D66*
%TO.N,/Devices/DAT0*%
X144890681Y-100850000D03*
%TO.N,/Devices/SD_SW*%
X142200000Y-101700000D03*
%TO.N,/Devices/CMD*%
X146900000Y-100900000D03*
%TO.N,Net-(Q3-G)*%
X144684444Y-125080623D03*
X143786631Y-127693452D03*
%TO.N,/Microcontroller/POWER_ON*%
X138800000Y-101990000D03*
X139270000Y-112650000D03*
X139450000Y-126170000D03*
D67*
%TO.N,/Devices/PWR*%
X147430000Y-107980000D03*
D66*
X148600000Y-115900000D03*
X143045660Y-119554898D03*
X138260003Y-88025000D03*
%TO.N,Net-(U2-VSET)*%
X139430000Y-118570000D03*
X144990000Y-118840000D03*
D67*
%TO.N,/Microcontroller/KEEP_ON*%
X151780000Y-98750000D03*
D66*
%TO.N,/Microcontroller/VSENSE*%
X138234620Y-112964620D03*
X141450000Y-106230000D03*
X139980000Y-110250000D03*
%TO.N,/Microcontroller/SERVO_ON*%
X138881149Y-105528967D03*
%TO.N,Net-(U5-V_{FB})*%
X159070000Y-96280000D03*
%TO.N,SDA*%
X136050000Y-92000000D03*
%TO.N,SCL*%
X138000000Y-92000000D03*
%TO.N,/Microcontroller/Essentials/BOOT0*%
X143200000Y-94300000D03*
X143216756Y-100834717D03*
%TO.N,/Microcontroller/Essentials/SW_BOOT0*%
X136568058Y-93441942D03*
X137160000Y-92140000D03*
%TO.N,/Devices/IMU_CS*%
X143408724Y-115371437D03*
X140700000Y-113700000D03*
%TO.N,/Devices/SD_ON*%
X141420000Y-104210000D03*
X138729619Y-102849806D03*
%TO.N,/Devices/SENSE_ON*%
X145480792Y-109145000D03*
%TO.N,/Devices/BMP_INT*%
X147074078Y-115777697D03*
X144281979Y-108700000D03*
%TO.N,/Microcontroller/PG*%
X142450000Y-109610000D03*
X150460000Y-109630000D03*
X152610000Y-109680000D03*
X147525000Y-109272761D03*
%TO.N,/Microcontroller/CHG*%
X147320000Y-112360000D03*
X152630000Y-111610000D03*
%TO.N,SDO*%
X144862229Y-115335151D03*
X143493677Y-108836323D03*
X140100000Y-112800000D03*
%TO.N,SDI*%
X145736657Y-112331672D03*
X141018190Y-114434000D03*
X145800000Y-114900000D03*
D67*
%TO.N,Net-(Q5-D)*%
X133529570Y-109574641D03*
X130418252Y-108516602D03*
D68*
%TO.N,Net-(J1-Pin_1)*%
X156700000Y-124110000D03*
D66*
%TO.N,GND*%
X132330000Y-103850000D03*
%TD*%
D72*
%TO.N,GND*%
X127289999Y-116489999D02*
X128240000Y-116489999D01*
D73*
X124590000Y-108250000D02*
X128000000Y-108250000D01*
D74*
X147480000Y-117830001D02*
X147480000Y-119080001D01*
D72*
X127125001Y-107710201D02*
X127764800Y-108350000D01*
X129074999Y-108989799D02*
X128435200Y-108350000D01*
D73*
X160658905Y-115600047D02*
X160658905Y-115600920D01*
D75*
X130115612Y-98664388D02*
X127436472Y-98664388D01*
D76*
X149954874Y-119080001D02*
X150139999Y-119080001D01*
D72*
X163603953Y-117253953D02*
X163970000Y-117620000D01*
D73*
X161478952Y-114780000D02*
X160658905Y-115600047D01*
D72*
X134429999Y-111500001D02*
X135315001Y-111500001D01*
X162738951Y-117253953D02*
X163603953Y-117253953D01*
D75*
X153775000Y-86175000D02*
X153580000Y-85980000D01*
D73*
X136530000Y-89000000D02*
X137030000Y-89500000D01*
D72*
X135315001Y-111500001D02*
X136390000Y-112575000D01*
X156187500Y-96687500D02*
X156187500Y-98017500D01*
X127030000Y-115980000D02*
X127030000Y-116230000D01*
D74*
X146059999Y-116410000D02*
X147480000Y-117830001D01*
D76*
X136170001Y-114749999D02*
X136550000Y-114370000D01*
D72*
X127774999Y-109721600D02*
X127774999Y-108675001D01*
D76*
X134560000Y-114749999D02*
X136170001Y-114749999D01*
X149954874Y-119080001D02*
X147480000Y-119080001D01*
D73*
X143950000Y-114050000D02*
X144600000Y-113400000D01*
D76*
X140275000Y-85945000D02*
X140290000Y-85930000D01*
D77*
X143880000Y-111830000D02*
X143880000Y-111842904D01*
D72*
X156190000Y-98020000D02*
X156687500Y-97522500D01*
D75*
X133800429Y-92300431D02*
X127436472Y-98664388D01*
D72*
X129389999Y-113820001D02*
X129890001Y-113319999D01*
X169307789Y-117455694D02*
X169307789Y-117086626D01*
X142480000Y-120215000D02*
X143457112Y-120215000D01*
X128840001Y-113820001D02*
X129389999Y-113820001D01*
X128860001Y-116489999D02*
X129360000Y-115990000D01*
D73*
X137240000Y-88025000D02*
X137240000Y-88245000D01*
D72*
X129074999Y-107710199D02*
X128435198Y-108350000D01*
X129890001Y-115459999D02*
X129360000Y-115990000D01*
X156687500Y-96687500D02*
X156687500Y-95487500D01*
X144789999Y-123030000D02*
X145420000Y-123030000D01*
D73*
X151425000Y-102850000D02*
X151425000Y-102875000D01*
D75*
X162530000Y-100700000D02*
X161670000Y-101560000D01*
D72*
X143792111Y-120549999D02*
X143457112Y-120215000D01*
D76*
X144375000Y-104075000D02*
X144400000Y-104100000D01*
D72*
X140090000Y-127190000D02*
X140090000Y-129810000D01*
X137799999Y-104740001D02*
X136500000Y-106040000D01*
X138250000Y-104740001D02*
X137799999Y-104740001D01*
D75*
X130550000Y-98230000D02*
X130115612Y-98664388D01*
D76*
X144375000Y-102850000D02*
X144375000Y-104075000D01*
D72*
X155610000Y-98980000D02*
X155610000Y-98600000D01*
D75*
X133800433Y-92300431D02*
X133800429Y-92300431D01*
D73*
X151425000Y-102875000D02*
X149890000Y-104410000D01*
D76*
X140275000Y-88200000D02*
X140275000Y-85945000D01*
D72*
X151944466Y-122827784D02*
X151944466Y-122504466D01*
D73*
X160658905Y-115600920D02*
X160713951Y-115655966D01*
D72*
X128435200Y-108350000D02*
X128100000Y-108350000D01*
X128435198Y-108350000D02*
X128100000Y-108350000D01*
D76*
X155800000Y-88880000D02*
X155780000Y-88900000D01*
X138120000Y-115940000D02*
X136550000Y-114370000D01*
D72*
X127774999Y-108675001D02*
X128100000Y-108350000D01*
X167970000Y-118530000D02*
X168290243Y-118209757D01*
D75*
X153775000Y-87750000D02*
X153775000Y-86175000D01*
D72*
X127125001Y-106978401D02*
X127125001Y-107710201D01*
D73*
X137030000Y-88455000D02*
X137030000Y-89500000D01*
D72*
X144120000Y-120549999D02*
X143792111Y-120549999D01*
X168290243Y-118209757D02*
X168553726Y-118209757D01*
X151944466Y-122504466D02*
X151460000Y-122020000D01*
D73*
X124590000Y-108829994D02*
X124795003Y-109034997D01*
D72*
X145420000Y-123030000D02*
X146390000Y-122060000D01*
X129074999Y-109721599D02*
X129074999Y-108989799D01*
D74*
X140275000Y-98550000D02*
X139630000Y-98550000D01*
D77*
X141767000Y-112466000D02*
X141701000Y-112400000D01*
D72*
X164449998Y-115250000D02*
X166599999Y-115250000D01*
D73*
X161478952Y-114780000D02*
X161478952Y-114083952D01*
X128000000Y-108250000D02*
X128100000Y-108350000D01*
X124795003Y-109034997D02*
X124795003Y-109671600D01*
D77*
X143256904Y-112466000D02*
X141767000Y-112466000D01*
D73*
X136060000Y-89000000D02*
X136530000Y-89000000D01*
D76*
X155800000Y-87250000D02*
X155800000Y-88880000D01*
D72*
X129890001Y-113319999D02*
X129890001Y-115459999D01*
D73*
X124590000Y-108250000D02*
X124590000Y-108829994D01*
D72*
X156187500Y-95487500D02*
X156437500Y-95237500D01*
D73*
X143950000Y-114200000D02*
X143950000Y-114050000D01*
D78*
X135180000Y-126170000D02*
X136550000Y-127540000D01*
D73*
X161478952Y-115433953D02*
X161478952Y-114780000D01*
D72*
X127030000Y-116230000D02*
X127289999Y-116489999D01*
X156187500Y-98017500D02*
X156190000Y-98020000D01*
X145010000Y-120549999D02*
X144120000Y-120549999D01*
X157435417Y-95237500D02*
X157657417Y-95459500D01*
X156187500Y-96687500D02*
X156187500Y-95487500D01*
D78*
X136550000Y-127540000D02*
X136550000Y-128950000D01*
D72*
X156687500Y-95487500D02*
X156437500Y-95237500D01*
D75*
X130550000Y-97640000D02*
X130550000Y-98230000D01*
D76*
X150139999Y-119080001D02*
X151010000Y-118210000D01*
D75*
X162530000Y-99629999D02*
X162530000Y-100700000D01*
D76*
X138130000Y-115940000D02*
X138120000Y-115940000D01*
D73*
X169550464Y-116843951D02*
X169307789Y-117086626D01*
D72*
X156687500Y-97522500D02*
X156687500Y-96687500D01*
D74*
X139630000Y-98550000D02*
X139090000Y-98010000D01*
D72*
X168553726Y-118209757D02*
X169307789Y-117455694D01*
X129074999Y-106978399D02*
X129074999Y-107710199D01*
X155610000Y-98600000D02*
X156190000Y-98020000D01*
D77*
X143880000Y-111842904D02*
X143256904Y-112466000D01*
D73*
X170488951Y-116843951D02*
X169550464Y-116843951D01*
D72*
X156437500Y-95237500D02*
X157435417Y-95237500D01*
X127764800Y-108350000D02*
X128100000Y-108350000D01*
D73*
X137240000Y-88245000D02*
X137030000Y-88455000D01*
D72*
X128240000Y-116489999D02*
X128860001Y-116489999D01*
%TO.N,Net-(U1-IN)*%
X163102904Y-116250000D02*
X162738951Y-116613953D01*
D73*
X160118953Y-116613953D02*
X159238951Y-115733951D01*
D72*
X164449999Y-116250000D02*
X163102904Y-116250000D01*
D73*
X162738951Y-116613953D02*
X160118953Y-116613953D01*
D72*
%TO.N,/Power/Battery Direct/BATT_CHARGE*%
X163336048Y-119493952D02*
X165316048Y-117513952D01*
X168749999Y-116250000D02*
X168749999Y-116752904D01*
X168749999Y-116752904D02*
X167988951Y-117513952D01*
X160803951Y-119493952D02*
X163336048Y-119493952D01*
X165316048Y-117513952D02*
X167988951Y-117513952D01*
D76*
%TO.N,/Power/Battery Direct/FILT_BATT*%
X149954874Y-122504874D02*
X149960000Y-122510000D01*
X151770001Y-120979999D02*
X149954874Y-120979999D01*
D74*
X142330000Y-125280000D02*
X142330000Y-125030000D01*
X142330000Y-125030000D02*
X142830000Y-124530000D01*
X150220000Y-127890000D02*
X150497900Y-128167900D01*
D76*
X152698335Y-120051665D02*
X151770001Y-120979999D01*
D73*
X144480000Y-127130000D02*
X145220000Y-127130000D01*
X145220000Y-127130000D02*
X145550000Y-126800000D01*
D76*
X149954874Y-120979999D02*
X147480000Y-120979999D01*
X152698335Y-120051169D02*
X152698335Y-120051665D01*
D74*
X149020000Y-127890000D02*
X150220000Y-127890000D01*
D76*
X149954874Y-120979999D02*
X149954874Y-122504874D01*
D74*
X150497900Y-128174820D02*
X150494820Y-128174820D01*
X150497900Y-128167900D02*
X150497900Y-128174820D01*
D72*
%TO.N,+3.3V*%
X142945499Y-114625696D02*
X142475696Y-114625696D01*
D74*
X142907938Y-117662063D02*
X142480362Y-117662063D01*
D77*
X145499000Y-107905417D02*
X145760418Y-107643999D01*
X145400000Y-108035583D02*
X145499000Y-107936583D01*
D72*
X149450000Y-107719000D02*
X147980000Y-106249000D01*
X146880000Y-106600000D02*
X147629000Y-106600000D01*
X149450000Y-111130000D02*
X149450000Y-107719000D01*
X142480000Y-117662425D02*
X142480362Y-117662063D01*
D77*
X146700000Y-106735583D02*
X146700000Y-106420000D01*
D73*
X127125001Y-109896733D02*
X126504995Y-110516739D01*
D72*
X142500000Y-116410000D02*
X142500000Y-117642425D01*
D77*
X145791584Y-107643999D02*
X146700000Y-106735583D01*
X145499000Y-107936583D02*
X145499000Y-107905417D01*
D72*
X146700000Y-106420000D02*
X146880000Y-106600000D01*
D73*
X127125001Y-109721601D02*
X127125001Y-109896733D01*
D72*
X150051600Y-113401762D02*
X150051600Y-111731600D01*
D74*
X142743756Y-111830000D02*
X142553756Y-111640000D01*
D73*
X156940000Y-102440000D02*
X155320000Y-102440000D01*
D76*
X140275000Y-92350000D02*
X140275000Y-92152265D01*
D72*
X150051600Y-111731600D02*
X149450000Y-111130000D01*
D74*
X142553756Y-111640000D02*
X140039949Y-111640000D01*
X140039949Y-111640000D02*
X140000000Y-111679949D01*
D72*
X142475696Y-114625696D02*
X142050000Y-114200000D01*
X142480000Y-118845000D02*
X142480000Y-117662425D01*
D74*
X142920000Y-111830000D02*
X142743756Y-111830000D01*
D77*
X145760418Y-107643999D02*
X145791584Y-107643999D01*
X145400000Y-108320000D02*
X145400000Y-108035583D01*
D72*
X147629000Y-106600000D02*
X147980000Y-106249000D01*
D74*
X144160001Y-116410000D02*
X142907938Y-117662063D01*
X139980000Y-125180000D02*
X139980000Y-124290000D01*
D76*
X140275000Y-92152265D02*
X138967574Y-90844839D01*
D74*
X139980000Y-124290000D02*
X139990000Y-124280000D01*
D73*
X155320000Y-102440000D02*
X153900000Y-101020000D01*
D72*
X142500000Y-117642425D02*
X142480362Y-117662063D01*
%TO.N,Net-(U3-BST)*%
X131460000Y-115810000D02*
X132039999Y-115230001D01*
X132039999Y-115230001D02*
X132039999Y-114320000D01*
D74*
%TO.N,Net-(U3-SW)*%
X130450001Y-118140000D02*
X130450001Y-115859999D01*
X130450001Y-115859999D02*
X130500000Y-115810000D01*
D72*
X130500000Y-115810000D02*
X130440000Y-115750000D01*
X130440000Y-115750000D02*
X130440000Y-113319999D01*
D73*
%TO.N,/Power/Servo Power/SERVO+*%
X133195000Y-108495000D02*
X132885000Y-108495000D01*
D75*
X133490000Y-100530000D02*
X133490000Y-99290000D01*
X133490000Y-99290000D02*
X133482232Y-99282232D01*
X136699567Y-95199569D02*
X136699563Y-95199569D01*
X130335606Y-101563526D02*
X132456474Y-101563526D01*
X130850000Y-106460000D02*
X130850000Y-102077920D01*
D73*
X132885000Y-108495000D02*
X130850000Y-106460000D01*
D75*
X136699563Y-95199569D02*
X130335606Y-101563526D01*
X132456474Y-101563526D02*
X133490000Y-100530000D01*
D73*
X133195000Y-108495000D02*
X133564927Y-108125072D01*
D75*
X133482232Y-99282232D02*
X133482232Y-98346190D01*
X130850000Y-102077920D02*
X130335606Y-101563526D01*
D73*
X132822465Y-108867536D02*
X133195000Y-108495000D01*
D72*
%TO.N,/Power/Battery Direct/BATT_OUT*%
X154419368Y-124059368D02*
X154780367Y-123891031D01*
X153881665Y-122588831D02*
X153881665Y-123521665D01*
D75*
X135180000Y-119060000D02*
X135190000Y-119050000D01*
D72*
X157503951Y-119493952D02*
X154310250Y-122687653D01*
X154310250Y-123730000D02*
X154310250Y-124110250D01*
X154291031Y-123891031D02*
X154220125Y-123820125D01*
D75*
X153881665Y-121781665D02*
X153400000Y-121300000D01*
D72*
X132716996Y-113819998D02*
X133249999Y-114353001D01*
X154310250Y-124110250D02*
X154419368Y-124059368D01*
X154310250Y-122687653D02*
X154310250Y-123590000D01*
D75*
X153881665Y-122588831D02*
X153881665Y-121781665D01*
D78*
X135180000Y-121070000D02*
X135180000Y-120070001D01*
D72*
X153828743Y-124334781D02*
X154310250Y-124110250D01*
D73*
X153881665Y-122588831D02*
X154780367Y-123891031D01*
D72*
X154310250Y-123590000D02*
X154310250Y-123730000D01*
X154780367Y-123891031D02*
X154291031Y-123891031D01*
D78*
X135180000Y-120070001D02*
X133249999Y-118140000D01*
D75*
X135180000Y-121070000D02*
X135180000Y-119060000D01*
D78*
X135930000Y-118140000D02*
X136044034Y-118025966D01*
D72*
X153828743Y-124334781D02*
X153881665Y-122588831D01*
X132039999Y-113819998D02*
X132716996Y-113819998D01*
X154220125Y-123820125D02*
X154310250Y-123730000D01*
X153881665Y-123161415D02*
X154310250Y-123590000D01*
D78*
X136044034Y-118025966D02*
X136044034Y-120205966D01*
X133249999Y-118140000D02*
X135930000Y-118140000D01*
D72*
X153828743Y-124211507D02*
X154220125Y-123820125D01*
X153881665Y-123521665D02*
X154419368Y-124059368D01*
X133249999Y-114353001D02*
X133249999Y-118140000D01*
D78*
X136044034Y-120205966D02*
X135180000Y-121070000D01*
D72*
X153881665Y-122588831D02*
X153881665Y-123161415D01*
X153828743Y-124334781D02*
X153828743Y-124211507D01*
%TO.N,Net-(U3-VCC)*%
X132039999Y-112819997D02*
X134529996Y-112819997D01*
X134529996Y-112819997D02*
X134560000Y-112850001D01*
%TO.N,+BATT*%
X158360000Y-94960000D02*
X159680000Y-94960000D01*
D77*
X141630000Y-124660000D02*
X141360000Y-124390000D01*
D72*
X141980000Y-120215000D02*
X141980000Y-121530000D01*
X155687500Y-96687500D02*
X155687500Y-97312500D01*
X159680000Y-94960000D02*
X160290000Y-95570000D01*
X157187500Y-93787500D02*
X158360000Y-94960000D01*
X157314260Y-99665740D02*
X156410000Y-100570000D01*
D74*
X139739999Y-121299998D02*
X139730000Y-121289999D01*
D72*
X160290000Y-96780000D02*
X159280000Y-97790000D01*
X159280000Y-97790000D02*
X158137106Y-97790000D01*
X157314260Y-98612846D02*
X157314260Y-99665740D01*
D74*
X140190000Y-121940000D02*
X139739999Y-121940000D01*
D76*
X157600000Y-90690000D02*
X157210000Y-90300000D01*
X157210000Y-90300000D02*
X157210000Y-87740000D01*
D73*
X157600000Y-90690000D02*
X160290000Y-93380000D01*
D72*
X141980000Y-121530000D02*
X141900000Y-121610000D01*
X155687500Y-97312500D02*
X153860000Y-99140000D01*
D76*
X157210000Y-87740000D02*
X157700000Y-87250000D01*
D72*
X156410000Y-100570000D02*
X155290000Y-100570000D01*
D74*
X139739999Y-122530000D02*
X139739999Y-121940000D01*
D73*
X160290000Y-93380000D02*
X160290000Y-95570000D01*
D72*
X160290000Y-95570000D02*
X160290000Y-96780000D01*
D77*
X141630000Y-125055000D02*
X141630000Y-124660000D01*
D74*
X139739999Y-121940000D02*
X139739999Y-121299998D01*
D72*
X155290000Y-100570000D02*
X153860000Y-99140000D01*
X158137106Y-97790000D02*
X157314260Y-98612846D01*
%TO.N,+5V*%
X157980000Y-92840000D02*
X158760000Y-93620000D01*
D75*
X162530000Y-97730001D02*
X161190001Y-97730001D01*
D72*
X158760000Y-93620000D02*
X159030000Y-93620000D01*
X156187500Y-93262500D02*
X156610000Y-92840000D01*
X156687500Y-93787500D02*
X156687500Y-93252500D01*
X159030000Y-93620000D02*
X159080000Y-93620000D01*
D75*
X161190001Y-97730001D02*
X160950000Y-97490000D01*
D72*
X156187500Y-93787500D02*
X156187500Y-93262500D01*
X156687500Y-93252500D02*
X157100000Y-92840000D01*
X156610000Y-92840000D02*
X157980000Y-92840000D01*
%TO.N,VBUS*%
X170488951Y-113323953D02*
X169396047Y-113323953D01*
X169396047Y-113323953D02*
X169370000Y-113350000D01*
D74*
X160286047Y-112933953D02*
X159238951Y-112933953D01*
X162060000Y-111160000D02*
X160286047Y-112933953D01*
D79*
%TO.N,/Devices/DAT2*%
X149480000Y-101260000D02*
X149480000Y-101390000D01*
X149875000Y-101785000D02*
X149875000Y-102850000D01*
X149480000Y-101390000D02*
X149875000Y-101785000D01*
%TO.N,/Devices/DAT3*%
X148049997Y-101749997D02*
X148775000Y-102475000D01*
X147848529Y-101700000D02*
X147898526Y-101749997D01*
X148775000Y-102475000D02*
X148775000Y-102850000D01*
X147898526Y-101749997D02*
X148049997Y-101749997D01*
%TO.N,/Devices/DAT1*%
X144025000Y-105500000D02*
X144100000Y-105500000D01*
X142175000Y-102850000D02*
X142175000Y-103650000D01*
X142175000Y-103650000D02*
X144025000Y-105500000D01*
%TO.N,/Devices/CLK*%
X146071818Y-101774041D02*
X146071818Y-101828182D01*
X146071818Y-101828182D02*
X145475000Y-102425000D01*
X145475000Y-102425000D02*
X145475000Y-102849999D01*
D73*
%TO.N,/Devices/SDPWR*%
X145425000Y-106395000D02*
X145425000Y-105775000D01*
X145400000Y-106420000D02*
X145425000Y-106395000D01*
X146575000Y-104625000D02*
X146575000Y-102850000D01*
X145425000Y-105775000D02*
X146575000Y-104625000D01*
D72*
%TO.N,/Devices/DAT0*%
X144890681Y-100850000D02*
X144842875Y-100802194D01*
D79*
X144842875Y-100802194D02*
X144097806Y-100802194D01*
X144097806Y-100802194D02*
X143275000Y-101625000D01*
X143275000Y-101625000D02*
X143275000Y-102849999D01*
%TO.N,/Devices/SD_SW*%
X141225000Y-102050000D02*
X141575000Y-101700000D01*
X141575000Y-101700000D02*
X142200000Y-101700000D01*
X141225000Y-102850000D02*
X141225000Y-102050000D01*
%TO.N,/Devices/CMD*%
X146900000Y-100800000D02*
X146900000Y-101600000D01*
X147675000Y-102375000D02*
X147675000Y-102849999D01*
X146900000Y-101600000D02*
X147675000Y-102375000D01*
D72*
%TO.N,Net-(U2-SW)*%
X141741552Y-118064000D02*
X141324000Y-118064000D01*
X141966000Y-118288448D02*
X141741552Y-118064000D01*
X141980000Y-118720000D02*
X141966000Y-118706000D01*
X140800000Y-117540000D02*
X140800000Y-116410000D01*
X141980000Y-118845000D02*
X141980000Y-118720000D01*
X141966000Y-118706000D02*
X141966000Y-118288448D01*
X141324000Y-118064000D02*
X140800000Y-117540000D01*
%TO.N,Net-(U5-SW)*%
X155687500Y-93787500D02*
X155687500Y-90902500D01*
X155687500Y-90902500D02*
X155900000Y-90690000D01*
D79*
%TO.N,Net-(Q2-G)*%
X141105001Y-126780001D02*
X140205000Y-125880000D01*
X141320000Y-126780001D02*
X141105001Y-126780001D01*
X141630000Y-125505000D02*
X141630000Y-126470001D01*
X141630000Y-126010001D02*
X141630000Y-125505000D01*
X141630000Y-126470001D02*
X141320000Y-126780001D01*
X142400000Y-126780001D02*
X141630000Y-126010001D01*
D72*
%TO.N,Net-(Q3-S)*%
X143180000Y-127460000D02*
X143180000Y-126270000D01*
D77*
X144706000Y-126429000D02*
X144705000Y-126430000D01*
D72*
X143180000Y-126270000D02*
X143729001Y-125720999D01*
X143729001Y-125720999D02*
X144572999Y-125720999D01*
X144731000Y-125879000D02*
X144731000Y-126430000D01*
X144572999Y-125720999D02*
X144731000Y-125879000D01*
X142840001Y-127799999D02*
X143180000Y-127460000D01*
X142400000Y-127799999D02*
X142840001Y-127799999D01*
D79*
%TO.N,Net-(Q3-G)*%
X144684444Y-125080623D02*
X143789376Y-125080623D01*
X144028000Y-126430000D02*
X143786631Y-126671369D01*
X144255000Y-126430000D02*
X144028000Y-126430000D01*
X143786631Y-126671369D02*
X143786631Y-127693452D01*
X143789376Y-125080623D02*
X143770000Y-125099999D01*
%TO.N,/Microcontroller/POWER_ON*%
X139482149Y-102672149D02*
X138800000Y-101990000D01*
X139270000Y-112650000D02*
X139270000Y-105990059D01*
X139482149Y-105777910D02*
X139482149Y-102672149D01*
X139270000Y-105990059D02*
X139482149Y-105777910D01*
X139740000Y-125880000D02*
X139450000Y-126170000D01*
X139755000Y-125880000D02*
X139740000Y-125880000D01*
D73*
%TO.N,/Devices/PWR*%
X138260003Y-88739997D02*
X138260003Y-88025000D01*
X138000000Y-89000000D02*
X138260003Y-88739997D01*
X146910000Y-108500000D02*
X146880000Y-108500000D01*
X146880000Y-108500000D02*
X146700000Y-108320000D01*
X147430000Y-107980000D02*
X146910000Y-108500000D01*
D72*
%TO.N,Net-(U1-ISET)*%
X162814997Y-115750000D02*
X162498950Y-115433953D01*
X164449999Y-115750000D02*
X162814997Y-115750000D01*
%TO.N,Net-(U1-ISET2)*%
X168749999Y-114750000D02*
X170082902Y-114750000D01*
X170082902Y-114750000D02*
X170488951Y-114343951D01*
%TO.N,Net-(U1-TS)*%
X170414998Y-115750000D02*
X170488951Y-115823953D01*
X168749999Y-115750000D02*
X170414998Y-115750000D01*
%TO.N,Net-(U1-PRETERM)*%
X164449999Y-114750000D02*
X163164998Y-114750000D01*
X163164998Y-114750000D02*
X162498950Y-114083952D01*
D79*
%TO.N,Net-(U2-EN)*%
X139785001Y-120215000D02*
X139730000Y-120270001D01*
X141480000Y-120215000D02*
X139785001Y-120215000D01*
%TO.N,Net-(U2-VSET)*%
X140980000Y-118845000D02*
X139705000Y-118845000D01*
X139705000Y-118845000D02*
X139430000Y-118570000D01*
D72*
X145010000Y-119530001D02*
X145010000Y-118860000D01*
X145010000Y-118860000D02*
X144990000Y-118840000D01*
%TO.N,Net-(SW1-A)*%
X144878160Y-130270000D02*
X143790000Y-130270000D01*
X146002100Y-129146060D02*
X144878160Y-130270000D01*
X146002100Y-128174820D02*
X146002100Y-129146060D01*
X143790000Y-130270000D02*
X141320000Y-127800000D01*
X141320000Y-127800000D02*
X141320000Y-127799999D01*
%TO.N,/Microcontroller/KEEP_ON*%
X151960000Y-104340000D02*
X152450000Y-103850000D01*
X152900000Y-100940000D02*
X152900000Y-99870000D01*
X144450001Y-122350000D02*
X145010000Y-122350000D01*
X145960000Y-121400000D02*
X145960000Y-120270000D01*
X143770001Y-123030000D02*
X144450001Y-122350000D01*
X145960000Y-120270000D02*
X146200000Y-120030000D01*
X151030000Y-120030000D02*
X151960000Y-119100000D01*
X145010000Y-122350000D02*
X145960000Y-121400000D01*
X146200000Y-120030000D02*
X151030000Y-120030000D01*
X152450000Y-103850000D02*
X152900000Y-103400000D01*
X152900000Y-103400000D02*
X152900000Y-100940000D01*
X143770000Y-124080001D02*
X143770001Y-123030000D01*
X151960000Y-119100000D02*
X151960000Y-104340000D01*
X152900000Y-99870000D02*
X151780000Y-98750000D01*
D79*
%TO.N,/Microcontroller/VSENSE*%
X138720001Y-117684867D02*
X138720001Y-122530000D01*
X138234620Y-112964620D02*
X138234620Y-113724620D01*
X138234620Y-113724620D02*
X139693525Y-115183525D01*
X139980000Y-110250000D02*
X139980000Y-107700000D01*
D72*
X138720001Y-122530000D02*
X138720001Y-126980001D01*
D79*
X139980000Y-107700000D02*
X141450000Y-106230000D01*
X139693525Y-115183525D02*
X139693525Y-116711343D01*
D72*
X139070000Y-127330000D02*
X139070000Y-129810000D01*
X138720001Y-126980001D02*
X139070000Y-127330000D01*
D79*
X139693525Y-116711343D02*
X138720001Y-117684867D01*
D72*
%TO.N,/Microcontroller/SERVO_ON*%
X135815082Y-113760000D02*
X136156082Y-113419000D01*
X132039999Y-113319999D02*
X133439999Y-113319999D01*
X133880000Y-113760000D02*
X135815082Y-113760000D01*
X138250000Y-105759999D02*
X138650117Y-105759999D01*
X138650117Y-105759999D02*
X138881149Y-105528967D01*
X138169000Y-112111000D02*
X138169000Y-105840999D01*
X136156082Y-113419000D02*
X136861000Y-113419000D01*
X136861000Y-113419000D02*
X138169000Y-112111000D01*
X133439999Y-113319999D02*
X133880000Y-113760000D01*
X138169000Y-105840999D02*
X138250000Y-105759999D01*
D79*
%TO.N,/Power/Servo Power/Step-Up/PREPOT*%
X129270000Y-110820000D02*
X129190000Y-110900000D01*
X129640000Y-105250000D02*
X129640000Y-110450000D01*
X129640000Y-110450000D02*
X129270000Y-110820000D01*
X129190000Y-110900000D02*
X128840000Y-110900000D01*
X128425001Y-110485001D02*
X128425001Y-109721600D01*
X128840001Y-111249999D02*
X129270000Y-110820000D01*
X128840000Y-110900000D02*
X128425001Y-110485001D01*
X128840001Y-112320001D02*
X128840001Y-111249999D01*
D72*
%TO.N,Net-(U3-FREQ_SYNC)*%
X128840001Y-114870000D02*
X128240000Y-115470001D01*
X128840001Y-114320000D02*
X128840001Y-114870000D01*
%TO.N,Net-(U3-COMP)*%
X128840001Y-112820000D02*
X127450000Y-112820000D01*
X127450000Y-112820000D02*
X126820625Y-112190625D01*
%TO.N,Net-(U3-ILIMIT)*%
X127170000Y-114300000D02*
X127170000Y-114960000D01*
X128149998Y-113320002D02*
X127170000Y-114300000D01*
X128840001Y-113320002D02*
X128149998Y-113320002D01*
%TO.N,Net-(U5-V_{FB})*%
X157307500Y-97892500D02*
X157187500Y-97892500D01*
X157187500Y-97892500D02*
X156630000Y-98450000D01*
X158920000Y-96280000D02*
X159070000Y-96280000D01*
X156630000Y-98450000D02*
X156630000Y-98980000D01*
X158900000Y-96300000D02*
X157307500Y-97892500D01*
X157187500Y-97892500D02*
X157187500Y-96687500D01*
X158900000Y-96300000D02*
X158920000Y-96280000D01*
D77*
%TO.N,SDA*%
X128425001Y-106175001D02*
X127850000Y-105600000D01*
X127850000Y-105600000D02*
X127850000Y-102290000D01*
X128425001Y-106978400D02*
X128425001Y-106175001D01*
X136050000Y-93074702D02*
X136050000Y-92000000D01*
X135540000Y-94600000D02*
X135540000Y-93584702D01*
X136050000Y-90010000D02*
X136060000Y-90000000D01*
X136050000Y-92000000D02*
X136050000Y-90010000D01*
X127850000Y-102290000D02*
X135540000Y-94600000D01*
X135540000Y-93584702D02*
X136050000Y-93074702D01*
%TO.N,SCL*%
X138950000Y-87829699D02*
X138519301Y-87399000D01*
X127774999Y-106978400D02*
X127774999Y-106474999D01*
X127774999Y-106474999D02*
X124650000Y-103350000D01*
X124650000Y-98750000D02*
X136000000Y-87400000D01*
X138000000Y-92000000D02*
X138000000Y-90000000D01*
X124650000Y-103350000D02*
X124650000Y-98750000D01*
X136000000Y-87400000D02*
X138480000Y-87400000D01*
X138950000Y-89050000D02*
X138950000Y-87829699D01*
X138950000Y-89050000D02*
X138000000Y-90000000D01*
D79*
%TO.N,/Microcontroller/Essentials/BOOT0*%
X149100000Y-94300000D02*
X143200000Y-94300000D01*
X143216756Y-100834714D02*
X144451470Y-99600000D01*
X150900000Y-98100000D02*
X150900000Y-96100000D01*
X143216756Y-100834717D02*
X143216756Y-100834714D01*
X144451470Y-99600000D02*
X149400000Y-99600000D01*
X150900000Y-96100000D02*
X149100000Y-94300000D01*
X149400000Y-99600000D02*
X150900000Y-98100000D01*
%TO.N,/Microcontroller/Essentials/SW_BOOT0*%
X137160000Y-92140000D02*
X137160000Y-92850000D01*
X137160000Y-92850000D02*
X136568058Y-93441942D01*
%TO.N,/Devices/IMU_CS*%
X142872393Y-115610000D02*
X141240000Y-115610000D01*
X140320000Y-114690000D02*
X140320000Y-114080000D01*
X143248176Y-115234217D02*
X142872393Y-115610000D01*
X140320000Y-114080000D02*
X140700000Y-113700000D01*
X141240000Y-115610000D02*
X140320000Y-114690000D01*
%TO.N,/Devices/SD_ON*%
X142665001Y-107500000D02*
X142665001Y-105455001D01*
X142665001Y-105455001D02*
X141420000Y-104210000D01*
D73*
%TO.N,/Devices/SENSE_ON*%
X145390001Y-109235791D02*
X145480792Y-109145000D01*
X145390001Y-109900000D02*
X145390001Y-109235791D01*
D79*
%TO.N,/Devices/BMP_INT*%
X144281979Y-108700000D02*
X144281979Y-109050705D01*
X144701000Y-109481000D02*
X144729548Y-109509548D01*
X146337657Y-112367657D02*
X147601000Y-113631000D01*
X144701000Y-109469726D02*
X144701000Y-109481000D01*
X144281979Y-109050705D02*
X144701000Y-109469726D01*
X144729548Y-110474620D02*
X146337657Y-112082729D01*
X147601000Y-113631000D02*
X147601000Y-115250775D01*
X144729548Y-109509548D02*
X144729548Y-110474620D01*
X146337657Y-112082729D02*
X146337657Y-112367657D01*
X147601000Y-115250775D02*
X147074078Y-115777697D01*
D77*
%TO.N,/Microcontroller/PG*%
X154646720Y-110940000D02*
X157774916Y-114068196D01*
X152610000Y-109680000D02*
X153870000Y-110940000D01*
X157774916Y-114068196D02*
X160519014Y-114068196D01*
X161149258Y-113437952D02*
X163637951Y-113437952D01*
X163637951Y-113437952D02*
X164449999Y-114250000D01*
X160519014Y-114068196D02*
X161149258Y-113437952D01*
X153870000Y-110940000D02*
X154646720Y-110940000D01*
%TO.N,/Microcontroller/CHG*%
X170868645Y-115227953D02*
X171134951Y-115494259D01*
X152630000Y-112705467D02*
X152630000Y-111610000D01*
X171134951Y-117173645D02*
X167888644Y-120419952D01*
X167888644Y-120419952D02*
X160344485Y-120419952D01*
X160344485Y-120419952D02*
X152630000Y-112705467D01*
X168750000Y-115250000D02*
X168772047Y-115227953D01*
X171134951Y-115494259D02*
X171134951Y-117173645D01*
X168772047Y-115227953D02*
X170868645Y-115227953D01*
D79*
%TO.N,SDO*%
X144034702Y-113080000D02*
X144414702Y-112700000D01*
X143493677Y-108836323D02*
X143893180Y-109235826D01*
X144414702Y-112700000D02*
X145200000Y-112700000D01*
X143893180Y-109235826D02*
X143900000Y-109235826D01*
X144300000Y-110900000D02*
X144507878Y-111107878D01*
X144507878Y-111107878D02*
X144507878Y-111907878D01*
X142629447Y-113080000D02*
X142711420Y-112998027D01*
X144507878Y-111907878D02*
X145200000Y-112600000D01*
X144300000Y-109635826D02*
X144300000Y-110900000D01*
X140100000Y-112800000D02*
X140380000Y-113080000D01*
X142711420Y-112998027D02*
X143209306Y-112998027D01*
X143900000Y-109235826D02*
X144300000Y-109635826D01*
X140380000Y-113080000D02*
X142629447Y-113080000D01*
X144862229Y-114737771D02*
X144862229Y-115335151D01*
X143291279Y-113080000D02*
X144034702Y-113080000D01*
X145200000Y-112600000D02*
X145200000Y-112700000D01*
X145200000Y-112700000D02*
X145200000Y-114400000D01*
X143209306Y-112998027D02*
X143291279Y-113080000D01*
X145200000Y-114400000D02*
X144862229Y-114737771D01*
%TO.N,SDI*%
X145770000Y-112400000D02*
X145668329Y-112400000D01*
X146500000Y-114900000D02*
X147200000Y-114200000D01*
X147200000Y-114200000D02*
X147200000Y-113830000D01*
X145668329Y-112400000D02*
X145736657Y-112331672D01*
X147200000Y-113830000D02*
X145770000Y-112400000D01*
X145800000Y-114900000D02*
X146500000Y-114900000D01*
D72*
%TO.N,Net-(C17-Pad1)*%
X125754995Y-111124995D02*
X125754995Y-109671598D01*
X126099375Y-111469375D02*
X125754995Y-111124995D01*
%TO.N,Net-(Q5-D)*%
X134024548Y-109079663D02*
X133529570Y-109574641D01*
X130639376Y-108737726D02*
X130418252Y-108516602D01*
X131806273Y-110616275D02*
X132487936Y-110616275D01*
X134484168Y-109044310D02*
X134059901Y-109044310D01*
X130370000Y-109710000D02*
X130639376Y-109440624D01*
X132413725Y-110616275D02*
X134234928Y-108795072D01*
X131992966Y-110616275D02*
X134024548Y-108584693D01*
X130370000Y-110830000D02*
X130370000Y-109710000D01*
X131893310Y-110529238D02*
X131806273Y-110616275D01*
X131992962Y-110616275D02*
X132539620Y-110069617D01*
X132999241Y-110529238D02*
X131893310Y-110529238D01*
X131806273Y-110616275D02*
X131992966Y-110616275D01*
X134484165Y-109044310D02*
X134234928Y-108795072D01*
X132539620Y-110069617D02*
X133034594Y-110069617D01*
X130989999Y-113319999D02*
X130989999Y-111449999D01*
X134024548Y-108584693D02*
X134024548Y-109079663D01*
X131806273Y-110616275D02*
X132912203Y-110616275D01*
X132539620Y-110569622D02*
X133469999Y-111500001D01*
X133034594Y-110069617D02*
X133529570Y-109574641D01*
X131806273Y-110616275D02*
X132413725Y-110616275D01*
X130639376Y-109440624D02*
X130639376Y-108737726D01*
X134059901Y-109044310D02*
X133529570Y-109574641D01*
X132539620Y-110069617D02*
X132539620Y-110569622D01*
X132999241Y-110529238D02*
X132999241Y-110104970D01*
X132999241Y-110104970D02*
X133529570Y-109574641D01*
X132999241Y-110529238D02*
X132539620Y-110069617D01*
X132912203Y-110616275D02*
X134484168Y-109044310D01*
X132487936Y-110616275D02*
X133529570Y-109574641D01*
X131806273Y-110616275D02*
X131992962Y-110616275D01*
X134484168Y-109044310D02*
X134484165Y-109044310D01*
X130989999Y-111449999D02*
X130370000Y-110830000D01*
X134234928Y-108795072D02*
X134024548Y-108584693D01*
%TO.N,Net-(Q5-G)*%
X131190679Y-110779913D02*
X131190679Y-110326773D01*
X131353727Y-110163725D02*
X131907452Y-109610000D01*
X131190679Y-110326773D02*
X131353727Y-110163725D01*
X132039999Y-112319998D02*
X132039999Y-111629233D01*
X132039999Y-111629233D02*
X131190679Y-110779913D01*
X131907452Y-109610000D02*
X132080000Y-109610000D01*
D73*
X132080000Y-109438752D02*
X131360624Y-108719376D01*
X132080000Y-109610000D02*
X132080000Y-109438752D01*
D72*
%TO.N,Net-(Q1-G)*%
X152877118Y-124778531D02*
X152375534Y-123752216D01*
D79*
%TO.N,Net-(Q6-G1)*%
X146075000Y-106445001D02*
X146075000Y-106695000D01*
X145270000Y-107500000D02*
X143684999Y-107500000D01*
X146075000Y-106695000D02*
X145270000Y-107500000D01*
X146050000Y-106420001D02*
X146075000Y-106445001D01*
D73*
%TO.N,Net-(Q6-G2)*%
X146099000Y-108368999D02*
X146050000Y-108319999D01*
X146409999Y-109066291D02*
X146099000Y-108755292D01*
X146099000Y-108755292D02*
X146099000Y-108368999D01*
X146409999Y-109900000D02*
X146409999Y-109066291D01*
D74*
%TO.N,Net-(J1-Pin_1)*%
X153151821Y-125367629D02*
X153426523Y-125956731D01*
X153517234Y-125197234D02*
X153151821Y-125367629D01*
X153426523Y-125956731D02*
X153794937Y-125784937D01*
X153794937Y-125784937D02*
X155329772Y-125069231D01*
D76*
X156700000Y-124110000D02*
X154251359Y-125241088D01*
D74*
X153517234Y-125197234D02*
X153794937Y-125784937D01*
X155055069Y-124480133D02*
X153517234Y-125197234D01*
%TD*%
D80*
X158781189Y-132117589D02*
G75*
G02*
X156696039Y-132856031I-2016189J2379989D01*
G01*
X138696039Y-132856039D02*
G75*
G02*
X136610893Y-132117584I-68939J3118439D01*
G01*
X171509111Y-119389666D02*
X158781189Y-132117588D01*
X122968638Y-117373186D02*
X122968638Y-99373186D01*
X136471192Y-84573283D02*
G75*
G02*
X138556342Y-83834835I2016208J-2380017D01*
G01*
X122968638Y-99373186D02*
G75*
G02*
X123743253Y-97301199I3119162J14686D01*
G01*
X138556342Y-83838454D02*
X156838789Y-83838454D01*
X171651861Y-97304825D02*
X158923939Y-84576903D01*
X136613961Y-132113961D02*
X123886039Y-119386039D01*
X172426483Y-117376806D02*
X172426483Y-99376806D01*
X123886039Y-119386039D02*
G75*
G02*
X122968694Y-117373184I2195261J2215939D01*
G01*
X156696039Y-132856039D02*
X138696039Y-132856039D01*
X172426483Y-117376813D02*
G75*
G02*
X171509128Y-119389684I-3112683J203113D01*
G01*
X123743270Y-97301205D02*
X136471192Y-84573283D01*
X156838789Y-83838453D02*
G75*
G02*
X158923924Y-84576921I68911J-3118447D01*
G01*
X171651862Y-97304825D02*
G75*
G02*
X172426456Y-99376806I-2344562J-2057275D01*
G01*
M02*
