%TF.GenerationSoftware,KiCad,Pcbnew,9.0.2*%
%TF.CreationDate,2025-08-04T17:32:57-07:00*%
%TF.ProjectId,AERoS,4145526f-532e-46b6-9963-61645f706362,rev?*%
%TF.SameCoordinates,Original*%
%TF.FileFunction,Paste,Top*%
%TF.FilePolarity,Positive*%
%FSLAX46Y46*%
G04 Gerber Fmt 4.6, Leading zero omitted, Abs format (unit mm)*
G04 Created by KiCad (PCBNEW 9.0.2) date 2025-08-04 17:32:57*
%MOMM*%
%LPD*%
G01*
G04 APERTURE LIST*
G04 Aperture macros list*
%AMRoundRect*
0 Rectangle with rounded corners*
0 $1 Rounding radius*
0 $2 $3 $4 $5 $6 $7 $8 $9 X,Y pos of 4 corners*
0 Add a 4 corners polygon primitive as box body*
4,1,4,$2,$3,$4,$5,$6,$7,$8,$9,$2,$3,0*
0 Add four circle primitives for the rounded corners*
1,1,$1+$1,$2,$3*
1,1,$1+$1,$4,$5*
1,1,$1+$1,$6,$7*
1,1,$1+$1,$8,$9*
0 Add four rect primitives between the rounded corners*
20,1,$1+$1,$2,$3,$4,$5,0*
20,1,$1+$1,$4,$5,$6,$7,0*
20,1,$1+$1,$6,$7,$8,$9,0*
20,1,$1+$1,$8,$9,$2,$3,0*%
%AMRotRect*
0 Rectangle, with rotation*
0 The origin of the aperture is its center*
0 $1 length*
0 $2 width*
0 $3 Rotation angle, in degrees counterclockwise*
0 Add horizontal line*
21,1,$1,$2,0,0,$3*%
G04 Aperture macros list end*
%ADD10RotRect,2.311400X2.311400X135.000000*%
%ADD11RoundRect,0.140000X-0.170000X0.140000X-0.170000X-0.140000X0.170000X-0.140000X0.170000X0.140000X0*%
%ADD12R,1.240000X0.600000*%
%ADD13R,1.240000X0.300000*%
%ADD14RoundRect,0.140000X0.170000X-0.140000X0.170000X0.140000X-0.170000X0.140000X-0.170000X-0.140000X0*%
%ADD15RoundRect,0.140000X0.021213X-0.219203X0.219203X-0.021213X-0.021213X0.219203X-0.219203X0.021213X0*%
%ADD16RoundRect,0.045833X-0.229167X0.229167X-0.229167X-0.229167X0.229167X-0.229167X0.229167X0.229167X0*%
%ADD17RoundRect,0.135000X0.185000X-0.135000X0.185000X0.135000X-0.185000X0.135000X-0.185000X-0.135000X0*%
%ADD18RoundRect,0.333333X-2.177605X0.901994X-0.901994X-2.177605X2.177605X-0.901994X0.901994X2.177605X0*%
%ADD19RoundRect,0.140000X0.140000X0.170000X-0.140000X0.170000X-0.140000X-0.170000X0.140000X-0.170000X0*%
%ADD20RoundRect,0.135000X-0.135000X-0.185000X0.135000X-0.185000X0.135000X0.185000X-0.135000X0.185000X0*%
%ADD21RotRect,0.250000X0.275000X315.000000*%
%ADD22RotRect,0.275000X0.250000X315.000000*%
%ADD23RoundRect,0.075000X-0.700000X-0.075000X0.700000X-0.075000X0.700000X0.075000X-0.700000X0.075000X0*%
%ADD24RoundRect,0.075000X-0.075000X-0.700000X0.075000X-0.700000X0.075000X0.700000X-0.075000X0.700000X0*%
%ADD25RoundRect,0.250000X-0.750000X0.250000X-0.750000X-0.250000X0.750000X-0.250000X0.750000X0.250000X0*%
%ADD26RoundRect,0.225000X0.106066X-0.424264X0.424264X-0.106066X-0.106066X0.424264X-0.424264X0.106066X0*%
%ADD27RoundRect,0.250000X-1.661158X-0.604612X0.604612X-1.661158X1.661158X0.604612X-0.604612X1.661158X0*%
%ADD28R,0.400000X0.700000*%
%ADD29R,0.400000X0.250000*%
%ADD30RoundRect,0.250000X0.250000X0.475000X-0.250000X0.475000X-0.250000X-0.475000X0.250000X-0.475000X0*%
%ADD31RoundRect,0.225000X-0.225000X-0.250000X0.225000X-0.250000X0.225000X0.250000X-0.225000X0.250000X0*%
%ADD32RoundRect,0.135000X-0.185000X0.135000X-0.185000X-0.135000X0.185000X-0.135000X0.185000X0.135000X0*%
%ADD33RoundRect,0.140000X-0.140000X-0.170000X0.140000X-0.170000X0.140000X0.170000X-0.140000X0.170000X0*%
%ADD34RoundRect,0.218750X0.218750X0.256250X-0.218750X0.256250X-0.218750X-0.256250X0.218750X-0.256250X0*%
%ADD35RoundRect,0.250000X-0.350000X0.450000X-0.350000X-0.450000X0.350000X-0.450000X0.350000X0.450000X0*%
%ADD36RotRect,0.475000X0.250000X315.000000*%
%ADD37RotRect,0.250000X0.475000X315.000000*%
%ADD38RoundRect,0.135000X0.135000X0.185000X-0.135000X0.185000X-0.135000X-0.185000X0.135000X-0.185000X0*%
%ADD39RoundRect,0.225000X-0.250000X0.225000X-0.250000X-0.225000X0.250000X-0.225000X0.250000X0.225000X0*%
%ADD40RotRect,2.510000X1.000000X315.000000*%
%TA.AperFunction,Profile*%
%ADD41C,0.050000*%
%TD*%
G04 APERTURE END LIST*
D10*
%TO.C,BZ1*%
X161750000Y-114209080D03*
X156729540Y-119229540D03*
X166770460Y-119229540D03*
X161750000Y-124250000D03*
%TD*%
D11*
%TO.C,C31*%
X135675000Y-105480000D03*
X135675000Y-104520000D03*
%TD*%
D12*
%TO.C,J9*%
X164025000Y-110950000D03*
X164025000Y-110150000D03*
D13*
X164025000Y-109500000D03*
X164025000Y-108500000D03*
X164025000Y-107000000D03*
X164025000Y-106000000D03*
D12*
X164025000Y-105350000D03*
X164025000Y-104550000D03*
X164025000Y-104550000D03*
X164025000Y-105350000D03*
D13*
X164025000Y-106500000D03*
X164025000Y-107500000D03*
X164025000Y-108000000D03*
X164025000Y-109000000D03*
D12*
X164025000Y-110150000D03*
X164025000Y-110950000D03*
%TD*%
D14*
%TO.C,C30*%
X135675000Y-102520000D03*
X135675000Y-103480000D03*
%TD*%
D15*
%TO.C,C29*%
X138014411Y-104910589D03*
X137335589Y-105589411D03*
%TD*%
D16*
%TO.C,D3*%
X146485000Y-92475000D03*
X146485000Y-91525000D03*
X145535000Y-91525000D03*
X145535000Y-92475000D03*
%TD*%
D11*
%TO.C,C25*%
X153175000Y-101020000D03*
X153175000Y-101980000D03*
%TD*%
D17*
%TO.C,R31*%
X144250000Y-95759999D03*
X144250000Y-94740001D03*
%TD*%
D18*
%TO.C,J2*%
X153500000Y-128750000D03*
%TD*%
D19*
%TO.C,C24*%
X143155000Y-112750000D03*
X142195000Y-112750000D03*
%TD*%
D20*
%TO.C,R24*%
X141740000Y-95750000D03*
X142760000Y-95750000D03*
%TD*%
D21*
%TO.C,U8*%
X147640946Y-115387608D03*
X147287392Y-115034054D03*
D22*
X146739384Y-114857278D03*
X146385831Y-115210831D03*
X146032278Y-115564384D03*
D21*
X146209054Y-116112392D03*
X146562608Y-116465946D03*
D22*
X147110616Y-116642722D03*
X147464169Y-116289169D03*
X147817722Y-115935616D03*
%TD*%
D23*
%TO.C,U6*%
X140000000Y-101500000D03*
X140000000Y-102000000D03*
X140000000Y-102500000D03*
X140000000Y-103000000D03*
X140000000Y-103500000D03*
X140000000Y-104000000D03*
X140000000Y-104500000D03*
X140000000Y-105000000D03*
X140000000Y-105500000D03*
X140000000Y-106000000D03*
X140000000Y-106500000D03*
X140000000Y-107000000D03*
X140000000Y-107500000D03*
X140000000Y-108000000D03*
X140000000Y-108500000D03*
X140000000Y-109000000D03*
D24*
X141925000Y-110925000D03*
X142425000Y-110925000D03*
X142925000Y-110925000D03*
X143425000Y-110925000D03*
X143925000Y-110925000D03*
X144425000Y-110925000D03*
X144925000Y-110925000D03*
X145425000Y-110925000D03*
X145925000Y-110925000D03*
X146425000Y-110925000D03*
X146925000Y-110925000D03*
X147425000Y-110925000D03*
X147925000Y-110925000D03*
X148425000Y-110925000D03*
X148925000Y-110925000D03*
X149425000Y-110925000D03*
D23*
X151350000Y-109000000D03*
X151350000Y-108500000D03*
X151350000Y-108000000D03*
X151350000Y-107500000D03*
X151350000Y-107000000D03*
X151350000Y-106500000D03*
X151350000Y-106000000D03*
X151350000Y-105500000D03*
X151350000Y-105000000D03*
X151350000Y-104500000D03*
X151350000Y-104000000D03*
X151350000Y-103500000D03*
X151350000Y-103000000D03*
X151350000Y-102500000D03*
X151350000Y-102000000D03*
X151350000Y-101500000D03*
D24*
X149425000Y-99575000D03*
X148925000Y-99575000D03*
X148425000Y-99575000D03*
X147925000Y-99575000D03*
X147425000Y-99575000D03*
X146925000Y-99575000D03*
X146425000Y-99575000D03*
X145925000Y-99575000D03*
X145425000Y-99575000D03*
X144925000Y-99575000D03*
X144425000Y-99575000D03*
X143925000Y-99575000D03*
X143425000Y-99575000D03*
X142925000Y-99575000D03*
X142425000Y-99575000D03*
X141925000Y-99575000D03*
%TD*%
D25*
%TO.C,J5*%
X125750000Y-105250000D03*
%TD*%
D14*
%TO.C,C26*%
X138100000Y-107430000D03*
X138100000Y-106470000D03*
%TD*%
D26*
%TO.C,D5*%
X155083274Y-115666726D03*
X157416726Y-113333274D03*
%TD*%
D11*
%TO.C,C28*%
X134930001Y-108610000D03*
X134929999Y-109570000D03*
%TD*%
D27*
%TO.C,J3*%
X128043017Y-97777024D03*
%TD*%
D11*
%TO.C,C27*%
X136570001Y-108600000D03*
X136569999Y-109560000D03*
%TD*%
D28*
%TO.C,Q7*%
X154699999Y-113025000D03*
D29*
X153999999Y-112800000D03*
X153999999Y-113250000D03*
%TD*%
D18*
%TO.C,J1*%
X158000000Y-127000000D03*
%TD*%
D17*
%TO.C,R28*%
X166250000Y-101259999D03*
X166250000Y-100240001D03*
%TD*%
D19*
%TO.C,C35*%
X148630000Y-92850001D03*
X147670000Y-92849999D03*
%TD*%
D30*
%TO.C,C21*%
X138750000Y-99750000D03*
X136850002Y-99750000D03*
%TD*%
D19*
%TO.C,C34*%
X142930000Y-92900001D03*
X141970000Y-92899999D03*
%TD*%
D25*
%TO.C,J7*%
X125750000Y-109250000D03*
%TD*%
D31*
%TO.C,C20*%
X149525000Y-114500001D03*
X151075000Y-114499999D03*
%TD*%
D32*
%TO.C,R23*%
X140160000Y-95780000D03*
X140160000Y-96800000D03*
%TD*%
D33*
%TO.C,C22*%
X141440000Y-97830000D03*
X142400000Y-97830000D03*
%TD*%
D34*
%TO.C,FB1*%
X136537504Y-107300000D03*
X134962504Y-107300000D03*
%TD*%
D35*
%TO.C,Y1*%
X132325000Y-102650000D03*
X132325000Y-104850000D03*
X134025000Y-104850000D03*
X134025000Y-102650000D03*
%TD*%
D19*
%TO.C,C23*%
X150155000Y-112750000D03*
X149195000Y-112750000D03*
%TD*%
D17*
%TO.C,R27*%
X167500000Y-101259999D03*
X167500000Y-100240001D03*
%TD*%
D20*
%TO.C,R12*%
X139676880Y-125303122D03*
X140696878Y-125303122D03*
%TD*%
D36*
%TO.C,U7*%
X141883318Y-116147658D03*
X141529765Y-116501212D03*
X141176212Y-116854765D03*
X140822658Y-117208318D03*
D37*
X141176212Y-117791682D03*
X141529765Y-118145235D03*
X141883318Y-118498788D03*
D36*
X142466682Y-118852342D03*
X142820235Y-118498788D03*
X143173788Y-118145235D03*
X143527342Y-117791682D03*
D37*
X143173788Y-117208318D03*
X142820235Y-116854765D03*
X142466682Y-116501212D03*
%TD*%
D17*
%TO.C,R37*%
X154000000Y-111000000D03*
X154000000Y-109980002D03*
%TD*%
D32*
%TO.C,R34*%
X146675000Y-96740001D03*
X146675000Y-97759999D03*
%TD*%
D38*
%TO.C,R26*%
X154184999Y-104500000D03*
X153165001Y-104500000D03*
%TD*%
D32*
%TO.C,R32*%
X149190000Y-96640001D03*
X149190000Y-97659999D03*
%TD*%
D39*
%TO.C,C32*%
X159675000Y-108975000D03*
X159675000Y-110525000D03*
%TD*%
D16*
%TO.C,D2*%
X140875000Y-92455000D03*
X140875000Y-91505000D03*
X139925000Y-91505000D03*
X139925000Y-92455000D03*
%TD*%
%TO.C,D4*%
X151775000Y-92515000D03*
X151775000Y-91565000D03*
X150825000Y-91565000D03*
X150825000Y-92515000D03*
%TD*%
D27*
%TO.C,J4*%
X126500000Y-101250000D03*
%TD*%
D32*
%TO.C,R35*%
X145425000Y-96740001D03*
X145425000Y-97759999D03*
%TD*%
D38*
%TO.C,R36*%
X154184999Y-105750000D03*
X153165001Y-105750000D03*
%TD*%
D32*
%TO.C,R21*%
X159050000Y-94420000D03*
X159050000Y-95440000D03*
%TD*%
D38*
%TO.C,R25*%
X142259999Y-94250000D03*
X141240001Y-94250000D03*
%TD*%
D25*
%TO.C,J6*%
X125750003Y-107250000D03*
%TD*%
D40*
%TO.C,J8*%
X134500000Y-92250000D03*
X135044472Y-96386575D03*
X130907897Y-95842103D03*
%TD*%
D39*
%TO.C,C33*%
X157925000Y-108975000D03*
X157925000Y-110525000D03*
%TD*%
D32*
%TO.C,R33*%
X147925000Y-96740001D03*
X147925000Y-97759999D03*
%TD*%
D19*
%TO.C,C36*%
X153830000Y-92950001D03*
X152870000Y-92949999D03*
%TD*%
D41*
X158781189Y-132117589D02*
G75*
G02*
X156696039Y-132856031I-2016189J2379989D01*
G01*
X138696039Y-132856039D02*
G75*
G02*
X136610893Y-132117584I-68939J3118439D01*
G01*
X171509111Y-119389666D02*
X158781189Y-132117588D01*
X122968638Y-117373186D02*
X122968638Y-99373186D01*
X136471192Y-84573283D02*
G75*
G02*
X138556342Y-83834835I2016208J-2380017D01*
G01*
X122968638Y-99373186D02*
G75*
G02*
X123743253Y-97301199I3119162J14686D01*
G01*
X138556342Y-83838454D02*
X156838789Y-83838454D01*
X171651861Y-97304825D02*
X158923939Y-84576903D01*
X136613961Y-132113961D02*
X123886039Y-119386039D01*
X172426483Y-117376806D02*
X172426483Y-99376806D01*
X123886039Y-119386039D02*
G75*
G02*
X122968694Y-117373184I2195261J2215939D01*
G01*
X156696039Y-132856039D02*
X138696039Y-132856039D01*
X172426483Y-117376813D02*
G75*
G02*
X171509128Y-119389684I-3112683J203113D01*
G01*
X123743270Y-97301205D02*
X136471192Y-84573283D01*
X156838789Y-83838453D02*
G75*
G02*
X158923924Y-84576921I68911J-3118447D01*
G01*
X171651862Y-97304825D02*
G75*
G02*
X172426456Y-99376806I-2344562J-2057275D01*
G01*
M02*
