M48
; DRILL file {KiCad 9.0.2} date 2025-08-04T17:33:02-0700
; FORMAT={-:-/ absolute / metric / decimal}
; #@! TF.CreationDate,2025-08-04T17:33:02-07:00
; #@! TF.GenerationSoftware,Kicad,Pcbnew,9.0.2
; #@! TF.FileFunction,Plated,1,4,PTH
FMAT,2
METRIC
; #@! TA.AperFunction,Plated,PTH,ViaDrill
T1C0.300
; #@! TA.AperFunction,Plated,PTH,ComponentDrill
T2C0.300
; #@! TA.AperFunction,Plated,PTH,ViaDrill
T3C0.400
; #@! TA.AperFunction,Plated,PTH,ViaDrill
T4C0.500
; #@! TA.AperFunction,Plated,PTH,ViaDrill
T5C0.600
; #@! TA.AperFunction,Plated,PTH,ComponentDrill
T6C0.600
; #@! TA.AperFunction,Plated,PTH,ViaDrill
T7C0.700
; #@! TA.AperFunction,Plated,PTH,ViaDrill
T8C1.000
; #@! TA.AperFunction,Plated,PTH,ComponentDrill
T9C1.000
; #@! TA.AperFunction,Plated,PTH,ViaDrill
T10C1.200
%
G90
G05
T1
X132.33Y-103.85
X132.39Y-95.61
X134.11Y-93.79
X136.05Y-92.0
X136.568Y-93.442
X137.16Y-92.14
X137.24Y-88.025
X137.37Y-106.61
X138.0Y-92.0
X138.235Y-112.965
X138.26Y-88.025
X138.73Y-102.85
X138.8Y-101.99
X138.881Y-105.529
X139.27Y-112.65
X139.3Y-95.37
X139.43Y-118.57
X139.45Y-126.17
X139.98Y-110.25
X140.1Y-112.8
X140.7Y-113.7
X141.018Y-114.434
X141.09Y-97.05
X141.275Y-98.62
X141.36Y-124.39
X141.42Y-104.21
X141.45Y-106.23
X141.701Y-112.4
X141.759Y-117.316
X141.9Y-121.61
X142.067Y-90.9
X142.2Y-101.7
X142.45Y-109.61
X142.48Y-117.662
X142.945Y-114.626
X142.96Y-113.599
X143.046Y-119.555
X143.2Y-94.3
X143.217Y-100.835
X143.409Y-115.371
X143.446Y-95.247
X143.494Y-108.836
X143.787Y-127.693
X144.1Y-105.5
X144.12Y-120.55
X144.282Y-108.7
X144.6Y-113.4
X144.684Y-125.081
X144.862Y-115.335
X144.891Y-100.85
X144.99Y-118.84
X145.481Y-109.145
X145.737Y-112.332
X145.8Y-114.9
X146.072Y-101.774
X146.9Y-100.9
X147.074Y-115.778
X147.23Y-90.69
X147.32Y-112.36
X147.38Y-95.91
X147.525Y-109.273
X147.7Y-116.9
X147.849Y-101.7
X148.6Y-115.9
X149.17Y-113.38
X149.48Y-101.26
X150.052Y-113.402
X150.46Y-109.63
X151.09Y-115.87
X152.51Y-90.83
X152.61Y-109.68
X152.63Y-111.61
X153.72Y-116.38
X153.87Y-101.99
X153.9Y-101.02
X156.94Y-102.44
X159.03Y-93.62
X159.07Y-96.28
X168.39Y-100.2
X169.308Y-117.087
X169.37Y-113.35
T2
X166.115Y-114.61
X166.115Y-115.89
X167.085Y-114.61
X167.085Y-115.89
T3
X124.59Y-108.25
X126.505Y-110.517
X130.418Y-108.517
X133.53Y-109.575
X133.66Y-106.87
X135.66Y-101.34
X135.74Y-109.6
X136.39Y-112.575
X136.5Y-106.04
X139.09Y-98.01
X140.0Y-111.68
X140.09Y-127.19
X140.19Y-121.94
X142.83Y-124.53
X143.8Y-92.67
X145.55Y-126.8
X146.39Y-122.06
X146.575Y-104.625
X147.43Y-107.98
X147.98Y-106.249
X149.02Y-127.89
X149.51Y-92.85
X149.89Y-104.41
X151.46Y-122.02
X151.78Y-98.75
X153.32Y-94.0
X154.01Y-106.95
X155.72Y-113.04
X156.65Y-114.1
X156.68Y-110.52
X160.714Y-115.656
X161.44Y-109.12
X162.06Y-111.16
X162.69Y-106.35
X163.97Y-117.62
T4
X139.99Y-124.28
X144.4Y-104.1
X153.86Y-99.14
X157.657Y-95.459
T5
X129.36Y-115.99
X136.55Y-114.37
X137.8Y-98.43
X138.968Y-90.845
X140.29Y-85.93
X149.96Y-122.51
X151.01Y-118.21
X153.4Y-121.3
X153.58Y-85.98
X155.78Y-88.9
X160.95Y-97.49
X161.67Y-101.56
T7
X135.19Y-119.05
T8
X130.55Y-97.64
X133.49Y-100.53
T9
X159.204Y-89.204
X161.0Y-91.0
X162.796Y-92.796
X164.592Y-94.592
X166.388Y-96.388
T10
X136.55Y-128.95
X148.86Y-125.62
X156.7Y-124.11
T6
G00X164.075Y-103.43
M15
G01X165.175Y-103.43
M16
G05
G00X164.075Y-112.07
M15
G01X165.175Y-112.07
M16
G05
G00X168.425Y-103.43
M15
G01X169.225Y-103.43
M16
G05
G00X168.425Y-112.07
M15
G01X169.225Y-112.07
M16
G05
M30
